  999
file created by gear template generator
  0
SECTION
  2
HEADER
  9
$ACADVER
  1
AC1006
  9
$INSBASE
  10
0.0
  20
0.0
  30
0.0
  9
$EXTMIN
  10
0.0
  20
0.0
  9
$EXTMAX
  10
10000.0
  20
10000.0
  0
ENDSEC
  0
SECTION
  2
ENTITIES
  0
LINE
  8
0
  10
8.56227
  20
4.75703
  30
0
  11
8.56227
  21
4.75703
  31
0
  0
LINE
  8
0
  10
8.56227
  20
4.75703
  30
0
  11
8.57646
  21
4.7569
  31
0
  0
LINE
  8
0
  10
8.57646
  20
4.7569
  30
0
  11
8.59068
  21
4.75611
  31
0
  0
LINE
  8
0
  10
8.59068
  20
4.75611
  30
0
  11
8.60492
  21
4.75489
  31
0
  0
LINE
  8
0
  10
8.60492
  20
4.75489
  30
0
  11
8.63345
  21
4.75142
  31
0
  0
LINE
  8
0
  10
8.63345
  20
4.75142
  30
0
  11
8.66203
  21
4.74682
  31
0
  0
LINE
  8
0
  10
8.66203
  20
4.74682
  30
0
  11
8.69063
  21
4.74126
  31
0
  0
LINE
  8
0
  10
8.69063
  20
4.74126
  30
0
  11
8.74791
  21
4.7276
  31
0
  0
LINE
  8
0
  10
8.74791
  20
4.7276
  30
0
  11
8.80523
  21
4.71096
  31
0
  0
LINE
  8
0
  10
8.80523
  20
4.71096
  30
0
  11
8.86254
  21
4.69162
  31
0
  0
LINE
  8
0
  10
8.86254
  20
4.69162
  30
0
  11
8.91982
  21
4.66979
  31
0
  0
LINE
  8
0
  10
8.91982
  20
4.66979
  30
0
  11
8.97701
  21
4.6456
  31
0
  0
LINE
  8
0
  10
8.97701
  20
4.6456
  30
0
  11
9.03409
  21
4.61916
  31
0
  0
LINE
  8
0
  10
9.03409
  20
4.61916
  30
0
  11
9.09101
  21
4.59056
  31
0
  0
LINE
  8
0
  10
9.09101
  20
4.59056
  30
0
  11
9.13358
  21
4.56773
  31
0
  0
LINE
  8
0
  10
9.13358
  20
4.56773
  30
0
  11
9.12522
  21
4.29055
  31
0
  0
LINE
  8
0
  10
9.12522
  20
4.29055
  30
0
  11
9.08135
  21
4.27033
  31
0
  0
LINE
  8
0
  10
9.08135
  20
4.27033
  30
0
  11
9.0228
  21
4.24521
  31
0
  0
LINE
  8
0
  10
9.0228
  20
4.24521
  30
0
  11
8.96424
  21
4.22227
  31
0
  0
LINE
  8
0
  10
8.96424
  20
4.22227
  30
0
  11
8.90569
  21
4.20157
  31
0
  0
LINE
  8
0
  10
8.90569
  20
4.20157
  30
0
  11
8.84721
  21
4.18323
  31
0
  0
LINE
  8
0
  10
8.84721
  20
4.18323
  30
0
  11
8.78883
  21
4.16738
  31
0
  0
LINE
  8
0
  10
8.78883
  20
4.16738
  30
0
  11
8.73061
  21
4.15423
  31
0
  0
LINE
  8
0
  10
8.73061
  20
4.15423
  30
0
  11
8.67261
  21
4.14405
  31
0
  0
LINE
  8
0
  10
8.67261
  20
4.14405
  30
0
  11
8.64373
  21
4.14022
  31
0
  0
LINE
  8
0
  10
8.64373
  20
4.14022
  30
0
  11
8.61493
  21
4.13735
  31
0
  0
LINE
  8
0
  10
8.61493
  20
4.13735
  30
0
  11
8.58624
  21
4.13561
  31
0
  0
LINE
  8
0
  10
8.58624
  20
4.13561
  30
0
  11
8.57195
  21
4.13524
  31
0
  0
LINE
  8
0
  10
8.57195
  20
4.13524
  30
0
  11
8.55771
  21
4.13532
  31
0
  0
LINE
  8
0
  10
8.55771
  20
4.13532
  30
0
  11
8.54353
  21
4.13604
  31
0
  0
LINE
  8
0
  10
8.54353
  20
4.13604
  30
0
  11
8.48405
  21
3.75741
  31
0
  0
LINE
  8
0
  10
8.48405
  20
3.75741
  30
0
  11
8.49777
  21
3.75376
  31
0
  0
LINE
  8
0
  10
8.49777
  20
3.75376
  30
0
  11
8.51135
  21
3.74946
  31
0
  0
LINE
  8
0
  10
8.51135
  20
3.74946
  30
0
  11
8.52484
  21
3.74474
  31
0
  0
LINE
  8
0
  10
8.52484
  20
3.74474
  30
0
  11
8.55161
  21
3.73428
  31
0
  0
LINE
  8
0
  10
8.55161
  20
3.73428
  30
0
  11
8.57814
  21
3.72272
  31
0
  0
LINE
  8
0
  10
8.57814
  20
3.72272
  30
0
  11
8.60446
  21
3.71022
  31
0
  0
LINE
  8
0
  10
8.60446
  20
3.71022
  30
0
  11
8.65654
  21
3.68275
  31
0
  0
LINE
  8
0
  10
8.65654
  20
3.68275
  30
0
  11
8.70792
  21
3.65237
  31
0
  0
LINE
  8
0
  10
8.70792
  20
3.65237
  30
0
  11
8.75863
  21
3.61939
  31
0
  0
LINE
  8
0
  10
8.75863
  20
3.61939
  30
0
  11
8.80867
  21
3.584
  31
0
  0
LINE
  8
0
  10
8.80867
  20
3.584
  30
0
  11
8.85805
  21
3.54635
  31
0
  0
LINE
  8
0
  10
8.85805
  20
3.54635
  30
0
  11
8.90676
  21
3.50655
  31
0
  0
LINE
  8
0
  10
8.90676
  20
3.50655
  30
0
  11
8.95478
  21
3.46469
  31
0
  0
LINE
  8
0
  10
8.95478
  20
3.46469
  30
0
  11
8.99034
  21
3.43199
  31
0
  0
LINE
  8
0
  10
8.99034
  20
3.43199
  30
0
  11
8.91331
  21
3.1656
  31
0
  0
LINE
  8
0
  10
8.91331
  20
3.1656
  30
0
  11
8.86579
  21
3.15692
  31
0
  0
LINE
  8
0
  10
8.86579
  20
3.15692
  30
0
  11
8.80284
  21
3.14715
  31
0
  0
LINE
  8
0
  10
8.80284
  20
3.14715
  30
0
  11
8.7404
  21
3.13949
  31
0
  0
LINE
  8
0
  10
8.7404
  20
3.13949
  30
0
  11
8.67855
  21
3.134
  31
0
  0
LINE
  8
0
  10
8.67855
  20
3.134
  30
0
  11
8.61734
  21
3.13078
  31
0
  0
LINE
  8
0
  10
8.61734
  20
3.13078
  30
0
  11
8.55686
  21
3.12995
  31
0
  0
LINE
  8
0
  10
8.55686
  20
3.12995
  30
0
  11
8.4972
  21
3.13169
  31
0
  0
LINE
  8
0
  10
8.4972
  20
3.13169
  30
0
  11
8.43849
  21
3.13625
  31
0
  0
LINE
  8
0
  10
8.43849
  20
3.13625
  30
0
  11
8.40956
  21
3.13973
  31
0
  0
LINE
  8
0
  10
8.40956
  20
3.13973
  30
0
  11
8.38095
  21
3.14411
  31
0
  0
LINE
  8
0
  10
8.38095
  20
3.14411
  30
0
  11
8.35273
  21
3.14956
  31
0
  0
LINE
  8
0
  10
8.35273
  20
3.14956
  30
0
  11
8.3388
  21
3.15276
  31
0
  0
LINE
  8
0
  10
8.3388
  20
3.15276
  30
0
  11
8.32502
  21
3.15637
  31
0
  0
LINE
  8
0
  10
8.32502
  20
3.15637
  30
0
  11
8.31147
  21
3.1606
  31
0
  0
LINE
  8
0
  10
8.31147
  20
3.1606
  30
0
  11
8.1597
  21
2.80866
  31
0
  0
LINE
  8
0
  10
8.1597
  20
2.80866
  30
0
  11
8.17208
  21
2.80171
  31
0
  0
LINE
  8
0
  10
8.17208
  20
2.80171
  30
0
  11
8.18416
  21
2.79417
  31
0
  0
LINE
  8
0
  10
8.18416
  20
2.79417
  30
0
  11
8.19605
  21
2.78624
  31
0
  0
LINE
  8
0
  10
8.19605
  20
2.78624
  30
0
  11
8.21938
  21
2.76945
  31
0
  0
LINE
  8
0
  10
8.21938
  20
2.76945
  30
0
  11
8.2422
  21
2.75166
  31
0
  0
LINE
  8
0
  10
8.2422
  20
2.75166
  30
0
  11
8.26459
  21
2.733
  31
0
  0
LINE
  8
0
  10
8.26459
  20
2.733
  30
0
  11
8.3082
  21
2.69344
  31
0
  0
LINE
  8
0
  10
8.3082
  20
2.69344
  30
0
  11
8.35041
  21
2.65124
  31
0
  0
LINE
  8
0
  10
8.35041
  20
2.65124
  30
0
  11
8.39133
  21
2.60669
  31
0
  0
LINE
  8
0
  10
8.39133
  20
2.60669
  30
0
  11
8.431
  21
2.55996
  31
0
  0
LINE
  8
0
  10
8.431
  20
2.55996
  30
0
  11
8.46946
  21
2.51121
  31
0
  0
LINE
  8
0
  10
8.46946
  20
2.51121
  30
0
  11
8.50674
  21
2.46055
  31
0
  0
LINE
  8
0
  10
8.50674
  20
2.46055
  30
0
  11
8.54285
  21
2.40806
  31
0
  0
LINE
  8
0
  10
8.54285
  20
2.40806
  30
0
  11
8.56915
  21
2.36755
  31
0
  0
LINE
  8
0
  10
8.56915
  20
2.36755
  30
0
  11
8.42829
  21
2.12868
  31
0
  0
LINE
  8
0
  10
8.42829
  20
2.12868
  30
0
  11
8.38011
  21
2.1321
  31
0
  0
LINE
  8
0
  10
8.38011
  20
2.1321
  30
0
  11
8.3167
  21
2.13829
  31
0
  0
LINE
  8
0
  10
8.3167
  20
2.13829
  30
0
  11
8.25433
  21
2.14639
  31
0
  0
LINE
  8
0
  10
8.25433
  20
2.14639
  30
0
  11
8.19305
  21
2.15646
  31
0
  0
LINE
  8
0
  10
8.19305
  20
2.15646
  30
0
  11
8.13296
  21
2.16857
  31
0
  0
LINE
  8
0
  10
8.13296
  20
2.16857
  30
0
  11
8.07417
  21
2.1828
  31
0
  0
LINE
  8
0
  10
8.07417
  20
2.1828
  30
0
  11
8.01682
  21
2.19932
  31
0
  0
LINE
  8
0
  10
8.01682
  20
2.19932
  30
0
  11
7.96109
  21
2.21834
  31
0
  0
LINE
  8
0
  10
7.96109
  20
2.21834
  30
0
  11
7.93393
  21
2.2289
  31
0
  0
LINE
  8
0
  10
7.93393
  20
2.2289
  30
0
  11
7.90732
  21
2.24027
  31
0
  0
LINE
  8
0
  10
7.90732
  20
2.24027
  30
0
  11
7.88134
  21
2.25256
  31
0
  0
LINE
  8
0
  10
7.88134
  20
2.25256
  30
0
  11
7.86864
  21
2.25912
  31
0
  0
LINE
  8
0
  10
7.86864
  20
2.25912
  30
0
  11
7.85619
  21
2.26605
  31
0
  0
LINE
  8
0
  10
7.85619
  20
2.26605
  30
0
  11
7.84412
  21
2.27351
  31
0
  0
LINE
  8
0
  10
7.84412
  20
2.27351
  30
0
  11
7.60959
  21
1.97037
  31
0
  0
LINE
  8
0
  10
7.60959
  20
1.97037
  30
0
  11
7.61985
  21
1.96057
  31
0
  0
LINE
  8
0
  10
7.61985
  20
1.96057
  30
0
  11
7.62968
  21
1.95026
  31
0
  0
LINE
  8
0
  10
7.62968
  20
1.95026
  30
0
  11
7.63922
  21
1.93961
  31
0
  0
LINE
  8
0
  10
7.63922
  20
1.93961
  30
0
  11
7.65765
  21
1.91756
  31
0
  0
LINE
  8
0
  10
7.65765
  20
1.91756
  30
0
  11
7.67533
  21
1.89464
  31
0
  0
LINE
  8
0
  10
7.67533
  20
1.89464
  30
0
  11
7.69237
  21
1.87101
  31
0
  0
LINE
  8
0
  10
7.69237
  20
1.87101
  30
0
  11
7.72478
  21
1.82184
  31
0
  0
LINE
  8
0
  10
7.72478
  20
1.82184
  30
0
  11
7.75517
  21
1.77047
  31
0
  0
LINE
  8
0
  10
7.75517
  20
1.77047
  30
0
  11
7.78371
  21
1.71714
  31
0
  0
LINE
  8
0
  10
7.78371
  20
1.71714
  30
0
  11
7.81052
  21
1.66202
  31
0
  0
LINE
  8
0
  10
7.81052
  20
1.66202
  30
0
  11
7.83565
  21
1.60524
  31
0
  0
LINE
  8
0
  10
7.83565
  20
1.60524
  30
0
  11
7.85916
  21
1.5469
  31
0
  0
LINE
  8
0
  10
7.85916
  20
1.5469
  30
0
  11
7.88108
  21
1.48708
  31
0
  0
LINE
  8
0
  10
7.88108
  20
1.48708
  30
0
  11
7.89648
  21
1.4413
  31
0
  0
LINE
  8
0
  10
7.89648
  20
1.4413
  30
0
  11
7.70064
  21
1.24496
  31
0
  0
LINE
  8
0
  10
7.70064
  20
1.24496
  30
0
  11
7.65482
  21
1.26025
  31
0
  0
LINE
  8
0
  10
7.65482
  20
1.26025
  30
0
  11
7.59495
  21
1.28202
  31
0
  0
LINE
  8
0
  10
7.59495
  20
1.28202
  30
0
  11
7.53655
  21
1.30538
  31
0
  0
LINE
  8
0
  10
7.53655
  20
1.30538
  30
0
  11
7.4797
  21
1.33037
  31
0
  0
LINE
  8
0
  10
7.4797
  20
1.33037
  30
0
  11
7.42451
  21
1.35704
  31
0
  0
LINE
  8
0
  10
7.42451
  20
1.35704
  30
0
  11
7.37111
  21
1.38545
  31
0
  0
LINE
  8
0
  10
7.37111
  20
1.38545
  30
0
  11
7.31966
  21
1.41571
  31
0
  0
LINE
  8
0
  10
7.31966
  20
1.41571
  30
0
  11
7.27042
  21
1.44799
  31
0
  0
LINE
  8
0
  10
7.27042
  20
1.44799
  30
0
  11
7.24674
  21
1.46498
  31
0
  0
LINE
  8
0
  10
7.24674
  20
1.46498
  30
0
  11
7.22378
  21
1.4826
  31
0
  0
LINE
  8
0
  10
7.22378
  20
1.4826
  30
0
  11
7.20168
  21
1.50097
  31
0
  0
LINE
  8
0
  10
7.20168
  20
1.50097
  30
0
  11
7.19101
  21
1.51049
  31
0
  0
LINE
  8
0
  10
7.19101
  20
1.51049
  30
0
  11
7.18068
  21
1.52029
  31
0
  0
LINE
  8
0
  10
7.18068
  20
1.52029
  30
0
  11
7.17085
  21
1.53052
  31
0
  0
LINE
  8
0
  10
7.17085
  20
1.53052
  30
0
  11
6.8683
  21
1.29523
  31
0
  0
LINE
  8
0
  10
6.8683
  20
1.29523
  30
0
  11
6.87579
  21
1.28318
  31
0
  0
LINE
  8
0
  10
6.87579
  20
1.28318
  30
0
  11
6.88275
  21
1.27075
  31
0
  0
LINE
  8
0
  10
6.88275
  20
1.27075
  30
0
  11
6.88935
  21
1.25807
  31
0
  0
LINE
  8
0
  10
6.88935
  20
1.25807
  30
0
  11
6.9017
  21
1.23212
  31
0
  0
LINE
  8
0
  10
6.9017
  20
1.23212
  30
0
  11
6.91313
  21
1.20553
  31
0
  0
LINE
  8
0
  10
6.91313
  20
1.20553
  30
0
  11
6.92376
  21
1.1784
  31
0
  0
LINE
  8
0
  10
6.92376
  20
1.1784
  30
0
  11
6.94292
  21
1.12272
  31
0
  0
LINE
  8
0
  10
6.94292
  20
1.12272
  30
0
  11
6.95958
  21
1.06541
  31
0
  0
LINE
  8
0
  10
6.95958
  20
1.06541
  30
0
  11
6.97397
  21
1.00665
  31
0
  0
LINE
  8
0
  10
6.97397
  20
1.00665
  30
0
  11
6.98622
  21
0.9466
  31
0
  0
LINE
  8
0
  10
6.98622
  20
0.9466
  30
0
  11
6.99645
  21
0.88535
  31
0
  0
LINE
  8
0
  10
6.99645
  20
0.88535
  30
0
  11
7.00471
  21
0.82299
  31
0
  0
LINE
  8
0
  10
7.00471
  20
0.82299
  30
0
  11
7.01106
  21
0.7596
  31
0
  0
LINE
  8
0
  10
7.01106
  20
0.7596
  30
0
  11
7.0146
  21
0.71143
  31
0
  0
LINE
  8
0
  10
7.0146
  20
0.71143
  30
0
  11
6.77608
  21
0.56997
  31
0
  0
LINE
  8
0
  10
6.77608
  20
0.56997
  30
0
  11
6.7355
  21
0.59617
  31
0
  0
LINE
  8
0
  10
6.7355
  20
0.59617
  30
0
  11
6.68293
  21
0.63214
  31
0
  0
LINE
  8
0
  10
6.68293
  20
0.63214
  30
0
  11
6.63217
  21
0.6693
  31
0
  0
LINE
  8
0
  10
6.63217
  20
0.6693
  30
0
  11
6.58332
  21
0.70764
  31
0
  0
LINE
  8
0
  10
6.58332
  20
0.70764
  30
0
  11
6.5365
  21
0.74719
  31
0
  0
LINE
  8
0
  10
6.5365
  20
0.74719
  30
0
  11
6.49184
  21
0.78799
  31
0
  0
LINE
  8
0
  10
6.49184
  20
0.78799
  30
0
  11
6.44954
  21
0.8301
  31
0
  0
LINE
  8
0
  10
6.44954
  20
0.8301
  30
0
  11
6.40987
  21
0.87361
  31
0
  0
LINE
  8
0
  10
6.40987
  20
0.87361
  30
0
  11
6.39116
  21
0.89595
  31
0
  0
LINE
  8
0
  10
6.39116
  20
0.89595
  30
0
  11
6.3733
  21
0.91873
  31
0
  0
LINE
  8
0
  10
6.3733
  20
0.91873
  30
0
  11
6.35646
  21
0.94202
  31
0
  0
LINE
  8
0
  10
6.35646
  20
0.94202
  30
0
  11
6.3485
  21
0.95389
  31
0
  0
LINE
  8
0
  10
6.3485
  20
0.95389
  30
0
  11
6.34092
  21
0.96595
  31
0
  0
LINE
  8
0
  10
6.34092
  20
0.96595
  30
0
  11
6.33395
  21
0.97831
  31
0
  0
LINE
  8
0
  10
6.33395
  20
0.97831
  30
0
  11
5.98239
  21
0.82565
  31
0
  0
LINE
  8
0
  10
5.98239
  20
0.82565
  30
0
  11
5.98665
  21
0.81212
  31
0
  0
LINE
  8
0
  10
5.98665
  20
0.81212
  30
0
  11
5.9903
  21
0.79835
  31
0
  0
LINE
  8
0
  10
5.9903
  20
0.79835
  30
0
  11
5.99353
  21
0.78442
  31
0
  0
LINE
  8
0
  10
5.99353
  20
0.78442
  30
0
  11
5.99905
  21
0.75622
  31
0
  0
LINE
  8
0
  10
5.99905
  20
0.75622
  30
0
  11
6.00351
  21
0.72762
  31
0
  0
LINE
  8
0
  10
6.00351
  20
0.72762
  30
0
  11
6.00705
  21
0.6987
  31
0
  0
LINE
  8
0
  10
6.00705
  20
0.6987
  30
0
  11
6.01177
  21
0.64
  31
0
  0
LINE
  8
0
  10
6.01177
  20
0.64
  30
0
  11
6.01365
  21
0.58035
  31
0
  0
LINE
  8
0
  10
6.01365
  20
0.58035
  30
0
  11
6.01297
  21
0.51986
  31
0
  0
LINE
  8
0
  10
6.01297
  20
0.51986
  30
0
  11
6.00991
  21
0.45864
  31
0
  0
LINE
  8
0
  10
6.00991
  20
0.45864
  30
0
  11
6.00458
  21
0.39678
  31
0
  0
LINE
  8
0
  10
6.00458
  20
0.39678
  30
0
  11
5.99707
  21
0.33432
  31
0
  0
LINE
  8
0
  10
5.99707
  20
0.33432
  30
0
  11
5.98746
  21
0.27135
  31
0
  0
LINE
  8
0
  10
5.98746
  20
0.27135
  30
0
  11
5.9789
  21
0.22381
  31
0
  0
LINE
  8
0
  10
5.9789
  20
0.22381
  30
0
  11
5.7127
  21
0.14611
  31
0
  0
LINE
  8
0
  10
5.7127
  20
0.14611
  30
0
  11
5.67992
  21
0.18158
  31
0
  0
LINE
  8
0
  10
5.67992
  20
0.18158
  30
0
  11
5.63794
  21
0.2295
  31
0
  0
LINE
  8
0
  10
5.63794
  20
0.2295
  30
0
  11
5.59801
  21
0.2781
  31
0
  0
LINE
  8
0
  10
5.59801
  20
0.2781
  30
0
  11
5.56024
  21
0.32739
  31
0
  0
LINE
  8
0
  10
5.56024
  20
0.32739
  30
0
  11
5.52472
  21
0.37735
  31
0
  0
LINE
  8
0
  10
5.52472
  20
0.37735
  30
0
  11
5.49161
  21
0.42797
  31
0
  0
LINE
  8
0
  10
5.49161
  20
0.42797
  30
0
  11
5.46111
  21
0.47927
  31
0
  0
LINE
  8
0
  10
5.46111
  20
0.47927
  30
0
  11
5.43351
  21
0.53128
  31
0
  0
LINE
  8
0
  10
5.43351
  20
0.53128
  30
0
  11
5.42094
  21
0.55758
  31
0
  0
LINE
  8
0
  10
5.42094
  20
0.55758
  30
0
  11
5.40931
  21
0.58408
  31
0
  0
LINE
  8
0
  10
5.40931
  20
0.58408
  30
0
  11
5.39879
  21
0.61082
  31
0
  0
LINE
  8
0
  10
5.39879
  20
0.61082
  30
0
  11
5.39403
  21
0.6243
  31
0
  0
LINE
  8
0
  10
5.39403
  20
0.6243
  30
0
  11
5.38969
  21
0.63787
  31
0
  0
LINE
  8
0
  10
5.38969
  20
0.63787
  30
0
  11
5.38601
  21
0.65158
  31
0
  0
LINE
  8
0
  10
5.38601
  20
0.65158
  30
0
  11
5.00753
  21
0.59114
  31
0
  0
LINE
  8
0
  10
5.00753
  20
0.59114
  30
0
  11
5.00829
  21
0.57697
  31
0
  0
LINE
  8
0
  10
5.00829
  20
0.57697
  30
0
  11
5.0084
  21
0.56273
  31
0
  0
LINE
  8
0
  10
5.0084
  20
0.56273
  30
0
  11
5.00807
  21
0.54844
  31
0
  0
LINE
  8
0
  10
5.00807
  20
0.54844
  30
0
  11
5.0064
  21
0.51975
  31
0
  0
LINE
  8
0
  10
5.0064
  20
0.51975
  30
0
  11
5.00361
  21
0.49094
  31
0
  0
LINE
  8
0
  10
5.00361
  20
0.49094
  30
0
  11
4.99985
  21
0.46204
  31
0
  0
LINE
  8
0
  10
4.99985
  20
0.46204
  30
0
  11
4.98982
  21
0.40402
  31
0
  0
LINE
  8
0
  10
4.98982
  20
0.40402
  30
0
  11
4.97681
  21
0.34577
  31
0
  0
LINE
  8
0
  10
4.97681
  20
0.34577
  30
0
  11
4.96111
  21
0.28735
  31
0
  0
LINE
  8
0
  10
4.96111
  20
0.28735
  30
0
  11
4.94291
  21
0.22882
  31
0
  0
LINE
  8
0
  10
4.94291
  20
0.22882
  30
0
  11
4.92237
  21
0.17022
  31
0
  0
LINE
  8
0
  10
4.92237
  20
0.17022
  30
0
  11
4.89956
  21
0.1116
  31
0
  0
LINE
  8
0
  10
4.89956
  20
0.1116
  30
0
  11
4.8746
  21
0.05299
  31
0
  0
LINE
  8
0
  10
4.8746
  20
0.05299
  30
0
  11
4.85448
  21
0.00907
  31
0
  0
LINE
  8
0
  10
4.85448
  20
0.00907
  30
0
  11
4.57732
  21
0.00001
  31
0
  0
LINE
  8
0
  10
4.57732
  20
0.00001
  30
0
  11
4.55439
  21
0.04253
  31
0
  0
LINE
  8
0
  10
4.55439
  20
0.04253
  30
0
  11
4.52564
  21
0.09938
  31
0
  0
LINE
  8
0
  10
4.52564
  20
0.09938
  30
0
  11
4.49906
  21
0.15639
  31
0
  0
LINE
  8
0
  10
4.49906
  20
0.15639
  30
0
  11
4.47473
  21
0.21352
  31
0
  0
LINE
  8
0
  10
4.47473
  20
0.21352
  30
0
  11
4.45276
  21
0.27074
  31
0
  0
LINE
  8
0
  10
4.45276
  20
0.27074
  30
0
  11
4.43327
  21
0.328
  31
0
  0
LINE
  8
0
  10
4.43327
  20
0.328
  30
0
  11
4.41649
  21
0.38528
  31
0
  0
LINE
  8
0
  10
4.41649
  20
0.38528
  30
0
  11
4.40269
  21
0.44252
  31
0
  0
LINE
  8
0
  10
4.40269
  20
0.44252
  30
0
  11
4.39705
  21
0.47111
  31
0
  0
LINE
  8
0
  10
4.39705
  20
0.47111
  30
0
  11
4.39238
  21
0.49968
  31
0
  0
LINE
  8
0
  10
4.39238
  20
0.49968
  30
0
  11
4.38884
  21
0.5282
  31
0
  0
LINE
  8
0
  10
4.38884
  20
0.5282
  30
0
  11
4.38758
  21
0.54244
  31
0
  0
LINE
  8
0
  10
4.38758
  20
0.54244
  30
0
  11
4.38676
  21
0.55666
  31
0
  0
LINE
  8
0
  10
4.38676
  20
0.55666
  30
0
  11
4.3866
  21
0.57085
  31
0
  0
LINE
  8
0
  10
4.3866
  20
0.57085
  30
0
  11
4.00498
  21
0.60644
  31
0
  0
LINE
  8
0
  10
4.00498
  20
0.60644
  30
0
  11
4.0022
  21
0.59252
  31
0
  0
LINE
  8
0
  10
4.0022
  20
0.59252
  30
0
  11
3.99876
  21
0.5787
  31
0
  0
LINE
  8
0
  10
3.99876
  20
0.5787
  30
0
  11
3.99489
  21
0.56494
  31
0
  0
LINE
  8
0
  10
3.99489
  20
0.56494
  30
0
  11
3.98613
  21
0.53756
  31
0
  0
LINE
  8
0
  10
3.98613
  20
0.53756
  30
0
  11
3.97626
  21
0.51036
  31
0
  0
LINE
  8
0
  10
3.97626
  20
0.51036
  30
0
  11
3.96544
  21
0.4833
  31
0
  0
LINE
  8
0
  10
3.96544
  20
0.4833
  30
0
  11
3.94129
  21
0.4296
  31
0
  0
LINE
  8
0
  10
3.94129
  20
0.4296
  30
0
  11
3.9142
  21
0.37641
  31
0
  0
LINE
  8
0
  10
3.9142
  20
0.37641
  30
0
  11
3.88447
  21
0.32374
  31
0
  0
LINE
  8
0
  10
3.88447
  20
0.32374
  30
0
  11
3.85229
  21
0.27157
  31
0
  0
LINE
  8
0
  10
3.85229
  20
0.27157
  30
0
  11
3.81781
  21
0.21992
  31
0
  0
LINE
  8
0
  10
3.81781
  20
0.21992
  30
0
  11
3.78115
  21
0.16881
  31
0
  0
LINE
  8
0
  10
3.78115
  20
0.16881
  30
0
  11
3.74239
  21
0.11825
  31
0
  0
LINE
  8
0
  10
3.74239
  20
0.11825
  30
0
  11
3.71199
  21
0.08071
  31
0
  0
LINE
  8
0
  10
3.71199
  20
0.08071
  30
0
  11
3.44128
  21
0.14087
  31
0
  0
LINE
  8
0
  10
3.44128
  20
0.14087
  30
0
  11
3.42964
  21
0.18775
  31
0
  0
LINE
  8
0
  10
3.42964
  20
0.18775
  30
0
  11
3.41594
  21
0.24996
  31
0
  0
LINE
  8
0
  10
3.41594
  20
0.24996
  30
0
  11
3.40437
  21
0.31179
  31
0
  0
LINE
  8
0
  10
3.40437
  20
0.31179
  30
0
  11
3.39501
  21
0.37318
  31
0
  0
LINE
  8
0
  10
3.39501
  20
0.37318
  30
0
  11
3.38795
  21
0.43406
  31
0
  0
LINE
  8
0
  10
3.38795
  20
0.43406
  30
0
  11
3.38333
  21
0.49438
  31
0
  0
LINE
  8
0
  10
3.38333
  20
0.49438
  30
0
  11
3.38131
  21
0.55403
  31
0
  0
LINE
  8
0
  10
3.38131
  20
0.55403
  30
0
  11
3.38218
  21
0.61291
  31
0
  0
LINE
  8
0
  10
3.38218
  20
0.61291
  30
0
  11
3.38383
  21
0.642
  31
0
  0
LINE
  8
0
  10
3.38383
  20
0.642
  30
0
  11
3.38641
  21
0.67083
  31
0
  0
LINE
  8
0
  10
3.38641
  20
0.67083
  30
0
  11
3.39007
  21
0.69933
  31
0
  0
LINE
  8
0
  10
3.39007
  20
0.69933
  30
0
  11
3.3924
  21
0.71344
  31
0
  0
LINE
  8
0
  10
3.3924
  20
0.71344
  30
0
  11
3.39514
  21
0.72741
  31
0
  0
LINE
  8
0
  10
3.39514
  20
0.72741
  30
0
  11
3.39851
  21
0.7412
  31
0
  0
LINE
  8
0
  10
3.39851
  20
0.7412
  30
0
  11
3.03773
  21
0.87058
  31
0
  0
LINE
  8
0
  10
3.03773
  20
0.87058
  30
0
  11
3.03157
  21
0.85779
  31
0
  0
LINE
  8
0
  10
3.03157
  20
0.85779
  30
0
  11
3.0248
  21
0.84526
  31
0
  0
LINE
  8
0
  10
3.0248
  20
0.84526
  30
0
  11
3.01763
  21
0.83289
  31
0
  0
LINE
  8
0
  10
3.01763
  20
0.83289
  30
0
  11
3.00235
  21
0.80855
  31
0
  0
LINE
  8
0
  10
3.00235
  20
0.80855
  30
0
  11
2.98602
  21
0.78466
  31
0
  0
LINE
  8
0
  10
2.98602
  20
0.78466
  30
0
  11
2.96881
  21
0.76114
  31
0
  0
LINE
  8
0
  10
2.96881
  20
0.76114
  30
0
  11
2.93206
  21
0.71513
  31
0
  0
LINE
  8
0
  10
2.93206
  20
0.71513
  30
0
  11
2.8926
  21
0.67035
  31
0
  0
LINE
  8
0
  10
2.8926
  20
0.67035
  30
0
  11
2.8507
  21
0.62673
  31
0
  0
LINE
  8
0
  10
2.8507
  20
0.62673
  30
0
  11
2.80656
  21
0.5842
  31
0
  0
LINE
  8
0
  10
2.80656
  20
0.5842
  30
0
  11
2.76032
  21
0.54275
  31
0
  0
LINE
  8
0
  10
2.76032
  20
0.54275
  30
0
  11
2.7121
  21
0.50236
  31
0
  0
LINE
  8
0
  10
2.7121
  20
0.50236
  30
0
  11
2.66198
  21
0.46303
  31
0
  0
LINE
  8
0
  10
2.66198
  20
0.46303
  30
0
  11
2.6232
  21
0.43423
  31
0
  0
LINE
  8
0
  10
2.6232
  20
0.43423
  30
0
  11
2.37596
  21
0.55982
  31
0
  0
LINE
  8
0
  10
2.37596
  20
0.55982
  30
0
  11
2.37634
  21
0.60812
  31
0
  0
LINE
  8
0
  10
2.37634
  20
0.60812
  30
0
  11
2.37854
  21
0.67179
  31
0
  0
LINE
  8
0
  10
2.37854
  20
0.67179
  30
0
  11
2.38271
  21
0.73455
  31
0
  0
LINE
  8
0
  10
2.38271
  20
0.73455
  30
0
  11
2.38891
  21
0.79634
  31
0
  0
LINE
  8
0
  10
2.38891
  20
0.79634
  30
0
  11
2.39722
  21
0.85707
  31
0
  0
LINE
  8
0
  10
2.39722
  20
0.85707
  30
0
  11
2.40774
  21
0.91664
  31
0
  0
LINE
  8
0
  10
2.40774
  20
0.91664
  30
0
  11
2.42062
  21
0.97492
  31
0
  0
LINE
  8
0
  10
2.42062
  20
0.97492
  30
0
  11
2.43611
  21
1.03172
  31
0
  0
LINE
  8
0
  10
2.43611
  20
1.03172
  30
0
  11
2.44494
  21
1.05949
  31
0
  0
LINE
  8
0
  10
2.44494
  20
1.05949
  30
0
  11
2.45461
  21
1.08677
  31
0
  0
LINE
  8
0
  10
2.45461
  20
1.08677
  30
0
  11
2.46525
  21
1.11347
  31
0
  0
LINE
  8
0
  10
2.46525
  20
1.11347
  30
0
  11
2.471
  21
1.12656
  31
0
  0
LINE
  8
0
  10
2.471
  20
1.12656
  30
0
  11
2.47713
  21
1.13941
  31
0
  0
LINE
  8
0
  10
2.47713
  20
1.13941
  30
0
  11
2.48383
  21
1.15193
  31
0
  0
LINE
  8
0
  10
2.48383
  20
1.15193
  30
0
  11
2.16656
  21
1.36696
  31
0
  0
LINE
  8
0
  10
2.16656
  20
1.36696
  30
0
  11
2.15741
  21
1.35611
  31
0
  0
LINE
  8
0
  10
2.15741
  20
1.35611
  30
0
  11
2.14774
  21
1.34565
  31
0
  0
LINE
  8
0
  10
2.14774
  20
1.34565
  30
0
  11
2.13772
  21
1.33546
  31
0
  0
LINE
  8
0
  10
2.13772
  20
1.33546
  30
0
  11
2.11686
  21
1.31569
  31
0
  0
LINE
  8
0
  10
2.11686
  20
1.31569
  30
0
  11
2.0951
  21
1.2966
  31
0
  0
LINE
  8
0
  10
2.0951
  20
1.2966
  30
0
  11
2.07258
  21
1.27811
  31
0
  0
LINE
  8
0
  10
2.07258
  20
1.27811
  30
0
  11
2.02555
  21
1.24268
  31
0
  0
LINE
  8
0
  10
2.02555
  20
1.24268
  30
0
  11
1.97619
  21
1.20912
  31
0
  0
LINE
  8
0
  10
1.97619
  20
1.20912
  30
0
  11
1.92476
  21
1.17728
  31
0
  0
LINE
  8
0
  10
1.92476
  20
1.17728
  30
0
  11
1.87143
  21
1.14707
  31
0
  0
LINE
  8
0
  10
1.87143
  20
1.14707
  30
0
  11
1.81634
  21
1.11842
  31
0
  0
LINE
  8
0
  10
1.81634
  20
1.11842
  30
0
  11
1.75958
  21
1.0913
  31
0
  0
LINE
  8
0
  10
1.75958
  20
1.0913
  30
0
  11
1.70126
  21
1.06567
  31
0
  0
LINE
  8
0
  10
1.70126
  20
1.06567
  30
0
  11
1.65654
  21
1.04742
  31
0
  0
LINE
  8
0
  10
1.65654
  20
1.04742
  30
0
  11
1.44829
  21
1.23054
  31
0
  0
LINE
  8
0
  10
1.44829
  20
1.23054
  30
0
  11
1.46068
  21
1.27723
  31
0
  0
LINE
  8
0
  10
1.46068
  20
1.27723
  30
0
  11
1.47864
  21
1.33835
  31
0
  0
LINE
  8
0
  10
1.47864
  20
1.33835
  30
0
  11
1.49829
  21
1.39811
  31
0
  0
LINE
  8
0
  10
1.49829
  20
1.39811
  30
0
  11
1.51966
  21
1.45641
  31
0
  0
LINE
  8
0
  10
1.51966
  20
1.45641
  30
0
  11
1.54281
  21
1.51316
  31
0
  0
LINE
  8
0
  10
1.54281
  20
1.51316
  30
0
  11
1.56781
  21
1.56825
  31
0
  0
LINE
  8
0
  10
1.56781
  20
1.56825
  30
0
  11
1.59478
  21
1.62149
  31
0
  0
LINE
  8
0
  10
1.59478
  20
1.62149
  30
0
  11
1.62391
  21
1.67266
  31
0
  0
LINE
  8
0
  10
1.62391
  20
1.67266
  30
0
  11
1.63937
  21
1.69736
  31
0
  0
LINE
  8
0
  10
1.63937
  20
1.69736
  30
0
  11
1.65552
  21
1.72138
  31
0
  0
LINE
  8
0
  10
1.65552
  20
1.72138
  30
0
  11
1.67246
  21
1.7446
  31
0
  0
LINE
  8
0
  10
1.67246
  20
1.7446
  30
0
  11
1.68129
  21
1.75584
  31
0
  0
LINE
  8
0
  10
1.68129
  20
1.75584
  30
0
  11
1.69043
  21
1.76677
  31
0
  0
LINE
  8
0
  10
1.69043
  20
1.76677
  30
0
  11
1.70002
  21
1.77722
  31
0
  0
LINE
  8
0
  10
1.70002
  20
1.77722
  30
0
  11
1.4462
  21
2.0644
  31
0
  0
LINE
  8
0
  10
1.4462
  20
2.0644
  30
0
  11
1.43464
  21
2.05616
  31
0
  0
LINE
  8
0
  10
1.43464
  20
2.05616
  30
0
  11
1.42267
  21
2.04844
  31
0
  0
LINE
  8
0
  10
1.42267
  20
2.04844
  30
0
  11
1.41043
  21
2.04106
  31
0
  0
LINE
  8
0
  10
1.41043
  20
2.04106
  30
0
  11
1.38531
  21
2.0271
  31
0
  0
LINE
  8
0
  10
1.38531
  20
2.0271
  30
0
  11
1.35949
  21
2.01402
  31
0
  0
LINE
  8
0
  10
1.35949
  20
2.01402
  30
0
  11
1.33308
  21
2.00171
  31
0
  0
LINE
  8
0
  10
1.33308
  20
2.00171
  30
0
  11
1.27872
  21
1.97909
  31
0
  0
LINE
  8
0
  10
1.27872
  20
1.97909
  30
0
  11
1.22256
  21
1.95887
  31
0
  0
LINE
  8
0
  10
1.22256
  20
1.95887
  30
0
  11
1.16483
  21
1.94082
  31
0
  0
LINE
  8
0
  10
1.16483
  20
1.94082
  30
0
  11
1.10566
  21
1.92482
  31
0
  0
LINE
  8
0
  10
1.10566
  20
1.92482
  30
0
  11
1.04517
  21
1.91077
  31
0
  0
LINE
  8
0
  10
1.04517
  20
1.91077
  30
0
  11
0.98346
  21
1.89861
  31
0
  0
LINE
  8
0
  10
0.98346
  20
1.89861
  30
0
  11
0.92059
  21
1.88829
  31
0
  0
LINE
  8
0
  10
0.92059
  20
1.88829
  30
0
  11
0.87273
  21
1.88173
  31
0
  0
LINE
  8
0
  10
0.87273
  20
1.88173
  30
0
  11
0.71658
  21
2.11089
  31
0
  0
LINE
  8
0
  10
0.71658
  20
2.11089
  30
0
  11
0.74018
  21
2.15304
  31
0
  0
LINE
  8
0
  10
0.74018
  20
2.15304
  30
0
  11
0.77278
  21
2.20777
  31
0
  0
LINE
  8
0
  10
0.77278
  20
2.20777
  30
0
  11
0.80667
  21
2.26076
  31
0
  0
LINE
  8
0
  10
0.80667
  20
2.26076
  30
0
  11
0.84187
  21
2.31192
  31
0
  0
LINE
  8
0
  10
0.84187
  20
2.31192
  30
0
  11
0.87841
  21
2.36113
  31
0
  0
LINE
  8
0
  10
0.87841
  20
2.36113
  30
0
  11
0.91632
  21
2.40827
  31
0
  0
LINE
  8
0
  10
0.91632
  20
2.40827
  30
0
  11
0.95569
  21
2.45313
  31
0
  0
LINE
  8
0
  10
0.95569
  20
2.45313
  30
0
  11
0.99663
  21
2.49545
  31
0
  0
LINE
  8
0
  10
0.99663
  20
2.49545
  30
0
  11
1.01775
  21
2.51553
  31
0
  0
LINE
  8
0
  10
1.01775
  20
2.51553
  30
0
  11
1.03936
  21
2.53478
  31
0
  0
LINE
  8
0
  10
1.03936
  20
2.53478
  30
0
  11
1.06154
  21
2.55305
  31
0
  0
LINE
  8
0
  10
1.06154
  20
2.55305
  30
0
  11
1.07289
  21
2.56174
  31
0
  0
LINE
  8
0
  10
1.07289
  20
2.56174
  30
0
  11
1.08446
  21
2.57006
  31
0
  0
LINE
  8
0
  10
1.08446
  20
2.57006
  30
0
  11
1.09635
  21
2.5778
  31
0
  0
LINE
  8
0
  10
1.09635
  20
2.5778
  30
0
  11
0.92192
  21
2.91908
  31
0
  0
LINE
  8
0
  10
0.92192
  20
2.91908
  30
0
  11
0.90868
  21
2.91397
  31
0
  0
LINE
  8
0
  10
0.90868
  20
2.91397
  30
0
  11
0.89516
  21
2.90947
  31
0
  0
LINE
  8
0
  10
0.89516
  20
2.90947
  30
0
  11
0.88147
  21
2.90536
  31
0
  0
LINE
  8
0
  10
0.88147
  20
2.90536
  30
0
  11
0.85367
  21
2.89809
  31
0
  0
LINE
  8
0
  10
0.85367
  20
2.89809
  30
0
  11
0.82541
  21
2.89185
  31
0
  0
LINE
  8
0
  10
0.82541
  20
2.89185
  30
0
  11
0.79676
  21
2.88649
  31
0
  0
LINE
  8
0
  10
0.79676
  20
2.88649
  30
0
  11
0.73848
  21
2.8781
  31
0
  0
LINE
  8
0
  10
0.73848
  20
2.8781
  30
0
  11
0.67906
  21
2.87247
  31
0
  0
LINE
  8
0
  10
0.67906
  20
2.87247
  30
0
  11
0.61865
  21
2.86935
  31
0
  0
LINE
  8
0
  10
0.61865
  20
2.86935
  30
0
  11
0.55736
  21
2.86857
  31
0
  0
LINE
  8
0
  10
0.55736
  20
2.86857
  30
0
  11
0.49528
  21
2.87
  31
0
  0
LINE
  8
0
  10
0.49528
  20
2.87
  30
0
  11
0.43248
  21
2.87357
  31
0
  0
LINE
  8
0
  10
0.43248
  20
2.87357
  30
0
  11
0.36903
  21
2.87921
  31
0
  0
LINE
  8
0
  10
0.36903
  20
2.87921
  30
0
  11
0.32104
  21
2.88476
  31
0
  0
LINE
  8
0
  10
0.32104
  20
2.88476
  30
0
  11
0.22678
  21
3.14556
  31
0
  0
LINE
  8
0
  10
0.22678
  20
3.14556
  30
0
  11
0.26013
  21
3.18051
  31
0
  0
LINE
  8
0
  10
0.26013
  20
3.18051
  30
0
  11
0.30531
  21
3.22542
  31
0
  0
LINE
  8
0
  10
0.30531
  20
3.22542
  30
0
  11
0.35132
  21
3.26831
  31
0
  0
LINE
  8
0
  10
0.35132
  20
3.26831
  30
0
  11
0.39814
  21
3.30911
  31
0
  0
LINE
  8
0
  10
0.39814
  20
3.30911
  30
0
  11
0.44576
  21
3.34769
  31
0
  0
LINE
  8
0
  10
0.44576
  20
3.34769
  30
0
  11
0.49421
  21
3.38391
  31
0
  0
LINE
  8
0
  10
0.49421
  20
3.38391
  30
0
  11
0.54349
  21
3.41758
  31
0
  0
LINE
  8
0
  10
0.54349
  20
3.41758
  30
0
  11
0.59367
  21
3.44839
  31
0
  0
LINE
  8
0
  10
0.59367
  20
3.44839
  30
0
  11
0.61912
  21
3.46259
  31
0
  0
LINE
  8
0
  10
0.61912
  20
3.46259
  30
0
  11
0.64484
  21
3.47585
  31
0
  0
LINE
  8
0
  10
0.64484
  20
3.47585
  30
0
  11
0.67087
  21
3.48804
  31
0
  0
LINE
  8
0
  10
0.67087
  20
3.48804
  30
0
  11
0.68402
  21
3.49363
  31
0
  0
LINE
  8
0
  10
0.68402
  20
3.49363
  30
0
  11
0.69729
  21
3.49881
  31
0
  0
LINE
  8
0
  10
0.69729
  20
3.49881
  30
0
  11
0.71074
  21
3.50335
  31
0
  0
LINE
  8
0
  10
0.71074
  20
3.50335
  30
0
  11
0.62666
  21
3.87729
  31
0
  0
LINE
  8
0
  10
0.62666
  20
3.87729
  30
0
  11
0.61257
  21
3.87564
  31
0
  0
LINE
  8
0
  10
0.61257
  20
3.87564
  30
0
  11
0.59836
  21
3.87463
  31
0
  0
LINE
  8
0
  10
0.59836
  20
3.87463
  30
0
  11
0.58407
  21
3.87406
  31
0
  0
LINE
  8
0
  10
0.58407
  20
3.87406
  30
0
  11
0.55533
  21
3.87393
  31
0
  0
LINE
  8
0
  10
0.55533
  20
3.87393
  30
0
  11
0.52641
  21
3.87491
  31
0
  0
LINE
  8
0
  10
0.52641
  20
3.87491
  30
0
  11
0.49733
  21
3.87685
  31
0
  0
LINE
  8
0
  10
0.49733
  20
3.87685
  30
0
  11
0.4388
  21
3.88321
  31
0
  0
LINE
  8
0
  10
0.4388
  20
3.88321
  30
0
  11
0.37984
  21
3.89254
  31
0
  0
LINE
  8
0
  10
0.37984
  20
3.89254
  30
0
  11
0.32056
  21
3.90454
  31
0
  0
LINE
  8
0
  10
0.32056
  20
3.90454
  30
0
  11
0.261
  21
3.91902
  31
0
  0
LINE
  8
0
  10
0.261
  20
3.91902
  30
0
  11
0.20122
  21
3.93585
  31
0
  0
LINE
  8
0
  10
0.20122
  20
3.93585
  30
0
  11
0.14128
  21
3.95493
  31
0
  0
LINE
  8
0
  10
0.14128
  20
3.95493
  30
0
  11
0.08123
  21
3.97617
  31
0
  0
LINE
  8
0
  10
0.08123
  20
3.97617
  30
0
  11
0.03613
  21
3.99348
  31
0
  0
LINE
  8
0
  10
0.03613
  20
3.99348
  30
0
  11
0.00969
  21
4.26953
  31
0
  0
LINE
  8
0
  10
0.00969
  20
4.26953
  30
0
  11
0.05067
  21
4.29509
  31
0
  0
LINE
  8
0
  10
0.05067
  20
4.29509
  30
0
  11
0.10561
  21
4.32734
  31
0
  0
LINE
  8
0
  10
0.10561
  20
4.32734
  30
0
  11
0.16084
  21
4.35745
  31
0
  0
LINE
  8
0
  10
0.16084
  20
4.35745
  30
0
  11
0.21633
  21
4.38532
  31
0
  0
LINE
  8
0
  10
0.21633
  20
4.38532
  30
0
  11
0.27205
  21
4.41085
  31
0
  0
LINE
  8
0
  10
0.27205
  20
4.41085
  30
0
  11
0.32799
  21
4.43389
  31
0
  0
LINE
  8
0
  10
0.32799
  20
4.43389
  30
0
  11
0.3841
  21
4.45424
  31
0
  0
LINE
  8
0
  10
0.3841
  20
4.45424
  30
0
  11
0.44036
  21
4.4716
  31
0
  0
LINE
  8
0
  10
0.44036
  20
4.4716
  30
0
  11
0.46854
  21
4.47902
  31
0
  0
LINE
  8
0
  10
0.46854
  20
4.47902
  30
0
  11
0.49675
  21
4.48548
  31
0
  0
LINE
  8
0
  10
0.49675
  20
4.48548
  30
0
  11
0.52499
  21
4.4908
  31
0
  0
LINE
  8
0
  10
0.52499
  20
4.4908
  30
0
  11
0.53912
  21
4.49295
  31
0
  0
LINE
  8
0
  10
0.53912
  20
4.49295
  30
0
  11
0.55327
  21
4.49467
  31
0
  0
LINE
  8
0
  10
0.55327
  20
4.49467
  30
0
  11
0.56742
  21
4.49572
  31
0
  0
LINE
  8
0
  10
0.56742
  20
4.49572
  30
0
  11
0.57898
  21
4.87882
  31
0
  0
LINE
  8
0
  10
0.57898
  20
4.87882
  30
0
  11
0.56491
  21
4.88072
  31
0
  0
LINE
  8
0
  10
0.56491
  20
4.88072
  30
0
  11
0.5509
  21
4.88329
  31
0
  0
LINE
  8
0
  10
0.5509
  20
4.88329
  30
0
  11
0.53692
  21
4.88629
  31
0
  0
LINE
  8
0
  10
0.53692
  20
4.88629
  30
0
  11
0.50905
  21
4.89331
  31
0
  0
LINE
  8
0
  10
0.50905
  20
4.89331
  30
0
  11
0.48128
  21
4.90145
  31
0
  0
LINE
  8
0
  10
0.48128
  20
4.90145
  30
0
  11
0.4536
  21
4.91055
  31
0
  0
LINE
  8
0
  10
0.4536
  20
4.91055
  30
0
  11
0.39849
  21
4.93128
  31
0
  0
LINE
  8
0
  10
0.39849
  20
4.93128
  30
0
  11
0.34371
  21
4.95498
  31
0
  0
LINE
  8
0
  10
0.34371
  20
4.95498
  30
0
  11
0.28926
  21
4.98134
  31
0
  0
LINE
  8
0
  10
0.28926
  20
4.98134
  30
0
  11
0.23518
  21
5.01018
  31
0
  0
LINE
  8
0
  10
0.23518
  20
5.01018
  30
0
  11
0.18147
  21
5.04135
  31
0
  0
LINE
  8
0
  10
0.18147
  20
5.04135
  30
0
  11
0.12816
  21
5.07473
  31
0
  0
LINE
  8
0
  10
0.12816
  20
5.07473
  30
0
  11
0.07527
  21
5.11024
  31
0
  0
LINE
  8
0
  10
0.07527
  20
5.11024
  30
0
  11
0.03589
  21
5.13822
  31
0
  0
LINE
  8
0
  10
0.03589
  20
5.13822
  30
0
  11
0.07893
  21
5.41217
  31
0
  0
LINE
  8
0
  10
0.07893
  20
5.41217
  30
0
  11
0.12499
  21
5.42674
  31
0
  0
LINE
  8
0
  10
0.12499
  20
5.42674
  30
0
  11
0.18622
  21
5.44432
  31
0
  0
LINE
  8
0
  10
0.18622
  20
5.44432
  30
0
  11
0.2472
  21
5.45974
  31
0
  0
LINE
  8
0
  10
0.2472
  20
5.45974
  30
0
  11
0.30788
  21
5.47294
  31
0
  0
LINE
  8
0
  10
0.30788
  20
5.47294
  30
0
  11
0.3682
  21
5.48381
  31
0
  0
LINE
  8
0
  10
0.3682
  20
5.48381
  30
0
  11
0.4281
  21
5.49221
  31
0
  0
LINE
  8
0
  10
0.4281
  20
5.49221
  30
0
  11
0.48751
  21
5.49797
  31
0
  0
LINE
  8
0
  10
0.48751
  20
5.49797
  30
0
  11
0.54632
  21
5.5008
  31
0
  0
LINE
  8
0
  10
0.54632
  20
5.5008
  30
0
  11
0.57547
  21
5.50097
  31
0
  0
LINE
  8
0
  10
0.57547
  20
5.50097
  30
0
  11
0.6044
  21
5.50021
  31
0
  0
LINE
  8
0
  10
0.6044
  20
5.50021
  30
0
  11
0.63308
  21
5.49834
  31
0
  0
LINE
  8
0
  10
0.63308
  20
5.49834
  30
0
  11
0.6473
  21
5.49691
  31
0
  0
LINE
  8
0
  10
0.6473
  20
5.49691
  30
0
  11
0.66142
  21
5.49506
  31
0
  0
LINE
  8
0
  10
0.66142
  20
5.49506
  30
0
  11
0.67539
  21
5.49256
  31
0
  0
LINE
  8
0
  10
0.67539
  20
5.49256
  30
0
  11
0.78186
  21
5.86075
  31
0
  0
LINE
  8
0
  10
0.78186
  20
5.86075
  30
0
  11
0.76871
  21
5.86609
  31
0
  0
LINE
  8
0
  10
0.76871
  20
5.86609
  30
0
  11
0.75578
  21
5.87206
  31
0
  0
LINE
  8
0
  10
0.75578
  20
5.87206
  30
0
  11
0.74298
  21
5.87844
  31
0
  0
LINE
  8
0
  10
0.74298
  20
5.87844
  30
0
  11
0.71774
  21
5.89217
  31
0
  0
LINE
  8
0
  10
0.71774
  20
5.89217
  30
0
  11
0.69286
  21
5.90696
  31
0
  0
LINE
  8
0
  10
0.69286
  20
5.90696
  30
0
  11
0.66831
  21
5.92266
  31
0
  0
LINE
  8
0
  10
0.66831
  20
5.92266
  30
0
  11
0.62009
  21
5.95644
  31
0
  0
LINE
  8
0
  10
0.62009
  20
5.95644
  30
0
  11
0.57292
  21
5.99302
  31
0
  0
LINE
  8
0
  10
0.57292
  20
5.99302
  30
0
  11
0.52675
  21
6.0321
  31
0
  0
LINE
  8
0
  10
0.52675
  20
6.0321
  30
0
  11
0.48153
  21
6.07348
  31
0
  0
LINE
  8
0
  10
0.48153
  20
6.07348
  30
0
  11
0.43726
  21
6.11702
  31
0
  0
LINE
  8
0
  10
0.43726
  20
6.11702
  30
0
  11
0.39392
  21
6.16261
  31
0
  0
LINE
  8
0
  10
0.39392
  20
6.16261
  30
0
  11
0.35153
  21
6.21016
  31
0
  0
LINE
  8
0
  10
0.35153
  20
6.21016
  30
0
  11
0.32035
  21
6.24706
  31
0
  0
LINE
  8
0
  10
0.32035
  20
6.24706
  30
0
  11
0.43016
  21
6.5017
  31
0
  0
LINE
  8
0
  10
0.43016
  20
6.5017
  30
0
  11
0.47839
  21
6.50435
  31
0
  0
LINE
  8
0
  10
0.47839
  20
6.50435
  30
0
  11
0.54207
  21
6.50615
  31
0
  0
LINE
  8
0
  10
0.54207
  20
6.50615
  30
0
  11
0.60497
  21
6.50593
  31
0
  0
LINE
  8
0
  10
0.60497
  20
6.50593
  30
0
  11
0.66703
  21
6.50362
  31
0
  0
LINE
  8
0
  10
0.66703
  20
6.50362
  30
0
  11
0.72816
  21
6.49914
  31
0
  0
LINE
  8
0
  10
0.72816
  20
6.49914
  30
0
  11
0.78827
  21
6.49239
  31
0
  0
LINE
  8
0
  10
0.78827
  20
6.49239
  30
0
  11
0.84724
  21
6.48319
  31
0
  0
LINE
  8
0
  10
0.84724
  20
6.48319
  30
0
  11
0.90491
  21
6.4713
  31
0
  0
LINE
  8
0
  10
0.90491
  20
6.4713
  30
0
  11
0.93318
  21
6.46423
  31
0
  0
LINE
  8
0
  10
0.93318
  20
6.46423
  30
0
  11
0.96101
  21
6.45629
  31
0
  0
LINE
  8
0
  10
0.96101
  20
6.45629
  30
0
  11
0.98833
  21
6.44735
  31
0
  0
LINE
  8
0
  10
0.98833
  20
6.44735
  30
0
  11
1.00175
  21
6.44243
  31
0
  0
LINE
  8
0
  10
1.00175
  20
6.44243
  30
0
  11
1.01497
  21
6.43712
  31
0
  0
LINE
  8
0
  10
1.01497
  20
6.43712
  30
0
  11
1.02788
  21
6.43122
  31
0
  0
LINE
  8
0
  10
1.02788
  20
6.43122
  30
0
  11
1.22256
  21
6.76137
  31
0
  0
LINE
  8
0
  10
1.22256
  20
6.76137
  30
0
  11
1.21116
  21
6.76981
  31
0
  0
LINE
  8
0
  10
1.21116
  20
6.76981
  30
0
  11
1.20011
  21
6.77881
  31
0
  0
LINE
  8
0
  10
1.20011
  20
6.77881
  30
0
  11
1.18931
  21
6.78817
  31
0
  0
LINE
  8
0
  10
1.18931
  20
6.78817
  30
0
  11
1.16827
  21
6.80775
  31
0
  0
LINE
  8
0
  10
1.16827
  20
6.80775
  30
0
  11
1.14786
  21
6.82826
  31
0
  0
LINE
  8
0
  10
1.14786
  20
6.82826
  30
0
  11
1.12798
  21
6.84958
  31
0
  0
LINE
  8
0
  10
1.12798
  20
6.84958
  30
0
  11
1.08967
  21
6.89429
  31
0
  0
LINE
  8
0
  10
1.08967
  20
6.89429
  30
0
  11
1.05308
  21
6.94145
  31
0
  0
LINE
  8
0
  10
1.05308
  20
6.94145
  30
0
  11
1.01808
  21
6.99078
  31
0
  0
LINE
  8
0
  10
1.01808
  20
6.99078
  30
0
  11
0.98458
  21
7.04211
  31
0
  0
LINE
  8
0
  10
0.98458
  20
7.04211
  30
0
  11
0.95252
  21
7.09529
  31
0
  0
LINE
  8
0
  10
0.95252
  20
7.09529
  30
0
  11
0.92189
  21
7.15023
  31
0
  0
LINE
  8
0
  10
0.92189
  20
7.15023
  30
0
  11
0.89265
  21
7.20683
  31
0
  0
LINE
  8
0
  10
0.89265
  20
7.20683
  30
0
  11
0.87162
  21
7.25032
  31
0
  0
LINE
  8
0
  10
0.87162
  20
7.25032
  30
0
  11
1.04131
  21
7.46965
  31
0
  0
LINE
  8
0
  10
1.04131
  20
7.46965
  30
0
  11
1.08869
  21
7.46022
  31
0
  0
LINE
  8
0
  10
1.08869
  20
7.46022
  30
0
  11
1.15082
  21
7.44613
  31
0
  0
LINE
  8
0
  10
1.15082
  20
7.44613
  30
0
  11
1.21169
  21
7.43027
  31
0
  0
LINE
  8
0
  10
1.21169
  20
7.43027
  30
0
  11
1.27122
  21
7.4126
  31
0
  0
LINE
  8
0
  10
1.27122
  20
7.4126
  30
0
  11
1.32931
  21
7.39306
  31
0
  0
LINE
  8
0
  10
1.32931
  20
7.39306
  30
0
  11
1.38586
  21
7.37157
  31
0
  0
LINE
  8
0
  10
1.38586
  20
7.37157
  30
0
  11
1.44069
  21
7.34799
  31
0
  0
LINE
  8
0
  10
1.44069
  20
7.34799
  30
0
  11
1.49359
  21
7.32214
  31
0
  0
LINE
  8
0
  10
1.49359
  20
7.32214
  30
0
  11
1.51921
  21
7.30826
  31
0
  0
LINE
  8
0
  10
1.51921
  20
7.30826
  30
0
  11
1.5442
  21
7.29365
  31
0
  0
LINE
  8
0
  10
1.5442
  20
7.29365
  30
0
  11
1.56843
  21
7.2782
  31
0
  0
LINE
  8
0
  10
1.56843
  20
7.2782
  30
0
  11
1.5802
  21
7.27009
  31
0
  0
LINE
  8
0
  10
1.5802
  20
7.27009
  30
0
  11
1.59169
  21
7.26166
  31
0
  0
LINE
  8
0
  10
1.59169
  20
7.26166
  30
0
  11
1.60272
  21
7.25274
  31
0
  0
LINE
  8
0
  10
1.60272
  20
7.25274
  30
0
  11
1.8734
  21
7.5241
  31
0
  0
LINE
  8
0
  10
1.8734
  20
7.5241
  30
0
  11
1.86445
  21
7.53511
  31
0
  0
LINE
  8
0
  10
1.86445
  20
7.53511
  30
0
  11
1.85599
  21
7.54657
  31
0
  0
LINE
  8
0
  10
1.85599
  20
7.54657
  30
0
  11
1.84785
  21
7.55833
  31
0
  0
LINE
  8
0
  10
1.84785
  20
7.55833
  30
0
  11
1.83234
  21
7.58252
  31
0
  0
LINE
  8
0
  10
1.83234
  20
7.58252
  30
0
  11
1.81767
  21
7.60747
  31
0
  0
LINE
  8
0
  10
1.81767
  20
7.60747
  30
0
  11
1.80373
  21
7.63306
  31
0
  0
LINE
  8
0
  10
1.80373
  20
7.63306
  30
0
  11
1.77774
  21
7.68589
  31
0
  0
LINE
  8
0
  10
1.77774
  20
7.68589
  30
0
  11
1.75403
  21
7.74067
  31
0
  0
LINE
  8
0
  10
1.75403
  20
7.74067
  30
0
  11
1.73239
  21
7.79715
  31
0
  0
LINE
  8
0
  10
1.73239
  20
7.79715
  30
0
  11
1.7127
  21
7.8552
  31
0
  0
LINE
  8
0
  10
1.7127
  20
7.8552
  30
0
  11
1.69489
  21
7.91469
  31
0
  0
LINE
  8
0
  10
1.69489
  20
7.91469
  30
0
  11
1.67887
  21
7.97552
  31
0
  0
LINE
  8
0
  10
1.67887
  20
7.97552
  30
0
  11
1.66463
  21
8.03761
  31
0
  0
LINE
  8
0
  10
1.66463
  20
8.03761
  30
0
  11
1.65508
  21
8.08496
  31
0
  0
LINE
  8
0
  10
1.65508
  20
8.08496
  30
0
  11
1.87398
  21
8.2552
  31
0
  0
LINE
  8
0
  10
1.87398
  20
8.2552
  30
0
  11
1.91753
  21
8.23429
  31
0
  0
LINE
  8
0
  10
1.91753
  20
8.23429
  30
0
  11
1.9742
  21
8.20519
  31
0
  0
LINE
  8
0
  10
1.9742
  20
8.20519
  30
0
  11
2.02921
  21
8.17469
  31
0
  0
LINE
  8
0
  10
2.02921
  20
8.17469
  30
0
  11
2.08248
  21
8.14277
  31
0
  0
LINE
  8
0
  10
2.08248
  20
8.14277
  30
0
  11
2.13389
  21
8.1094
  31
0
  0
LINE
  8
0
  10
2.13389
  20
8.1094
  30
0
  11
2.18331
  21
8.07452
  31
0
  0
LINE
  8
0
  10
2.18331
  20
8.07452
  30
0
  11
2.23056
  21
8.03805
  31
0
  0
LINE
  8
0
  10
2.23056
  20
8.03805
  30
0
  11
2.27537
  21
7.99985
  31
0
  0
LINE
  8
0
  10
2.27537
  20
7.99985
  30
0
  11
2.29673
  21
7.98003
  31
0
  0
LINE
  8
0
  10
2.29673
  20
7.98003
  30
0
  11
2.3173
  21
7.95967
  31
0
  0
LINE
  8
0
  10
2.3173
  20
7.95967
  30
0
  11
2.33693
  21
7.93868
  31
0
  0
LINE
  8
0
  10
2.33693
  20
7.93868
  30
0
  11
2.34632
  21
7.9279
  31
0
  0
LINE
  8
0
  10
2.34632
  20
7.9279
  30
0
  11
2.35534
  21
7.91688
  31
0
  0
LINE
  8
0
  10
2.35534
  20
7.91688
  30
0
  11
2.36381
  21
7.90549
  31
0
  0
LINE
  8
0
  10
2.36381
  20
7.90549
  30
0
  11
2.69347
  21
8.10101
  31
0
  0
LINE
  8
0
  10
2.69347
  20
8.10101
  30
0
  11
2.68754
  21
8.1139
  31
0
  0
LINE
  8
0
  10
2.68754
  20
8.1139
  30
0
  11
2.6822
  21
8.12711
  31
0
  0
LINE
  8
0
  10
2.6822
  20
8.12711
  30
0
  11
2.67724
  21
8.14051
  31
0
  0
LINE
  8
0
  10
2.67724
  20
8.14051
  30
0
  11
2.66823
  21
8.16781
  31
0
  0
LINE
  8
0
  10
2.66823
  20
8.16781
  30
0
  11
2.66023
  21
8.19562
  31
0
  0
LINE
  8
0
  10
2.66023
  20
8.19562
  30
0
  11
2.65308
  21
8.22387
  31
0
  0
LINE
  8
0
  10
2.65308
  20
8.22387
  30
0
  11
2.64105
  21
8.28151
  31
0
  0
LINE
  8
0
  10
2.64105
  20
8.28151
  30
0
  11
2.6317
  21
8.34046
  31
0
  0
LINE
  8
0
  10
2.6317
  20
8.34046
  30
0
  11
2.6248
  21
8.40055
  31
0
  0
LINE
  8
0
  10
2.6248
  20
8.40055
  30
0
  11
2.62017
  21
8.46167
  31
0
  0
LINE
  8
0
  10
2.62017
  20
8.46167
  30
0
  11
2.6177
  21
8.52372
  31
0
  0
LINE
  8
0
  10
2.6177
  20
8.52372
  30
0
  11
2.61732
  21
8.58662
  31
0
  0
LINE
  8
0
  10
2.61732
  20
8.58662
  30
0
  11
2.61896
  21
8.6503
  31
0
  0
LINE
  8
0
  10
2.61896
  20
8.6503
  30
0
  11
2.62149
  21
8.69854
  31
0
  0
LINE
  8
0
  10
2.62149
  20
8.69854
  30
0
  11
2.87585
  21
8.809
  31
0
  0
LINE
  8
0
  10
2.87585
  20
8.809
  30
0
  11
2.91283
  21
8.77791
  31
0
  0
LINE
  8
0
  10
2.91283
  20
8.77791
  30
0
  11
2.96048
  21
8.73563
  31
0
  0
LINE
  8
0
  10
2.96048
  20
8.73563
  30
0
  11
3.00618
  21
8.69241
  31
0
  0
LINE
  8
0
  10
3.00618
  20
8.69241
  30
0
  11
3.04984
  21
8.64825
  31
0
  0
LINE
  8
0
  10
3.04984
  20
8.64825
  30
0
  11
3.09133
  21
8.60314
  31
0
  0
LINE
  8
0
  10
3.09133
  20
8.60314
  30
0
  11
3.13053
  21
8.55706
  31
0
  0
LINE
  8
0
  10
3.13053
  20
8.55706
  30
0
  11
3.16722
  21
8.50999
  31
0
  0
LINE
  8
0
  10
3.16722
  20
8.50999
  30
0
  11
3.20112
  21
8.46185
  31
0
  0
LINE
  8
0
  10
3.20112
  20
8.46185
  30
0
  11
3.21689
  21
8.43734
  31
0
  0
LINE
  8
0
  10
3.21689
  20
8.43734
  30
0
  11
3.23175
  21
8.4125
  31
0
  0
LINE
  8
0
  10
3.23175
  20
8.4125
  30
0
  11
3.24554
  21
8.38729
  31
0
  0
LINE
  8
0
  10
3.24554
  20
8.38729
  30
0
  11
3.25195
  21
8.37451
  31
0
  0
LINE
  8
0
  10
3.25195
  20
8.37451
  30
0
  11
3.25795
  21
8.36159
  31
0
  0
LINE
  8
0
  10
3.25795
  20
8.36159
  30
0
  11
3.26333
  21
8.34846
  31
0
  0
LINE
  8
0
  10
3.26333
  20
8.34846
  30
0
  11
3.63125
  21
8.45585
  31
0
  0
LINE
  8
0
  10
3.63125
  20
8.45585
  30
0
  11
3.62871
  21
8.46981
  31
0
  0
LINE
  8
0
  10
3.62871
  20
8.46981
  30
0
  11
3.62682
  21
8.48393
  31
0
  0
LINE
  8
0
  10
3.62682
  20
8.48393
  30
0
  11
3.62535
  21
8.49815
  31
0
  0
LINE
  8
0
  10
3.62535
  20
8.49815
  30
0
  11
3.62342
  21
8.52683
  31
0
  0
LINE
  8
0
  10
3.62342
  20
8.52683
  30
0
  11
3.62258
  21
8.55575
  31
0
  0
LINE
  8
0
  10
3.62258
  20
8.55575
  30
0
  11
3.62268
  21
8.5849
  31
0
  0
LINE
  8
0
  10
3.62268
  20
8.5849
  30
0
  11
3.62536
  21
8.64372
  31
0
  0
LINE
  8
0
  10
3.62536
  20
8.64372
  30
0
  11
3.63097
  21
8.70314
  31
0
  0
LINE
  8
0
  10
3.63097
  20
8.70314
  30
0
  11
3.63923
  21
8.76306
  31
0
  0
LINE
  8
0
  10
3.63923
  20
8.76306
  30
0
  11
3.64994
  21
8.82341
  31
0
  0
LINE
  8
0
  10
3.64994
  20
8.82341
  30
0
  11
3.66298
  21
8.88413
  31
0
  0
LINE
  8
0
  10
3.66298
  20
8.88413
  30
0
  11
3.67826
  21
8.94514
  31
0
  0
LINE
  8
0
  10
3.67826
  20
8.94514
  30
0
  11
3.69568
  21
9.00642
  31
0
  0
LINE
  8
0
  10
3.69568
  20
9.00642
  30
0
  11
3.71013
  21
9.05251
  31
0
  0
LINE
  8
0
  10
3.71013
  20
9.05251
  30
0
  11
3.98397
  21
9.09624
  31
0
  0
LINE
  8
0
  10
3.98397
  20
9.09624
  30
0
  11
4.01205
  21
9.05693
  31
0
  0
LINE
  8
0
  10
4.01205
  20
9.05693
  30
0
  11
4.0477
  21
9.00413
  31
0
  0
LINE
  8
0
  10
4.0477
  20
9.00413
  30
0
  11
4.08121
  21
8.95091
  31
0
  0
LINE
  8
0
  10
4.08121
  20
8.95091
  30
0
  11
4.11251
  21
8.89727
  31
0
  0
LINE
  8
0
  10
4.11251
  20
8.89727
  30
0
  11
4.14149
  21
8.84326
  31
0
  0
LINE
  8
0
  10
4.14149
  20
8.84326
  30
0
  11
4.16799
  21
8.78889
  31
0
  0
LINE
  8
0
  10
4.16799
  20
8.78889
  30
0
  11
4.19183
  21
8.73416
  31
0
  0
LINE
  8
0
  10
4.19183
  20
8.73416
  30
0
  11
4.21269
  21
8.6791
  31
0
  0
LINE
  8
0
  10
4.21269
  20
8.6791
  30
0
  11
4.22186
  21
8.65144
  31
0
  0
LINE
  8
0
  10
4.22186
  20
8.65144
  30
0
  11
4.23008
  21
8.62369
  31
0
  0
LINE
  8
0
  10
4.23008
  20
8.62369
  30
0
  11
4.23717
  21
8.59584
  31
0
  0
LINE
  8
0
  10
4.23717
  20
8.59584
  30
0
  11
4.2402
  21
8.58187
  31
0
  0
LINE
  8
0
  10
4.2402
  20
8.58187
  30
0
  11
4.2428
  21
8.56787
  31
0
  0
LINE
  8
0
  10
4.2428
  20
8.56787
  30
0
  11
4.24474
  21
8.55381
  31
0
  0
LINE
  8
0
  10
4.24474
  20
8.55381
  30
0
  11
4.62781
  21
8.56633
  31
0
  0
LINE
  8
0
  10
4.62781
  20
8.56633
  30
0
  11
4.62883
  21
8.58048
  31
0
  0
LINE
  8
0
  10
4.62883
  20
8.58048
  30
0
  11
4.6305
  21
8.59463
  31
0
  0
LINE
  8
0
  10
4.6305
  20
8.59463
  30
0
  11
4.63262
  21
8.60877
  31
0
  0
LINE
  8
0
  10
4.63262
  20
8.60877
  30
0
  11
4.63787
  21
8.63702
  31
0
  0
LINE
  8
0
  10
4.63787
  20
8.63702
  30
0
  11
4.64426
  21
8.66525
  31
0
  0
LINE
  8
0
  10
4.64426
  20
8.66525
  30
0
  11
4.65161
  21
8.69345
  31
0
  0
LINE
  8
0
  10
4.65161
  20
8.69345
  30
0
  11
4.66883
  21
8.74975
  31
0
  0
LINE
  8
0
  10
4.66883
  20
8.74975
  30
0
  11
4.68904
  21
8.80592
  31
0
  0
LINE
  8
0
  10
4.68904
  20
8.80592
  30
0
  11
4.71194
  21
8.8619
  31
0
  0
LINE
  8
0
  10
4.71194
  20
8.8619
  30
0
  11
4.73732
  21
8.91769
  31
0
  0
LINE
  8
0
  10
4.73732
  20
8.91769
  30
0
  11
4.76505
  21
8.97326
  31
0
  0
LINE
  8
0
  10
4.76505
  20
8.97326
  30
0
  11
4.79502
  21
9.02856
  31
0
  0
LINE
  8
0
  10
4.79502
  20
9.02856
  30
0
  11
4.82714
  21
9.08357
  31
0
  0
LINE
  8
0
  10
4.82714
  20
9.08357
  30
0
  11
4.8526
  21
9.12463
  31
0
  0
LINE
  8
0
  10
4.8526
  20
9.12463
  30
0
  11
5.12871
  21
9.09888
  31
0
  0
LINE
  8
0
  10
5.12871
  20
9.09888
  30
0
  11
5.14614
  21
9.05382
  31
0
  0
LINE
  8
0
  10
5.14614
  20
9.05382
  30
0
  11
5.16753
  21
8.99382
  31
0
  0
LINE
  8
0
  10
5.16753
  20
8.99382
  30
0
  11
5.18675
  21
8.93393
  31
0
  0
LINE
  8
0
  10
5.18675
  20
8.93393
  30
0
  11
5.20373
  21
8.8742
  31
0
  0
LINE
  8
0
  10
5.20373
  20
8.8742
  30
0
  11
5.21836
  21
8.81468
  31
0
  0
LINE
  8
0
  10
5.21836
  20
8.81468
  30
0
  11
5.23051
  21
8.75542
  31
0
  0
LINE
  8
0
  10
5.23051
  20
8.75542
  30
0
  11
5.23999
  21
8.69649
  31
0
  0
LINE
  8
0
  10
5.23999
  20
8.69649
  30
0
  11
5.24651
  21
8.63797
  31
0
  0
LINE
  8
0
  10
5.24651
  20
8.63797
  30
0
  11
5.24851
  21
8.6089
  31
0
  0
LINE
  8
0
  10
5.24851
  20
8.6089
  30
0
  11
5.24957
  21
8.57997
  31
0
  0
LINE
  8
0
  10
5.24957
  20
8.57997
  30
0
  11
5.24951
  21
8.55124
  31
0
  0
LINE
  8
0
  10
5.24951
  20
8.55124
  30
0
  11
5.24897
  21
8.53695
  31
0
  0
LINE
  8
0
  10
5.24897
  20
8.53695
  30
0
  11
5.248
  21
8.52274
  31
0
  0
LINE
  8
0
  10
5.248
  20
8.52274
  30
0
  11
5.24639
  21
8.50864
  31
0
  0
LINE
  8
0
  10
5.24639
  20
8.50864
  30
0
  11
5.62054
  21
8.4255
  31
0
  0
LINE
  8
0
  10
5.62054
  20
8.4255
  30
0
  11
5.62504
  21
8.43896
  31
0
  0
LINE
  8
0
  10
5.62504
  20
8.43896
  30
0
  11
5.63019
  21
8.45224
  31
0
  0
LINE
  8
0
  10
5.63019
  20
8.45224
  30
0
  11
5.63575
  21
8.46541
  31
0
  0
LINE
  8
0
  10
5.63575
  20
8.46541
  30
0
  11
5.64787
  21
8.49147
  31
0
  0
LINE
  8
0
  10
5.64787
  20
8.49147
  30
0
  11
5.66107
  21
8.51722
  31
0
  0
LINE
  8
0
  10
5.66107
  20
8.51722
  30
0
  11
5.6752
  21
8.54271
  31
0
  0
LINE
  8
0
  10
5.6752
  20
8.54271
  30
0
  11
5.70589
  21
8.59296
  31
0
  0
LINE
  8
0
  10
5.70589
  20
8.59296
  30
0
  11
5.73943
  21
8.64233
  31
0
  0
LINE
  8
0
  10
5.73943
  20
8.64233
  30
0
  11
5.77553
  21
8.69087
  31
0
  0
LINE
  8
0
  10
5.77553
  20
8.69087
  30
0
  11
5.81399
  21
8.73859
  31
0
  0
LINE
  8
0
  10
5.81399
  20
8.73859
  30
0
  11
5.85467
  21
8.78551
  31
0
  0
LINE
  8
0
  10
5.85467
  20
8.78551
  30
0
  11
5.89745
  21
8.83163
  31
0
  0
LINE
  8
0
  10
5.89745
  20
8.83163
  30
0
  11
5.94224
  21
8.87692
  31
0
  0
LINE
  8
0
  10
5.94224
  20
8.87692
  30
0
  11
5.97711
  21
8.91036
  31
0
  0
LINE
  8
0
  10
5.97711
  20
8.91036
  30
0
  11
6.23814
  21
8.81675
  31
0
  0
LINE
  8
0
  10
6.23814
  20
8.81675
  30
0
  11
6.24382
  21
8.76878
  31
0
  0
LINE
  8
0
  10
6.24382
  20
8.76878
  30
0
  11
6.24961
  21
8.70534
  31
0
  0
LINE
  8
0
  10
6.24961
  20
8.70534
  30
0
  11
6.25334
  21
8.64255
  31
0
  0
LINE
  8
0
  10
6.25334
  20
8.64255
  30
0
  11
6.25493
  21
8.58047
  31
0
  0
LINE
  8
0
  10
6.25493
  20
8.58047
  30
0
  11
6.2543
  21
8.51918
  31
0
  0
LINE
  8
0
  10
6.2543
  20
8.51918
  30
0
  11
6.25133
  21
8.45876
  31
0
  0
LINE
  8
0
  10
6.25133
  20
8.45876
  30
0
  11
6.24585
  21
8.39933
  31
0
  0
LINE
  8
0
  10
6.24585
  20
8.39933
  30
0
  11
6.23761
  21
8.34103
  31
0
  0
LINE
  8
0
  10
6.23761
  20
8.34103
  30
0
  11
6.23233
  21
8.31237
  31
0
  0
LINE
  8
0
  10
6.23233
  20
8.31237
  30
0
  11
6.22615
  21
8.28409
  31
0
  0
LINE
  8
0
  10
6.22615
  20
8.28409
  30
0
  11
6.21895
  21
8.25627
  31
0
  0
LINE
  8
0
  10
6.21895
  20
8.25627
  30
0
  11
6.21488
  21
8.24257
  31
0
  0
LINE
  8
0
  10
6.21488
  20
8.24257
  30
0
  11
6.21041
  21
8.22904
  31
0
  0
LINE
  8
0
  10
6.21041
  20
8.22904
  30
0
  11
6.20533
  21
8.21579
  31
0
  0
LINE
  8
0
  10
6.20533
  20
8.21579
  30
0
  11
6.54705
  21
8.04222
  31
0
  0
LINE
  8
0
  10
6.54705
  20
8.04222
  30
0
  11
6.55476
  21
8.05413
  31
0
  0
LINE
  8
0
  10
6.55476
  20
8.05413
  30
0
  11
6.56305
  21
8.06572
  31
0
  0
LINE
  8
0
  10
6.56305
  20
8.06572
  30
0
  11
6.57171
  21
8.07709
  31
0
  0
LINE
  8
0
  10
6.57171
  20
8.07709
  30
0
  11
6.58993
  21
8.09932
  31
0
  0
LINE
  8
0
  10
6.58993
  20
8.09932
  30
0
  11
6.60912
  21
8.12098
  31
0
  0
LINE
  8
0
  10
6.60912
  20
8.12098
  30
0
  11
6.62915
  21
8.14215
  31
0
  0
LINE
  8
0
  10
6.62915
  20
8.14215
  30
0
  11
6.67137
  21
8.18319
  31
0
  0
LINE
  8
0
  10
6.67137
  20
8.18319
  30
0
  11
6.71613
  21
8.22267
  31
0
  0
LINE
  8
0
  10
6.71613
  20
8.22267
  30
0
  11
6.76317
  21
8.2607
  31
0
  0
LINE
  8
0
  10
6.76317
  20
8.2607
  30
0
  11
6.81229
  21
8.29736
  31
0
  0
LINE
  8
0
  10
6.81229
  20
8.29736
  30
0
  11
6.86336
  21
8.33269
  31
0
  0
LINE
  8
0
  10
6.86336
  20
8.33269
  30
0
  11
6.91627
  21
8.36672
  31
0
  0
LINE
  8
0
  10
6.91627
  20
8.36672
  30
0
  11
6.97091
  21
8.39945
  31
0
  0
LINE
  8
0
  10
6.97091
  20
8.39945
  30
0
  11
7.013
  21
8.42316
  31
0
  0
LINE
  8
0
  10
7.013
  20
8.42316
  30
0
  11
7.24255
  21
8.26758
  31
0
  0
LINE
  8
0
  10
7.24255
  20
8.26758
  30
0
  11
7.23612
  21
8.21971
  31
0
  0
LINE
  8
0
  10
7.23612
  20
8.21971
  30
0
  11
7.22596
  21
8.15682
  31
0
  0
LINE
  8
0
  10
7.22596
  20
8.15682
  30
0
  11
7.21395
  21
8.09507
  31
0
  0
LINE
  8
0
  10
7.21395
  20
8.09507
  30
0
  11
7.20006
  21
8.03455
  31
0
  0
LINE
  8
0
  10
7.20006
  20
8.03455
  30
0
  11
7.1842
  21
7.97534
  31
0
  0
LINE
  8
0
  10
7.1842
  20
7.97534
  30
0
  11
7.1663
  21
7.91756
  31
0
  0
LINE
  8
0
  10
7.1663
  20
7.91756
  30
0
  11
7.14622
  21
7.86136
  31
0
  0
LINE
  8
0
  10
7.14622
  20
7.86136
  30
0
  11
7.12373
  21
7.80694
  31
0
  0
LINE
  8
0
  10
7.12373
  20
7.80694
  30
0
  11
7.11149
  21
7.78049
  31
0
  0
LINE
  8
0
  10
7.11149
  20
7.78049
  30
0
  11
7.09848
  21
7.75464
  31
0
  0
LINE
  8
0
  10
7.09848
  20
7.75464
  30
0
  11
7.08458
  21
7.72949
  31
0
  0
LINE
  8
0
  10
7.08458
  20
7.72949
  30
0
  11
7.07723
  21
7.71723
  31
0
  0
LINE
  8
0
  10
7.07723
  20
7.71723
  30
0
  11
7.06954
  21
7.70524
  31
0
  0
LINE
  8
0
  10
7.06954
  20
7.70524
  30
0
  11
7.06133
  21
7.69366
  31
0
  0
LINE
  8
0
  10
7.06133
  20
7.69366
  30
0
  11
7.34914
  21
7.44056
  31
0
  0
LINE
  8
0
  10
7.34914
  20
7.44056
  30
0
  11
7.35957
  21
7.45018
  31
0
  0
LINE
  8
0
  10
7.35957
  20
7.45018
  30
0
  11
7.37048
  21
7.45934
  31
0
  0
LINE
  8
0
  10
7.37048
  20
7.45934
  30
0
  11
7.3817
  21
7.4682
  31
0
  0
LINE
  8
0
  10
7.3817
  20
7.4682
  30
0
  11
7.40487
  21
7.4852
  31
0
  0
LINE
  8
0
  10
7.40487
  20
7.4852
  30
0
  11
7.42885
  21
7.50141
  31
0
  0
LINE
  8
0
  10
7.42885
  20
7.50141
  30
0
  11
7.45351
  21
7.51693
  31
0
  0
LINE
  8
0
  10
7.45351
  20
7.51693
  30
0
  11
7.50461
  21
7.54619
  31
0
  0
LINE
  8
0
  10
7.50461
  20
7.54619
  30
0
  11
7.55779
  21
7.57329
  31
0
  0
LINE
  8
0
  10
7.55779
  20
7.57329
  30
0
  11
7.61281
  21
7.59843
  31
0
  0
LINE
  8
0
  10
7.61281
  20
7.59843
  30
0
  11
7.6695
  21
7.62173
  31
0
  0
LINE
  8
0
  10
7.6695
  20
7.62173
  30
0
  11
7.72775
  21
7.64324
  31
0
  0
LINE
  8
0
  10
7.72775
  20
7.64324
  30
0
  11
7.78746
  21
7.66304
  31
0
  0
LINE
  8
0
  10
7.78746
  20
7.66304
  30
0
  11
7.84853
  21
7.68116
  31
0
  0
LINE
  8
0
  10
7.84853
  20
7.68116
  30
0
  11
7.89519
  21
7.69366
  31
0
  0
LINE
  8
0
  10
7.89519
  20
7.69366
  30
0
  11
8.07884
  21
7.48588
  31
0
  0
LINE
  8
0
  10
8.07884
  20
7.48588
  30
0
  11
8.0607
  21
7.44111
  31
0
  0
LINE
  8
0
  10
8.0607
  20
7.44111
  30
0
  11
8.03522
  21
7.38272
  31
0
  0
LINE
  8
0
  10
8.03522
  20
7.38272
  30
0
  11
8.00824
  21
7.3259
  31
0
  0
LINE
  8
0
  10
8.00824
  20
7.3259
  30
0
  11
7.97972
  21
7.27074
  31
0
  0
LINE
  8
0
  10
7.97972
  20
7.27074
  30
0
  11
7.94964
  21
7.21733
  31
0
  0
LINE
  8
0
  10
7.94964
  20
7.21733
  30
0
  11
7.91794
  21
7.16582
  31
0
  0
LINE
  8
0
  10
7.91794
  20
7.16582
  30
0
  11
7.8845
  21
7.11637
  31
0
  0
LINE
  8
0
  10
7.8845
  20
7.11637
  30
0
  11
7.84919
  21
7.06925
  31
0
  0
LINE
  8
0
  10
7.84919
  20
7.06925
  30
0
  11
7.83076
  21
7.04669
  31
0
  0
LINE
  8
0
  10
7.83076
  20
7.04669
  30
0
  11
7.81173
  21
7.02488
  31
0
  0
LINE
  8
0
  10
7.81173
  20
7.02488
  30
0
  11
7.79201
  21
7.00398
  31
0
  0
LINE
  8
0
  10
7.79201
  20
7.00398
  30
0
  11
7.78184
  21
6.99393
  31
0
  0
LINE
  8
0
  10
7.78184
  20
6.99393
  30
0
  11
7.77141
  21
6.98423
  31
0
  0
LINE
  8
0
  10
7.77141
  20
6.98423
  30
0
  11
7.76058
  21
6.97506
  31
0
  0
LINE
  8
0
  10
7.76058
  20
6.97506
  30
0
  11
7.97641
  21
6.65833
  31
0
  0
LINE
  8
0
  10
7.97641
  20
6.65833
  30
0
  11
7.9889
  21
6.66506
  31
0
  0
LINE
  8
0
  10
7.9889
  20
6.66506
  30
0
  11
8.00175
  21
6.67122
  31
0
  0
LINE
  8
0
  10
8.00175
  20
6.67122
  30
0
  11
8.01482
  21
6.67701
  31
0
  0
LINE
  8
0
  10
8.01482
  20
6.67701
  30
0
  11
8.04149
  21
6.68771
  31
0
  0
LINE
  8
0
  10
8.04149
  20
6.68771
  30
0
  11
8.06874
  21
6.69745
  31
0
  0
LINE
  8
0
  10
8.06874
  20
6.69745
  30
0
  11
8.09649
  21
6.70635
  31
0
  0
LINE
  8
0
  10
8.09649
  20
6.70635
  30
0
  11
8.15326
  21
6.72198
  31
0
  0
LINE
  8
0
  10
8.15326
  20
6.72198
  30
0
  11
8.21151
  21
6.73501
  31
0
  0
LINE
  8
0
  10
8.21151
  20
6.73501
  30
0
  11
8.27105
  21
6.74568
  31
0
  0
LINE
  8
0
  10
8.27105
  20
6.74568
  30
0
  11
8.33176
  21
6.75414
  31
0
  0
LINE
  8
0
  10
8.33176
  20
6.75414
  30
0
  11
8.39353
  21
6.76049
  31
0
  0
LINE
  8
0
  10
8.39353
  20
6.76049
  30
0
  11
8.45628
  21
6.76482
  31
0
  0
LINE
  8
0
  10
8.45628
  20
6.76482
  30
0
  11
8.51994
  21
6.76718
  31
0
  0
LINE
  8
0
  10
8.51994
  20
6.76718
  30
0
  11
8.56824
  21
6.76769
  31
0
  0
LINE
  8
0
  10
8.56824
  20
6.76769
  30
0
  11
8.69445
  21
6.52076
  31
0
  0
LINE
  8
0
  10
8.69445
  20
6.52076
  30
0
  11
8.66575
  21
6.48191
  31
0
  0
LINE
  8
0
  10
8.66575
  20
6.48191
  30
0
  11
8.62655
  21
6.43169
  31
0
  0
LINE
  8
0
  10
8.62655
  20
6.43169
  30
0
  11
8.58628
  21
6.38337
  31
0
  0
LINE
  8
0
  10
8.58628
  20
6.38337
  30
0
  11
8.54494
  21
6.33703
  31
0
  0
LINE
  8
0
  10
8.54494
  20
6.33703
  30
0
  11
8.50253
  21
6.29278
  31
0
  0
LINE
  8
0
  10
8.50253
  20
6.29278
  30
0
  11
8.45901
  21
6.25077
  31
0
  0
LINE
  8
0
  10
8.45901
  20
6.25077
  30
0
  11
8.41433
  21
6.21119
  31
0
  0
LINE
  8
0
  10
8.41433
  20
6.21119
  30
0
  11
8.36841
  21
6.17433
  31
0
  0
LINE
  8
0
  10
8.36841
  20
6.17433
  30
0
  11
8.34494
  21
6.15706
  31
0
  0
LINE
  8
0
  10
8.34494
  20
6.15706
  30
0
  11
8.32108
  21
6.14068
  31
0
  0
LINE
  8
0
  10
8.32108
  20
6.14068
  30
0
  11
8.29679
  21
6.12533
  31
0
  0
LINE
  8
0
  10
8.29679
  20
6.12533
  30
0
  11
8.28444
  21
6.11812
  31
0
  0
LINE
  8
0
  10
8.28444
  20
6.11812
  30
0
  11
8.27192
  21
6.11132
  31
0
  0
LINE
  8
0
  10
8.27192
  20
6.11132
  30
0
  11
8.25915
  21
6.10514
  31
0
  0
LINE
  8
0
  10
8.25915
  20
6.10514
  30
0
  11
8.38943
  21
5.74468
  31
0
  0
LINE
  8
0
  10
8.38943
  20
5.74468
  30
0
  11
8.40321
  21
5.74809
  31
0
  0
LINE
  8
0
  10
8.40321
  20
5.74809
  30
0
  11
8.41718
  21
5.75087
  31
0
  0
LINE
  8
0
  10
8.41718
  20
5.75087
  30
0
  11
8.43128
  21
5.75322
  31
0
  0
LINE
  8
0
  10
8.43128
  20
5.75322
  30
0
  11
8.45978
  21
5.75696
  31
0
  0
LINE
  8
0
  10
8.45978
  20
5.75696
  30
0
  11
8.48859
  21
5.75961
  31
0
  0
LINE
  8
0
  10
8.48859
  20
5.75961
  30
0
  11
8.51769
  21
5.76133
  31
0
  0
LINE
  8
0
  10
8.51769
  20
5.76133
  30
0
  11
8.57656
  21
5.76235
  31
0
  0
LINE
  8
0
  10
8.57656
  20
5.76235
  30
0
  11
8.63622
  21
5.76049
  31
0
  0
LINE
  8
0
  10
8.63622
  20
5.76049
  30
0
  11
8.69654
  21
5.75601
  31
0
  0
LINE
  8
0
  10
8.69654
  20
5.75601
  30
0
  11
8.75744
  21
5.74911
  31
0
  0
LINE
  8
0
  10
8.75744
  20
5.74911
  30
0
  11
8.81886
  21
5.7399
  31
0
  0
LINE
  8
0
  10
8.81886
  20
5.7399
  30
0
  11
8.88071
  21
5.72849
  31
0
  0
LINE
  8
0
  10
8.88071
  20
5.72849
  30
0
  11
8.94296
  21
5.71494
  31
0
  0
LINE
  8
0
  10
8.94296
  20
5.71494
  30
0
  11
8.98987
  21
5.70342
  31
0
  0
LINE
  8
0
  10
8.98987
  20
5.70342
  30
0
  11
9.0507
  21
5.43287
  31
0
  0
LINE
  8
0
  10
9.0507
  20
5.43287
  30
0
  11
9.01324
  21
5.40237
  31
0
  0
LINE
  8
0
  10
9.01324
  20
5.40237
  30
0
  11
8.96278
  21
5.36348
  31
0
  0
LINE
  8
0
  10
8.96278
  20
5.36348
  30
0
  11
8.91176
  21
5.32669
  31
0
  0
LINE
  8
0
  10
8.91176
  20
5.32669
  30
0
  11
8.8602
  21
5.29208
  31
0
  0
LINE
  8
0
  10
8.8602
  20
5.29208
  30
0
  11
8.80812
  21
5.25977
  31
0
  0
LINE
  8
0
  10
8.80812
  20
5.25977
  30
0
  11
8.75551
  21
5.22991
  31
0
  0
LINE
  8
0
  10
8.75551
  20
5.22991
  30
0
  11
8.7024
  21
5.20269
  31
0
  0
LINE
  8
0
  10
8.7024
  20
5.20269
  30
0
  11
8.64875
  21
5.17841
  31
0
  0
LINE
  8
0
  10
8.64875
  20
5.17841
  30
0
  11
8.62173
  21
5.16751
  31
0
  0
LINE
  8
0
  10
8.62173
  20
5.16751
  30
0
  11
8.59454
  21
5.15757
  31
0
  0
LINE
  8
0
  10
8.59454
  20
5.15757
  30
0
  11
8.56719
  21
5.14875
  31
0
  0
LINE
  8
0
  10
8.56719
  20
5.14875
  30
0
  11
8.55344
  21
5.14485
  31
0
  0
LINE
  8
0
  10
8.55344
  20
5.14485
  30
0
  11
8.53963
  21
5.14137
  31
0
  0
LINE
  8
0
  10
8.53963
  20
5.14137
  30
0
  11
8.52572
  21
5.13855
  31
0
  0
LINE
  8
0
  10
8.52572
  20
5.13855
  30
0
  11
8.56227
  21
4.75703
  31
0
  0
LINE
  8
0
  10
5.83223
  20
4.8497
  30
0
  11
5.83223
  21
4.8497
  31
0
  0
LINE
  8
0
  10
5.83223
  20
4.8497
  30
0
  11
7.9184
  21
4.78677
  31
0
  0
LINE
  8
0
  10
7.9184
  20
4.78677
  30
0
  11
8.06522
  21
4.94288
  31
0
  0
LINE
  8
0
  10
8.06522
  20
4.94288
  30
0
  11
8.03312
  21
5.17098
  31
0
  0
LINE
  8
0
  10
8.03312
  20
5.17098
  30
0
  11
7.98616
  21
5.39648
  31
0
  0
LINE
  8
0
  10
7.98616
  20
5.39648
  30
0
  11
7.92455
  21
5.61843
  31
0
  0
LINE
  8
0
  10
7.92455
  20
5.61843
  30
0
  11
7.84854
  21
5.83587
  31
0
  0
LINE
  8
0
  10
7.84854
  20
5.83587
  30
0
  11
7.75848
  21
6.04787
  31
0
  0
LINE
  8
0
  10
7.75848
  20
6.04787
  30
0
  11
7.65473
  21
6.25352
  31
0
  0
LINE
  8
0
  10
7.65473
  20
6.25352
  30
0
  11
7.53775
  21
6.45195
  31
0
  0
LINE
  8
0
  10
7.53775
  20
6.45195
  30
0
  11
7.40804
  21
6.6423
  31
0
  0
LINE
  8
0
  10
7.40804
  20
6.6423
  30
0
  11
7.26616
  21
6.82375
  31
0
  0
LINE
  8
0
  10
7.26616
  20
6.82375
  30
0
  11
7.1127
  21
6.99553
  31
0
  0
LINE
  8
0
  10
7.1127
  20
6.99553
  30
0
  11
6.94834
  21
7.1569
  31
0
  0
LINE
  8
0
  10
6.94834
  20
7.1569
  30
0
  11
6.77377
  21
7.30717
  31
0
  0
LINE
  8
0
  10
6.77377
  20
7.30717
  30
0
  11
6.58974
  21
7.4457
  31
0
  0
LINE
  8
0
  10
6.58974
  20
7.4457
  30
0
  11
6.39704
  21
7.57189
  31
0
  0
LINE
  8
0
  10
6.39704
  20
7.57189
  30
0
  11
6.1965
  21
7.6852
  31
0
  0
LINE
  8
0
  10
6.1965
  20
7.6852
  30
0
  11
5.99749
  21
7.60566
  31
0
  0
LINE
  8
0
  10
5.99749
  20
7.60566
  30
0
  11
5.29298
  21
5.64104
  31
0
  0
LINE
  8
0
  10
5.29298
  20
5.64104
  30
0
  11
5.36947
  21
5.37896
  31
0
  0
LINE
  8
0
  10
5.36947
  20
5.37896
  30
0
  11
5.51042
  21
5.20981
  31
0
  0
LINE
  8
0
  10
5.51042
  20
5.20981
  30
0
  11
5.61628
  21
5.01676
  31
0
  0
LINE
  8
0
  10
5.61628
  20
5.01676
  30
0
  11
5.83223
  21
4.8497
  31
0
  0
LINE
  8
0
  10
4.68876
  20
5.85772
  30
0
  11
4.68876
  21
5.85772
  31
0
  0
LINE
  8
0
  10
4.68876
  20
5.85772
  30
0
  11
5.39328
  21
7.82233
  31
0
  0
LINE
  8
0
  10
5.39328
  20
7.82233
  30
0
  11
5.29018
  21
8.01021
  31
0
  0
LINE
  8
0
  10
5.29018
  20
8.01021
  30
0
  11
5.06333
  21
8.05017
  31
0
  0
LINE
  8
0
  10
5.06333
  20
8.05017
  30
0
  11
4.83435
  21
8.07519
  31
0
  0
LINE
  8
0
  10
4.83435
  20
8.07519
  30
0
  11
4.60423
  21
8.08518
  31
0
  0
LINE
  8
0
  10
4.60423
  20
8.08518
  30
0
  11
4.37394
  21
8.08009
  31
0
  0
LINE
  8
0
  10
4.37394
  20
8.08009
  30
0
  11
4.14449
  21
8.05994
  31
0
  0
LINE
  8
0
  10
4.14449
  20
8.05994
  30
0
  11
3.91684
  21
8.02483
  31
0
  0
LINE
  8
0
  10
3.91684
  20
8.02483
  30
0
  11
3.69198
  21
7.97489
  31
0
  0
LINE
  8
0
  10
3.69198
  20
7.97489
  30
0
  11
3.47086
  21
7.91035
  31
0
  0
LINE
  8
0
  10
3.47086
  20
7.91035
  30
0
  11
3.25444
  21
7.83148
  31
0
  0
LINE
  8
0
  10
3.25444
  20
7.83148
  30
0
  11
3.04365
  21
7.73862
  31
0
  0
LINE
  8
0
  10
3.04365
  20
7.73862
  30
0
  11
2.83939
  21
7.63217
  31
0
  0
LINE
  8
0
  10
2.83939
  20
7.63217
  30
0
  11
2.64252
  21
7.51258
  31
0
  0
LINE
  8
0
  10
2.64252
  20
7.51258
  30
0
  11
2.45391
  21
7.38036
  31
0
  0
LINE
  8
0
  10
2.45391
  20
7.38036
  30
0
  11
2.27435
  21
7.23609
  31
0
  0
LINE
  8
0
  10
2.27435
  20
7.23609
  30
0
  11
2.10461
  21
7.08038
  31
0
  0
LINE
  8
0
  10
2.10461
  20
7.08038
  30
0
  11
2.11877
  21
6.86653
  31
0
  0
LINE
  8
0
  10
2.11877
  20
6.86653
  30
0
  11
3.76952
  21
5.5894
  31
0
  0
LINE
  8
0
  10
3.76952
  20
5.5894
  30
0
  11
4.04242
  21
5.58116
  31
0
  0
LINE
  8
0
  10
4.04242
  20
5.58116
  30
0
  11
4.24684
  21
5.66294
  31
0
  0
LINE
  8
0
  10
4.24684
  20
5.66294
  30
0
  11
4.46315
  21
5.70397
  31
0
  0
LINE
  8
0
  10
4.46315
  20
5.70397
  30
0
  11
4.68876
  21
5.85772
  31
0
  0
LINE
  8
0
  10
3.37674
  20
5.08171
  30
0
  11
3.37674
  21
5.08171
  31
0
  0
LINE
  8
0
  10
3.37674
  20
5.08171
  30
0
  11
1.72599
  21
6.35885
  31
0
  0
LINE
  8
0
  10
1.72599
  20
6.35885
  30
0
  11
1.51544
  21
6.31885
  31
0
  0
LINE
  8
0
  10
1.51544
  20
6.31885
  30
0
  11
1.40734
  21
6.11545
  31
0
  0
LINE
  8
0
  10
1.40734
  20
6.11545
  30
0
  11
1.31279
  21
5.90541
  31
0
  0
LINE
  8
0
  10
1.31279
  20
5.90541
  30
0
  11
1.23217
  21
5.68964
  31
0
  0
LINE
  8
0
  10
1.23217
  20
5.68964
  30
0
  11
1.16585
  21
5.46905
  31
0
  0
LINE
  8
0
  10
1.16585
  20
5.46905
  30
0
  11
1.11411
  21
5.2446
  31
0
  0
LINE
  8
0
  10
1.11411
  20
5.2446
  30
0
  11
1.07716
  21
5.01724
  31
0
  0
LINE
  8
0
  10
1.07716
  20
5.01724
  30
0
  11
1.05516
  21
4.78795
  31
0
  0
LINE
  8
0
  10
1.05516
  20
4.78795
  30
0
  11
1.04821
  21
4.55772
  31
0
  0
LINE
  8
0
  10
1.04821
  20
4.55772
  30
0
  11
1.05635
  21
4.32752
  31
0
  0
LINE
  8
0
  10
1.05635
  20
4.32752
  30
0
  11
1.07952
  21
4.09835
  31
0
  0
LINE
  8
0
  10
1.07952
  20
4.09835
  30
0
  11
1.11765
  21
3.87118
  31
0
  0
LINE
  8
0
  10
1.11765
  20
3.87118
  30
0
  11
1.17055
  21
3.647
  31
0
  0
LINE
  8
0
  10
1.17055
  20
3.647
  30
0
  11
1.23801
  21
3.42676
  31
0
  0
LINE
  8
0
  10
1.23801
  20
3.42676
  30
0
  11
1.31973
  21
3.21141
  31
0
  0
LINE
  8
0
  10
1.31973
  20
3.21141
  30
0
  11
1.41537
  21
3.00186
  31
0
  0
LINE
  8
0
  10
1.41537
  20
3.00186
  30
0
  11
1.62312
  21
2.94924
  31
0
  0
LINE
  8
0
  10
1.62312
  20
2.94924
  30
0
  11
3.34786
  21
4.12454
  31
0
  0
LINE
  8
0
  10
3.34786
  20
4.12454
  30
0
  11
3.44003
  21
4.38154
  31
0
  0
LINE
  8
0
  10
3.44003
  20
4.38154
  30
0
  11
3.42542
  21
4.60122
  31
0
  0
LINE
  8
0
  10
3.42542
  20
4.60122
  30
0
  11
3.45325
  21
4.81963
  31
0
  0
LINE
  8
0
  10
3.45325
  20
4.81963
  30
0
  11
3.37674
  21
5.08171
  31
0
  0
LINE
  8
0
  10
3.70932
  20
3.5941
  30
0
  11
3.70932
  21
3.5941
  31
0
  0
LINE
  8
0
  10
3.70932
  20
3.5941
  30
0
  11
1.98458
  21
2.4188
  31
0
  0
LINE
  8
0
  10
1.98458
  20
2.4188
  30
0
  11
1.95756
  21
2.2062
  31
0
  0
LINE
  8
0
  10
1.95756
  20
2.2062
  30
0
  11
2.1176
  21
2.04054
  31
0
  0
LINE
  8
0
  10
2.1176
  20
2.04054
  30
0
  11
2.28814
  21
1.8857
  31
0
  0
LINE
  8
0
  10
2.28814
  20
1.8857
  30
0
  11
2.46845
  21
1.74236
  31
0
  0
LINE
  8
0
  10
2.46845
  20
1.74236
  30
0
  11
2.65774
  21
1.61112
  31
0
  0
LINE
  8
0
  10
2.65774
  20
1.61112
  30
0
  11
2.85522
  21
1.49255
  31
0
  0
LINE
  8
0
  10
2.85522
  20
1.49255
  30
0
  11
3.06003
  21
1.38715
  31
0
  0
LINE
  8
0
  10
3.06003
  20
1.38715
  30
0
  11
3.2713
  21
1.29538
  31
0
  0
LINE
  8
0
  10
3.2713
  20
1.29538
  30
0
  11
3.48812
  21
1.21762
  31
0
  0
LINE
  8
0
  10
3.48812
  20
1.21762
  30
0
  11
3.70956
  21
1.15422
  31
0
  0
LINE
  8
0
  10
3.70956
  20
1.15422
  30
0
  11
3.93468
  21
1.10545
  31
0
  0
LINE
  8
0
  10
3.93468
  20
1.10545
  30
0
  11
4.16251
  21
1.07151
  31
0
  0
LINE
  8
0
  10
4.16251
  20
1.07151
  30
0
  11
4.39206
  21
1.05254
  31
0
  0
LINE
  8
0
  10
4.39206
  20
1.05254
  30
0
  11
4.62237
  21
1.04864
  31
0
  0
LINE
  8
0
  10
4.62237
  20
1.04864
  30
0
  11
4.85244
  21
1.05982
  31
0
  0
LINE
  8
0
  10
4.85244
  20
1.05982
  30
0
  11
5.08129
  21
1.08602
  31
0
  0
LINE
  8
0
  10
5.08129
  20
1.08602
  30
0
  11
5.19553
  21
1.26735
  31
0
  0
LINE
  8
0
  10
5.19553
  20
1.26735
  30
0
  11
4.61072
  21
3.27086
  31
0
  0
LINE
  8
0
  10
4.61072
  20
3.27086
  30
0
  11
4.39479
  21
3.43793
  31
0
  0
LINE
  8
0
  10
4.39479
  20
3.43793
  30
0
  11
4.18134
  21
3.49192
  31
0
  0
LINE
  8
0
  10
4.18134
  20
3.49192
  30
0
  11
3.98222
  21
3.58588
  31
0
  0
LINE
  8
0
  10
3.98222
  20
3.58588
  30
0
  11
3.70932
  21
3.5941
  31
0
  0
LINE
  8
0
  10
5.2269
  20
3.45071
  30
0
  11
5.2269
  21
3.45071
  31
0
  0
LINE
  8
0
  10
5.2269
  20
3.45071
  30
0
  11
5.8117
  21
1.4472
  31
0
  0
LINE
  8
0
  10
5.8117
  20
1.4472
  30
0
  11
6.00555
  21
1.3558
  31
0
  0
LINE
  8
0
  10
6.00555
  20
1.3558
  30
0
  11
6.21256
  21
1.45682
  31
0
  0
LINE
  8
0
  10
6.21256
  20
1.45682
  30
0
  11
6.41251
  21
1.57117
  31
0
  0
LINE
  8
0
  10
6.41251
  20
1.57117
  30
0
  11
6.60456
  21
1.69835
  31
0
  0
LINE
  8
0
  10
6.60456
  20
1.69835
  30
0
  11
6.78787
  21
1.83782
  31
0
  0
LINE
  8
0
  10
6.78787
  20
1.83782
  30
0
  11
6.96166
  21
1.98899
  31
0
  0
LINE
  8
0
  10
6.96166
  20
1.98899
  30
0
  11
7.1252
  21
2.15121
  31
0
  0
LINE
  8
0
  10
7.1252
  20
2.15121
  30
0
  11
7.27776
  21
2.32378
  31
0
  0
LINE
  8
0
  10
7.27776
  20
2.32378
  30
0
  11
7.41871
  21
2.50596
  31
0
  0
LINE
  8
0
  10
7.41871
  20
2.50596
  30
0
  11
7.54744
  21
2.69698
  31
0
  0
LINE
  8
0
  10
7.54744
  20
2.69698
  30
0
  11
7.66339
  21
2.896
  31
0
  0
LINE
  8
0
  10
7.66339
  20
2.896
  30
0
  11
7.76607
  21
3.10219
  31
0
  0
LINE
  8
0
  10
7.76607
  20
3.10219
  30
0
  11
7.85504
  21
3.31465
  31
0
  0
LINE
  8
0
  10
7.85504
  20
3.31465
  30
0
  11
7.92992
  21
3.53248
  31
0
  0
LINE
  8
0
  10
7.92992
  20
3.53248
  30
0
  11
7.99039
  21
3.75475
  31
0
  0
LINE
  8
0
  10
7.99039
  20
3.75475
  30
0
  11
8.03619
  21
3.98049
  31
0
  0
LINE
  8
0
  10
8.03619
  20
3.98049
  30
0
  11
7.89904
  21
4.14517
  31
0
  0
LINE
  8
0
  10
7.89904
  20
4.14517
  30
0
  11
5.81287
  21
4.20811
  31
0
  0
LINE
  8
0
  10
5.81287
  20
4.20811
  30
0
  11
5.58725
  21
4.05437
  31
0
  0
LINE
  8
0
  10
5.58725
  20
4.05437
  30
0
  11
5.46994
  21
3.86805
  31
0
  0
LINE
  8
0
  10
5.46994
  20
3.86805
  30
0
  11
5.31905
  21
3.70771
  31
0
  0
LINE
  8
0
  10
5.31905
  20
3.70771
  30
0
  11
5.2269
  21
3.45071
  31
0
  0
LINE
  8
0
  10
5.06679
  20
4.56679
  30
0
  11
5.06679
  21
4.56679
  31
0
  0
LINE
  8
0
  10
5.06679
  20
4.56679
  30
0
  11
5.04975
  21
4.6962
  31
0
  0
LINE
  8
0
  10
5.04975
  20
4.6962
  30
0
  11
4.9998
  21
4.81679
  31
0
  0
LINE
  8
0
  10
4.9998
  20
4.81679
  30
0
  11
4.92034
  21
4.92034
  31
0
  0
LINE
  8
0
  10
4.92034
  20
4.92034
  30
0
  11
4.81679
  21
4.9998
  31
0
  0
LINE
  8
0
  10
4.81679
  20
4.9998
  30
0
  11
4.6962
  21
5.04975
  31
0
  0
LINE
  8
0
  10
4.6962
  20
5.04975
  30
0
  11
4.56679
  21
5.06679
  31
0
  0
LINE
  8
0
  10
4.56679
  20
5.06679
  30
0
  11
4.43738
  21
5.04975
  31
0
  0
LINE
  8
0
  10
4.43738
  20
5.04975
  30
0
  11
4.31679
  21
4.9998
  31
0
  0
LINE
  8
0
  10
4.31679
  20
4.9998
  30
0
  11
4.21324
  21
4.92034
  31
0
  0
LINE
  8
0
  10
4.21324
  20
4.92034
  30
0
  11
4.13378
  21
4.81679
  31
0
  0
LINE
  8
0
  10
4.13378
  20
4.81679
  30
0
  11
4.08383
  21
4.6962
  31
0
  0
LINE
  8
0
  10
4.08383
  20
4.6962
  30
0
  11
4.06679
  21
4.56679
  31
0
  0
LINE
  8
0
  10
4.06679
  20
4.56679
  30
0
  11
4.08383
  21
4.43738
  31
0
  0
LINE
  8
0
  10
4.08383
  20
4.43738
  30
0
  11
4.13378
  21
4.31679
  31
0
  0
LINE
  8
0
  10
4.13378
  20
4.31679
  30
0
  11
4.21324
  21
4.21324
  31
0
  0
LINE
  8
0
  10
4.21324
  20
4.21324
  30
0
  11
4.31679
  21
4.13378
  31
0
  0
LINE
  8
0
  10
4.31679
  20
4.13378
  30
0
  11
4.43738
  21
4.08383
  31
0
  0
LINE
  8
0
  10
4.43738
  20
4.08383
  30
0
  11
4.56679
  21
4.06679
  31
0
  0
LINE
  8
0
  10
4.56679
  20
4.06679
  30
0
  11
4.6962
  21
4.08383
  31
0
  0
LINE
  8
0
  10
4.6962
  20
4.08383
  30
0
  11
4.81679
  21
4.13378
  31
0
  0
LINE
  8
0
  10
4.81679
  20
4.13378
  30
0
  11
4.92034
  21
4.21324
  31
0
  0
LINE
  8
0
  10
4.92034
  20
4.21324
  30
0
  11
4.9998
  21
4.31679
  31
0
  0
LINE
  8
0
  10
4.9998
  20
4.31679
  30
0
  11
5.04975
  21
4.43738
  31
0
  0
LINE
  8
0
  10
5.04975
  20
4.43738
  30
0
  11
5.06679
  21
4.56679
  31
0
  0
LINE
  8
0
  10
5.06679
  20
4.56679
  30
0
  11
5.06679
  21
4.56679
  31
0
  0
LINE
  8
0
  10
8.51833
  20
3.94602
  30
0
  11
9.07825
  21
3.85806
  31
0
  0
LINE
  8
0
  10
8.2398
  20
2.98281
  30
0
  11
8.76026
  21
2.75837
  31
0
  0
LINE
  8
0
  10
7.73049
  20
2.11913
  30
0
  11
8.17878
  21
1.77231
  31
0
  0
LINE
  8
0
  10
7.02239
  20
1.40925
  30
0
  11
7.37034
  21
0.96184
  31
0
  0
LINE
  8
0
  10
6.15999
  20
0.89777
  30
0
  11
6.38575
  21
0.37788
  31
0
  0
LINE
  8
0
  10
5.19749
  20
0.61682
  30
0
  11
5.28686
  21
0.05713
  31
0
  0
LINE
  8
0
  10
4.19536
  20
0.58407
  30
0
  11
4.14273
  21
0.01973
  31
0
  0
LINE
  8
0
  10
3.21657
  20
0.80156
  30
0
  11
3.02525
  21
0.26804
  31
0
  0
LINE
  8
0
  10
2.32261
  20
1.25564
  30
0
  11
2.00462
  21
0.78646
  31
0
  0
LINE
  8
0
  10
1.56967
  20
1.91777
  30
0
  11
1.14499
  21
1.54242
  31
0
  0
LINE
  8
0
  10
1.00505
  20
2.74635
  30
0
  11
0.50036
  21
2.4884
  31
0
  0
LINE
  8
0
  10
0.66422
  20
3.68931
  30
0
  11
0.11124
  21
3.56498
  31
0
  0
LINE
  8
0
  10
0.56861
  20
4.68741
  30
0
  11
0.00208
  21
4.7045
  31
0
  0
LINE
  8
0
  10
0.72421
  20
5.67793
  30
0
  11
0.17973
  21
5.83537
  31
0
  0
LINE
  8
0
  10
1.12126
  20
6.59863
  30
0
  11
0.63304
  21
6.88653
  31
0
  0
LINE
  8
0
  10
1.73481
  20
7.39166
  30
0
  11
1.33353
  21
7.79194
  31
0
  0
LINE
  8
0
  10
2.5263
  20
8.0072
  30
0
  11
2.23717
  21
8.49469
  31
0
  0
LINE
  8
0
  10
3.446
  20
8.40656
  30
0
  11
3.28719
  21
8.95065
  31
0
  0
LINE
  8
0
  10
4.43612
  20
8.56466
  30
0
  11
4.41761
  21
9.13114
  31
0
  0
LINE
  8
0
  10
5.43446
  20
8.47155
  30
0
  11
5.5574
  21
9.02485
  31
0
  0
LINE
  8
0
  10
6.37827
  20
8.1331
  30
0
  11
6.63495
  21
8.63843
  31
0
  0
LINE
  8
0
  10
7.20827
  20
7.57056
  30
0
  11
7.58256
  21
7.99618
  31
0
  0
LINE
  8
0
  10
7.87229
  20
6.81928
  30
0
  11
8.34066
  21
7.13845
  31
0
  0
LINE
  8
0
  10
8.32861
  20
5.92647
  30
0
  11
8.86165
  21
6.11913
  31
0
  0
LINE
  8
0
  10
8.54857
  20
4.94823
  30
0
  11
9.11277
  21
5.00228
  31
0
  0
LINE
  8
0
  10
8.82344
  20
4.56679
  30
0
  11
8.82344
  21
4.56679
  31
0
  0
LINE
  8
0
  10
8.82344
  20
4.56679
  30
0
  11
8.81504
  21
4.83407
  31
0
  0
LINE
  8
0
  10
8.81504
  20
4.83407
  30
0
  11
8.78988
  21
5.10029
  31
0
  0
LINE
  8
0
  10
8.78988
  20
5.10029
  30
0
  11
8.74804
  21
5.36441
  31
0
  0
LINE
  8
0
  10
8.74804
  20
5.36441
  30
0
  11
8.68971
  21
5.62538
  31
0
  0
LINE
  8
0
  10
8.68971
  20
5.62538
  30
0
  11
8.61511
  21
5.88217
  31
0
  0
LINE
  8
0
  10
8.61511
  20
5.88217
  30
0
  11
8.52452
  21
6.13377
  31
0
  0
LINE
  8
0
  10
8.52452
  20
6.13377
  30
0
  11
8.41832
  21
6.37918
  31
0
  0
LINE
  8
0
  10
8.41832
  20
6.37918
  30
0
  11
8.29692
  21
6.61745
  31
0
  0
LINE
  8
0
  10
8.29692
  20
6.61745
  30
0
  11
8.1608
  21
6.84762
  31
0
  0
LINE
  8
0
  10
8.1608
  20
6.84762
  30
0
  11
8.01049
  21
7.06879
  31
0
  0
LINE
  8
0
  10
8.01049
  20
7.06879
  30
0
  11
7.8466
  21
7.28008
  31
0
  0
LINE
  8
0
  10
7.8466
  20
7.28008
  30
0
  11
7.66976
  21
7.48067
  31
0
  0
LINE
  8
0
  10
7.66976
  20
7.48067
  30
0
  11
7.48067
  21
7.66976
  31
0
  0
LINE
  8
0
  10
7.48067
  20
7.66976
  30
0
  11
7.28008
  21
7.8466
  31
0
  0
LINE
  8
0
  10
7.28008
  20
7.8466
  30
0
  11
7.06879
  21
8.01049
  31
0
  0
LINE
  8
0
  10
7.06879
  20
8.01049
  30
0
  11
6.84762
  21
8.1608
  31
0
  0
LINE
  8
0
  10
6.84762
  20
8.1608
  30
0
  11
6.61745
  21
8.29692
  31
0
  0
LINE
  8
0
  10
6.61745
  20
8.29692
  30
0
  11
6.37918
  21
8.41832
  31
0
  0
LINE
  8
0
  10
6.37918
  20
8.41832
  30
0
  11
6.13377
  21
8.52452
  31
0
  0
LINE
  8
0
  10
6.13377
  20
8.52452
  30
0
  11
5.88217
  21
8.61511
  31
0
  0
LINE
  8
0
  10
5.88217
  20
8.61511
  30
0
  11
5.62538
  21
8.68971
  31
0
  0
LINE
  8
0
  10
5.62538
  20
8.68971
  30
0
  11
5.36441
  21
8.74804
  31
0
  0
LINE
  8
0
  10
5.36441
  20
8.74804
  30
0
  11
5.10029
  21
8.78988
  31
0
  0
LINE
  8
0
  10
5.10029
  20
8.78988
  30
0
  11
4.83407
  21
8.81504
  31
0
  0
LINE
  8
0
  10
4.83407
  20
8.81504
  30
0
  11
4.56679
  21
8.82344
  31
0
  0
LINE
  8
0
  10
4.56679
  20
8.82344
  30
0
  11
4.29951
  21
8.81504
  31
0
  0
LINE
  8
0
  10
4.29951
  20
8.81504
  30
0
  11
4.03329
  21
8.78988
  31
0
  0
LINE
  8
0
  10
4.03329
  20
8.78988
  30
0
  11
3.76917
  21
8.74804
  31
0
  0
LINE
  8
0
  10
3.76917
  20
8.74804
  30
0
  11
3.5082
  21
8.68971
  31
0
  0
LINE
  8
0
  10
3.5082
  20
8.68971
  30
0
  11
3.25141
  21
8.61511
  31
0
  0
LINE
  8
0
  10
3.25141
  20
8.61511
  30
0
  11
2.99981
  21
8.52452
  31
0
  0
LINE
  8
0
  10
2.99981
  20
8.52452
  30
0
  11
2.7544
  21
8.41832
  31
0
  0
LINE
  8
0
  10
2.7544
  20
8.41832
  30
0
  11
2.51613
  21
8.29692
  31
0
  0
LINE
  8
0
  10
2.51613
  20
8.29692
  30
0
  11
2.28596
  21
8.1608
  31
0
  0
LINE
  8
0
  10
2.28596
  20
8.1608
  30
0
  11
2.06479
  21
8.01049
  31
0
  0
LINE
  8
0
  10
2.06479
  20
8.01049
  30
0
  11
1.8535
  21
7.8466
  31
0
  0
LINE
  8
0
  10
1.8535
  20
7.8466
  30
0
  11
1.65291
  21
7.66976
  31
0
  0
LINE
  8
0
  10
1.65291
  20
7.66976
  30
0
  11
1.46382
  21
7.48067
  31
0
  0
LINE
  8
0
  10
1.46382
  20
7.48067
  30
0
  11
1.28698
  21
7.28008
  31
0
  0
LINE
  8
0
  10
1.28698
  20
7.28008
  30
0
  11
1.12309
  21
7.06879
  31
0
  0
LINE
  8
0
  10
1.12309
  20
7.06879
  30
0
  11
0.97278
  21
6.84762
  31
0
  0
LINE
  8
0
  10
0.97278
  20
6.84762
  30
0
  11
0.83666
  21
6.61745
  31
0
  0
LINE
  8
0
  10
0.83666
  20
6.61745
  30
0
  11
0.71526
  21
6.37918
  31
0
  0
LINE
  8
0
  10
0.71526
  20
6.37918
  30
0
  11
0.60906
  21
6.13377
  31
0
  0
LINE
  8
0
  10
0.60906
  20
6.13377
  30
0
  11
0.51847
  21
5.88217
  31
0
  0
LINE
  8
0
  10
0.51847
  20
5.88217
  30
0
  11
0.44387
  21
5.62538
  31
0
  0
LINE
  8
0
  10
0.44387
  20
5.62538
  30
0
  11
0.38554
  21
5.36441
  31
0
  0
LINE
  8
0
  10
0.38554
  20
5.36441
  30
0
  11
0.3437
  21
5.10029
  31
0
  0
LINE
  8
0
  10
0.3437
  20
5.10029
  30
0
  11
0.31854
  21
4.83407
  31
0
  0
LINE
  8
0
  10
0.31854
  20
4.83407
  30
0
  11
0.31014
  21
4.56679
  31
0
  0
LINE
  8
0
  10
0.31014
  20
4.56679
  30
0
  11
0.31854
  21
4.29951
  31
0
  0
LINE
  8
0
  10
0.31854
  20
4.29951
  30
0
  11
0.3437
  21
4.03329
  31
0
  0
LINE
  8
0
  10
0.3437
  20
4.03329
  30
0
  11
0.38554
  21
3.76917
  31
0
  0
LINE
  8
0
  10
0.38554
  20
3.76917
  30
0
  11
0.44387
  21
3.5082
  31
0
  0
LINE
  8
0
  10
0.44387
  20
3.5082
  30
0
  11
0.51847
  21
3.25141
  31
0
  0
LINE
  8
0
  10
0.51847
  20
3.25141
  30
0
  11
0.60906
  21
2.99981
  31
0
  0
LINE
  8
0
  10
0.60906
  20
2.99981
  30
0
  11
0.71526
  21
2.7544
  31
0
  0
LINE
  8
0
  10
0.71526
  20
2.7544
  30
0
  11
0.83666
  21
2.51613
  31
0
  0
LINE
  8
0
  10
0.83666
  20
2.51613
  30
0
  11
0.97278
  21
2.28596
  31
0
  0
LINE
  8
0
  10
0.97278
  20
2.28596
  30
0
  11
1.12309
  21
2.06479
  31
0
  0
LINE
  8
0
  10
1.12309
  20
2.06479
  30
0
  11
1.28698
  21
1.8535
  31
0
  0
LINE
  8
0
  10
1.28698
  20
1.8535
  30
0
  11
1.46382
  21
1.65291
  31
0
  0
LINE
  8
0
  10
1.46382
  20
1.65291
  30
0
  11
1.65291
  21
1.46382
  31
0
  0
LINE
  8
0
  10
1.65291
  20
1.46382
  30
0
  11
1.8535
  21
1.28698
  31
0
  0
LINE
  8
0
  10
1.8535
  20
1.28698
  30
0
  11
2.06479
  21
1.12309
  31
0
  0
LINE
  8
0
  10
2.06479
  20
1.12309
  30
0
  11
2.28596
  21
0.97278
  31
0
  0
LINE
  8
0
  10
2.28596
  20
0.97278
  30
0
  11
2.51613
  21
0.83666
  31
0
  0
LINE
  8
0
  10
2.51613
  20
0.83666
  30
0
  11
2.7544
  21
0.71526
  31
0
  0
LINE
  8
0
  10
2.7544
  20
0.71526
  30
0
  11
2.99981
  21
0.60906
  31
0
  0
LINE
  8
0
  10
2.99981
  20
0.60906
  30
0
  11
3.25141
  21
0.51847
  31
0
  0
LINE
  8
0
  10
3.25141
  20
0.51847
  30
0
  11
3.5082
  21
0.44387
  31
0
  0
LINE
  8
0
  10
3.5082
  20
0.44387
  30
0
  11
3.76917
  21
0.38554
  31
0
  0
LINE
  8
0
  10
3.76917
  20
0.38554
  30
0
  11
4.03329
  21
0.3437
  31
0
  0
LINE
  8
0
  10
4.03329
  20
0.3437
  30
0
  11
4.29951
  21
0.31854
  31
0
  0
LINE
  8
0
  10
4.29951
  20
0.31854
  30
0
  11
4.56679
  21
0.31014
  31
0
  0
LINE
  8
0
  10
4.56679
  20
0.31014
  30
0
  11
4.83407
  21
0.31854
  31
0
  0
LINE
  8
0
  10
4.83407
  20
0.31854
  30
0
  11
5.10029
  21
0.3437
  31
0
  0
LINE
  8
0
  10
5.10029
  20
0.3437
  30
0
  11
5.36441
  21
0.38554
  31
0
  0
LINE
  8
0
  10
5.36441
  20
0.38554
  30
0
  11
5.62538
  21
0.44387
  31
0
  0
LINE
  8
0
  10
5.62538
  20
0.44387
  30
0
  11
5.88217
  21
0.51847
  31
0
  0
LINE
  8
0
  10
5.88217
  20
0.51847
  30
0
  11
6.13377
  21
0.60906
  31
0
  0
LINE
  8
0
  10
6.13377
  20
0.60906
  30
0
  11
6.37918
  21
0.71526
  31
0
  0
LINE
  8
0
  10
6.37918
  20
0.71526
  30
0
  11
6.61745
  21
0.83666
  31
0
  0
LINE
  8
0
  10
6.61745
  20
0.83666
  30
0
  11
6.84762
  21
0.97278
  31
0
  0
LINE
  8
0
  10
6.84762
  20
0.97278
  30
0
  11
7.06879
  21
1.12309
  31
0
  0
LINE
  8
0
  10
7.06879
  20
1.12309
  30
0
  11
7.28008
  21
1.28698
  31
0
  0
LINE
  8
0
  10
7.28008
  20
1.28698
  30
0
  11
7.48067
  21
1.46382
  31
0
  0
LINE
  8
0
  10
7.48067
  20
1.46382
  30
0
  11
7.66976
  21
1.65291
  31
0
  0
LINE
  8
0
  10
7.66976
  20
1.65291
  30
0
  11
7.8466
  21
1.8535
  31
0
  0
LINE
  8
0
  10
7.8466
  20
1.8535
  30
0
  11
8.01049
  21
2.06479
  31
0
  0
LINE
  8
0
  10
8.01049
  20
2.06479
  30
0
  11
8.1608
  21
2.28596
  31
0
  0
LINE
  8
0
  10
8.1608
  20
2.28596
  30
0
  11
8.29692
  21
2.51613
  31
0
  0
LINE
  8
0
  10
8.29692
  20
2.51613
  30
0
  11
8.41832
  21
2.7544
  31
0
  0
LINE
  8
0
  10
8.41832
  20
2.7544
  30
0
  11
8.52452
  21
2.99981
  31
0
  0
LINE
  8
0
  10
8.52452
  20
2.99981
  30
0
  11
8.61511
  21
3.25141
  31
0
  0
LINE
  8
0
  10
8.61511
  20
3.25141
  30
0
  11
8.68971
  21
3.5082
  31
0
  0
LINE
  8
0
  10
8.68971
  20
3.5082
  30
0
  11
8.74804
  21
3.76917
  31
0
  0
LINE
  8
0
  10
8.74804
  20
3.76917
  30
0
  11
8.78988
  21
4.03329
  31
0
  0
LINE
  8
0
  10
8.78988
  20
4.03329
  30
0
  11
8.81504
  21
4.29951
  31
0
  0
LINE
  8
0
  10
8.81504
  20
4.29951
  30
0
  11
8.82344
  21
4.56679
  31
0
  0
LINE
  8
0
  10
8.82344
  20
4.56679
  30
0
  11
8.82344
  21
4.56679
  31
0
  0
LINE
  8
0
  10
3.04453
  20
4.56679
  30
0
  11
6.08905
  21
4.56679
  31
0
  0
LINE
  8
0
  10
4.56679
  20
3.04453
  30
0
  11
4.56679
  21
6.08905
  31
0
  0
ENDSEC
  0
EOF
