<?xml version="1.0" encoding="UTF-8" standalone="no"?>
<svg
   xmlns:dc="http://purl.org/dc/elements/1.1/"
   xmlns:cc="http://creativecommons.org/ns#"
   xmlns:rdf="http://www.w3.org/1999/02/22-rdf-syntax-ns#"
   xmlns:svg="http://www.w3.org/2000/svg"
   xmlns="http://www.w3.org/2000/svg"
   xmlns:xlink="http://www.w3.org/1999/xlink"
   xmlns:sodipodi="http://sodipodi.sourceforge.net/DTD/sodipodi-0.dtd"
   xmlns:inkscape="http://www.inkscape.org/namespaces/inkscape"
   width="1280"
   height="640"
   viewBox="0 0 10080 5040"
   version="1.1"
   id="svg115"
   sodipodi:docname="Australia.svg"
   inkscape:export-filename="C:\Users\Public\Documents\Vectric Files\Gadgets\VCarve Pro V11.0\EasyTools\EasyFlagMaker\Images\Australia.png"
   inkscape:export-xdpi="96"
   inkscape:export-ydpi="96"
   inkscape:version="0.92.5 (2060ec1f9f, 2020-04-08)">
  <metadata
     id="metadata119">
    <rdf:RDF>
      <cc:Work
         rdf:about="">
        <dc:format>image/svg+xml</dc:format>
        <dc:type
           rdf:resource="http://purl.org/dc/dcmitype/StillImage" />
      </cc:Work>
    </rdf:RDF>
  </metadata>
  <sodipodi:namedview
     pagecolor="#ffffff"
     bordercolor="#666666"
     borderopacity="1"
     objecttolerance="10"
     gridtolerance="10"
     guidetolerance="10"
     inkscape:pageopacity="0"
     inkscape:pageshadow="2"
     inkscape:window-width="1492"
     inkscape:window-height="1004"
     id="namedview117"
     showgrid="false"
     inkscape:zoom="1.3789062"
     inkscape:cx="531.21813"
     inkscape:cy="320"
     inkscape:window-x="2280"
     inkscape:window-y="63"
     inkscape:window-maximized="0"
     inkscape:current-layer="svg115" />
  <defs
     id="defs93">
    <clipPath
       id="c1">
      <path
         d="M0,0H6V3H0z"
         id="path84" />
    </clipPath>
    <clipPath
       id="c2">
      <path
         d="M0,0V1.5H6V3H6zM6,0H3V3H0V3z"
         id="path87" />
    </clipPath>
    <path
       id="Star7"
       d="M0,-360 69.421398,-144.155019 281.459334,-224.456329 155.988466,-35.603349 350.974048,80.107536 125.093037,99.758368 156.198146,324.348792 0,160 -156.198146,324.348792 -125.093037,99.758368 -350.974048,80.107536 -155.988466,-35.603349 -281.459334,-224.456329 -69.421398,-144.155019z" />
    <path
       id="Star5"
       d="M0,-210 54.859957,-75.508253 199.721868,-64.893569 88.765275,28.841586 123.434903,169.893569 0,93.333333 -123.434903,169.893569 -88.765275,28.841586 -199.721868,-64.893569 -54.859957,-75.508253z" />
    <use
       id="Cstar"
       xlink:href="#Star7"
       transform="scale(2.1)" />
  </defs>
  <g
     transform="scale(840)"
     id="g105">
    <rect
       width="12"
       height="6"
       fill="#00008b"
       id="rect95" />
    <path
       d="M0,0 6,3M6,0 0,3"
       stroke="#fff"
       stroke-width="0.6"
       clip-path="url(#c1)"
       id="path97" />
    <path
       d="M0,0 6,3M6,0 0,3"
       stroke="#f00"
       stroke-width="0.4"
       clip-path="url(#c2)"
       id="path99" />
    <path
       d="M3,0V3M0,1.5H6"
       stroke="#fff"
       id="path101" />
    <path
       d="M3,0V3M0,1.5H6"
       stroke="#f00"
       stroke-width="0.6"
       id="path103" />
  </g>
  <g
     fill="#fff"
     id="g113">
    <use
       id="Comwlth"
       xlink:href="#Cstar"
       x="2520"
       y="3780" />
    <use
       id="αCrucis"
       xlink:href="#Star7"
       x="7560"
       y="4200" />
    <use
       id="βCrucis"
       xlink:href="#Star7"
       x="6300"
       y="2205" />
    <use
       id="γCrucis"
       xlink:href="#Star7"
       x="7560"
       y="840" />
    <use
       id="δCrucis"
       xlink:href="#Star7"
       x="8680"
       y="1869" />
    <use
       id="εCrucis"
       xlink:href="#Star5"
       x="8064"
       y="2730" />
  </g>
</svg>
