  0
SECTION
  2
HEADER
  9
$ACADVER
  1
AC1009
  9
$DWGCODEPAGE
  3
ansi_1252
  9
$INSBASE
 10
0.0
 20
0.0
 30
0.0
  9
$EXTMIN
 10
0.9999999999999999
 20
1.0
 30
0.0
  9
$EXTMAX
 10
2.9
 20
2.0
 30
0.0
  9
$LIMMIN
 10
0.0
 20
0.0
  9
$LIMMAX
 10
12.0
 20
9.0
  9
$ORTHOMODE
 70
     0
  9
$REGENMODE
 70
     1
  9
$FILLMODE
 70
     1
  9
$QTEXTMODE
 70
     0
  9
$MIRRTEXT
 70
     1
  9
$DRAGMODE
 70
     2
  9
$LTSCALE
 40
1.0
  9
$OSMODE
 70
    37
  9
$ATTMODE
 70
     1
  9
$TEXTSIZE
 40
0.2
  9
$TRACEWID
 40
0.05
  9
$TEXTSTYLE
  7
STANDARD
  9
$CLAYER
  8
0
  9
$CELTYPE
  6
BYLAYER
  9
$CECOLOR
 62
   256
  9
$DIMSCALE
 40
1.0
  9
$DIMASZ
 40
0.18
  9
$DIMEXO
 40
0.0625
  9
$DIMDLI
 40
0.38
  9
$DIMRND
 40
0.0
  9
$DIMDLE
 40
0.0
  9
$DIMEXE
 40
0.18
  9
$DIMTP
 40
0.0
  9
$DIMTM
 40
0.0
  9
$DIMTXT
 40
0.18
  9
$DIMCEN
 40
0.09
  9
$DIMTSZ
 40
0.0
  9
$DIMTOL
 70
     0
  9
$DIMLIM
 70
     0
  9
$DIMTIH
 70
     1
  9
$DIMTOH
 70
     1
  9
$DIMSE1
 70
     0
  9
$DIMSE2
 70
     0
  9
$DIMTAD
 70
     0
  9
$DIMZIN
 70
     0
  9
$DIMBLK
  1

  9
$DIMASO
 70
     1
  9
$DIMSHO
 70
     1
  9
$DIMPOST
  1

  9
$DIMAPOST
  1

  9
$DIMALT
 70
     0
  9
$DIMALTD
 70
     2
  9
$DIMALTF
 40
25.4
  9
$DIMLFAC
 40
1.0
  9
$DIMTOFL
 70
     0
  9
$DIMTVP
 40
0.0
  9
$DIMTIX
 70
     0
  9
$DIMSOXD
 70
     0
  9
$DIMSAH
 70
     0
  9
$DIMBLK1
  1

  9
$DIMBLK2
  1

  9
$DIMSTYLE
  2
STANDARD
  9
$DIMCLRD
 70
     0
  9
$DIMCLRE
 70
     0
  9
$DIMCLRT
 70
     0
  9
$DIMTFAC
 40
1.0
  9
$DIMGAP
 40
0.09
  9
$LUNITS
 70
     2
  9
$LUPREC
 70
     4
  9
$SKETCHINC
 40
0.1
  9
$FILLETRAD
 40
0.5
  9
$AUNITS
 70
     0
  9
$AUPREC
 70
     0
  9
$MENU
  1
.
  9
$ELEVATION
 40
0.0
  9
$PELEVATION
 40
0.0
  9
$THICKNESS
 40
0.0
  9
$LIMCHECK
 70
     0
  9
$CHAMFERA
 40
0.0
  9
$CHAMFERB
 40
0.0
  9
$SKPOLY
 70
     0
  9
$TDCREATE
 40
2454910.5
  9
$TDUPDATE
 40
2458784.43417787
  9
$TDINDWG
 40
0.0000000116
  9
$TDUSRTIMER
 40
0.0000000116
  9
$USRTIMER
 70
     1
  9
$ANGBASE
 50
0.0
  9
$ANGDIR
 70
     0
  9
$PDMODE
 70
     0
  9
$PDSIZE
 40
0.0
  9
$PLINEWID
 40
0.0
  9
$COORDS
 70
     1
  9
$SPLFRAME
 70
     0
  9
$SPLINETYPE
 70
     6
  9
$SPLINESEGS
 70
     8
  9
$ATTDIA
 70
     0
  9
$ATTREQ
 70
     1
  9
$HANDLING
 70
     1
  9
$HANDSEED
  5
4F0
  9
$SURFTAB1
 70
     6
  9
$SURFTAB2
 70
     6
  9
$SURFTYPE
 70
     6
  9
$SURFU
 70
     6
  9
$SURFV
 70
     6
  9
$UCSNAME
  2

  9
$UCSORG
 10
0.0
 20
0.0
 30
0.0
  9
$UCSXDIR
 10
1.0
 20
0.0
 30
0.0
  9
$UCSYDIR
 10
0.0
 20
1.0
 30
0.0
  9
$PUCSNAME
  2

  9
$PUCSORG
 10
0.0
 20
0.0
 30
0.0
  9
$PUCSXDIR
 10
1.0
 20
0.0
 30
0.0
  9
$PUCSYDIR
 10
0.0
 20
1.0
 30
0.0
  9
$USERI1
 70
     0
  9
$USERI2
 70
     0
  9
$USERI3
 70
     0
  9
$USERI4
 70
     0
  9
$USERI5
 70
     0
  9
$USERR1
 40
0.0
  9
$USERR2
 40
0.0
  9
$USERR3
 40
0.0
  9
$USERR4
 40
0.0
  9
$USERR5
 40
0.0
  9
$WORLDVIEW
 70
     1
  9
$SHADEDGE
 70
     3
  9
$SHADEDIF
 70
    70
  9
$TILEMODE
 70
     1
  9
$MAXACTVP
 70
    64
  9
$PLIMCHECK
 70
     0
  9
$PEXTMIN
 10
1.000000000000000E+20
 20
1.000000000000000E+20
 30
1.000000000000000E+20
  9
$PEXTMAX
 10
-1.000000000000000E+20
 20
-1.000000000000000E+20
 30
-1.000000000000000E+20
  9
$PLIMMIN
 10
0.0
 20
0.0
  9
$PLIMMAX
 10
12.0
 20
9.0
  9
$UNITMODE
 70
     0
  9
$VISRETAIN
 70
     1
  9
$PLINEGEN
 70
     0
  9
$PSLTSCALE
 70
     1
  0
ENDSEC
  0
SECTION
  2
TABLES
  0
TABLE
  2
VPORT
 70
     1
  0
VPORT
  2
*ACTIVE
 70
     0
 10
0.0
 20
0.0
 11
1.0
 21
1.0
 12
10.42990654205607
 22
4.5
 13
0.0
 23
0.0
 14
0.5
 24
0.5
 15
0.5
 25
0.5
 16
0.0
 26
0.0
 36
1.0
 17
0.0
 27
0.0
 37
0.0
 40
9.0
 41
1.972972972850329
 42
50.0
 43
0.0
 44
0.0
 50
0.0
 51
0.0
 71
     0
 72
   100
 73
     1
 74
     3
 75
     0
 76
     0
 77
     0
 78
     0
  0
ENDTAB
  0
TABLE
  2
LTYPE
 70
     2
  0
LTYPE
  2
CONTINUOUS
 70
     0
  3
Solid line
 72
    65
 73
     0
 40
0.0
  0
LTYPE
  2
CONTINUOUS2
 70
     0
  3
Solid Line
 72
    65
 73
     0
 40
0.0
  0
ENDTAB
  0
TABLE
  2
LAYER
 70
     6
  0
LAYER
  2
0
 70
     0
 62
     7
  6
CONTINUOUS
  0
LAYER
  2
HOIST
 70
     0
 62
     7
  6
CONTINUOUS
  0
LAYER
  2
FLY
 70
     0
 62
     7
  6
CONTINUOUS
  0
LAYER
  2
STRIPE-RED
 70
     0
 62
     7
  6
CONTINUOUS
  0
LAYER
  2
STRIPE-WHITE
 70
     0
 62
     7
  6
CONTINUOUS
  0
LAYER
  2
DIMENSIONS
 70
     0
 62
   253
  6
CONTINUOUS
  0
ENDTAB
  0
TABLE
  2
STYLE
 70
     1
  0
STYLE
  2
STANDARD
 70
     0
 40
0.0
 41
1.0
 50
0.0
 71
     0
 42
0.2
  3
txt
  4

  0
ENDTAB
  0
TABLE
  2
VIEW
 70
     0
  0
ENDTAB
  0
TABLE
  2
UCS
 70
     0
  0
ENDTAB
  0
TABLE
  2
APPID
 70
     1
  0
APPID
  2
ACAD
 70
     0
  0
ENDTAB
  0
TABLE
  2
DIMSTYLE
 70
     1
  0
DIMSTYLE
  2
STANDARD
 70
     0
  3

  4

  5

  6

  7

 40
1.0
 41
0.18
 42
0.0625
 43
0.38
 44
0.18
 45
0.0
 46
0.0
 47
0.0
 48
0.0
140
0.18
141
0.09
142
0.0
143
25.4
144
1.0
145
0.0
146
1.0
147
0.09
 71
     0
 72
     0
 73
     1
 74
     1
 75
     0
 76
     0
 77
     0
 78
     0
170
     0
171
     2
172
     0
173
     0
174
     0
175
     0
176
     0
177
     0
178
     0
  0
ENDTAB
  0
ENDSEC
  0
SECTION
  2
BLOCKS
  0
BLOCK
  8
0
  2
$MODEL_SPACE
 70
     0
 10
0.0
 20
0.0
 30
0.0
  3
$MODEL_SPACE
  1

  0
ENDBLK
  5
21
  8
0
  0
BLOCK
 67
     1
  8
0
  2
$PAPER_SPACE
 70
     0
 10
0.0
 20
0.0
 30
0.0
  3
$PAPER_SPACE
  1

  0
ENDBLK
  5
1D
 67
     1
  8
0
  0
ENDSEC
  0
SECTION
  2
ENTITIES
  0
POLYLINE
  5
70
  8
HOIST
 66
     1
 10
0.0
 20
0.0
 30
0.0
 70
     1
  0
VERTEX
  5
EA
  8
HOIST
 10
1.0
 20
1.0
 30
0.0
  0
VERTEX
  5
EB
  8
HOIST
 10
2.9
 20
1.0
 30
0.0
  0
VERTEX
  5
EC
  8
HOIST
 10
2.9
 20
2.0
 30
0.0
  0
VERTEX
  5
ED
  8
HOIST
 10
1.0
 20
2.0
 30
0.0
  0
SEQEND
  5
481
  8
HOIST
  0
POLYLINE
  5
72
  8
FLY
 66
     1
 10
0.0
 20
0.0
 30
0.0
 70
     1
  0
VERTEX
  5
EE
  8
FLY
 10
1.0
 20
2.0
 30
0.0
  0
VERTEX
  5
EF
  8
FLY
 10
1.76
 20
2.0
 30
0.0
  0
VERTEX
  5
F0
  8
FLY
 10
1.76
 20
1.4615
 30
0.0
  0
VERTEX
  5
F1
  8
FLY
 10
0.9999999999999999
 20
1.4615
 30
0.0
  0
SEQEND
  5
482
  8
FLY
  0
POLYLINE
  5
74
  8
STRIPE-RED
 66
     1
 10
0.0
 20
0.0
 30
0.0
 70
     1
  0
VERTEX
  5
F2
  8
STRIPE-RED
 10
1.76
 20
2.0
 30
0.0
  0
VERTEX
  5
F3
  8
STRIPE-RED
 10
2.9
 20
2.0
 30
0.0
  0
VERTEX
  5
F4
  8
STRIPE-RED
 10
2.9
 20
1.9231
 30
0.0
  0
VERTEX
  5
F5
  8
STRIPE-RED
 10
1.76
 20
1.9231
 30
0.0
  0
SEQEND
  5
483
  8
STRIPE-RED
  0
POLYLINE
  5
75
  8
STRIPE-RED
 66
     1
 10
0.0
 20
0.0
 30
0.0
 70
     1
  0
VERTEX
  5
F6
  8
STRIPE-RED
 10
1.76
 20
1.8462
 30
0.0
  0
VERTEX
  5
F7
  8
STRIPE-RED
 10
2.9
 20
1.8462
 30
0.0
  0
VERTEX
  5
F8
  8
STRIPE-RED
 10
2.9
 20
1.7693
 30
0.0
  0
VERTEX
  5
F9
  8
STRIPE-RED
 10
1.76
 20
1.7693
 30
0.0
  0
SEQEND
  5
484
  8
STRIPE-RED
  0
POLYLINE
  5
76
  8
STRIPE-RED
 66
     1
 10
0.0
 20
0.0
 30
0.0
 70
     1
  0
VERTEX
  5
FA
  8
STRIPE-RED
 10
1.76
 20
1.6924
 30
0.0
  0
VERTEX
  5
FB
  8
STRIPE-RED
 10
2.9
 20
1.6924
 30
0.0
  0
VERTEX
  5
FC
  8
STRIPE-RED
 10
2.9
 20
1.6155
 30
0.0
  0
VERTEX
  5
FD
  8
STRIPE-RED
 10
1.76
 20
1.6155
 30
0.0
  0
SEQEND
  5
485
  8
STRIPE-RED
  0
POLYLINE
  5
77
  8
STRIPE-RED
 66
     1
 10
0.0
 20
0.0
 30
0.0
 70
     1
  0
VERTEX
  5
FE
  8
STRIPE-RED
 10
1.76
 20
1.5386
 30
0.0
  0
VERTEX
  5
FF
  8
STRIPE-RED
 10
2.9
 20
1.5386
 30
0.0
  0
VERTEX
  5
100
  8
STRIPE-RED
 10
2.9
 20
1.4617
 30
0.0
  0
VERTEX
  5
101
  8
STRIPE-RED
 10
1.76
 20
1.4617
 30
0.0
  0
SEQEND
  5
486
  8
STRIPE-RED
  0
POLYLINE
  5
78
  8
STRIPE-RED
 66
     1
 10
0.0
 20
0.0
 30
0.0
 70
     1
  0
VERTEX
  5
102
  8
STRIPE-RED
 10
0.9999999999999999
 20
1.3846
 30
0.0
  0
VERTEX
  5
103
  8
STRIPE-RED
 10
2.9
 20
1.3846
 30
0.0
  0
VERTEX
  5
104
  8
STRIPE-RED
 10
2.9
 20
1.3077
 30
0.0
  0
VERTEX
  5
105
  8
STRIPE-RED
 10
0.9999999999999999
 20
1.3077
 30
0.0
  0
SEQEND
  5
487
  8
STRIPE-RED
  0
POLYLINE
  5
79
  8
STRIPE-RED
 66
     1
 10
0.0
 20
0.0
 30
0.0
 70
     1
  0
VERTEX
  5
106
  8
STRIPE-RED
 10
0.9999999999999999
 20
1.2308
 30
0.0
  0
VERTEX
  5
107
  8
STRIPE-RED
 10
2.9
 20
1.2308
 30
0.0
  0
VERTEX
  5
108
  8
STRIPE-RED
 10
2.9
 20
1.1539
 30
0.0
  0
VERTEX
  5
109
  8
STRIPE-RED
 10
0.9999999999999999
 20
1.1539
 30
0.0
  0
SEQEND
  5
488
  8
STRIPE-RED
  0
POLYLINE
  5
7A
  8
STRIPE-RED
 66
     1
 10
0.0
 20
0.0
 30
0.0
 70
     1
  0
VERTEX
  5
10A
  8
STRIPE-RED
 10
0.9999999999999999
 20
1.077
 30
0.0
  0
VERTEX
  5
10B
  8
STRIPE-RED
 10
2.9
 20
1.077
 30
0.0
  0
VERTEX
  5
10C
  8
STRIPE-RED
 10
2.9
 20
1.0001
 30
0.0
  0
VERTEX
  5
10D
  8
STRIPE-RED
 10
0.9999999999999999
 20
1.0001
 30
0.0
  0
SEQEND
  5
489
  8
STRIPE-RED
  0
POLYLINE
  5
7C
  8
STRIPE-WHITE
 66
     1
 10
0.0
 20
0.0
 30
0.0
 70
     1
  0
VERTEX
  5
10E
  8
STRIPE-WHITE
 10
1.76
 20
1.9231
 30
0.0
  0
VERTEX
  5
10F
  8
STRIPE-WHITE
 10
2.9
 20
1.9231
 30
0.0
  0
VERTEX
  5
110
  8
STRIPE-WHITE
 10
2.9
 20
1.8462
 30
0.0
  0
VERTEX
  5
111
  8
STRIPE-WHITE
 10
1.76
 20
1.8462
 30
0.0
  0
SEQEND
  5
48A
  8
STRIPE-WHITE
  0
POLYLINE
  5
7D
  8
STRIPE-WHITE
 66
     1
 10
0.0
 20
0.0
 30
0.0
 70
     1
  0
VERTEX
  5
112
  8
STRIPE-WHITE
 10
1.76
 20
1.7693
 30
0.0
  0
VERTEX
  5
113
  8
STRIPE-WHITE
 10
2.9
 20
1.7693
 30
0.0
  0
VERTEX
  5
114
  8
STRIPE-WHITE
 10
2.9
 20
1.6924
 30
0.0
  0
VERTEX
  5
115
  8
STRIPE-WHITE
 10
1.76
 20
1.6924
 30
0.0
  0
SEQEND
  5
48B
  8
STRIPE-WHITE
  0
POLYLINE
  5
7E
  8
STRIPE-WHITE
 66
     1
 10
0.0
 20
0.0
 30
0.0
 70
     1
  0
VERTEX
  5
116
  8
STRIPE-WHITE
 10
1.76
 20
1.6155
 30
0.0
  0
VERTEX
  5
117
  8
STRIPE-WHITE
 10
2.9
 20
1.6155
 30
0.0
  0
VERTEX
  5
118
  8
STRIPE-WHITE
 10
2.9
 20
1.5386
 30
0.0
  0
VERTEX
  5
119
  8
STRIPE-WHITE
 10
1.76
 20
1.5386
 30
0.0
  0
SEQEND
  5
48C
  8
STRIPE-WHITE
  0
POLYLINE
  5
7F
  8
STRIPE-WHITE
 66
     1
 10
0.0
 20
0.0
 30
0.0
 70
     1
  0
VERTEX
  5
11A
  8
STRIPE-WHITE
 10
0.9999999999999999
 20
1.4615
 30
0.0
  0
VERTEX
  5
11B
  8
STRIPE-WHITE
 10
2.9
 20
1.4615
 30
0.0
  0
VERTEX
  5
11C
  8
STRIPE-WHITE
 10
2.9
 20
1.3846
 30
0.0
  0
VERTEX
  5
11D
  8
STRIPE-WHITE
 10
0.9999999999999999
 20
1.3846
 30
0.0
  0
SEQEND
  5
48D
  8
STRIPE-WHITE
  0
POLYLINE
  5
80
  8
STRIPE-WHITE
 66
     1
 10
0.0
 20
0.0
 30
0.0
 70
     1
  0
VERTEX
  5
11E
  8
STRIPE-WHITE
 10
0.9999999999999999
 20
1.3077
 30
0.0
  0
VERTEX
  5
11F
  8
STRIPE-WHITE
 10
2.9
 20
1.3077
 30
0.0
  0
VERTEX
  5
120
  8
STRIPE-WHITE
 10
2.9
 20
1.2308
 30
0.0
  0
VERTEX
  5
121
  8
STRIPE-WHITE
 10
0.9999999999999999
 20
1.2308
 30
0.0
  0
SEQEND
  5
48E
  8
STRIPE-WHITE
  0
POLYLINE
  5
81
  8
STRIPE-WHITE
 66
     1
 10
0.0
 20
0.0
 30
0.0
 70
     1
  0
VERTEX
  5
122
  8
STRIPE-WHITE
 10
0.9999999999999999
 20
1.1539
 30
0.0
  0
VERTEX
  5
123
  8
STRIPE-WHITE
 10
2.9
 20
1.1539
 30
0.0
  0
VERTEX
  5
124
  8
STRIPE-WHITE
 10
2.9
 20
1.077
 30
0.0
  0
VERTEX
  5
125
  8
STRIPE-WHITE
 10
0.9999999999999999
 20
1.077
 30
0.0
  0
SEQEND
  5
48F
  8
STRIPE-WHITE
  0
POLYLINE
  5
82
  8
STRIPE-WHITE
 66
     1
 10
0.0
 20
0.0
 30
0.0
 70
     1
  0
VERTEX
  5
126
  8
STRIPE-WHITE
 10
1.3800705794948
 20
1.900163210107651
 30
0.0
 42
0.4142135623730951
  0
VERTEX
  5
127
  8
STRIPE-WHITE
 10
1.210707378673924
 20
1.730800009286776
 30
0.0
 42
0.4142135623730951
  0
VERTEX
  5
128
  8
STRIPE-WHITE
 10
1.3800705794948
 20
1.5614368084659
 30
0.0
 42
0.4142135623730951
  0
VERTEX
  5
129
  8
STRIPE-WHITE
 10
1.549433780315675
 20
1.730800009286776
 30
0.0
 42
0.4142135623730951
  0
SEQEND
  5
490
  8
STRIPE-WHITE
  0
POLYLINE
  5
83
  8
STRIPE-WHITE
 66
     1
 10
0.0
 20
0.0
 30
0.0
 70
     1
  0
VERTEX
  5
12A
  8
STRIPE-WHITE
 10
1.379678192611259
 20
1.935309874924487
 30
0.0
 42
0.4142135623730951
  0
VERTEX
  5
12B
  8
STRIPE-WHITE
 10
1.347678192611259
 20
1.903309874924487
 30
0.0
 42
0.4142135623730951
  0
VERTEX
  5
12C
  8
STRIPE-WHITE
 10
1.379678192611259
 20
1.871309874924487
 30
0.0
 42
0.4142135623730951
  0
VERTEX
  5
12D
  8
STRIPE-WHITE
 10
1.411678192611259
 20
1.903309874924487
 30
0.0
 42
0.4142135623730951
  0
SEQEND
  5
491
  8
STRIPE-WHITE
  0
POLYLINE
  5
84
  8
STRIPE-WHITE
 66
     1
 10
0.0
 20
0.0
 30
0.0
 70
     1
  0
VERTEX
  5
12E
  8
STRIPE-WHITE
 10
1.379678192611306
 20
1.915309874924542
 30
0.0
 42
0.4142135623730951
  0
VERTEX
  5
12F
  8
STRIPE-WHITE
 10
1.367678192611306
 20
1.903309874924542
 30
0.0
 42
0.4142135623730951
  0
VERTEX
  5
130
  8
STRIPE-WHITE
 10
1.379678192611306
 20
1.891309874924542
 30
0.0
 42
0.4142135623730951
  0
VERTEX
  5
131
  8
STRIPE-WHITE
 10
1.391678192611306
 20
1.903309874924542
 30
0.0
 42
0.4142135623730951
  0
SEQEND
  5
492
  8
STRIPE-WHITE
  0
POLYLINE
  5
85
  8
STRIPE-WHITE
 66
     1
 10
0.0
 20
0.0
 30
0.0
 70
     1
  0
VERTEX
  5
132
  8
STRIPE-WHITE
 10
1.277378231043798
 20
1.704362046703294
 30
0.0
  0
VERTEX
  5
133
  8
STRIPE-WHITE
 10
1.282331463177716
 20
1.705044316025127
 30
0.0
  0
VERTEX
  5
134
  8
STRIPE-WHITE
 10
1.287528242889908
 20
1.708043229265446
 30
0.0
  0
VERTEX
  5
135
  8
STRIPE-WHITE
 10
1.287301530080412
 20
1.769042807963188
 30
0.0
  0
VERTEX
  5
136
  8
STRIPE-WHITE
 10
1.281305853161816
 20
1.768815083814688
 30
0.0
  0
VERTEX
  5
137
  8
STRIPE-WHITE
 10
1.272166000172211
 20
1.761039282420079
 30
0.0
  0
VERTEX
  5
138
  8
STRIPE-WHITE
 10
1.271904271541181
 20
1.757047854339342
 30
0.0
  0
VERTEX
  5
139
  8
STRIPE-WHITE
 10
1.276880933784739
 20
1.757530381969164
 30
0.0
  0
VERTEX
  5
13A
  8
STRIPE-WHITE
 10
1.275855793733854
 20
1.704540297161947
 30
0.0
  0
SEQEND
  5
493
  8
STRIPE-WHITE
  0
POLYLINE
  5
86
  8
STRIPE-WHITE
 66
     1
 10
0.0
 20
0.0
 30
0.0
 70
     1
  0
VERTEX
  5
13B
  8
STRIPE-WHITE
 10
1.485528508108912
 20
1.783419085731409
 30
0.0
 42
0.1803749492244717
  0
VERTEX
  5
13C
  8
STRIPE-WHITE
 10
1.444117610746519
 20
1.730485858844518
 30
0.0
 42
0.2873275450246214
  0
VERTEX
  5
13D
  8
STRIPE-WHITE
 10
1.450223600667118
 20
1.70328329118597
 30
0.0
 42
0.3502364642709914
  0
VERTEX
  5
13E
  8
STRIPE-WHITE
 10
1.477505179413227
 20
1.704724579681121
 30
0.0
 42
0.215987774007899
  0
VERTEX
  5
13F
  8
STRIPE-WHITE
 10
1.486309548299528
 20
1.724992499267429
 30
0.0
 42
0.2632127978431777
  0
VERTEX
  5
140
  8
STRIPE-WHITE
 10
1.478376556751182
 20
1.739866228470346
 30
0.0
 42
0.2625273557084383
  0
VERTEX
  5
141
  8
STRIPE-WHITE
 10
1.455472456886181
 20
1.736844159738159
 30
0.0
 42
0.707515081023688
  0
VERTEX
  5
142
  8
STRIPE-WHITE
 10
1.457446790294543
 20
1.733432721308266
 30
0.0
 42
-0.3428754292864705
  0
VERTEX
  5
143
  8
STRIPE-WHITE
 10
1.474157621556048
 20
1.729067708853994
 30
0.0
 42
-0.410577356555785
  0
VERTEX
  5
144
  8
STRIPE-WHITE
 10
1.471867053702919
 20
1.713023649533586
 30
0.0
 42
-0.4986358967759442
  0
VERTEX
  5
145
  8
STRIPE-WHITE
 10
1.452799912885309
 20
1.717346440191269
 30
0.0
 42
-0.1651501005796838
  0
VERTEX
  5
146
  8
STRIPE-WHITE
 10
1.452855639618166
 20
1.734437849439373
 30
0.0
 42
-0.1658857086576683
  0
VERTEX
  5
147
  8
STRIPE-WHITE
 10
1.485886918351725
 20
1.776512532065629
 30
0.0
 42
0.3034773602009143
  0
SEQEND
  5
494
  8
STRIPE-WHITE
  0
POLYLINE
  5
87
  8
STRIPE-WHITE
 66
     1
 10
0.0
 20
0.0
 30
0.0
 70
     1
  0
VERTEX
  5
148
  8
STRIPE-WHITE
 10
1.287301530080412
 20
1.770542807963188
 30
0.0
 42
0.4142135623730951
  0
VERTEX
  5
149
  8
STRIPE-WHITE
 10
1.285801530080412
 20
1.769042807963188
 30
0.0
 42
0.4142135623730951
  0
VERTEX
  5
14A
  8
STRIPE-WHITE
 10
1.287301530080412
 20
1.767542807963188
 30
0.0
 42
0.4142135623730951
  0
VERTEX
  5
14B
  8
STRIPE-WHITE
 10
1.288801530080412
 20
1.769042807963188
 30
0.0
 42
0.4142135623730951
  0
SEQEND
  5
495
  8
STRIPE-WHITE
  0
POLYLINE
  5
88
  8
STRIPE-WHITE
 66
     1
 10
0.0
 20
0.0
 30
0.0
 70
     1
  0
VERTEX
  5
14C
  8
STRIPE-WHITE
 10
1.281305853161816
 20
1.770315083814689
 30
0.0
 42
0.4142135623730951
  0
VERTEX
  5
14D
  8
STRIPE-WHITE
 10
1.279805853161815
 20
1.768815083814688
 30
0.0
 42
0.4142135623730951
  0
VERTEX
  5
14E
  8
STRIPE-WHITE
 10
1.281305853161816
 20
1.767315083814688
 30
0.0
 42
0.4142135623730951
  0
VERTEX
  5
14F
  8
STRIPE-WHITE
 10
1.282805853161816
 20
1.768815083814688
 30
0.0
 42
0.4142135623730951
  0
SEQEND
  5
496
  8
STRIPE-WHITE
  0
POLYLINE
  5
89
  8
STRIPE-WHITE
 66
     1
 10
0.0
 20
0.0
 30
0.0
 70
     1
  0
VERTEX
  5
150
  8
STRIPE-WHITE
 10
1.272166000172211
 20
1.762539282420079
 30
0.0
 42
0.4142135623730951
  0
VERTEX
  5
151
  8
STRIPE-WHITE
 10
1.270666000172211
 20
1.761039282420079
 30
0.0
 42
0.4142135623730951
  0
VERTEX
  5
152
  8
STRIPE-WHITE
 10
1.272166000172211
 20
1.759539282420079
 30
0.0
 42
0.4142135623730951
  0
VERTEX
  5
153
  8
STRIPE-WHITE
 10
1.273666000172211
 20
1.761039282420079
 30
0.0
 42
0.4142135623730951
  0
SEQEND
  5
497
  8
STRIPE-WHITE
  0
POLYLINE
  5
8A
  8
STRIPE-WHITE
 66
     1
 10
0.0
 20
0.0
 30
0.0
 70
     1
  0
VERTEX
  5
154
  8
STRIPE-WHITE
 10
1.271904271541181
 20
1.758547854339342
 30
0.0
 42
0.4142135623730951
  0
VERTEX
  5
155
  8
STRIPE-WHITE
 10
1.270404271541181
 20
1.757047854339342
 30
0.0
 42
0.4142135623730951
  0
VERTEX
  5
156
  8
STRIPE-WHITE
 10
1.271904271541181
 20
1.755547854339342
 30
0.0
 42
0.4142135623730951
  0
VERTEX
  5
157
  8
STRIPE-WHITE
 10
1.273404271541181
 20
1.757047854339342
 30
0.0
 42
0.4142135623730951
  0
SEQEND
  5
498
  8
STRIPE-WHITE
  0
POLYLINE
  5
8B
  8
STRIPE-WHITE
 66
     1
 10
0.0
 20
0.0
 30
0.0
 70
     1
  0
VERTEX
  5
158
  8
STRIPE-WHITE
 10
1.276880933784739
 20
1.759030381969164
 30
0.0
 42
0.4142135623730951
  0
VERTEX
  5
159
  8
STRIPE-WHITE
 10
1.275380933784739
 20
1.757530381969164
 30
0.0
 42
0.4142135623730951
  0
VERTEX
  5
15A
  8
STRIPE-WHITE
 10
1.276880933784739
 20
1.756030381969164
 30
0.0
 42
0.4142135623730951
  0
VERTEX
  5
15B
  8
STRIPE-WHITE
 10
1.278380933784739
 20
1.757530381969164
 30
0.0
 42
0.4142135623730951
  0
SEQEND
  5
499
  8
STRIPE-WHITE
  0
POLYLINE
  5
8C
  8
STRIPE-WHITE
 66
     1
 10
0.0
 20
0.0
 30
0.0
 70
     1
  0
VERTEX
  5
15C
  8
STRIPE-WHITE
 10
1.275855793733854
 20
1.706040297161947
 30
0.0
 42
0.4142135623730951
  0
VERTEX
  5
15D
  8
STRIPE-WHITE
 10
1.274355793733854
 20
1.704540297161947
 30
0.0
 42
0.4142135623730951
  0
VERTEX
  5
15E
  8
STRIPE-WHITE
 10
1.275855793733854
 20
1.703040297161947
 30
0.0
 42
0.4142135623730951
  0
VERTEX
  5
15F
  8
STRIPE-WHITE
 10
1.277355793733854
 20
1.704540297161947
 30
0.0
 42
0.4142135623730951
  0
SEQEND
  5
49A
  8
STRIPE-WHITE
  0
POLYLINE
  5
8D
  8
STRIPE-WHITE
 66
     1
 10
0.0
 20
0.0
 30
0.0
 70
     1
  0
VERTEX
  5
160
  8
STRIPE-WHITE
 10
1.277343108765576
 20
1.705866158900394
 30
0.0
 42
0.4142135623730951
  0
VERTEX
  5
161
  8
STRIPE-WHITE
 10
1.275843108765576
 20
1.704366158900394
 30
0.0
 42
0.4142135623730951
  0
VERTEX
  5
162
  8
STRIPE-WHITE
 10
1.277343108765576
 20
1.702866158900394
 30
0.0
 42
0.4142135623730951
  0
VERTEX
  5
163
  8
STRIPE-WHITE
 10
1.278843108765576
 20
1.704366158900394
 30
0.0
 42
0.4142135623730951
  0
SEQEND
  5
49B
  8
STRIPE-WHITE
  0
POLYLINE
  5
8E
  8
STRIPE-WHITE
 66
     1
 10
0.0
 20
0.0
 30
0.0
 70
     1
  0
VERTEX
  5
164
  8
STRIPE-WHITE
 10
1.282331463177716
 20
1.706544316025127
 30
0.0
 42
0.4142135623730951
  0
VERTEX
  5
165
  8
STRIPE-WHITE
 10
1.280831463177716
 20
1.705044316025127
 30
0.0
 42
0.4142135623730951
  0
VERTEX
  5
166
  8
STRIPE-WHITE
 10
1.282331463177716
 20
1.703544316025127
 30
0.0
 42
0.4142135623730951
  0
VERTEX
  5
167
  8
STRIPE-WHITE
 10
1.283831463177716
 20
1.705044316025127
 30
0.0
 42
0.4142135623730951
  0
SEQEND
  5
49C
  8
STRIPE-WHITE
  0
POLYLINE
  5
8F
  8
STRIPE-WHITE
 66
     1
 10
0.0
 20
0.0
 30
0.0
 70
     1
  0
VERTEX
  5
168
  8
STRIPE-WHITE
 10
1.287528242889908
 20
1.709543229265446
 30
0.0
 42
0.4142135623730951
  0
VERTEX
  5
169
  8
STRIPE-WHITE
 10
1.286028242889907
 20
1.708043229265446
 30
0.0
 42
0.4142135623730951
  0
VERTEX
  5
16A
  8
STRIPE-WHITE
 10
1.287528242889908
 20
1.706543229265446
 30
0.0
 42
0.4142135623730951
  0
VERTEX
  5
16B
  8
STRIPE-WHITE
 10
1.289028242889908
 20
1.708043229265446
 30
0.0
 42
0.4142135623730951
  0
SEQEND
  5
49D
  8
STRIPE-WHITE
  0
POLYLINE
  5
90
  8
STRIPE-WHITE
 66
     1
 10
0.0
 20
0.0
 30
0.0
 70
     1
  0
VERTEX
  5
16C
  8
STRIPE-WHITE
 10
1.36926699287966
 20
1.774759189994056
 30
0.0
 42
0.4142135623730951
  0
VERTEX
  5
16D
  8
STRIPE-WHITE
 10
1.36776699287966
 20
1.773259189994056
 30
0.0
 42
0.4142135623730951
  0
VERTEX
  5
16E
  8
STRIPE-WHITE
 10
1.36926699287966
 20
1.771759189994056
 30
0.0
 42
0.4142135623730951
  0
VERTEX
  5
16F
  8
STRIPE-WHITE
 10
1.37076699287966
 20
1.773259189994056
 30
0.0
 42
0.4142135623730951
  0
SEQEND
  5
49E
  8
STRIPE-WHITE
  0
POLYLINE
  5
91
  8
STRIPE-WHITE
 66
     1
 10
0.0
 20
0.0
 30
0.0
 70
     1
  0
VERTEX
  5
170
  8
STRIPE-WHITE
 10
1.364920326661359
 20
1.773594504291095
 30
0.0
 42
0.4142135623730951
  0
VERTEX
  5
171
  8
STRIPE-WHITE
 10
1.363420326661359
 20
1.772094504291094
 30
0.0
 42
0.4142135623730951
  0
VERTEX
  5
172
  8
STRIPE-WHITE
 10
1.364920326661359
 20
1.770594504291094
 30
0.0
 42
0.4142135623730951
  0
VERTEX
  5
173
  8
STRIPE-WHITE
 10
1.366420326661359
 20
1.772094504291094
 30
0.0
 42
0.4142135623730951
  0
SEQEND
  5
49F
  8
STRIPE-WHITE
  0
POLYLINE
  5
92
  8
STRIPE-WHITE
 66
     1
 10
0.0
 20
0.0
 30
0.0
 70
     1
  0
VERTEX
  5
174
  8
STRIPE-WHITE
 10
1.361280684683304
 20
1.769471034117615
 30
0.0
 42
0.4142135623730951
  0
VERTEX
  5
175
  8
STRIPE-WHITE
 10
1.359780684683304
 20
1.767971034117615
 30
0.0
 42
0.4142135623730951
  0
VERTEX
  5
176
  8
STRIPE-WHITE
 10
1.361280684683304
 20
1.766471034117615
 30
0.0
 42
0.4142135623730951
  0
VERTEX
  5
177
  8
STRIPE-WHITE
 10
1.362780684683304
 20
1.767971034117615
 30
0.0
 42
0.4142135623730951
  0
SEQEND
  5
4A0
  8
STRIPE-WHITE
  0
POLYLINE
  5
93
  8
STRIPE-WHITE
 66
     1
 10
0.0
 20
0.0
 30
0.0
 70
     1
  0
VERTEX
  5
178
  8
STRIPE-WHITE
 10
1.334280684683304
 20
1.769471034117615
 30
0.0
 42
0.4142135623730951
  0
VERTEX
  5
179
  8
STRIPE-WHITE
 10
1.332780684683304
 20
1.767971034117615
 30
0.0
 42
0.4142135623730951
  0
VERTEX
  5
17A
  8
STRIPE-WHITE
 10
1.334280684683304
 20
1.766471034117615
 30
0.0
 42
0.4142135623730951
  0
VERTEX
  5
17B
  8
STRIPE-WHITE
 10
1.335780684683304
 20
1.767971034117615
 30
0.0
 42
0.4142135623730951
  0
SEQEND
  5
4A1
  8
STRIPE-WHITE
  0
POLYLINE
  5
94
  8
STRIPE-WHITE
 66
     1
 10
0.0
 20
0.0
 30
0.0
 70
     1
  0
VERTEX
  5
17C
  8
STRIPE-WHITE
 10
1.323037382007387
 20
1.76112908321044
 30
0.0
 42
0.4142135623730951
  0
VERTEX
  5
17D
  8
STRIPE-WHITE
 10
1.321537382007387
 20
1.75962908321044
 30
0.0
 42
0.4142135623730951
  0
VERTEX
  5
17E
  8
STRIPE-WHITE
 10
1.323037382007387
 20
1.75812908321044
 30
0.0
 42
0.4142135623730951
  0
VERTEX
  5
17F
  8
STRIPE-WHITE
 10
1.324537382007387
 20
1.75962908321044
 30
0.0
 42
0.4142135623730951
  0
SEQEND
  5
4A2
  8
STRIPE-WHITE
  0
POLYLINE
  5
95
  8
STRIPE-WHITE
 66
     1
 10
0.0
 20
0.0
 30
0.0
 70
     1
  0
VERTEX
  5
180
  8
STRIPE-WHITE
 10
1.326572915913319
 20
1.757593549304507
 30
0.0
 42
0.4142135623730951
  0
VERTEX
  5
181
  8
STRIPE-WHITE
 10
1.325072915913319
 20
1.756093549304507
 30
0.0
 42
0.4142135623730951
  0
VERTEX
  5
182
  8
STRIPE-WHITE
 10
1.326572915913319
 20
1.754593549304507
 30
0.0
 42
0.4142135623730951
  0
VERTEX
  5
183
  8
STRIPE-WHITE
 10
1.32807291591332
 20
1.756093549304507
 30
0.0
 42
0.4142135623730951
  0
SEQEND
  5
4A3
  8
STRIPE-WHITE
  0
POLYLINE
  5
96
  8
STRIPE-WHITE
 66
     1
 10
0.0
 20
0.0
 30
0.0
 70
     1
  0
VERTEX
  5
184
  8
STRIPE-WHITE
 10
1.332696640281938
 20
1.761129083215259
 30
0.0
 42
0.4142135623730951
  0
VERTEX
  5
185
  8
STRIPE-WHITE
 10
1.331196640281938
 20
1.759629083215259
 30
0.0
 42
0.4142135623730951
  0
VERTEX
  5
186
  8
STRIPE-WHITE
 10
1.332696640281938
 20
1.758129083215259
 30
0.0
 42
0.4142135623730951
  0
VERTEX
  5
187
  8
STRIPE-WHITE
 10
1.334196640281938
 20
1.759629083215259
 30
0.0
 42
0.4142135623730951
  0
SEQEND
  5
4A4
  8
STRIPE-WHITE
  0
POLYLINE
  5
97
  8
STRIPE-WHITE
 66
     1
 10
0.0
 20
0.0
 30
0.0
 70
     1
  0
VERTEX
  5
188
  8
STRIPE-WHITE
 10
1.354696640281938
 20
1.761129083215259
 30
0.0
 42
0.4142135623730951
  0
VERTEX
  5
189
  8
STRIPE-WHITE
 10
1.353196640281938
 20
1.759629083215259
 30
0.0
 42
0.4142135623730951
  0
VERTEX
  5
18A
  8
STRIPE-WHITE
 10
1.354696640281938
 20
1.758129083215259
 30
0.0
 42
0.4142135623730951
  0
VERTEX
  5
18B
  8
STRIPE-WHITE
 10
1.356196640281938
 20
1.759629083215259
 30
0.0
 42
0.4142135623730951
  0
SEQEND
  5
4A5
  8
STRIPE-WHITE
  0
POLYLINE
  5
98
  8
STRIPE-WHITE
 66
     1
 10
0.0
 20
0.0
 30
0.0
 70
     1
  0
VERTEX
  5
18C
  8
STRIPE-WHITE
 10
1.317471567472167
 20
1.687945314583897
 30
0.0
 42
0.4142135623730951
  0
VERTEX
  5
18D
  8
STRIPE-WHITE
 10
1.315971567472167
 20
1.686445314583897
 30
0.0
 42
0.4142135623730951
  0
VERTEX
  5
18E
  8
STRIPE-WHITE
 10
1.317471567472167
 20
1.684945314583897
 30
0.0
 42
0.4142135623730951
  0
VERTEX
  5
18F
  8
STRIPE-WHITE
 10
1.318971567472167
 20
1.686445314583897
 30
0.0
 42
0.4142135623730951
  0
SEQEND
  5
4A6
  8
STRIPE-WHITE
  0
POLYLINE
  5
99
  8
STRIPE-WHITE
 66
     1
 10
0.0
 20
0.0
 30
0.0
 70
     1
  0
VERTEX
  5
190
  8
STRIPE-WHITE
 10
1.324886805450251
 20
1.687945314583897
 30
0.0
 42
0.4142135623730951
  0
VERTEX
  5
191
  8
STRIPE-WHITE
 10
1.323386805450251
 20
1.686445314583897
 30
0.0
 42
0.4142135623730951
  0
VERTEX
  5
192
  8
STRIPE-WHITE
 10
1.324886805450251
 20
1.684945314583897
 30
0.0
 42
0.4142135623730951
  0
VERTEX
  5
193
  8
STRIPE-WHITE
 10
1.326386805450251
 20
1.686445314583897
 30
0.0
 42
0.4142135623730951
  0
SEQEND
  5
4A7
  8
STRIPE-WHITE
  0
POLYLINE
  5
9A
  8
STRIPE-WHITE
 66
     1
 10
0.0
 20
0.0
 30
0.0
 70
     1
  0
VERTEX
  5
194
  8
STRIPE-WHITE
 10
1.429907187834736
 20
1.774759189994056
 30
0.0
 42
0.4142135623730951
  0
VERTEX
  5
195
  8
STRIPE-WHITE
 10
1.428407187834736
 20
1.773259189994056
 30
0.0
 42
0.4142135623730951
  0
VERTEX
  5
196
  8
STRIPE-WHITE
 10
1.429907187834736
 20
1.771759189994056
 30
0.0
 42
0.4142135623730951
  0
VERTEX
  5
197
  8
STRIPE-WHITE
 10
1.431407187834736
 20
1.773259189994056
 30
0.0
 42
0.4142135623730951
  0
SEQEND
  5
4A8
  8
STRIPE-WHITE
  0
POLYLINE
  5
9B
  8
STRIPE-WHITE
 66
     1
 10
0.0
 20
0.0
 30
0.0
 70
     1
  0
VERTEX
  5
198
  8
STRIPE-WHITE
 10
1.425560521616435
 20
1.773594504291095
 30
0.0
 42
0.4142135623730951
  0
VERTEX
  5
199
  8
STRIPE-WHITE
 10
1.424060521616435
 20
1.772094504291094
 30
0.0
 42
0.4142135623730951
  0
VERTEX
  5
19A
  8
STRIPE-WHITE
 10
1.425560521616435
 20
1.770594504291094
 30
0.0
 42
0.4142135623730951
  0
VERTEX
  5
19B
  8
STRIPE-WHITE
 10
1.427060521616435
 20
1.772094504291094
 30
0.0
 42
0.4142135623730951
  0
SEQEND
  5
4A9
  8
STRIPE-WHITE
  0
POLYLINE
  5
9C
  8
STRIPE-WHITE
 66
     1
 10
0.0
 20
0.0
 30
0.0
 70
     1
  0
VERTEX
  5
19C
  8
STRIPE-WHITE
 10
1.42192087963838
 20
1.769471034117615
 30
0.0
 42
0.4142135623730951
  0
VERTEX
  5
19D
  8
STRIPE-WHITE
 10
1.42042087963838
 20
1.767971034117615
 30
0.0
 42
0.4142135623730951
  0
VERTEX
  5
19E
  8
STRIPE-WHITE
 10
1.42192087963838
 20
1.766471034117615
 30
0.0
 42
0.4142135623730951
  0
VERTEX
  5
19F
  8
STRIPE-WHITE
 10
1.42342087963838
 20
1.767971034117615
 30
0.0
 42
0.4142135623730951
  0
SEQEND
  5
4AA
  8
STRIPE-WHITE
  0
POLYLINE
  5
9D
  8
STRIPE-WHITE
 66
     1
 10
0.0
 20
0.0
 30
0.0
 70
     1
  0
VERTEX
  5
1A0
  8
STRIPE-WHITE
 10
1.39492087963838
 20
1.769471034117615
 30
0.0
 42
0.4142135623730951
  0
VERTEX
  5
1A1
  8
STRIPE-WHITE
 10
1.39342087963838
 20
1.767971034117615
 30
0.0
 42
0.4142135623730951
  0
VERTEX
  5
1A2
  8
STRIPE-WHITE
 10
1.39492087963838
 20
1.766471034117615
 30
0.0
 42
0.4142135623730951
  0
VERTEX
  5
1A3
  8
STRIPE-WHITE
 10
1.39642087963838
 20
1.767971034117615
 30
0.0
 42
0.4142135623730951
  0
SEQEND
  5
4AB
  8
STRIPE-WHITE
  0
POLYLINE
  5
9E
  8
STRIPE-WHITE
 66
     1
 10
0.0
 20
0.0
 30
0.0
 70
     1
  0
VERTEX
  5
1A4
  8
STRIPE-WHITE
 10
1.383677576962463
 20
1.76112908321044
 30
0.0
 42
0.4142135623730951
  0
VERTEX
  5
1A5
  8
STRIPE-WHITE
 10
1.382177576962463
 20
1.75962908321044
 30
0.0
 42
0.4142135623730951
  0
VERTEX
  5
1A6
  8
STRIPE-WHITE
 10
1.383677576962463
 20
1.75812908321044
 30
0.0
 42
0.4142135623730951
  0
VERTEX
  5
1A7
  8
STRIPE-WHITE
 10
1.385177576962463
 20
1.75962908321044
 30
0.0
 42
0.4142135623730951
  0
SEQEND
  5
4AC
  8
STRIPE-WHITE
  0
POLYLINE
  5
9F
  8
STRIPE-WHITE
 66
     1
 10
0.0
 20
0.0
 30
0.0
 70
     1
  0
VERTEX
  5
1A8
  8
STRIPE-WHITE
 10
1.387213110868396
 20
1.757593549304507
 30
0.0
 42
0.4142135623730951
  0
VERTEX
  5
1A9
  8
STRIPE-WHITE
 10
1.385713110868396
 20
1.756093549304507
 30
0.0
 42
0.4142135623730951
  0
VERTEX
  5
1AA
  8
STRIPE-WHITE
 10
1.387213110868396
 20
1.754593549304507
 30
0.0
 42
0.4142135623730951
  0
VERTEX
  5
1AB
  8
STRIPE-WHITE
 10
1.388713110868396
 20
1.756093549304507
 30
0.0
 42
0.4142135623730951
  0
SEQEND
  5
4AD
  8
STRIPE-WHITE
  0
POLYLINE
  5
A0
  8
STRIPE-WHITE
 66
     1
 10
0.0
 20
0.0
 30
0.0
 70
     1
  0
VERTEX
  5
1AC
  8
STRIPE-WHITE
 10
1.393336835237014
 20
1.761129083215259
 30
0.0
 42
0.4142135623730951
  0
VERTEX
  5
1AD
  8
STRIPE-WHITE
 10
1.391836835237014
 20
1.759629083215259
 30
0.0
 42
0.4142135623730951
  0
VERTEX
  5
1AE
  8
STRIPE-WHITE
 10
1.393336835237014
 20
1.758129083215259
 30
0.0
 42
0.4142135623730951
  0
VERTEX
  5
1AF
  8
STRIPE-WHITE
 10
1.394836835237014
 20
1.759629083215259
 30
0.0
 42
0.4142135623730951
  0
SEQEND
  5
4AE
  8
STRIPE-WHITE
  0
POLYLINE
  5
A1
  8
STRIPE-WHITE
 66
     1
 10
0.0
 20
0.0
 30
0.0
 70
     1
  0
VERTEX
  5
1B0
  8
STRIPE-WHITE
 10
1.415336835237014
 20
1.761129083215259
 30
0.0
 42
0.4142135623730951
  0
VERTEX
  5
1B1
  8
STRIPE-WHITE
 10
1.413836835237014
 20
1.759629083215259
 30
0.0
 42
0.4142135623730951
  0
VERTEX
  5
1B2
  8
STRIPE-WHITE
 10
1.415336835237014
 20
1.758129083215259
 30
0.0
 42
0.4142135623730951
  0
VERTEX
  5
1B3
  8
STRIPE-WHITE
 10
1.416836835237014
 20
1.759629083215259
 30
0.0
 42
0.4142135623730951
  0
SEQEND
  5
4AF
  8
STRIPE-WHITE
  0
POLYLINE
  5
A2
  8
STRIPE-WHITE
 66
     1
 10
0.0
 20
0.0
 30
0.0
 70
     1
  0
VERTEX
  5
1B4
  8
STRIPE-WHITE
 10
1.378111762427243
 20
1.687945314583897
 30
0.0
 42
0.4142135623730951
  0
VERTEX
  5
1B5
  8
STRIPE-WHITE
 10
1.376611762427243
 20
1.686445314583897
 30
0.0
 42
0.4142135623730951
  0
VERTEX
  5
1B6
  8
STRIPE-WHITE
 10
1.378111762427243
 20
1.684945314583897
 30
0.0
 42
0.4142135623730951
  0
VERTEX
  5
1B7
  8
STRIPE-WHITE
 10
1.379611762427243
 20
1.686445314583897
 30
0.0
 42
0.4142135623730951
  0
SEQEND
  5
4B0
  8
STRIPE-WHITE
  0
POLYLINE
  5
A3
  8
STRIPE-WHITE
 66
     1
 10
0.0
 20
0.0
 30
0.0
 70
     1
  0
VERTEX
  5
1B8
  8
STRIPE-WHITE
 10
1.385527000405328
 20
1.687945314583897
 30
0.0
 42
0.4142135623730951
  0
VERTEX
  5
1B9
  8
STRIPE-WHITE
 10
1.384027000405327
 20
1.686445314583897
 30
0.0
 42
0.4142135623730951
  0
VERTEX
  5
1BA
  8
STRIPE-WHITE
 10
1.385527000405328
 20
1.684945314583897
 30
0.0
 42
0.4142135623730951
  0
VERTEX
  5
1BB
  8
STRIPE-WHITE
 10
1.387027000405328
 20
1.686445314583897
 30
0.0
 42
0.4142135623730951
  0
SEQEND
  5
4B1
  8
STRIPE-WHITE
  0
POLYLINE
  5
A4
  8
STRIPE-WHITE
 66
     1
 10
0.0
 20
0.0
 30
0.0
 70
     1
  0
VERTEX
  5
1BC
  8
STRIPE-WHITE
 10
1.485528508108912
 20
1.78491908573141
 30
0.0
 42
0.4142135623730951
  0
VERTEX
  5
1BD
  8
STRIPE-WHITE
 10
1.484028508108912
 20
1.783419085731409
 30
0.0
 42
0.4142135623730951
  0
VERTEX
  5
1BE
  8
STRIPE-WHITE
 10
1.485528508108912
 20
1.781919085731409
 30
0.0
 42
0.4142135623730951
  0
VERTEX
  5
1BF
  8
STRIPE-WHITE
 10
1.487028508108913
 20
1.783419085731409
 30
0.0
 42
0.4142135623730951
  0
SEQEND
  5
4B2
  8
STRIPE-WHITE
  0
POLYLINE
  5
A5
  8
STRIPE-WHITE
 66
     1
 10
0.0
 20
0.0
 30
0.0
 70
     1
  0
VERTEX
  5
1C0
  8
STRIPE-WHITE
 10
1.485886918351725
 20
1.778012532065629
 30
0.0
 42
0.4142135623730951
  0
VERTEX
  5
1C1
  8
STRIPE-WHITE
 10
1.484386918351725
 20
1.776512532065629
 30
0.0
 42
0.4142135623730951
  0
VERTEX
  5
1C2
  8
STRIPE-WHITE
 10
1.485886918351725
 20
1.775012532065629
 30
0.0
 42
0.4142135623730951
  0
VERTEX
  5
1C3
  8
STRIPE-WHITE
 10
1.487386918351725
 20
1.776512532065629
 30
0.0
 42
0.4142135623730951
  0
SEQEND
  5
4B3
  8
STRIPE-WHITE
  0
POLYLINE
  5
A6
  8
STRIPE-WHITE
 66
     1
 10
0.0
 20
0.0
 30
0.0
 70
     1
  0
VERTEX
  5
1C4
  8
STRIPE-WHITE
 10
1.450223600667118
 20
1.70478329118597
 30
0.0
 42
0.4142135623730951
  0
VERTEX
  5
1C5
  8
STRIPE-WHITE
 10
1.448723600667118
 20
1.70328329118597
 30
0.0
 42
0.4142135623730951
  0
VERTEX
  5
1C6
  8
STRIPE-WHITE
 10
1.450223600667118
 20
1.70178329118597
 30
0.0
 42
0.4142135623730951
  0
VERTEX
  5
1C7
  8
STRIPE-WHITE
 10
1.451723600667118
 20
1.70328329118597
 30
0.0
 42
0.4142135623730951
  0
SEQEND
  5
4B4
  8
STRIPE-WHITE
  0
POLYLINE
  5
A7
  8
STRIPE-WHITE
 66
     1
 10
0.0
 20
0.0
 30
0.0
 70
     1
  0
VERTEX
  5
1C8
  8
STRIPE-WHITE
 10
1.455472456886181
 20
1.738344159738159
 30
0.0
 42
0.4142135623730951
  0
VERTEX
  5
1C9
  8
STRIPE-WHITE
 10
1.453972456886181
 20
1.736844159738159
 30
0.0
 42
0.4142135623730951
  0
VERTEX
  5
1CA
  8
STRIPE-WHITE
 10
1.455472456886181
 20
1.735344159738159
 30
0.0
 42
0.4142135623730951
  0
VERTEX
  5
1CB
  8
STRIPE-WHITE
 10
1.456972456886181
 20
1.736844159738159
 30
0.0
 42
0.4142135623730951
  0
SEQEND
  5
4B5
  8
STRIPE-WHITE
  0
POLYLINE
  5
A8
  8
STRIPE-WHITE
 66
     1
 10
0.0
 20
0.0
 30
0.0
 70
     1
  0
VERTEX
  5
1CC
  8
STRIPE-WHITE
 10
1.457446790294543
 20
1.734932721308266
 30
0.0
 42
0.4142135623730951
  0
VERTEX
  5
1CD
  8
STRIPE-WHITE
 10
1.455946790294543
 20
1.733432721308266
 30
0.0
 42
0.4142135623730951
  0
VERTEX
  5
1CE
  8
STRIPE-WHITE
 10
1.457446790294543
 20
1.731932721308266
 30
0.0
 42
0.4142135623730951
  0
VERTEX
  5
1CF
  8
STRIPE-WHITE
 10
1.458946790294543
 20
1.733432721308266
 30
0.0
 42
0.4142135623730951
  0
SEQEND
  5
4B6
  8
STRIPE-WHITE
  0
POLYLINE
  5
A9
  8
STRIPE-WHITE
 66
     1
 10
0.0
 20
0.0
 30
0.0
 70
     1
  0
VERTEX
  5
1D0
  8
STRIPE-WHITE
 10
1.478376556751182
 20
1.741366228470346
 30
0.0
 42
0.4142135623730951
  0
VERTEX
  5
1D1
  8
STRIPE-WHITE
 10
1.476876556751181
 20
1.739866228470346
 30
0.0
 42
0.4142135623730951
  0
VERTEX
  5
1D2
  8
STRIPE-WHITE
 10
1.478376556751182
 20
1.738366228470346
 30
0.0
 42
0.4142135623730951
  0
VERTEX
  5
1D3
  8
STRIPE-WHITE
 10
1.479876556751182
 20
1.739866228470346
 30
0.0
 42
0.4142135623730951
  0
SEQEND
  5
4B7
  8
STRIPE-WHITE
  0
POLYLINE
  5
AA
  8
STRIPE-WHITE
 66
     1
 10
0.0
 20
0.0
 30
0.0
 70
     1
  0
VERTEX
  5
1D4
  8
STRIPE-WHITE
 10
1.476306001361582
 20
1.722075451546715
 30
0.0
 42
0.4142135623730951
  0
VERTEX
  5
1D5
  8
STRIPE-WHITE
 10
1.474806001361582
 20
1.720575451546715
 30
0.0
 42
0.4142135623730951
  0
VERTEX
  5
1D6
  8
STRIPE-WHITE
 10
1.476306001361582
 20
1.719075451546715
 30
0.0
 42
0.4142135623730951
  0
VERTEX
  5
1D7
  8
STRIPE-WHITE
 10
1.477806001361582
 20
1.720575451546715
 30
0.0
 42
0.4142135623730951
  0
SEQEND
  5
4B8
  8
STRIPE-WHITE
  0
POLYLINE
  5
AB
  8
STRIPE-WHITE
 66
     1
 10
0.0
 20
0.0
 30
0.0
 70
     1
  0
VERTEX
  5
1D8
  8
STRIPE-WHITE
 10
1.452799912885309
 20
1.71884644019127
 30
0.0
 42
0.4142135623730951
  0
VERTEX
  5
1D9
  8
STRIPE-WHITE
 10
1.451299912885309
 20
1.717346440191269
 30
0.0
 42
0.4142135623730951
  0
VERTEX
  5
1DA
  8
STRIPE-WHITE
 10
1.452799912885309
 20
1.715846440191269
 30
0.0
 42
0.4142135623730951
  0
VERTEX
  5
1DB
  8
STRIPE-WHITE
 10
1.454299912885309
 20
1.717346440191269
 30
0.0
 42
0.4142135623730951
  0
SEQEND
  5
4B9
  8
STRIPE-WHITE
  0
POLYLINE
  5
AC
  8
STRIPE-WHITE
 66
     1
 10
0.0
 20
0.0
 30
0.0
 70
     1
  0
VERTEX
  5
1DC
  8
STRIPE-WHITE
 10
1.452855639618166
 20
1.735937849439373
 30
0.0
 42
0.4142135623730951
  0
VERTEX
  5
1DD
  8
STRIPE-WHITE
 10
1.451355639618166
 20
1.734437849439373
 30
0.0
 42
0.4142135623730951
  0
VERTEX
  5
1DE
  8
STRIPE-WHITE
 10
1.452855639618166
 20
1.732937849439373
 30
0.0
 42
0.4142135623730951
  0
VERTEX
  5
1DF
  8
STRIPE-WHITE
 10
1.454355639618166
 20
1.734437849439373
 30
0.0
 42
0.4142135623730951
  0
SEQEND
  5
4BA
  8
STRIPE-WHITE
  0
POLYLINE
  5
AD
  8
STRIPE-WHITE
 66
     1
 10
0.0
 20
0.0
 30
0.0
 70
     1
  0
VERTEX
  5
1E0
  8
STRIPE-WHITE
 10
1.477505179413227
 20
1.706224579681121
 30
0.0
 42
0.4142135623730951
  0
VERTEX
  5
1E1
  8
STRIPE-WHITE
 10
1.476005179413227
 20
1.704724579681121
 30
0.0
 42
0.4142135623730951
  0
VERTEX
  5
1E2
  8
STRIPE-WHITE
 10
1.477505179413227
 20
1.703224579681121
 30
0.0
 42
0.4142135623730951
  0
VERTEX
  5
1E3
  8
STRIPE-WHITE
 10
1.479005179413227
 20
1.704724579681121
 30
0.0
 42
0.4142135623730951
  0
SEQEND
  5
4BB
  8
STRIPE-WHITE
  0
POLYLINE
  5
AE
  8
STRIPE-WHITE
 66
     1
 10
0.0
 20
0.0
 30
0.0
 70
     1
  0
VERTEX
  5
1E4
  8
STRIPE-WHITE
 10
1.486309548299528
 20
1.726492499267429
 30
0.0
 42
0.4142135623730951
  0
VERTEX
  5
1E5
  8
STRIPE-WHITE
 10
1.484809548299528
 20
1.724992499267429
 30
0.0
 42
0.4142135623730951
  0
VERTEX
  5
1E6
  8
STRIPE-WHITE
 10
1.486309548299528
 20
1.723492499267429
 30
0.0
 42
0.4142135623730951
  0
VERTEX
  5
1E7
  8
STRIPE-WHITE
 10
1.487809548299528
 20
1.724992499267429
 30
0.0
 42
0.4142135623730951
  0
SEQEND
  5
4BC
  8
STRIPE-WHITE
  0
POLYLINE
  5
AF
  8
STRIPE-WHITE
 66
     1
 10
0.0
 20
0.0
 30
0.0
 70
     1
  0
VERTEX
  5
1E8
  8
STRIPE-WHITE
 10
1.324886805450251
 20
1.686445314583897
 30
0.0
  0
VERTEX
  5
1E9
  8
STRIPE-WHITE
 10
1.36926699287966
 20
1.773259189994056
 30
0.0
  0
VERTEX
  5
1EA
  8
STRIPE-WHITE
 10
1.364920326661359
 20
1.772094504291094
 30
0.0
  0
VERTEX
  5
1EB
  8
STRIPE-WHITE
 10
1.361280684683304
 20
1.767971034117615
 30
0.0
  0
VERTEX
  5
1EC
  8
STRIPE-WHITE
 10
1.334280684683304
 20
1.767971034117615
 30
0.0
  0
VERTEX
  5
1ED
  8
STRIPE-WHITE
 10
1.323037382007387
 20
1.75962908321044
 30
0.0
  0
VERTEX
  5
1EE
  8
STRIPE-WHITE
 10
1.326572915913319
 20
1.756093549304507
 30
0.0
  0
VERTEX
  5
1EF
  8
STRIPE-WHITE
 10
1.332696640281938
 20
1.759629083215259
 30
0.0
  0
VERTEX
  5
1F0
  8
STRIPE-WHITE
 10
1.354696640281938
 20
1.759629083215259
 30
0.0
  0
VERTEX
  5
1F1
  8
STRIPE-WHITE
 10
1.317471567472167
 20
1.686445314583897
 30
0.0
  0
SEQEND
  5
4BD
  8
STRIPE-WHITE
  0
POLYLINE
  5
B0
  8
STRIPE-WHITE
 66
     1
 10
0.0
 20
0.0
 30
0.0
  0
VERTEX
  5
1F2
  8
STRIPE-WHITE
 10
1.3800705794948
 20
1.730800009286776
 30
0.0
  0
VERTEX
  5
1F3
  8
STRIPE-WHITE
 10
1.324886805450251
 20
1.686445314583897
 30
0.0
  0
SEQEND
  5
4BE
  8
STRIPE-WHITE
  0
POLYLINE
  5
B1
  8
STRIPE-WHITE
 66
     1
 10
0.0
 20
0.0
 30
0.0
  0
VERTEX
  5
1F4
  8
STRIPE-WHITE
 10
1.380070579494797
 20
1.730800009286773
 30
0.0
  0
VERTEX
  5
1F5
  8
STRIPE-WHITE
 10
1.317471567479638
 20
1.686445314598585
 30
0.0
  0
SEQEND
  5
4BF
  8
STRIPE-WHITE
  0
POLYLINE
  5
B2
  8
STRIPE-WHITE
 66
     1
 10
0.0
 20
0.0
 30
0.0
  0
VERTEX
  5
1F6
  8
STRIPE-WHITE
 10
1.3800705794948
 20
1.730800009286776
 30
0.0
  0
VERTEX
  5
1F7
  8
STRIPE-WHITE
 10
1.354696640281938
 20
1.759629083215259
 30
0.0
  0
SEQEND
  5
4C0
  8
STRIPE-WHITE
  0
POLYLINE
  5
B3
  8
STRIPE-WHITE
 66
     1
 10
0.0
 20
0.0
 30
0.0
  0
VERTEX
  5
1F8
  8
STRIPE-WHITE
 10
1.380070573963571
 20
1.730799897200447
 30
0.0
  0
VERTEX
  5
1F9
  8
STRIPE-WHITE
 10
1.332696640281938
 20
1.759629083215259
 30
0.0
  0
SEQEND
  5
4C1
  8
STRIPE-WHITE
  0
POLYLINE
  5
B4
  8
STRIPE-WHITE
 66
     1
 10
0.0
 20
0.0
 30
0.0
  0
VERTEX
  5
1FA
  8
STRIPE-WHITE
 10
1.380070621722502
 20
1.730800101064629
 30
0.0
  0
VERTEX
  5
1FB
  8
STRIPE-WHITE
 10
1.326572915913319
 20
1.756093549304507
 30
0.0
  0
SEQEND
  5
4C2
  8
STRIPE-WHITE
  0
POLYLINE
  5
B5
  8
STRIPE-WHITE
 66
     1
 10
0.0
 20
0.0
 30
0.0
  0
VERTEX
  5
1FC
  8
STRIPE-WHITE
 10
1.36926699287966
 20
1.773259189994056
 30
0.0
  0
VERTEX
  5
1FD
  8
STRIPE-WHITE
 10
1.380070577269453
 20
1.730800008714148
 30
0.0
  0
VERTEX
  5
1FE
  8
STRIPE-WHITE
 10
1.364920326661359
 20
1.772094504291094
 30
0.0
  0
SEQEND
  5
4C3
  8
STRIPE-WHITE
  0
POLYLINE
  5
B6
  8
STRIPE-WHITE
 66
     1
 10
0.0
 20
0.0
 30
0.0
  0
VERTEX
  5
1FF
  8
STRIPE-WHITE
 10
1.323037382020729
 20
1.759629083220339
 30
0.0
  0
VERTEX
  5
200
  8
STRIPE-WHITE
 10
1.380070580432132
 20
1.730799996284489
 30
0.0
  0
VERTEX
  5
201
  8
STRIPE-WHITE
 10
1.334280684683304
 20
1.767971034117615
 30
0.0
  0
SEQEND
  5
4C4
  8
STRIPE-WHITE
  0
POLYLINE
  5
B7
  8
STRIPE-WHITE
 66
     1
 10
0.0
 20
0.0
 30
0.0
  0
VERTEX
  5
202
  8
STRIPE-WHITE
 10
1.361280684683304
 20
1.767971034117615
 30
0.0
  0
VERTEX
  5
203
  8
STRIPE-WHITE
 10
1.380070579494801
 20
1.730800009286772
 30
0.0
  0
SEQEND
  5
4C5
  8
STRIPE-WHITE
  0
POLYLINE
  5
B8
  8
STRIPE-WHITE
 66
     1
 10
0.0
 20
0.0
 30
0.0
  0
VERTEX
  5
204
  8
STRIPE-WHITE
 10
1.287528242889908
 20
1.708043229265446
 30
0.0
  0
VERTEX
  5
205
  8
STRIPE-WHITE
 10
1.380070579494802
 20
1.730800009286773
 30
0.0
  0
VERTEX
  5
206
  8
STRIPE-WHITE
 10
1.28233146318779
 20
1.705044316038504
 30
0.0
  0
SEQEND
  5
4C6
  8
STRIPE-WHITE
  0
POLYLINE
  5
B9
  8
STRIPE-WHITE
 66
     1
 10
0.0
 20
0.0
 30
0.0
  0
VERTEX
  5
207
  8
STRIPE-WHITE
 10
1.277343108762196
 20
1.704366158895852
 30
0.0
  0
VERTEX
  5
208
  8
STRIPE-WHITE
 10
1.380070579494797
 20
1.730800009286773
 30
0.0
  0
VERTEX
  5
209
  8
STRIPE-WHITE
 10
1.287301530080412
 20
1.769042807963188
 30
0.0
  0
SEQEND
  5
4C7
  8
STRIPE-WHITE
  0
POLYLINE
  5
BA
  8
STRIPE-WHITE
 66
     1
 10
0.0
 20
0.0
 30
0.0
  0
VERTEX
  5
20A
  8
STRIPE-WHITE
 10
1.281331669227022
 20
1.768890540064558
 30
0.0
  0
VERTEX
  5
20B
  8
STRIPE-WHITE
 10
1.380125434712245
 20
1.730844851739616
 30
0.0
  0
VERTEX
  5
20C
  8
STRIPE-WHITE
 10
1.272166000172211
 20
1.761039282420079
 30
0.0
  0
SEQEND
  5
4C8
  8
STRIPE-WHITE
  0
POLYLINE
  5
BB
  8
STRIPE-WHITE
 66
     1
 10
0.0
 20
0.0
 30
0.0
  0
VERTEX
  5
20D
  8
STRIPE-WHITE
 10
1.277253232063633
 20
1.758454971883623
 30
0.0
  0
VERTEX
  5
20E
  8
STRIPE-WHITE
 10
1.38006588162308
 20
1.730801226229416
 30
0.0
  0
VERTEX
  5
20F
  8
STRIPE-WHITE
 10
1.275855793733853
 20
1.704540297161894
 30
0.0
  0
SEQEND
  5
4C9
  8
STRIPE-WHITE
  0
POLYLINE
  5
BC
  8
STRIPE-WHITE
 66
     1
 10
0.0
 20
0.0
 30
0.0
  0
VERTEX
  5
210
  8
STRIPE-WHITE
 10
1.271904271541181
 20
1.757047854339342
 30
0.0
  0
VERTEX
  5
211
  8
STRIPE-WHITE
 10
1.380070493371994
 20
1.730800107136806
 30
0.0
  0
SEQEND
  5
4CA
  8
STRIPE-WHITE
  0
POLYLINE
  5
BD
  8
STRIPE-WHITE
 66
     1
 10
0.0
 20
0.0
 30
0.0
  0
VERTEX
  5
212
  8
STRIPE-WHITE
 10
1.383677576962463
 20
1.75962908321044
 30
0.0
  0
VERTEX
  5
213
  8
STRIPE-WHITE
 10
1.380070579399258
 20
1.730800009323765
 30
0.0
  0
VERTEX
  5
214
  8
STRIPE-WHITE
 10
1.387213110868396
 20
1.756093549304507
 30
0.0
  0
SEQEND
  5
4CB
  8
STRIPE-WHITE
  0
POLYLINE
  5
BE
  8
STRIPE-WHITE
 66
     1
 10
0.0
 20
0.0
 30
0.0
  0
VERTEX
  5
215
  8
STRIPE-WHITE
 10
1.378111762427243
 20
1.686445314583897
 30
0.0
  0
VERTEX
  5
216
  8
STRIPE-WHITE
 10
1.380070578892199
 20
1.730800008802427
 30
0.0
  0
VERTEX
  5
217
  8
STRIPE-WHITE
 10
1.385527000405328
 20
1.686445314583897
 30
0.0
  0
SEQEND
  5
4CC
  8
STRIPE-WHITE
  0
POLYLINE
  5
BF
  8
STRIPE-WHITE
 66
     1
 10
0.0
 20
0.0
 30
0.0
  0
VERTEX
  5
218
  8
STRIPE-WHITE
 10
1.393336835237014
 20
1.759629083215259
 30
0.0
  0
VERTEX
  5
219
  8
STRIPE-WHITE
 10
1.380070579491841
 20
1.730800009292628
 30
0.0
  0
VERTEX
  5
21A
  8
STRIPE-WHITE
 10
1.415336835237014
 20
1.759629083215259
 30
0.0
  0
SEQEND
  5
4CD
  8
STRIPE-WHITE
  0
POLYLINE
  5
C0
  8
STRIPE-WHITE
 66
     1
 10
0.0
 20
0.0
 30
0.0
  0
VERTEX
  5
21B
  8
STRIPE-WHITE
 10
1.380087450588084
 20
1.730814439186906
 30
0.0
  0
VERTEX
  5
21C
  8
STRIPE-WHITE
 10
1.39492087963838
 20
1.767971034117615
 30
0.0
  0
SEQEND
  5
4CE
  8
STRIPE-WHITE
  0
POLYLINE
  5
C1
  8
STRIPE-WHITE
 66
     1
 10
0.0
 20
0.0
 30
0.0
  0
VERTEX
  5
21D
  8
STRIPE-WHITE
 10
1.421920879664501
 20
1.767971034150135
 30
0.0
  0
VERTEX
  5
21E
  8
STRIPE-WHITE
 10
1.380069411676647
 20
1.730799070637353
 30
0.0
  0
VERTEX
  5
21F
  8
STRIPE-WHITE
 10
1.42990718782137
 20
1.77325918996791
 30
0.0
  0
SEQEND
  5
4CF
  8
STRIPE-WHITE
  0
POLYLINE
  5
C2
  8
STRIPE-WHITE
 66
     1
 10
0.0
 20
0.0
 30
0.0
  0
VERTEX
  5
220
  8
STRIPE-WHITE
 10
1.380071087351494
 20
1.730799584780627
 30
0.0
  0
VERTEX
  5
221
  8
STRIPE-WHITE
 10
1.425560521627713
 20
1.772094504305134
 30
0.0
  0
SEQEND
  5
4D0
  8
STRIPE-WHITE
  0
POLYLINE
  5
C3
  8
STRIPE-WHITE
 66
     1
 10
0.0
 20
0.0
 30
0.0
  0
VERTEX
  5
222
  8
STRIPE-WHITE
 10
1.457446790294543
 20
1.733432721308266
 30
0.0
  0
VERTEX
  5
223
  8
STRIPE-WHITE
 10
1.380120780696413
 20
1.730844695974294
 30
0.0
  0
VERTEX
  5
224
  8
STRIPE-WHITE
 10
1.476306001361582
 20
1.720575451546715
 30
0.0
  0
SEQEND
  5
4D1
  8
STRIPE-WHITE
  0
POLYLINE
  5
C4
  8
STRIPE-WHITE
 66
     1
 10
0.0
 20
0.0
 30
0.0
 70
     1
  0
VERTEX
  5
225
  8
STRIPE-WHITE
 10
1.444117610746519
 20
1.731985858844518
 30
0.0
 42
0.4142135623730951
  0
VERTEX
  5
226
  8
STRIPE-WHITE
 10
1.442617610746519
 20
1.730485858844518
 30
0.0
 42
0.4142135623730951
  0
VERTEX
  5
227
  8
STRIPE-WHITE
 10
1.444117610746519
 20
1.728985858844518
 30
0.0
 42
0.4142135623730951
  0
VERTEX
  5
228
  8
STRIPE-WHITE
 10
1.445617610746519
 20
1.730485858844518
 30
0.0
 42
0.4142135623730951
  0
SEQEND
  5
4D2
  8
STRIPE-WHITE
  0
POLYLINE
  5
C5
  8
STRIPE-WHITE
 66
     1
 10
0.0
 20
0.0
 30
0.0
  0
VERTEX
  5
229
  8
STRIPE-WHITE
 10
1.450223600667118
 20
1.70328329118597
 30
0.0
  0
VERTEX
  5
22A
  8
STRIPE-WHITE
 10
1.380068809630639
 20
1.730800515715535
 30
0.0
  0
VERTEX
  5
22B
  8
STRIPE-WHITE
 10
1.444117610746519
 20
1.730485858844518
 30
0.0
  0
SEQEND
  5
4D3
  8
STRIPE-WHITE
  0
POLYLINE
  5
C6
  8
STRIPE-WHITE
 66
     1
 10
0.0
 20
0.0
 30
0.0
  0
VERTEX
  5
22C
  8
STRIPE-WHITE
 10
1.485429379697491
 20
1.783356380032082
 30
0.0
  0
VERTEX
  5
22D
  8
STRIPE-WHITE
 10
1.380087854730754
 20
1.730815451533107
 30
0.0
  0
VERTEX
  5
22E
  8
STRIPE-WHITE
 10
1.452799912885309
 20
1.717346440191269
 30
0.0
  0
SEQEND
  5
4D4
  8
STRIPE-WHITE
  0
POLYLINE
  5
C7
  8
STRIPE-WHITE
 66
     1
 10
0.0
 20
0.0
 30
0.0
  0
VERTEX
  5
22F
  8
STRIPE-WHITE
 10
1.477505179413227
 20
1.704724579681121
 30
0.0
  0
VERTEX
  5
230
  8
STRIPE-WHITE
 10
1.380069879636072
 20
1.730798488426893
 30
0.0
  0
VERTEX
  5
231
  8
STRIPE-WHITE
 10
1.486309548299528
 20
1.724992499267429
 30
0.0
  0
SEQEND
  5
4D5
  8
STRIPE-WHITE
  0
POLYLINE
  5
C8
  8
STRIPE-WHITE
 66
     1
 10
0.0
 20
0.0
 30
0.0
  0
VERTEX
  5
232
  8
STRIPE-WHITE
 10
1.485886918351725
 20
1.776512532065629
 30
0.0
  0
VERTEX
  5
233
  8
STRIPE-WHITE
 10
1.380091997373012
 20
1.730817517748408
 30
0.0
  0
VERTEX
  5
234
  8
STRIPE-WHITE
 10
1.452855639596792
 20
1.734437849371171
 30
0.0
  0
SEQEND
  5
4D6
  8
STRIPE-WHITE
  0
POLYLINE
  5
C9
  8
STRIPE-WHITE
 66
     1
 10
0.0
 20
0.0
 30
0.0
  0
VERTEX
  5
235
  8
STRIPE-WHITE
 10
1.478376556751182
 20
1.739866228470346
 30
0.0
  0
VERTEX
  5
236
  8
STRIPE-WHITE
 10
1.380065881623096
 20
1.730801226229417
 30
0.0
  0
VERTEX
  5
237
  8
STRIPE-WHITE
 10
1.455472456886181
 20
1.736844159738159
 30
0.0
  0
SEQEND
  5
4D7
  8
STRIPE-WHITE
  0
POLYLINE
  5
CA
  8
STRIPE-WHITE
 66
     1
 10
0.0
 20
0.0
 30
0.0
 70
     1
  0
VERTEX
  5
238
  8
STRIPE-WHITE
 10
1.385527000405328
 20
1.686445314583897
 30
0.0
  0
VERTEX
  5
239
  8
STRIPE-WHITE
 10
1.429907187834736
 20
1.773259189994056
 30
0.0
  0
VERTEX
  5
23A
  8
STRIPE-WHITE
 10
1.425560521616435
 20
1.772094504291094
 30
0.0
  0
VERTEX
  5
23B
  8
STRIPE-WHITE
 10
1.42192087963838
 20
1.767971034117615
 30
0.0
  0
VERTEX
  5
23C
  8
STRIPE-WHITE
 10
1.39492087963838
 20
1.767971034117615
 30
0.0
  0
VERTEX
  5
23D
  8
STRIPE-WHITE
 10
1.383677576962463
 20
1.75962908321044
 30
0.0
  0
VERTEX
  5
23E
  8
STRIPE-WHITE
 10
1.387213110868396
 20
1.756093549304507
 30
0.0
  0
VERTEX
  5
23F
  8
STRIPE-WHITE
 10
1.393336835237014
 20
1.759629083215259
 30
0.0
  0
VERTEX
  5
240
  8
STRIPE-WHITE
 10
1.415336835237014
 20
1.759629083215259
 30
0.0
  0
VERTEX
  5
241
  8
STRIPE-WHITE
 10
1.378111762427243
 20
1.686445314583897
 30
0.0
  0
SEQEND
  5
4D8
  8
STRIPE-WHITE
  0
POLYLINE
  5
CB
  8
STRIPE-WHITE
 66
     1
 10
0.0
 20
0.0
 30
0.0
 70
     1
  0
VERTEX
  5
242
  8
STRIPE-WHITE
 10
1.379319599906989
 20
1.849526832352132
 30
0.0
 42
0.4142135623730951
  0
VERTEX
  5
243
  8
STRIPE-WHITE
 10
1.260947947984668
 20
1.731155180429811
 30
0.0
 42
0.4142135623730951
  0
VERTEX
  5
244
  8
STRIPE-WHITE
 10
1.379319599906989
 20
1.61278352850749
 30
0.0
 42
0.4142135623730951
  0
VERTEX
  5
245
  8
STRIPE-WHITE
 10
1.49769125182931
 20
1.731155180429811
 30
0.0
 42
0.4142135623730951
  0
SEQEND
  5
4D9
  8
STRIPE-WHITE
  0
POLYLINE
  5
CC
  8
STRIPE-WHITE
 66
     1
 10
0.0
 20
0.0
 30
0.0
 70
     1
  0
VERTEX
  5
246
  8
STRIPE-WHITE
 10
1.38
 20
1.796307292764659
 30
0.0
 42
0.4142135623730951
  0
VERTEX
  5
247
  8
STRIPE-WHITE
 10
1.31444270723534
 20
1.730749999999999
 30
0.0
 42
0.4142135623730951
  0
VERTEX
  5
248
  8
STRIPE-WHITE
 10
1.38
 20
1.66519270723534
 30
0.0
 42
0.4142135623730951
  0
VERTEX
  5
249
  8
STRIPE-WHITE
 10
1.445557292764659
 20
1.730749999999999
 30
0.0
 42
0.4142135623730951
  0
SEQEND
  5
4DA
  8
STRIPE-WHITE
  0
POLYLINE
  5
CD
  8
STRIPE-WHITE
 66
     1
 10
0.0
 20
0.0
 30
0.0
 70
     1
  0
VERTEX
  5
24A
  8
STRIPE-WHITE
 10
1.380557054368161
 20
1.774734527964763
 30
0.0
 42
0.4142135623730951
  0
VERTEX
  5
24B
  8
STRIPE-WHITE
 10
1.336620643486036
 20
1.730798117082638
 30
0.0
 42
0.4142135623730951
  0
VERTEX
  5
24C
  8
STRIPE-WHITE
 10
1.380557054368161
 20
1.686861706200513
 30
0.0
 42
0.4142135623730951
  0
VERTEX
  5
24D
  8
STRIPE-WHITE
 10
1.424493465250286
 20
1.730798117082638
 30
0.0
 42
0.4142135623730951
  0
SEQEND
  5
4DB
  8
STRIPE-WHITE
  0
POLYLINE
  5
CE
  8
STRIPE-WHITE
 66
     1
 10
0.0
 20
0.0
 30
0.0
 70
     1
  0
VERTEX
  5
24E
  8
STRIPE-WHITE
 10
1.381060796471672
 20
1.832024012391488
 30
0.0
 42
0.4142135623730951
  0
VERTEX
  5
24F
  8
STRIPE-WHITE
 10
1.279781118983464
 20
1.73074433490328
 30
0.0
 42
0.4142135623730951
  0
VERTEX
  5
250
  8
STRIPE-WHITE
 10
1.381060796471672
 20
1.629464657415071
 30
0.0
 42
0.4142135623730951
  0
VERTEX
  5
251
  8
STRIPE-WHITE
 10
1.482340473959881
 20
1.73074433490328
 30
0.0
 42
0.4142135623730951
  0
SEQEND
  5
4DC
  8
STRIPE-WHITE
  0
POLYLINE
  5
D0
  8
DIMENSIONS
 66
     1
 10
0.0
 20
0.0
 30
0.0
 70
     1
  0
VERTEX
  5
252
  8
DIMENSIONS
 10
1.306534462040764
 20
1.5067708820246
 30
0.0
  0
VERTEX
  5
253
  8
DIMENSIONS
 10
1.306963264905702
 20
1.514292965926374
 30
0.0
  0
VERTEX
  5
254
  8
DIMENSIONS
 10
1.308249673500518
 20
1.520188003443427
 30
0.0
  0
VERTEX
  5
255
  8
DIMENSIONS
 10
1.309211474319072
 20
1.522583488607137
 30
0.0
  0
VERTEX
  5
256
  8
DIMENSIONS
 10
1.310381665314979
 20
1.524688429773577
 30
0.0
  0
VERTEX
  5
257
  8
DIMENSIONS
 10
1.31176024648824
 20
1.526502826942745
 30
0.0
  0
VERTEX
  5
258
  8
DIMENSIONS
 10
1.313347217838853
 20
1.528026680114641
 30
0.0
  0
VERTEX
  5
259
  8
DIMENSIONS
 10
1.315147588746084
 20
1.529232938641244
 30
0.0
  0
VERTEX
  5
25A
  8
DIMENSIONS
 10
1.317166368589195
 20
1.530094551874532
 30
0.0
  0
VERTEX
  5
25B
  8
DIMENSIONS
 10
1.319403557368185
 20
1.530611519814505
 30
0.0
  0
VERTEX
  5
25C
  8
DIMENSIONS
 10
1.321859155083055
 20
1.530783842461162
 30
0.0
  0
VERTEX
  5
25D
  8
DIMENSIONS
 10
1.325409803104884
 20
1.530403129637151
 30
0.0
  0
VERTEX
  5
25E
  8
DIMENSIONS
 10
1.328495580731077
 20
1.529260991165118
 30
0.0
  0
VERTEX
  5
25F
  8
DIMENSIONS
 10
1.331100457947994
 20
1.527401509582581
 30
0.0
  0
VERTEX
  5
260
  8
DIMENSIONS
 10
1.333208404741991
 20
1.524868767427056
 30
0.0
  0
VERTEX
  5
261
  8
DIMENSIONS
 10
1.334867511153997
 20
1.521686809719007
 30
0.0
  0
VERTEX
  5
262
  8
DIMENSIONS
 10
1.336125867224938
 20
1.517879681478898
 30
0.0
  0
VERTEX
  5
263
  8
DIMENSIONS
 10
1.336919352900245
 20
1.513042624862254
 30
0.0
  0
VERTEX
  5
264
  8
DIMENSIONS
 10
1.337183848125347
 20
1.5067708820246
 30
0.0
  0
VERTEX
  5
265
  8
DIMENSIONS
 10
1.336759052763819
 20
1.499296888163754
 30
0.0
  0
VERTEX
  5
266
  8
DIMENSIONS
 10
1.335484666679235
 20
1.493417880660344
 30
0.0
  0
VERTEX
  5
267
  8
DIMENSIONS
 10
1.33452987899165
 20
1.49102139362078
 30
0.0
  0
VERTEX
  5
268
  8
DIMENSIONS
 10
1.333364697375006
 20
1.488913446826783
 30
0.0
  0
VERTEX
  5
269
  8
DIMENSIONS
 10
1.331989121829304
 20
1.487094040278352
 30
0.0
  0
VERTEX
  5
26A
  8
DIMENSIONS
 10
1.330403152354543
 20
1.485563173975487
 30
0.0
  0
VERTEX
  5
26B
  8
DIMENSIONS
 10
1.328600777695607
 20
1.484349902317915
 30
0.0
  0
VERTEX
  5
26C
  8
DIMENSIONS
 10
1.32657598659738
 20
1.483483279705364
 30
0.0
  0
VERTEX
  5
26D
  8
DIMENSIONS
 10
1.324328779059863
 20
1.482963306137834
 30
0.0
  0
VERTEX
  5
26E
  8
DIMENSIONS
 10
1.321859155083055
 20
1.482789981615323
 30
0.0
  0
VERTEX
  5
26F
  8
DIMENSIONS
 10
1.318643133596016
 20
1.483094551874532
 30
0.0
  0
VERTEX
  5
270
  8
DIMENSIONS
 10
1.315791794919345
 20
1.484008262652158
 30
0.0
  0
VERTEX
  5
271
  8
DIMENSIONS
 10
1.313305139053042
 20
1.485531113948202
 30
0.0
  0
VERTEX
  5
272
  8
DIMENSIONS
 10
1.311183165997107
 20
1.487663105762663
 30
0.0
  0
VERTEX
  5
273
  8
DIMENSIONS
 10
1.309149358016207
 20
1.491057461151476
 30
0.0
  0
VERTEX
  5
274
  8
DIMENSIONS
 10
1.307696638029849
 20
1.495373542324737
 30
0.0
  0
VERTEX
  5
275
  8
DIMENSIONS
 10
1.306825006038035
 20
1.500611349282445
 30
0.0
  0
SEQEND
  5
4DD
  8
DIMENSIONS
  0
POLYLINE
  5
D1
  8
DIMENSIONS
 66
     1
 10
0.0
 20
0.0
 30
0.0
 70
     1
  0
VERTEX
  5
276
  8
DIMENSIONS
 10
1.312465567088512
 20
1.5067708820246
 30
0.0
  0
VERTEX
  5
277
  8
DIMENSIONS
 10
1.312634884107612
 20
1.501467953136469
 30
0.0
  0
VERTEX
  5
278
  8
DIMENSIONS
 10
1.313142835164911
 20
1.497132836322008
 30
0.0
  0
VERTEX
  5
279
  8
DIMENSIONS
 10
1.313989420260409
 20
1.493765531581217
 30
0.0
  0
VERTEX
  5
27A
  8
DIMENSIONS
 10
1.315174639394106
 20
1.491366038914095
 30
0.0
  0
VERTEX
  5
27B
  8
DIMENSIONS
 10
1.316608323739263
 20
1.489689900612595
 30
0.0
  0
VERTEX
  5
27C
  8
DIMENSIONS
 10
1.31820030446914
 20
1.488492658968666
 30
0.0
  0
VERTEX
  5
27D
  8
DIMENSIONS
 10
1.319950581583738
 20
1.487774313982308
 30
0.0
  0
VERTEX
  5
27E
  8
DIMENSIONS
 10
1.321859155083055
 20
1.487534865653522
 30
0.0
  0
VERTEX
  5
27F
  8
DIMENSIONS
 10
1.323767728582373
 20
1.487775315858161
 30
0.0
  0
VERTEX
  5
280
  8
DIMENSIONS
 10
1.325518005696971
 20
1.488496666472076
 30
0.0
  0
VERTEX
  5
281
  8
DIMENSIONS
 10
1.327109986426848
 20
1.489698917495269
 30
0.0
  0
VERTEX
  5
282
  8
DIMENSIONS
 10
1.328543670772005
 20
1.491382068927738
 30
0.0
  0
VERTEX
  5
283
  8
DIMENSIONS
 10
1.329728889905702
 20
1.493786570974123
 30
0.0
  0
VERTEX
  5
284
  8
DIMENSIONS
 10
1.3305754750012
 20
1.497152873839061
 30
0.0
  0
VERTEX
  5
285
  8
DIMENSIONS
 10
1.331083426058499
 20
1.501480977522554
 30
0.0
  0
VERTEX
  5
286
  8
DIMENSIONS
 10
1.331252743077598
 20
1.5067708820246
 30
0.0
  0
VERTEX
  5
287
  8
DIMENSIONS
 10
1.331083426058499
 20
1.512086835298816
 30
0.0
  0
VERTEX
  5
288
  8
DIMENSIONS
 10
1.3305754750012
 20
1.516428965244245
 30
0.0
  0
VERTEX
  5
289
  8
DIMENSIONS
 10
1.329728889905702
 20
1.519797271860889
 30
0.0
  0
VERTEX
  5
28A
  8
DIMENSIONS
 10
1.328543670772005
 20
1.522191755148747
 30
0.0
  0
VERTEX
  5
28B
  8
DIMENSIONS
 10
1.327105978923437
 20
1.523860880319279
 30
0.0
  0
VERTEX
  5
28C
  8
DIMENSIONS
 10
1.325501975683328
 20
1.525053112583945
 30
0.0
  0
VERTEX
  5
28D
  8
DIMENSIONS
 10
1.323731661051677
 20
1.525768451942745
 30
0.0
  0
VERTEX
  5
28E
  8
DIMENSIONS
 10
1.321795035028485
 20
1.526006898395678
 30
0.0
  0
VERTEX
  5
28F
  8
DIMENSIONS
 10
1.319907500922073
 20
1.525796504466619
 30
0.0
  0
VERTEX
  5
290
  8
DIMENSIONS
 10
1.318220341986193
 20
1.525165322679443
 30
0.0
  0
VERTEX
  5
291
  8
DIMENSIONS
 10
1.316733558220845
 20
1.52411335303415
 30
0.0
  0
VERTEX
  5
292
  8
DIMENSIONS
 10
1.315447149626029
 20
1.522640595530739
 30
0.0
  0
VERTEX
  5
293
  8
DIMENSIONS
 10
1.314142707265866
 20
1.520037722065528
 30
0.0
  0
VERTEX
  5
294
  8
DIMENSIONS
 10
1.313210962722892
 20
1.516525145326101
 30
0.0
  0
VERTEX
  5
295
  8
DIMENSIONS
 10
1.312651915997107
 20
1.512102865312458
 30
0.0
  0
SEQEND
  5
4DE
  8
DIMENSIONS
  0
POLYLINE
  5
D2
  8
DIMENSIONS
 66
     1
 10
0.0
 20
0.0
 30
0.0
 70
     1
  0
VERTEX
  5
296
  8
DIMENSIONS
 10
1.346288895874324
 20
1.483591482297451
 30
0.0
  0
VERTEX
  5
297
  8
DIMENSIONS
 10
1.346288895874324
 20
1.490163787890903
 30
0.0
  0
VERTEX
  5
298
  8
DIMENSIONS
 10
1.352861201467776
 20
1.490163787890903
 30
0.0
  0
VERTEX
  5
299
  8
DIMENSIONS
 10
1.352861201467776
 20
1.483591482297451
 30
0.0
  0
SEQEND
  5
4DF
  8
DIMENSIONS
  0
POLYLINE
  5
D3
  8
DIMENSIONS
 66
     1
 10
0.0
 20
0.0
 30
0.0
 70
     1
  0
VERTEX
  5
29A
  8
DIMENSIONS
 10
1.361292988643765
 20
1.5067708820246
 30
0.0
  0
VERTEX
  5
29B
  8
DIMENSIONS
 10
1.361721791508704
 20
1.514292965926374
 30
0.0
  0
VERTEX
  5
29C
  8
DIMENSIONS
 10
1.363008200103519
 20
1.520188003443427
 30
0.0
  0
VERTEX
  5
29D
  8
DIMENSIONS
 10
1.363970000922073
 20
1.522583488607137
 30
0.0
  0
VERTEX
  5
29E
  8
DIMENSIONS
 10
1.36514019191798
 20
1.524688429773577
 30
0.0
  0
VERTEX
  5
29F
  8
DIMENSIONS
 10
1.366518773091241
 20
1.526502826942745
 30
0.0
  0
VERTEX
  5
2A0
  8
DIMENSIONS
 10
1.368105744441855
 20
1.528026680114641
 30
0.0
  0
VERTEX
  5
2A1
  8
DIMENSIONS
 10
1.369906115349085
 20
1.529232938641244
 30
0.0
  0
VERTEX
  5
2A2
  8
DIMENSIONS
 10
1.371924895192196
 20
1.530094551874532
 30
0.0
  0
VERTEX
  5
2A3
  8
DIMENSIONS
 10
1.374162083971187
 20
1.530611519814505
 30
0.0
  0
VERTEX
  5
2A4
  8
DIMENSIONS
 10
1.376617681686057
 20
1.530783842461162
 30
0.0
  0
VERTEX
  5
2A5
  8
DIMENSIONS
 10
1.380168329707885
 20
1.530403129637151
 30
0.0
  0
VERTEX
  5
2A6
  8
DIMENSIONS
 10
1.383254107334079
 20
1.529260991165118
 30
0.0
  0
VERTEX
  5
2A7
  8
DIMENSIONS
 10
1.385858984550995
 20
1.527401509582581
 30
0.0
  0
VERTEX
  5
2A8
  8
DIMENSIONS
 10
1.387966931344993
 20
1.524868767427056
 30
0.0
  0
VERTEX
  5
2A9
  8
DIMENSIONS
 10
1.389626037756998
 20
1.521686809719007
 30
0.0
  0
VERTEX
  5
2AA
  8
DIMENSIONS
 10
1.39088439382794
 20
1.517879681478898
 30
0.0
  0
VERTEX
  5
2AB
  8
DIMENSIONS
 10
1.391677879503247
 20
1.513042624862254
 30
0.0
  0
VERTEX
  5
2AC
  8
DIMENSIONS
 10
1.391942374728349
 20
1.5067708820246
 30
0.0
  0
VERTEX
  5
2AD
  8
DIMENSIONS
 10
1.391517579366821
 20
1.499296888163754
 30
0.0
  0
VERTEX
  5
2AE
  8
DIMENSIONS
 10
1.390243193282237
 20
1.493417880660344
 30
0.0
  0
VERTEX
  5
2AF
  8
DIMENSIONS
 10
1.389288405594652
 20
1.49102139362078
 30
0.0
  0
VERTEX
  5
2B0
  8
DIMENSIONS
 10
1.388123223978008
 20
1.488913446826783
 30
0.0
  0
VERTEX
  5
2B1
  8
DIMENSIONS
 10
1.386747648432305
 20
1.487094040278352
 30
0.0
  0
VERTEX
  5
2B2
  8
DIMENSIONS
 10
1.385161678957544
 20
1.485563173975487
 30
0.0
  0
VERTEX
  5
2B3
  8
DIMENSIONS
 10
1.383359304298608
 20
1.484349902317915
 30
0.0
  0
VERTEX
  5
2B4
  8
DIMENSIONS
 10
1.381334513200382
 20
1.483483279705364
 30
0.0
  0
VERTEX
  5
2B5
  8
DIMENSIONS
 10
1.379087305662865
 20
1.482963306137834
 30
0.0
  0
VERTEX
  5
2B6
  8
DIMENSIONS
 10
1.376617681686057
 20
1.482789981615323
 30
0.0
  0
VERTEX
  5
2B7
  8
DIMENSIONS
 10
1.373401660199018
 20
1.483094551874532
 30
0.0
  0
VERTEX
  5
2B8
  8
DIMENSIONS
 10
1.370550321522346
 20
1.484008262652158
 30
0.0
  0
VERTEX
  5
2B9
  8
DIMENSIONS
 10
1.368063665656043
 20
1.485531113948202
 30
0.0
  0
VERTEX
  5
2BA
  8
DIMENSIONS
 10
1.365941692600109
 20
1.487663105762663
 30
0.0
  0
VERTEX
  5
2BB
  8
DIMENSIONS
 10
1.363907884619209
 20
1.491057461151476
 30
0.0
  0
VERTEX
  5
2BC
  8
DIMENSIONS
 10
1.362455164632851
 20
1.495373542324737
 30
0.0
  0
VERTEX
  5
2BD
  8
DIMENSIONS
 10
1.361583532641037
 20
1.500611349282445
 30
0.0
  0
SEQEND
  5
4E0
  8
DIMENSIONS
  0
POLYLINE
  5
D4
  8
DIMENSIONS
 66
     1
 10
0.0
 20
0.0
 30
0.0
 70
     1
  0
VERTEX
  5
2BE
  8
DIMENSIONS
 10
1.367224093691514
 20
1.5067708820246
 30
0.0
  0
VERTEX
  5
2BF
  8
DIMENSIONS
 10
1.367393410710614
 20
1.501467953136469
 30
0.0
  0
VERTEX
  5
2C0
  8
DIMENSIONS
 10
1.367901361767912
 20
1.497132836322008
 30
0.0
  0
VERTEX
  5
2C1
  8
DIMENSIONS
 10
1.368747946863411
 20
1.493765531581217
 30
0.0
  0
VERTEX
  5
2C2
  8
DIMENSIONS
 10
1.369933165997107
 20
1.491366038914095
 30
0.0
  0
VERTEX
  5
2C3
  8
DIMENSIONS
 10
1.371366850342264
 20
1.489689900612595
 30
0.0
  0
VERTEX
  5
2C4
  8
DIMENSIONS
 10
1.372958831072141
 20
1.488492658968666
 30
0.0
  0
VERTEX
  5
2C5
  8
DIMENSIONS
 10
1.374709108186739
 20
1.487774313982308
 30
0.0
  0
VERTEX
  5
2C6
  8
DIMENSIONS
 10
1.376617681686057
 20
1.487534865653522
 30
0.0
  0
VERTEX
  5
2C7
  8
DIMENSIONS
 10
1.378526255185375
 20
1.487775315858161
 30
0.0
  0
VERTEX
  5
2C8
  8
DIMENSIONS
 10
1.380276532299972
 20
1.488496666472076
 30
0.0
  0
VERTEX
  5
2C9
  8
DIMENSIONS
 10
1.38186851302985
 20
1.489698917495269
 30
0.0
  0
VERTEX
  5
2CA
  8
DIMENSIONS
 10
1.383302197375006
 20
1.491382068927738
 30
0.0
  0
VERTEX
  5
2CB
  8
DIMENSIONS
 10
1.384487416508703
 20
1.493786570974123
 30
0.0
  0
VERTEX
  5
2CC
  8
DIMENSIONS
 10
1.385334001604202
 20
1.497152873839061
 30
0.0
  0
VERTEX
  5
2CD
  8
DIMENSIONS
 10
1.3858419526615
 20
1.501480977522554
 30
0.0
  0
VERTEX
  5
2CE
  8
DIMENSIONS
 10
1.3860112696806
 20
1.5067708820246
 30
0.0
  0
VERTEX
  5
2CF
  8
DIMENSIONS
 10
1.3858419526615
 20
1.512086835298816
 30
0.0
  0
VERTEX
  5
2D0
  8
DIMENSIONS
 10
1.385334001604202
 20
1.516428965244245
 30
0.0
  0
VERTEX
  5
2D1
  8
DIMENSIONS
 10
1.384487416508703
 20
1.519797271860889
 30
0.0
  0
VERTEX
  5
2D2
  8
DIMENSIONS
 10
1.383302197375006
 20
1.522191755148747
 30
0.0
  0
VERTEX
  5
2D3
  8
DIMENSIONS
 10
1.381864505526439
 20
1.523860880319279
 30
0.0
  0
VERTEX
  5
2D4
  8
DIMENSIONS
 10
1.38026050228633
 20
1.525053112583945
 30
0.0
  0
VERTEX
  5
2D5
  8
DIMENSIONS
 10
1.378490187654679
 20
1.525768451942745
 30
0.0
  0
VERTEX
  5
2D6
  8
DIMENSIONS
 10
1.376553561631487
 20
1.526006898395678
 30
0.0
  0
VERTEX
  5
2D7
  8
DIMENSIONS
 10
1.374666027525075
 20
1.525796504466619
 30
0.0
  0
VERTEX
  5
2D8
  8
DIMENSIONS
 10
1.372978868589195
 20
1.525165322679443
 30
0.0
  0
VERTEX
  5
2D9
  8
DIMENSIONS
 10
1.371492084823847
 20
1.52411335303415
 30
0.0
  0
VERTEX
  5
2DA
  8
DIMENSIONS
 10
1.370205676229031
 20
1.522640595530739
 30
0.0
  0
VERTEX
  5
2DB
  8
DIMENSIONS
 10
1.368901233868867
 20
1.520037722065528
 30
0.0
  0
VERTEX
  5
2DC
  8
DIMENSIONS
 10
1.367969489325893
 20
1.516525145326101
 30
0.0
  0
VERTEX
  5
2DD
  8
DIMENSIONS
 10
1.367410442600109
 20
1.512102865312458
 30
0.0
  0
SEQEND
  5
4E1
  8
DIMENSIONS
  0
POLYLINE
  5
D5
  8
DIMENSIONS
 66
     1
 10
0.0
 20
0.0
 30
0.0
 70
     1
  0
VERTEX
  5
2DE
  8
DIMENSIONS
 10
1.416307995465047
 20
1.483591482297451
 30
0.0
  0
VERTEX
  5
2DF
  8
DIMENSIONS
 10
1.416307995465047
 20
1.494844551874532
 30
0.0
  0
VERTEX
  5
2E0
  8
DIMENSIONS
 10
1.395917818111705
 20
1.494844551874532
 30
0.0
  0
VERTEX
  5
2E1
  8
DIMENSIONS
 10
1.395917818111705
 20
1.500134456376578
 30
0.0
  0
VERTEX
  5
2E2
  8
DIMENSIONS
 10
1.417365976365456
 20
1.530591482297451
 30
0.0
  0
VERTEX
  5
2E3
  8
DIMENSIONS
 10
1.42207880037637
 20
1.530591482297451
 30
0.0
  0
VERTEX
  5
2E4
  8
DIMENSIONS
 10
1.42207880037637
 20
1.500134456376578
 30
0.0
  0
VERTEX
  5
2E5
  8
DIMENSIONS
 10
1.428426685778826
 20
1.500134456376578
 30
0.0
  0
VERTEX
  5
2E6
  8
DIMENSIONS
 10
1.428426685778826
 20
1.494844551874532
 30
0.0
  0
VERTEX
  5
2E7
  8
DIMENSIONS
 10
1.42207880037637
 20
1.494844551874532
 30
0.0
  0
VERTEX
  5
2E8
  8
DIMENSIONS
 10
1.42207880037637
 20
1.483591482297451
 30
0.0
  0
SEQEND
  5
4E2
  8
DIMENSIONS
  0
POLYLINE
  5
D6
  8
DIMENSIONS
 66
     1
 10
0.0
 20
0.0
 30
0.0
 70
     1
  0
VERTEX
  5
2E9
  8
DIMENSIONS
 10
1.416307995465047
 20
1.500134456376578
 30
0.0
  0
VERTEX
  5
2EA
  8
DIMENSIONS
 10
1.416307995465047
 20
1.521326134412049
 30
0.0
  0
VERTEX
  5
2EB
  8
DIMENSIONS
 10
1.401592442941173
 20
1.500134456376578
 30
0.0
  0
SEQEND
  5
4E3
  8
DIMENSIONS
  0
POLYLINE
  5
D7
  8
DIMENSIONS
 66
     1
 10
0.0
 20
0.0
 30
0.0
 70
     1
  0
VERTEX
  5
2EC
  8
DIMENSIONS
 10
1.434357790826575
 20
1.495998712856797
 30
0.0
  0
VERTEX
  5
2ED
  8
DIMENSIONS
 10
1.440128595737899
 20
1.49676815351164
 30
0.0
  0
VERTEX
  5
2EE
  8
DIMENSIONS
 10
1.441471109380463
 20
1.492548252420234
 30
0.0
  0
VERTEX
  5
2EF
  8
DIMENSIONS
 10
1.44240385579929
 20
1.490952264186947
 30
0.0
  0
VERTEX
  5
2F0
  8
DIMENSIONS
 10
1.44351092861648
 20
1.489698917495269
 30
0.0
  0
VERTEX
  5
2F1
  8
DIMENSIONS
 10
1.446159888370913
 20
1.488075878613959
 30
0.0
  0
VERTEX
  5
2F2
  8
DIMENSIONS
 10
1.449329823568731
 20
1.487534865653522
 30
0.0
  0
VERTEX
  5
2F3
  8
DIMENSIONS
 10
1.451286487108976
 20
1.48771119580359
 30
0.0
  0
VERTEX
  5
2F4
  8
DIMENSIONS
 10
1.453084854264502
 20
1.488240186253795
 30
0.0
  0
VERTEX
  5
2F5
  8
DIMENSIONS
 10
1.454724925035306
 20
1.489121837004136
 30
0.0
  0
VERTEX
  5
2F6
  8
DIMENSIONS
 10
1.456206699421391
 20
1.490356148054614
 30
0.0
  0
VERTEX
  5
2F7
  8
DIMENSIONS
 10
1.4574339973409
 20
1.491850946826783
 30
0.0
  0
VERTEX
  5
2F8
  8
DIMENSIONS
 10
1.458310638711978
 20
1.493514060742199
 30
0.0
  0
VERTEX
  5
2F9
  8
DIMENSIONS
 10
1.458836623534624
 20
1.495345489800862
 30
0.0
  0
VERTEX
  5
2FA
  8
DIMENSIONS
 10
1.45901195180884
 20
1.497345234002772
 30
0.0
  0
VERTEX
  5
2FB
  8
DIMENSIONS
 10
1.458849647920709
 20
1.499245792495269
 30
0.0
  0
VERTEX
  5
2FC
  8
DIMENSIONS
 10
1.458362736256316
 20
1.500972024589402
 30
0.0
  0
VERTEX
  5
2FD
  8
DIMENSIONS
 10
1.457551216815661
 20
1.502523930285173
 30
0.0
  0
VERTEX
  5
2FE
  8
DIMENSIONS
 10
1.456415089598744
 20
1.503901509582581
 30
0.0
  0
VERTEX
  5
2FF
  8
DIMENSIONS
 10
1.455028493418663
 20
1.505030623668529
 30
0.0
  0
VERTEX
  5
300
  8
DIMENSIONS
 10
1.453465567088513
 20
1.505837133729921
 30
0.0
  0
VERTEX
  5
301
  8
DIMENSIONS
 10
1.451726310608294
 20
1.506321039766756
 30
0.0
  0
VERTEX
  5
302
  8
DIMENSIONS
 10
1.449810723978008
 20
1.506482341779034
 30
0.0
  0
VERTEX
  5
303
  8
DIMENSIONS
 10
1.445739100512796
 20
1.505841141233331
 30
0.0
  0
VERTEX
  5
304
  8
DIMENSIONS
 10
1.446380301058499
 20
1.510906625544382
 30
0.0
  0
VERTEX
  5
305
  8
DIMENSIONS
 10
1.447310041849768
 20
1.510842505489812
 30
0.0
  0
VERTEX
  5
306
  8
DIMENSIONS
 10
1.450812599830668
 20
1.511323405899089
 30
0.0
  0
VERTEX
  5
307
  8
DIMENSIONS
 10
1.453946467497789
 20
1.512766107126919
 30
0.0
  0
VERTEX
  5
308
  8
DIMENSIONS
 10
1.455236883596016
 20
1.513858151806319
 30
0.0
  0
VERTEX
  5
309
  8
DIMENSIONS
 10
1.456158609380463
 20
1.51521068420741
 30
0.0
  0
VERTEX
  5
30A
  8
DIMENSIONS
 10
1.456711644851132
 20
1.516823704330194
 30
0.0
  0
VERTEX
  5
30B
  8
DIMENSIONS
 10
1.456895990008021
 20
1.518697212174668
 30
0.0
  0
VERTEX
  5
30C
  8
DIMENSIONS
 10
1.456358984550995
 20
1.521598644643972
 30
0.0
  0
VERTEX
  5
30D
  8
DIMENSIONS
 10
1.454747968179918
 20
1.52395505664943
 30
0.0
  0
VERTEX
  5
30E
  8
DIMENSIONS
 10
1.453595810949359
 20
1.524866763675351
 30
0.0
  0
VERTEX
  5
30F
  8
DIMENSIONS
 10
1.452287361085784
 20
1.52551798297958
 30
0.0
  0
VERTEX
  5
310
  8
DIMENSIONS
 10
1.44920158345959
 20
1.526038958422963
 30
0.0
  0
VERTEX
  5
311
  8
DIMENSIONS
 10
1.446115805833397
 20
1.525509967972758
 30
0.0
  0
VERTEX
  5
312
  8
DIMENSIONS
 10
1.443591078684693
 20
1.523922996622144
 30
0.0
  0
VERTEX
  5
313
  8
DIMENSIONS
 10
1.442569165314979
 20
1.522732768109184
 30
0.0
  0
VERTEX
  5
314
  8
DIMENSIONS
 10
1.441747627115798
 20
1.521278044371121
 30
0.0
  0
VERTEX
  5
315
  8
DIMENSIONS
 10
1.440705676229031
 20
1.517575111219689
 30
0.0
  0
VERTEX
  5
316
  8
DIMENSIONS
 10
1.434934871317708
 20
1.518601032092813
 30
0.0
  0
VERTEX
  5
317
  8
DIMENSIONS
 10
1.435632176911159
 20
1.521339158798134
 30
0.0
  0
VERTEX
  5
318
  8
DIMENSIONS
 10
1.436666112791105
 20
1.523750673975487
 30
0.0
  0
VERTEX
  5
319
  8
DIMENSIONS
 10
1.438036678957544
 20
1.525835577624873
 30
0.0
  0
VERTEX
  5
31A
  8
DIMENSIONS
 10
1.439743875410477
 20
1.527593869746292
 30
0.0
  0
VERTEX
  5
31B
  8
DIMENSIONS
 10
1.44173360085386
 20
1.528989482809048
 30
0.0
  0
VERTEX
  5
31C
  8
DIMENSIONS
 10
1.44395175399165
 20
1.529986349282445
 30
0.0
  0
VERTEX
  5
31D
  8
DIMENSIONS
 10
1.446398334823847
 20
1.530584469166483
 30
0.0
  0
VERTEX
  5
31E
  8
DIMENSIONS
 10
1.44907334335045
 20
1.530783842461162
 30
0.0
  0
VERTEX
  5
31F
  8
DIMENSIONS
 10
1.452768261495061
 20
1.530371069609866
 30
0.0
  0
VERTEX
  5
320
  8
DIMENSIONS
 10
1.456158609380463
 20
1.529132751055978
 30
0.0
  0
VERTEX
  5
321
  8
DIMENSIONS
 10
1.459015959312251
 20
1.527181096894996
 30
0.0
  0
VERTEX
  5
322
  8
DIMENSIONS
 10
1.461111883596016
 20
1.524628317222417
 30
0.0
  0
VERTEX
  5
323
  8
DIMENSIONS
 10
1.462398292190832
 20
1.521686809719007
 30
0.0
  0
VERTEX
  5
324
  8
DIMENSIONS
 10
1.46282709505577
 20
1.518568972065528
 30
0.0
  0
VERTEX
  5
325
  8
DIMENSIONS
 10
1.462418329707885
 20
1.515659524589402
 30
0.0
  0
VERTEX
  5
326
  8
DIMENSIONS
 10
1.461192033664229
 20
1.5130225873452
 30
0.0
  0
VERTEX
  5
327
  8
DIMENSIONS
 10
1.459164236938444
 20
1.510778385435241
 30
0.0
  0
VERTEX
  5
328
  8
DIMENSIONS
 10
1.456350969544174
 20
1.509047143961844
 30
0.0
  0
VERTEX
  5
329
  8
DIMENSIONS
 10
1.458318653718799
 20
1.508437001567574
 30
0.0
  0
VERTEX
  5
32A
  8
DIMENSIONS
 10
1.460053902695607
 20
1.507568375203318
 30
0.0
  0
VERTEX
  5
32B
  8
DIMENSIONS
 10
1.461556716474597
 20
1.506441264869075
 30
0.0
  0
VERTEX
  5
32C
  8
DIMENSIONS
 10
1.46282709505577
 20
1.505055670564846
 30
0.0
  0
VERTEX
  5
32D
  8
DIMENSIONS
 10
1.463836985915252
 20
1.503445656069621
 30
0.0
  0
VERTEX
  5
32E
  8
DIMENSIONS
 10
1.464558336529167
 20
1.50164528516239
 30
0.0
  0
VERTEX
  5
32F
  8
DIMENSIONS
 10
1.464991146897517
 20
1.499654557843154
 30
0.0
  0
VERTEX
  5
330
  8
DIMENSIONS
 10
1.4651354170203
 20
1.497473474111912
 30
0.0
  0
VERTEX
  5
331
  8
DIMENSIONS
 10
1.464854891781555
 20
1.494512930967301
 30
0.0
  0
VERTEX
  5
332
  8
DIMENSIONS
 10
1.46401331606532
 20
1.491786826772213
 30
0.0
  0
VERTEX
  5
333
  8
DIMENSIONS
 10
1.462610689871596
 20
1.489295161526647
 30
0.0
  0
VERTEX
  5
334
  8
DIMENSIONS
 10
1.460647013200381
 20
1.487037935230603
 30
0.0
  0
VERTEX
  5
335
  8
DIMENSIONS
 10
1.458254533664229
 20
1.485165429261981
 30
0.0
  0
VERTEX
  5
336
  8
DIMENSIONS
 10
1.455565498875689
 20
1.483827924998679
 30
0.0
  0
VERTEX
  5
337
  8
DIMENSIONS
 10
1.452579908834761
 20
1.483025422440698
 30
0.0
  0
VERTEX
  5
338
  8
DIMENSIONS
 10
1.449297763541446
 20
1.482757921588038
 30
0.0
  0
VERTEX
  5
339
  8
DIMENSIONS
 10
1.446335216645129
 20
1.48298835303415
 30
0.0
  0
VERTEX
  5
33A
  8
DIMENSIONS
 10
1.44363516122221
 20
1.483679647372485
 30
0.0
  0
VERTEX
  5
33B
  8
DIMENSIONS
 10
1.441197597272687
 20
1.484831804603045
 30
0.0
  0
VERTEX
  5
33C
  8
DIMENSIONS
 10
1.439022524796562
 20
1.486444824725828
 30
0.0
  0
VERTEX
  5
33D
  8
DIMENSIONS
 10
1.437198108868867
 20
1.488424531410685
 30
0.0
  0
VERTEX
  5
33E
  8
DIMENSIONS
 10
1.435812514564638
 20
1.490676748327465
 30
0.0
  0
VERTEX
  5
33F
  8
DIMENSIONS
 10
1.434865741883874
 20
1.493201475476169
 30
0.0
  0
SEQEND
  5
4E4
  8
DIMENSIONS
  0
POLYLINE
  5
D8
  8
DIMENSIONS
 66
     1
 10
0.0
 20
0.0
 30
0.0
 70
     1
  0
VERTEX
  5
340
  8
DIMENSIONS
 10
1.471707722613751
 20
1.49445983154711
 30
0.0
  0
VERTEX
  5
341
  8
DIMENSIONS
 10
1.477254107334079
 20
1.494972791983672
 30
0.0
  0
VERTEX
  5
342
  8
DIMENSIONS
 10
1.478280028207203
 20
1.491598474111913
 30
0.0
  0
VERTEX
  5
343
  8
DIMENSIONS
 10
1.479947149626029
 20
1.489298167154204
 30
0.0
  0
VERTEX
  5
344
  8
DIMENSIONS
 10
1.482215396556452
 20
1.487975691028693
 30
0.0
  0
VERTEX
  5
345
  8
DIMENSIONS
 10
1.485044693964365
 20
1.487534865653522
 30
0.0
  0
VERTEX
  5
346
  8
DIMENSIONS
 10
1.487541368589195
 20
1.487839435912731
 30
0.0
  0
VERTEX
  5
347
  8
DIMENSIONS
 10
1.489709427934351
 20
1.488753146690357
 30
0.0
  0
VERTEX
  5
348
  8
DIMENSIONS
 10
1.491532841986193
 20
1.490175810401135
 30
0.0
  0
VERTEX
  5
349
  8
DIMENSIONS
 10
1.492995580731077
 20
1.492007239459798
 30
0.0
  0
VERTEX
  5
34A
  8
DIMENSIONS
 10
1.494173786733806
 20
1.494399718995951
 30
0.0
  0
VERTEX
  5
34B
  8
DIMENSIONS
 10
1.495143602559181
 20
1.497505534139198
 30
0.0
  0
VERTEX
  5
34C
  8
DIMENSIONS
 10
1.495792818111705
 20
1.501000077113277
 30
0.0
  0
VERTEX
  5
34D
  8
DIMENSIONS
 10
1.496009223295879
 20
1.504558740141926
 30
0.0
  0
VERTEX
  5
34E
  8
DIMENSIONS
 10
1.495977163268594
 20
1.505712901124191
 30
0.0
  0
VERTEX
  5
34F
  8
DIMENSIONS
 10
1.493929329025757
 20
1.503216226499362
 30
0.0
  0
VERTEX
  5
350
  8
DIMENSIONS
 10
1.491248309244038
 20
1.501240527317915
 30
0.0
  0
VERTEX
  5
351
  8
DIMENSIONS
 10
1.488126464087148
 20
1.499954118723099
 30
0.0
  0
VERTEX
  5
352
  8
DIMENSIONS
 10
1.484756153718799
 20
1.499525315858161
 30
0.0
  0
VERTEX
  5
353
  8
DIMENSIONS
 10
1.48195090133135
 20
1.499789811083263
 30
0.0
  0
VERTEX
  5
354
  8
DIMENSIONS
 10
1.479370069134897
 20
1.50058329675857
 30
0.0
  0
VERTEX
  5
355
  8
DIMENSIONS
 10
1.47701365712944
 20
1.501905772884081
 30
0.0
  0
VERTEX
  5
356
  8
DIMENSIONS
 10
1.474881665314979
 20
1.503757239459798
 30
0.0
  0
VERTEX
  5
357
  8
DIMENSIONS
 10
1.473114356310886
 20
1.506041516403863
 30
0.0
  0
VERTEX
  5
358
  8
DIMENSIONS
 10
1.471851992736534
 20
1.508662423634423
 30
0.0
  0
VERTEX
  5
359
  8
DIMENSIONS
 10
1.471094574591923
 20
1.511619961151476
 30
0.0
  0
VERTEX
  5
35A
  8
DIMENSIONS
 10
1.470842101877053
 20
1.514914128955023
 30
0.0
  0
VERTEX
  5
35B
  8
DIMENSIONS
 10
1.471105595226302
 20
1.518314495598952
 30
0.0
  0
VERTEX
  5
35C
  8
DIMENSIONS
 10
1.471896075274051
 20
1.521366209446155
 30
0.0
  0
VERTEX
  5
35D
  8
DIMENSIONS
 10
1.4732135420203
 20
1.524069270496633
 30
0.0
  0
VERTEX
  5
35E
  8
DIMENSIONS
 10
1.475057995465047
 20
1.526423678750385
 30
0.0
  0
VERTEX
  5
35F
  8
DIMENSIONS
 10
1.477299191747448
 20
1.52833125037385
 30
0.0
  0
VERTEX
  5
360
  8
DIMENSIONS
 10
1.479806887006657
 20
1.529693801533468
 30
0.0
  0
VERTEX
  5
361
  8
DIMENSIONS
 10
1.482581081242673
 20
1.530511332229239
 30
0.0
  0
VERTEX
  5
362
  8
DIMENSIONS
 10
1.485621774455497
 20
1.530783842461162
 30
0.0
  0
VERTEX
  5
363
  8
DIMENSIONS
 10
1.487864974489604
 20
1.530629553579852
 30
0.0
  0
VERTEX
  5
364
  8
DIMENSIONS
 10
1.49000999069015
 20
1.530166686935923
 30
0.0
  0
VERTEX
  5
365
  8
DIMENSIONS
 10
1.492056823057134
 20
1.529395242529375
 30
0.0
  0
VERTEX
  5
366
  8
DIMENSIONS
 10
1.494005471590559
 20
1.528315220360207
 30
0.0
  0
VERTEX
  5
367
  8
DIMENSIONS
 10
1.49579081436
 20
1.526949663573031
 30
0.0
  0
VERTEX
  5
368
  8
DIMENSIONS
 10
1.497347729435034
 20
1.525321615312458
 30
0.0
  0
VERTEX
  5
369
  8
DIMENSIONS
 10
1.498676216815661
 20
1.523431075578488
 30
0.0
  0
VERTEX
  5
36A
  8
DIMENSIONS
 10
1.499776276501882
 20
1.521278044371121
 30
0.0
  0
VERTEX
  5
36B
  8
DIMENSIONS
 10
1.500638891611023
 20
1.518738289084628
 30
0.0
  0
VERTEX
  5
36C
  8
DIMENSIONS
 10
1.501255045260409
 20
1.515687577113277
 30
0.0
  0
VERTEX
  5
36D
  8
DIMENSIONS
 10
1.501747968179918
 20
1.508053283116005
 30
0.0
  0
VERTEX
  5
36E
  8
DIMENSIONS
 10
1.501259052763819
 20
1.499962133729921
 30
0.0
  0
VERTEX
  5
36F
  8
DIMENSIONS
 10
1.500647908493697
 20
1.496604847747656
 30
0.0
  0
VERTEX
  5
370
  8
DIMENSIONS
 10
1.499792306515525
 20
1.49370642090591
 30
0.0
  0
VERTEX
  5
371
  8
DIMENSIONS
 10
1.498695252456862
 20
1.491196721894996
 30
0.0
  0
VERTEX
  5
372
  8
DIMENSIONS
 10
1.497359751945265
 20
1.489005619405228
 30
0.0
  0
VERTEX
  5
373
  8
DIMENSIONS
 10
1.495785804980736
 20
1.487133113436605
 30
0.0
  0
VERTEX
  5
374
  8
DIMENSIONS
 10
1.493973411563274
 20
1.485579203989129
 30
0.0
  0
VERTEX
  5
375
  8
DIMENSIONS
 10
1.491958639223574
 20
1.484358919200589
 30
0.0
  0
VERTEX
  5
376
  8
DIMENSIONS
 10
1.489777555492332
 20
1.483487287208775
 30
0.0
  0
VERTEX
  5
377
  8
DIMENSIONS
 10
1.487430160369549
 20
1.482964308013686
 30
0.0
  0
VERTEX
  5
378
  8
DIMENSIONS
 10
1.484916453855225
 20
1.482789981615323
 30
0.0
  0
VERTEX
  5
379
  8
DIMENSIONS
 10
1.482285527866139
 20
1.482981339903181
 30
0.0
  0
VERTEX
  5
37A
  8
DIMENSIONS
 10
1.479907074591923
 20
1.483555414766756
 30
0.0
  0
VERTEX
  5
37B
  8
DIMENSIONS
 10
1.477781094032578
 20
1.484512206206046
 30
0.0
  0
VERTEX
  5
37C
  8
DIMENSIONS
 10
1.475907586188103
 20
1.485851714221053
 30
0.0
  0
VERTEX
  5
37D
  8
DIMENSIONS
 10
1.474334641099427
 20
1.487537871281081
 30
0.0
  0
VERTEX
  5
37E
  8
DIMENSIONS
 10
1.473110348807476
 20
1.489534609855432
 30
0.0
  0
VERTEX
  5
37F
  8
DIMENSIONS
 10
1.472234709312251
 20
1.491841929944109
 30
0.0
  0
SEQEND
  5
4E5
  8
DIMENSIONS
  0
POLYLINE
  5
D9
  8
DIMENSIONS
 66
     1
 10
0.0
 20
0.0
 30
0.0
 70
     1
  0
VERTEX
  5
380
  8
DIMENSIONS
 10
1.495335962722892
 20
1.515202669200589
 30
0.0
  0
VERTEX
  5
381
  8
DIMENSIONS
 10
1.495170653207203
 20
1.517559081206046
 30
0.0
  0
VERTEX
  5
382
  8
DIMENSIONS
 10
1.494674724660136
 20
1.519659012993222
 30
0.0
  0
VERTEX
  5
383
  8
DIMENSIONS
 10
1.493848177081691
 20
1.521502464562117
 30
0.0
  0
VERTEX
  5
384
  8
DIMENSIONS
 10
1.492691010471868
 20
1.523089435912731
 30
0.0
  0
VERTEX
  5
385
  8
DIMENSIONS
 10
1.491301408664229
 20
1.52436582574902
 30
0.0
  0
VERTEX
  5
386
  8
DIMENSIONS
 10
1.489777555492332
 20
1.525277532774941
 30
0.0
  0
VERTEX
  5
387
  8
DIMENSIONS
 10
1.488119450956179
 20
1.525824556990494
 30
0.0
  0
VERTEX
  5
388
  8
DIMENSIONS
 10
1.48632709505577
 20
1.526006898395678
 30
0.0
  0
VERTEX
  5
389
  8
DIMENSIONS
 10
1.484465609721527
 20
1.525810530728557
 30
0.0
  0
VERTEX
  5
38A
  8
DIMENSIONS
 10
1.482728356993015
 20
1.525221427727192
 30
0.0
  0
VERTEX
  5
38B
  8
DIMENSIONS
 10
1.481115336870232
 20
1.524239589391585
 30
0.0
  0
VERTEX
  5
38C
  8
DIMENSIONS
 10
1.479626549353178
 20
1.522865015721735
 30
0.0
  0
VERTEX
  5
38D
  8
DIMENSIONS
 10
1.478378212040763
 20
1.521177856785855
 30
0.0
  0
VERTEX
  5
38E
  8
DIMENSIONS
 10
1.477486542531896
 20
1.519258262652158
 30
0.0
  0
VERTEX
  5
38F
  8
DIMENSIONS
 10
1.476951540826575
 20
1.517106233320644
 30
0.0
  0
VERTEX
  5
390
  8
DIMENSIONS
 10
1.476773206924802
 20
1.514721768791312
 30
0.0
  0
VERTEX
  5
391
  8
DIMENSIONS
 10
1.476942523943901
 20
1.512582763845882
 30
0.0
  0
VERTEX
  5
392
  8
DIMENSIONS
 10
1.4774504750012
 20
1.510654152829511
 30
0.0
  0
VERTEX
  5
393
  8
DIMENSIONS
 10
1.478297060096698
 20
1.508935935742199
 30
0.0
  0
VERTEX
  5
394
  8
DIMENSIONS
 10
1.479482279230395
 20
1.507428112583945
 30
0.0
  0
VERTEX
  5
395
  8
DIMENSIONS
 10
1.480915963575552
 20
1.506200814664436
 30
0.0
  0
VERTEX
  5
396
  8
DIMENSIONS
 10
1.482507944305429
 20
1.505324173293359
 30
0.0
  0
VERTEX
  5
397
  8
DIMENSIONS
 10
1.484258221420027
 20
1.504798188470712
 30
0.0
  0
VERTEX
  5
398
  8
DIMENSIONS
 10
1.486166794919345
 20
1.504622860196496
 30
0.0
  0
VERTEX
  5
399
  8
DIMENSIONS
 10
1.488081379673778
 20
1.504798188470712
 30
0.0
  0
VERTEX
  5
39A
  8
DIMENSIONS
 10
1.489817630526439
 20
1.505324173293359
 30
0.0
  0
VERTEX
  5
39B
  8
DIMENSIONS
 10
1.491375547477326
 20
1.506200814664436
 30
0.0
  0
VERTEX
  5
39C
  8
DIMENSIONS
 10
1.492755130526439
 20
1.507428112583945
 30
0.0
  0
VERTEX
  5
39D
  8
DIMENSIONS
 10
1.493884244612387
 20
1.508965992017779
 30
0.0
  0
VERTEX
  5
39E
  8
DIMENSIONS
 10
1.494690754673778
 20
1.510774377931831
 30
0.0
  0
VERTEX
  5
39F
  8
DIMENSIONS
 10
1.495174660710613
 20
1.512853270326101
 30
0.0
  0
SEQEND
  5
4E6
  8
DIMENSIONS
  0
POLYLINE
  5
DA
  8
DIMENSIONS
 66
     1
 10
0.0
 20
0.0
 30
0.0
 70
     1
  0
VERTEX
  5
3A0
  8
DIMENSIONS
 10
1.5073905329821
 20
1.495998712856797
 30
0.0
  0
VERTEX
  5
3A1
  8
DIMENSIONS
 10
1.513161337893424
 20
1.49676815351164
 30
0.0
  0
VERTEX
  5
3A2
  8
DIMENSIONS
 10
1.514503851535989
 20
1.492548252420234
 30
0.0
  0
VERTEX
  5
3A3
  8
DIMENSIONS
 10
1.515436597954815
 20
1.490952264186947
 30
0.0
  0
VERTEX
  5
3A4
  8
DIMENSIONS
 10
1.516543670772005
 20
1.489698917495269
 30
0.0
  0
VERTEX
  5
3A5
  8
DIMENSIONS
 10
1.519192630526439
 20
1.488075878613959
 30
0.0
  0
VERTEX
  5
3A6
  8
DIMENSIONS
 10
1.522362565724256
 20
1.487534865653522
 30
0.0
  0
VERTEX
  5
3A7
  8
DIMENSIONS
 10
1.524319229264502
 20
1.48771119580359
 30
0.0
  0
VERTEX
  5
3A8
  8
DIMENSIONS
 10
1.526117596420027
 20
1.488240186253795
 30
0.0
  0
VERTEX
  5
3A9
  8
DIMENSIONS
 10
1.527757667190832
 20
1.489121837004136
 30
0.0
  0
VERTEX
  5
3AA
  8
DIMENSIONS
 10
1.529239441576916
 20
1.490356148054614
 30
0.0
  0
VERTEX
  5
3AB
  8
DIMENSIONS
 10
1.530466739496425
 20
1.491850946826783
 30
0.0
  0
VERTEX
  5
3AC
  8
DIMENSIONS
 10
1.531343380867503
 20
1.493514060742199
 30
0.0
  0
VERTEX
  5
3AD
  8
DIMENSIONS
 10
1.53186936569015
 20
1.495345489800862
 30
0.0
  0
VERTEX
  5
3AE
  8
DIMENSIONS
 10
1.532044693964365
 20
1.497345234002772
 30
0.0
  0
VERTEX
  5
3AF
  8
DIMENSIONS
 10
1.531882390076234
 20
1.499245792495269
 30
0.0
  0
VERTEX
  5
3B0
  8
DIMENSIONS
 10
1.531395478411842
 20
1.500972024589402
 30
0.0
  0
VERTEX
  5
3B1
  8
DIMENSIONS
 10
1.530583958971187
 20
1.502523930285173
 30
0.0
  0
VERTEX
  5
3B2
  8
DIMENSIONS
 10
1.52944783175427
 20
1.503901509582581
 30
0.0
  0
VERTEX
  5
3B3
  8
DIMENSIONS
 10
1.528061235574188
 20
1.505030623668529
 30
0.0
  0
VERTEX
  5
3B4
  8
DIMENSIONS
 10
1.526498309244038
 20
1.505837133729921
 30
0.0
  0
VERTEX
  5
3B5
  8
DIMENSIONS
 10
1.52475905276382
 20
1.506321039766756
 30
0.0
  0
VERTEX
  5
3B6
  8
DIMENSIONS
 10
1.522843466133533
 20
1.506482341779034
 30
0.0
  0
VERTEX
  5
3B7
  8
DIMENSIONS
 10
1.518771842668321
 20
1.505841141233331
 30
0.0
  0
VERTEX
  5
3B8
  8
DIMENSIONS
 10
1.519413043214024
 20
1.510906625544382
 30
0.0
  0
VERTEX
  5
3B9
  8
DIMENSIONS
 10
1.520342784005293
 20
1.510842505489812
 30
0.0
  0
VERTEX
  5
3BA
  8
DIMENSIONS
 10
1.523845341986193
 20
1.511323405899089
 30
0.0
  0
VERTEX
  5
3BB
  8
DIMENSIONS
 10
1.526979209653315
 20
1.512766107126919
 30
0.0
  0
VERTEX
  5
3BC
  8
DIMENSIONS
 10
1.528269625751541
 20
1.513858151806319
 30
0.0
  0
VERTEX
  5
3BD
  8
DIMENSIONS
 10
1.529191351535989
 20
1.51521068420741
 30
0.0
  0
VERTEX
  5
3BE
  8
DIMENSIONS
 10
1.529744387006657
 20
1.516823704330194
 30
0.0
  0
VERTEX
  5
3BF
  8
DIMENSIONS
 10
1.529928732163547
 20
1.518697212174668
 30
0.0
  0
VERTEX
  5
3C0
  8
DIMENSIONS
 10
1.529391726706521
 20
1.521598644643972
 30
0.0
  0
VERTEX
  5
3C1
  8
DIMENSIONS
 10
1.527780710335443
 20
1.52395505664943
 30
0.0
  0
VERTEX
  5
3C2
  8
DIMENSIONS
 10
1.526628553104884
 20
1.524866763675351
 30
0.0
  0
VERTEX
  5
3C3
  8
DIMENSIONS
 10
1.525320103241309
 20
1.52551798297958
 30
0.0
  0
VERTEX
  5
3C4
  8
DIMENSIONS
 10
1.522234325615115
 20
1.526038958422963
 30
0.0
  0
VERTEX
  5
3C5
  8
DIMENSIONS
 10
1.519148547988922
 20
1.525509967972758
 30
0.0
  0
VERTEX
  5
3C6
  8
DIMENSIONS
 10
1.516623820840218
 20
1.523922996622144
 30
0.0
  0
VERTEX
  5
3C7
  8
DIMENSIONS
 10
1.515601907470504
 20
1.522732768109184
 30
0.0
  0
VERTEX
  5
3C8
  8
DIMENSIONS
 10
1.514780369271323
 20
1.521278044371121
 30
0.0
  0
VERTEX
  5
3C9
  8
DIMENSIONS
 10
1.513738418384556
 20
1.517575111219689
 30
0.0
  0
VERTEX
  5
3CA
  8
DIMENSIONS
 10
1.507967613473233
 20
1.518601032092813
 30
0.0
  0
VERTEX
  5
3CB
  8
DIMENSIONS
 10
1.508664919066684
 20
1.521339158798134
 30
0.0
  0
VERTEX
  5
3CC
  8
DIMENSIONS
 10
1.50969885494663
 20
1.523750673975487
 30
0.0
  0
VERTEX
  5
3CD
  8
DIMENSIONS
 10
1.511069421113069
 20
1.525835577624873
 30
0.0
  0
VERTEX
  5
3CE
  8
DIMENSIONS
 10
1.512776617566002
 20
1.527593869746292
 30
0.0
  0
VERTEX
  5
3CF
  8
DIMENSIONS
 10
1.514766343009386
 20
1.528989482809048
 30
0.0
  0
VERTEX
  5
3D0
  8
DIMENSIONS
 10
1.516984496147176
 20
1.529986349282445
 30
0.0
  0
VERTEX
  5
3D1
  8
DIMENSIONS
 10
1.519431076979372
 20
1.530584469166483
 30
0.0
  0
VERTEX
  5
3D2
  8
DIMENSIONS
 10
1.522106085505975
 20
1.530783842461162
 30
0.0
  0
VERTEX
  5
3D3
  8
DIMENSIONS
 10
1.525801003650586
 20
1.530371069609866
 30
0.0
  0
VERTEX
  5
3D4
  8
DIMENSIONS
 10
1.529191351535989
 20
1.529132751055978
 30
0.0
  0
VERTEX
  5
3D5
  8
DIMENSIONS
 10
1.532048701467776
 20
1.527181096894996
 30
0.0
  0
VERTEX
  5
3D6
  8
DIMENSIONS
 10
1.534144625751541
 20
1.524628317222417
 30
0.0
  0
VERTEX
  5
3D7
  8
DIMENSIONS
 10
1.535431034346357
 20
1.521686809719007
 30
0.0
  0
VERTEX
  5
3D8
  8
DIMENSIONS
 10
1.535859837211295
 20
1.518568972065528
 30
0.0
  0
VERTEX
  5
3D9
  8
DIMENSIONS
 10
1.53545107186341
 20
1.515659524589402
 30
0.0
  0
VERTEX
  5
3DA
  8
DIMENSIONS
 10
1.534224775819754
 20
1.5130225873452
 30
0.0
  0
VERTEX
  5
3DB
  8
DIMENSIONS
 10
1.532196979093969
 20
1.510778385435241
 30
0.0
  0
VERTEX
  5
3DC
  8
DIMENSIONS
 10
1.529383711699699
 20
1.509047143961844
 30
0.0
  0
VERTEX
  5
3DD
  8
DIMENSIONS
 10
1.531351395874324
 20
1.508437001567574
 30
0.0
  0
VERTEX
  5
3DE
  8
DIMENSIONS
 10
1.533086644851132
 20
1.507568375203318
 30
0.0
  0
VERTEX
  5
3DF
  8
DIMENSIONS
 10
1.534589458630122
 20
1.506441264869075
 30
0.0
  0
VERTEX
  5
3E0
  8
DIMENSIONS
 10
1.535859837211295
 20
1.505055670564846
 30
0.0
  0
VERTEX
  5
3E1
  8
DIMENSIONS
 10
1.536869728070777
 20
1.503445656069621
 30
0.0
  0
VERTEX
  5
3E2
  8
DIMENSIONS
 10
1.537591078684692
 20
1.50164528516239
 30
0.0
  0
VERTEX
  5
3E3
  8
DIMENSIONS
 10
1.538023889053042
 20
1.499654557843154
 30
0.0
  0
VERTEX
  5
3E4
  8
DIMENSIONS
 10
1.538168159175825
 20
1.497473474111912
 30
0.0
  0
VERTEX
  5
3E5
  8
DIMENSIONS
 10
1.53788763393708
 20
1.494512930967301
 30
0.0
  0
VERTEX
  5
3E6
  8
DIMENSIONS
 10
1.537046058220845
 20
1.491786826772213
 30
0.0
  0
VERTEX
  5
3E7
  8
DIMENSIONS
 10
1.535643432027121
 20
1.489295161526647
 30
0.0
  0
VERTEX
  5
3E8
  8
DIMENSIONS
 10
1.533679755355907
 20
1.487037935230603
 30
0.0
  0
VERTEX
  5
3E9
  8
DIMENSIONS
 10
1.531287275819754
 20
1.485165429261981
 30
0.0
  0
VERTEX
  5
3EA
  8
DIMENSIONS
 10
1.528598241031214
 20
1.483827924998679
 30
0.0
  0
VERTEX
  5
3EB
  8
DIMENSIONS
 10
1.525612650990286
 20
1.483025422440698
 30
0.0
  0
VERTEX
  5
3EC
  8
DIMENSIONS
 10
1.522330505696971
 20
1.482757921588038
 30
0.0
  0
VERTEX
  5
3ED
  8
DIMENSIONS
 10
1.519367958800655
 20
1.48298835303415
 30
0.0
  0
VERTEX
  5
3EE
  8
DIMENSIONS
 10
1.516667903377735
 20
1.483679647372485
 30
0.0
  0
VERTEX
  5
3EF
  8
DIMENSIONS
 10
1.514230339428212
 20
1.484831804603045
 30
0.0
  0
VERTEX
  5
3F0
  8
DIMENSIONS
 10
1.512055266952087
 20
1.486444824725828
 30
0.0
  0
VERTEX
  5
3F1
  8
DIMENSIONS
 10
1.510230851024392
 20
1.488424531410685
 30
0.0
  0
VERTEX
  5
3F2
  8
DIMENSIONS
 10
1.508845256720163
 20
1.490676748327465
 30
0.0
  0
VERTEX
  5
3F3
  8
DIMENSIONS
 10
1.507898484039399
 20
1.493201475476169
 30
0.0
  0
SEQEND
  5
4E7
  8
DIMENSIONS
  0
POLYLINE
  5
DB
  8
DIMENSIONS
 66
     1
 10
0.0
 20
0.0
 30
0.0
 70
     1
  0
VERTEX
  5
3F4
  8
DIMENSIONS
 10
1.573818909516889
 20
1.51908193250209
 30
0.0
  0
VERTEX
  5
3F5
  8
DIMENSIONS
 10
1.568080164632851
 20
1.518633092120098
 30
0.0
  0
VERTEX
  5
3F6
  8
DIMENSIONS
 10
1.567150423841582
 20
1.521566584616687
 30
0.0
  0
VERTEX
  5
3F7
  8
DIMENSIONS
 10
1.565900082777462
 20
1.523570336322008
 30
0.0
  0
VERTEX
  5
3F8
  8
DIMENSIONS
 10
1.564661764223574
 20
1.524650358491176
 30
0.0
  0
VERTEX
  5
3F9
  8
DIMENSIONS
 10
1.563287190553724
 20
1.525421802897724
 30
0.0
  0
VERTEX
  5
3FA
  8
DIMENSIONS
 10
1.561776361767912
 20
1.525884669541653
 30
0.0
  0
VERTEX
  5
3FB
  8
DIMENSIONS
 10
1.560129277866139
 20
1.526038958422963
 30
0.0
  0
VERTEX
  5
3FC
  8
DIMENSIONS
 10
1.557540430662864
 20
1.525654238095541
 30
0.0
  0
VERTEX
  5
3FD
  8
DIMENSIONS
 10
1.555288213746084
 20
1.524500077113277
 30
0.0
  0
VERTEX
  5
3FE
  8
DIMENSIONS
 10
1.552851651672414
 20
1.522055500032786
 30
0.0
  0
VERTEX
  5
3FF
  8
DIMENSIONS
 10
1.550992170089877
 20
1.518697212174668
 30
0.0
  0
VERTEX
  5
400
  8
DIMENSIONS
 10
1.549797934073506
 20
1.514072553238788
 30
0.0
  0
VERTEX
  5
401
  8
DIMENSIONS
 10
1.549357108698335
 20
1.507828862925009
 30
0.0
  0
VERTEX
  5
402
  8
DIMENSIONS
 10
1.551673445669686
 20
1.510594040278352
 30
0.0
  0
VERTEX
  5
403
  8
DIMENSIONS
 10
1.554454653036671
 20
1.512541686935923
 30
0.0
  0
VERTEX
  5
404
  8
DIMENSIONS
 10
1.557540430662864
 20
1.513695847918188
 30
0.0
  0
VERTEX
  5
405
  8
DIMENSIONS
 10
1.560770478411841
 20
1.51408056824561
 30
0.0
  0
VERTEX
  5
406
  8
DIMENSIONS
 10
1.563548680151268
 20
1.513815071144655
 30
0.0
  0
VERTEX
  5
407
  8
DIMENSIONS
 10
1.566112480458226
 20
1.51301857984179
 30
0.0
  0
VERTEX
  5
408
  8
DIMENSIONS
 10
1.568461879332714
 20
1.511691094337015
 30
0.0
  0
VERTEX
  5
409
  8
DIMENSIONS
 10
1.570596876774733
 20
1.50983261463033
 30
0.0
  0
VERTEX
  5
40A
  8
DIMENSIONS
 10
1.572371198909794
 20
1.507553347065528
 30
0.0
  0
VERTEX
  5
40B
  8
DIMENSIONS
 10
1.57363857186341
 20
1.504963497986401
 30
0.0
  0
VERTEX
  5
40C
  8
DIMENSIONS
 10
1.574398995635579
 20
1.502063067392949
 30
0.0
  0
VERTEX
  5
40D
  8
DIMENSIONS
 10
1.574652470226302
 20
1.498852055285173
 30
0.0
  0
VERTEX
  5
40E
  8
DIMENSIONS
 10
1.574175577320436
 20
1.49458406415284
 30
0.0
  0
VERTEX
  5
40F
  8
DIMENSIONS
 10
1.572744898602837
 20
1.490628658286537
 30
0.0
  0
VERTEX
  5
410
  8
DIMENSIONS
 10
1.570480659175825
 20
1.487274377931831
 30
0.0
  0
VERTEX
  5
411
  8
DIMENSIONS
 10
1.567503084141718
 20
1.484809763334286
 30
0.0
  0
VERTEX
  5
412
  8
DIMENSIONS
 10
1.563944421113069
 20
1.483294927045064
 30
0.0
  0
VERTEX
  5
413
  8
DIMENSIONS
 10
1.559936917702428
 20
1.482789981615323
 30
0.0
  0
VERTEX
  5
414
  8
DIMENSIONS
 10
1.556496476024392
 20
1.483121602522554
 30
0.0
  0
VERTEX
  5
415
  8
DIMENSIONS
 10
1.55338865712944
 20
1.484116465244246
 30
0.0
  0
VERTEX
  5
416
  8
DIMENSIONS
 10
1.550613461017571
 20
1.485774569780398
 30
0.0
  0
VERTEX
  5
417
  8
DIMENSIONS
 10
1.548170887688785
 20
1.488095916131012
 30
0.0
  0
VERTEX
  5
418
  8
DIMENSIONS
 10
1.546179158493697
 20
1.491178688129648
 30
0.0
  0
VERTEX
  5
419
  8
DIMENSIONS
 10
1.544756494782919
 20
1.495121069609866
 30
0.0
  0
VERTEX
  5
41A
  8
DIMENSIONS
 10
1.543902896556452
 20
1.499923060571667
 30
0.0
  0
VERTEX
  5
41B
  8
DIMENSIONS
 10
1.543618363814297
 20
1.50558466101505
 30
0.0
  0
VERTEX
  5
41C
  8
DIMENSIONS
 10
1.543932952832032
 20
1.511932546417506
 30
0.0
  0
VERTEX
  5
41D
  8
DIMENSIONS
 10
1.544876719885238
 20
1.517350691028693
 30
0.0
  0
VERTEX
  5
41E
  8
DIMENSIONS
 10
1.546449664973915
 20
1.521839094848611
 30
0.0
  0
VERTEX
  5
41F
  8
DIMENSIONS
 10
1.548651788098062
 20
1.52539775787726
 30
0.0
  0
VERTEX
  5
420
  8
DIMENSIONS
 10
1.551038256379099
 20
1.527754169882717
 30
0.0
  0
VERTEX
  5
421
  8
DIMENSIONS
 10
1.553805437484147
 20
1.529437321315187
 30
0.0
  0
VERTEX
  5
422
  8
DIMENSIONS
 10
1.556953331413205
 20
1.530447212174668
 30
0.0
  0
VERTEX
  5
423
  8
DIMENSIONS
 10
1.560481938166275
 20
1.530783842461162
 30
0.0
  0
VERTEX
  5
424
  8
DIMENSIONS
 10
1.563129896044856
 20
1.530589478545746
 30
0.0
  0
VERTEX
  5
425
  8
DIMENSIONS
 10
1.565527384960272
 20
1.530006386799498
 30
0.0
  0
VERTEX
  5
426
  8
DIMENSIONS
 10
1.567674404912523
 20
1.529034567222417
 30
0.0
  0
VERTEX
  5
427
  8
DIMENSIONS
 10
1.569570955901609
 20
1.527674019814505
 30
0.0
  0
VERTEX
  5
428
  8
DIMENSIONS
 10
1.571164940383192
 20
1.525970830864982
 30
0.0
  0
VERTEX
  5
429
  8
DIMENSIONS
 10
1.572404260812933
 20
1.523971086663072
 30
0.0
  0
VERTEX
  5
42A
  8
DIMENSIONS
 10
1.573288917190832
 20
1.521674787208775
 30
0.0
  0
SEQEND
  5
4E8
  8
DIMENSIONS
  0
POLYLINE
  5
DC
  8
DIMENSIONS
 66
     1
 10
0.0
 20
0.0
 30
0.0
 70
     1
  0
VERTEX
  5
42B
  8
DIMENSIONS
 10
1.550254789462319
 20
1.498819995257888
 30
0.0
  0
VERTEX
  5
42C
  8
DIMENSIONS
 10
1.550571382231759
 20
1.495902532774941
 30
0.0
  0
VERTEX
  5
42D
  8
DIMENSIONS
 10
1.551521160540081
 20
1.493113310401135
 30
0.0
  0
VERTEX
  5
42E
  8
DIMENSIONS
 10
1.553040004332714
 20
1.490712815858161
 30
0.0
  0
VERTEX
  5
42F
  8
DIMENSIONS
 10
1.555063793555088
 20
1.488961536867711
 30
0.0
  0
VERTEX
  5
430
  8
DIMENSIONS
 10
1.557396160540081
 20
1.487891533457069
 30
0.0
  0
VERTEX
  5
431
  8
DIMENSIONS
 10
1.559840737620573
 20
1.487534865653522
 30
0.0
  0
VERTEX
  5
432
  8
DIMENSIONS
 10
1.561604039121255
 20
1.487719210810412
 30
0.0
  0
VERTEX
  5
433
  8
DIMENSIONS
 10
1.563239100512796
 20
1.48827224628108
 30
0.0
  0
VERTEX
  5
434
  8
DIMENSIONS
 10
1.564745921795197
 20
1.489193972065528
 30
0.0
  0
VERTEX
  5
435
  8
DIMENSIONS
 10
1.566124502968458
 20
1.490484388163754
 30
0.0
  0
VERTEX
  5
436
  8
DIMENSIONS
 10
1.567274656447312
 20
1.492091397031422
 30
0.0
  0
VERTEX
  5
437
  8
DIMENSIONS
 10
1.568096194646493
 20
1.493962901124191
 30
0.0
  0
VERTEX
  5
438
  8
DIMENSIONS
 10
1.568589117566002
 20
1.496098900442063
 30
0.0
  0
VERTEX
  5
439
  8
DIMENSIONS
 10
1.568753425205838
 20
1.498499394985037
 30
0.0
  0
VERTEX
  5
43A
  8
DIMENSIONS
 10
1.568591121317708
 20
1.500806715073714
 30
0.0
  0
VERTEX
  5
43B
  8
DIMENSIONS
 10
1.568104209653315
 20
1.502855551192404
 30
0.0
  0
VERTEX
  5
43C
  8
DIMENSIONS
 10
1.56729269021266
 20
1.504645903341108
 30
0.0
  0
VERTEX
  5
43D
  8
DIMENSIONS
 10
1.566156562995743
 20
1.506177771519825
 30
0.0
  0
VERTEX
  5
43E
  8
DIMENSIONS
 10
1.564773974319072
 20
1.507405069439334
 30
0.0
  0
VERTEX
  5
43F
  8
DIMENSIONS
 10
1.563223070499153
 20
1.508281710810412
 30
0.0
  0
VERTEX
  5
440
  8
DIMENSIONS
 10
1.561503851535988
 20
1.508807695633058
 30
0.0
  0
VERTEX
  5
441
  8
DIMENSIONS
 10
1.559616317429577
 20
1.508983023907274
 30
0.0
  0
VERTEX
  5
442
  8
DIMENSIONS
 10
1.55773479457828
 20
1.508807695633058
 30
0.0
  0
VERTEX
  5
443
  8
DIMENSIONS
 10
1.556001549353178
 20
1.508281710810412
 30
0.0
  0
VERTEX
  5
444
  8
DIMENSIONS
 10
1.554416581754269
 20
1.507405069439334
 30
0.0
  0
VERTEX
  5
445
  8
DIMENSIONS
 10
1.552979891781555
 20
1.506177771519825
 30
0.0
  0
VERTEX
  5
446
  8
DIMENSIONS
 10
1.551787659516889
 20
1.504665940858161
 30
0.0
  0
VERTEX
  5
447
  8
DIMENSIONS
 10
1.550936065042128
 20
1.502935701260616
 30
0.0
  0
VERTEX
  5
448
  8
DIMENSIONS
 10
1.550425108357271
 20
1.500987052727192
 30
0.0
  0
SEQEND
  5
4E9
  8
DIMENSIONS
  0
POLYLINE
  5
DD
  8
DIMENSIONS
 66
     1
 10
0.0
 20
0.0
 30
0.0
 70
     1
  0
VERTEX
  5
449
  8
DIMENSIONS
 10
1.601069932709249
 20
1.483591482297451
 30
0.0
  0
VERTEX
  5
44A
  8
DIMENSIONS
 10
1.601069932709249
 20
1.530591482297451
 30
0.0
  0
VERTEX
  5
44B
  8
DIMENSIONS
 10
1.621908950444583
 20
1.530591482297451
 30
0.0
  0
VERTEX
  5
44C
  8
DIMENSIONS
 10
1.627439305151268
 20
1.530274889528011
 30
0.0
  0
VERTEX
  5
44D
  8
DIMENSIONS
 10
1.631462838575552
 20
1.529325111219689
 30
0.0
  0
VERTEX
  5
44E
  8
DIMENSIONS
 10
1.634404346078963
 20
1.527573832229239
 30
0.0
  0
VERTEX
  5
44F
  8
DIMENSIONS
 10
1.636688623023028
 20
1.524852737413413
 30
0.0
  0
VERTEX
  5
450
  8
DIMENSIONS
 10
1.638155369271323
 20
1.521478419541653
 30
0.0
  0
VERTEX
  5
451
  8
DIMENSIONS
 10
1.638644284687421
 20
1.5177674713834
 30
0.0
  0
VERTEX
  5
452
  8
DIMENSIONS
 10
1.638441905765184
 20
1.51536497308872
 30
0.0
  0
VERTEX
  5
453
  8
DIMENSIONS
 10
1.637834768998472
 20
1.513158842461162
 30
0.0
  0
VERTEX
  5
454
  8
DIMENSIONS
 10
1.636822874387285
 20
1.511149079500725
 30
0.0
  0
VERTEX
  5
455
  8
DIMENSIONS
 10
1.635406221931623
 20
1.50933568420741
 30
0.0
  0
VERTEX
  5
456
  8
DIMENSIONS
 10
1.633566777866139
 20
1.507776765380671
 30
0.0
  0
VERTEX
  5
457
  8
DIMENSIONS
 10
1.631286508425484
 20
1.506530431819962
 30
0.0
  0
VERTEX
  5
458
  8
DIMENSIONS
 10
1.628565413609658
 20
1.505596683525282
 30
0.0
  0
VERTEX
  5
459
  8
DIMENSIONS
 10
1.625403493418663
 20
1.504975520496633
 30
0.0
  0
VERTEX
  5
45A
  8
DIMENSIONS
 10
1.62757556026723
 20
1.503797314493904
 30
0.0
  0
VERTEX
  5
45B
  8
DIMENSIONS
 10
1.629154516611023
 20
1.502635138504818
 30
0.0
  0
VERTEX
  5
45C
  8
DIMENSIONS
 10
1.631807483868867
 20
1.499821871110548
 30
0.0
  0
VERTEX
  5
45D
  8
DIMENSIONS
 10
1.634316181003929
 20
1.496383433184218
 30
0.0
  0
VERTEX
  5
45E
  8
DIMENSIONS
 10
1.642491487961637
 20
1.483591482297451
 30
0.0
  0
VERTEX
  5
45F
  8
DIMENSIONS
 10
1.634668841304065
 20
1.483591482297451
 30
0.0
  0
VERTEX
  5
460
  8
DIMENSIONS
 10
1.62844919601075
 20
1.493369790619416
 30
0.0
  0
VERTEX
  5
461
  8
DIMENSIONS
 10
1.623960792190832
 20
1.499845916131012
 30
0.0
  0
VERTEX
  5
462
  8
DIMENSIONS
 10
1.622289663268594
 20
1.501753487754477
 30
0.0
  0
VERTEX
  5
463
  8
DIMENSIONS
 10
1.620802879503247
 20
1.502987798804955
 30
0.0
  0
VERTEX
  5
464
  8
DIMENSIONS
 10
1.617965567088512
 20
1.504238139869075
 30
0.0
  0
VERTEX
  5
465
  8
DIMENSIONS
 10
1.614503084141719
 20
1.504462560060071
 30
0.0
  0
VERTEX
  5
466
  8
DIMENSIONS
 10
1.607289578002564
 20
1.504462560060071
 30
0.0
  0
VERTEX
  5
467
  8
DIMENSIONS
 10
1.607289578002564
 20
1.483591482297451
 30
0.0
  0
SEQEND
  5
4EA
  8
DIMENSIONS
  0
POLYLINE
  5
DE
  8
DIMENSIONS
 66
     1
 10
0.0
 20
0.0
 30
0.0
 70
     1
  0
VERTEX
  5
468
  8
DIMENSIONS
 10
1.607289578002564
 20
1.509848644643973
 30
0.0
  0
VERTEX
  5
469
  8
DIMENSIONS
 10
1.620658609380463
 20
1.509848644643973
 30
0.0
  0
VERTEX
  5
46A
  8
DIMENSIONS
 10
1.624457722613751
 20
1.510069057331558
 30
0.0
  0
VERTEX
  5
46B
  8
DIMENSIONS
 10
1.62732709505577
 20
1.510730295394314
 30
0.0
  0
VERTEX
  5
46C
  8
DIMENSIONS
 10
1.629443056856589
 20
1.511876441369757
 30
0.0
  0
VERTEX
  5
46D
  8
DIMENSIONS
 10
1.630981938166275
 20
1.513551577795405
 30
0.0
  0
VERTEX
  5
46E
  8
DIMENSIONS
 10
1.631919693964365
 20
1.515575367017779
 30
0.0
  0
VERTEX
  5
46F
  8
DIMENSIONS
 10
1.632232279230395
 20
1.5177674713834
 30
0.0
  0
VERTEX
  5
470
  8
DIMENSIONS
 10
1.632080995976644
 20
1.51936045398913
 30
0.0
  0
VERTEX
  5
471
  8
DIMENSIONS
 10
1.631627146215388
 20
1.520805158968666
 30
0.0
  0
VERTEX
  5
472
  8
DIMENSIONS
 10
1.63087072994663
 20
1.522101586322008
 30
0.0
  0
VERTEX
  5
473
  8
DIMENSIONS
 10
1.629811747170368
 20
1.523249736049157
 30
0.0
  0
VERTEX
  5
474
  8
DIMENSIONS
 10
1.628426152866139
 20
1.524189495598952
 30
0.0
  0
VERTEX
  5
475
  8
DIMENSIONS
 10
1.626689902013478
 20
1.524860752420234
 30
0.0
  0
VERTEX
  5
476
  8
DIMENSIONS
 10
1.624602994612387
 20
1.525263506513004
 30
0.0
  0
VERTEX
  5
477
  8
DIMENSIONS
 10
1.622165430662865
 20
1.52539775787726
 30
0.0
  0
VERTEX
  5
478
  8
DIMENSIONS
 10
1.607289578002564
 20
1.52539775787726
 30
0.0
  0
SEQEND
  5
4EB
  8
DIMENSIONS
  0
POLYLINE
  5
DF
  8
DIMENSIONS
 66
     1
 10
0.0
 20
0.0
 30
0.0
  0
VERTEX
  5
479
  8
DIMENSIONS
 10
1.462282194345021
 20
1.536658842461162
 30
0.0
  0
VERTEX
  5
47A
  8
DIMENSIONS
 10
1.412356433229617
 20
1.655258223883014
 30
0.0
  0
SEQEND
  5
4EC
  8
DIMENSIONS
  0
POLYLINE
  5
E0
  8
DIMENSIONS
 66
     1
 10
0.0
 20
0.0
 30
0.0
  0
VERTEX
  5
47B
  8
DIMENSIONS
 10
1.39760374790359
 20
1.690303445325578
 30
0.0
  0
VERTEX
  5
47C
  8
DIMENSIONS
 10
1.401526864232231
 20
1.650699393404605
 30
0.0
  0
SEQEND
  5
4ED
  8
DIMENSIONS
  0
POLYLINE
  5
E1
  8
DIMENSIONS
 66
     1
 10
0.0
 20
0.0
 30
0.0
  0
VERTEX
  5
47D
  8
DIMENSIONS
 10
1.401526864232231
 20
1.650699393404605
 30
0.0
  0
VERTEX
  5
47E
  8
DIMENSIONS
 10
1.423186002227002
 20
1.659817054361421
 30
0.0
  0
SEQEND
  5
4EE
  8
DIMENSIONS
  0
POLYLINE
  5
E2
  8
DIMENSIONS
 66
     1
 10
0.0
 20
0.0
 30
0.0
  0
VERTEX
  5
47F
  8
DIMENSIONS
 10
1.423186002227002
 20
1.659817054361421
 30
0.0
  0
VERTEX
  5
480
  8
DIMENSIONS
 10
1.39760374790359
 20
1.690303445325578
 30
0.0
  0
SEQEND
  5
4EF
  8
DIMENSIONS
  0
ENDSEC
  0
EOF
