  0
SECTION
  2
HEADER
  9
$ACADVER
  1
AC1014
  9
$HANDSEED
  5
FFFF
  9
$MEASUREMENT
 70
     1
  0
ENDSEC
  0
SECTION
  2
TABLES
  0
TABLE
  2
VPORT
  5
8
330
0
100
AcDbSymbolTable
 70
     4
  0
VPORT
  5
2E
330
8
100
AcDbSymbolTableRecord
100
AcDbViewportTableRecord
  2
*ACTIVE
 70
     0
 10
0.0
 20
0.0
 11
1.0
 21
1.0
 12
210.0
 22
148.5
 13
0.0
 23
0.0
 14
10.0
 24
10.0
 15
10.0
 25
10.0
 16
0.0
 26
0.0
 36
1.0
 17
0.0
 27
0.0
 37
0.0
 40
341.0
 41
1.24
 42
50.0
 43
0.0
 44
0.0
 50
0.0
 51
0.0
 71
     0
 72
   100
 73
     1
 74
     3
 75
     0
 76
     0
 77
     0
 78
     0
  0
ENDTAB
  0
TABLE
  2
LTYPE
  5
5
330
0
100
AcDbSymbolTable
 70
     1
  0
LTYPE
  5
14
330
5
100
AcDbSymbolTableRecord
100
AcDbLinetypeTableRecord
  2
BYBLOCK
 70
     0
  3

 72
    65
 73
     0
 40
0.0
  0
LTYPE
  5
15
330
5
100
AcDbSymbolTableRecord
100
AcDbLinetypeTableRecord
  2
BYLAYER
 70
     0
  3

 72
    65
 73
     0
 40
0.0
  0
LTYPE
  5
16
330
5
100
AcDbSymbolTableRecord
100
AcDbLinetypeTableRecord
  2
CONTINUOUS
 70
     0
  3
Solid line
 72
    65
 73
     0
 40
0.0
  0
ENDTAB
  0
TABLE
  2
LAYER
  5
2
100
AcDbSymbolTable
 70
1
  0
LAYER
  5
50
100
AcDbSymbolTableRecord
100
AcDbLayerTableRecord
  2
0
 70
0
  6
CONTINUOUS
  0
ENDTAB
  0
TABLE
  2
STYLE
  5
3
330
0
100
AcDbSymbolTable
 70
     1
  0
STYLE
  5
11
330
3
100
AcDbSymbolTableRecord
100
AcDbTextStyleTableRecord
  2
STANDARD
 70
     0
 40
0.0
 41
1.0
 50
0.0
 71
     0
 42
2.5
  3
txt
  4

  0
ENDTAB
  0
TABLE
  2
VIEW
  5
6
330
0
100
AcDbSymbolTable
 70
     0
  0
ENDTAB
  0
TABLE
  2
UCS
  5
7
330
0
100
AcDbSymbolTable
 70
     0
  0
ENDTAB
  0
TABLE
  2
APPID
  5
9
330
0
100
AcDbSymbolTable
 70
     2
  0
APPID
  5
12
330
9
100
AcDbSymbolTableRecord
100
AcDbRegAppTableRecord
  2
ACAD
 70
     0
  0
ENDTAB
  0
TABLE
  2
DIMSTYLE
  5
A
330
0
100
AcDbSymbolTable
 70
     1
  0
DIMSTYLE
105
27
330
A
100
AcDbSymbolTableRecord
100
AcDbDimStyleTableRecord
  2
ISO-25
 70
     0
  3

  4

  5

  6

  7

 40
1.0
 41
2.5
 42
0.625
 43
3.75
 44
1.25
 45
0.0
 46
0.0
 47
0.0
 48
0.0
140
2.5
141
2.5
142
0.0
143
0.03937007874016
144
1.0
145
0.0
146
1.0
147
0.625
 71
     0
 72
     0
 73
     0
 74
     0
 75
     0
 76
     0
 77
     1
 78
     8
170
     0
171
     3
172
     1
173
     0
174
     0
175
     0
176
     0
177
     0
178
     0
270
     2
271
     2
272
     2
273
     2
274
     3
340
11
275
     0
280
     0
281
     0
282
     0
283
     0
284
     8
285
     0
286
     0
287
     3
288
     0
  0
ENDTAB
  0
TABLE
  2
BLOCK_RECORD
  5
1
330
0
100
AcDbSymbolTable
 70
     1
  0
BLOCK_RECORD
  5
1F
330
1
100
AcDbSymbolTableRecord
100
AcDbBlockTableRecord
  2
*MODEL_SPACE
  0
BLOCK_RECORD
  5
1B
330
1
100
AcDbSymbolTableRecord
100
AcDbBlockTableRecord
  2
*PAPER_SPACE
  0
ENDTAB
  0
ENDSEC
  0
SECTION
  2
BLOCKS
  0
BLOCK
  5
20
330
1F
100
AcDbEntity
  8
0
100
AcDbBlockBegin
  2
*MODEL_SPACE
 70
     0
 10
0.0
 20
0.0
 30
0.0
  3
*MODEL_SPACE
  1

  0
ENDBLK
  5
21
330
1F
100
AcDbEntity
  8
0
100
AcDbBlockEnd
  0
BLOCK
  5
1C
330
1B
100
AcDbEntity
 67
     1
  8
0
100
AcDbBlockBegin
  2
*PAPER_SPACE
  1

  0
ENDBLK
  5
1D
330
1B
100
AcDbEntity
 67
     1
  8
0
100
AcDbBlockEnd
  0
ENDSEC
  0
SECTION
  2
ENTITIES
  0
LWPOLYLINE
  5
100
100
AcDbEntity
  8
0
 62
7
100
AcDbPolyline
 90
4
 70
1
 10
-525.000000
 20
349.440000
 30
0.0
 10
525.000000
 20
349.440000
 30
0.0
 10
525.000000
 20
-196.560000
 30
0.0
 10
-525.000000
 20
-196.560000
 30
0.0
  0
LWPOLYLINE
  5
101
100
AcDbEntity
  8
0
 62
7
100
AcDbPolyline
 90
4
 70
1
 10
-504.000000
 20
328.440000
 30
0.0
 10
-252.000000
 20
328.440000
 30
0.0
 10
-252.000000
 20
-175.560000
 30
0.0
 10
-504.000000
 20
-175.560000
 30
0.0
  0
SPLINE
  5
102
100
AcDbEntity
  8
0
 62
7
100
AcDbSpline
 70
8
 71
3
 72
8
 73
4
 74
0
 40
0
 40
0
 40
0
 40
0
 40
1
 40
1
 40
1
 40
1
 10
-9.450000
 20
-136.710000
 30
0.0
 10
-9.450000
 20
-136.710000
 30
0.0
 10
-4.725000
 20
-46.095000
 30
0.0
 10
-4.725000
 20
-46.095000
 30
0.0
  0
SPLINE
  5
103
100
AcDbEntity
  8
0
 62
7
100
AcDbSpline
 70
8
 71
3
 72
8
 73
4
 74
0
 40
0
 40
0
 40
0
 40
0
 40
1
 40
1
 40
1
 40
1
 10
-4.725000
 20
-46.095000
 30
0.0
 10
-4.585869
 20
-43.076615
 30
0.0
 10
-5.822410
 20
-40.157852
 30
0.0
 10
-8.087516
 20
-38.158029
 30
0.0
  0
SPLINE
  5
104
100
AcDbEntity
  8
0
 62
7
100
AcDbSpline
 70
8
 71
3
 72
8
 73
4
 74
0
 40
0
 40
0
 40
0
 40
0
 40
1
 40
1
 40
1
 40
1
 10
-8.087516
 20
-38.158029
 30
0.0
 10
-10.352623
 20
-36.158205
 30
0.0
 10
-13.402123
 20
-35.292896
 30
0.0
 10
-16.380000
 20
-35.805000
 30
0.0
  0
LWPOLYLINE
  5
105
100
AcDbEntity
  8
0
 62
7
100
AcDbPolyline
 90
4
 70
1
 10
252.000000
 20
328.440000
 30
0.0
 10
504.000000
 20
328.440000
 30
0.0
 10
504.000000
 20
-175.560000
 30
0.0
 10
252.000000
 20
-175.560000
 30
0.0
  0
SPLINE
  5
106
100
AcDbEntity
  8
0
 62
7
100
AcDbSpline
 70
8
 71
3
 72
8
 73
4
 74
0
 40
0
 40
0
 40
0
 40
0
 40
1
 40
1
 40
1
 40
1
 10
-94.395000
 20
-18.060000
 30
0.0
 10
-93.381789
 20
-15.318903
 30
0.0
 10
-94.226172
 20
-12.236908
 30
0.0
 10
-96.495000
 20
-10.395000
 30
0.0
  0
LWPOLYLINE
  5
107
100
AcDbEntity
  8
0
 62
7
100
AcDbPolyline
 90
3
 70
0
 10
-16.380000
 20
-35.805000
 30
0.0
 10
-106.575000
 20
-51.660000
 30
0.0
 10
-94.395000
 20
-18.060000
 30
0.0
  0
SPLINE
  5
108
100
AcDbEntity
  8
0
 62
7
100
AcDbSpline
 70
8
 71
3
 72
8
 73
4
 74
0
 40
0
 40
0
 40
0
 40
0
 40
1
 40
1
 40
1
 40
1
 10
-195.300000
 20
69.615000
 30
0.0
 10
-195.300000
 20
69.615000
 30
0.0
 10
-173.040000
 20
80.010000
 30
0.0
 10
-173.040000
 20
80.010000
 30
0.0
  0
SPLINE
  5
109
100
AcDbEntity
  8
0
 62
7
100
AcDbSpline
 70
8
 71
3
 72
8
 73
4
 74
0
 40
0
 40
0
 40
0
 40
0
 40
1
 40
1
 40
1
 40
1
 10
-173.040000
 20
80.010000
 30
0.0
 10
-169.929344
 20
81.479949
 30
0.0
 10
-168.399144
 20
85.035412
 30
0.0
 10
-169.470000
 20
88.305000
 30
0.0
  0
LWPOLYLINE
  5
10a
100
AcDbEntity
  8
0
 62
7
100
AcDbPolyline
 90
2
 70
0
 10
-96.495000
 20
-10.395000
 30
0.0
 10
-195.300000
 20
69.615000
 30
0.0
  0
SPLINE
  5
10b
100
AcDbEntity
  8
0
 62
7
100
AcDbSpline
 70
8
 71
3
 72
8
 73
4
 74
0
 40
0
 40
0
 40
0
 40
0
 40
1
 40
1
 40
1
 40
1
 10
-189.000000
 20
148.365000
 30
0.0
 10
-189.000000
 20
148.365000
 30
0.0
 10
-132.090000
 20
136.290000
 30
0.0
 10
-132.090000
 20
136.290000
 30
0.0
  0
SPLINE
  5
10c
100
AcDbEntity
  8
0
 62
7
100
AcDbSpline
 70
8
 71
3
 72
8
 73
4
 74
0
 40
0
 40
0
 40
0
 40
0
 40
1
 40
1
 40
1
 40
1
 10
-132.090000
 20
136.290000
 30
0.0
 10
-128.911149
 20
135.627214
 30
0.0
 10
-125.705482
 20
137.295918
 30
0.0
 10
-124.425000
 20
140.280000
 30
0.0
  0
LWPOLYLINE
  5
10d
100
AcDbEntity
  8
0
 62
7
100
AcDbPolyline
 90
2
 70
0
 10
-169.470000
 20
88.305000
 30
0.0
 10
-189.000000
 20
148.365000
 30
0.0
  0
SPLINE
  5
10e
100
AcDbEntity
  8
0
 62
7
100
AcDbSpline
 70
8
 71
3
 72
8
 73
4
 74
0
 40
0
 40
0
 40
0
 40
0
 40
1
 40
1
 40
1
 40
1
 10
-68.985000
 20
118.545000
 30
0.0
 10
-66.898989
 20
116.344733
 30
0.0
 10
-63.611528
 20
115.784397
 30
0.0
 10
-60.914421
 20
117.169398
 30
0.0
  0
SPLINE
  5
10f
100
AcDbEntity
  8
0
 62
7
100
AcDbSpline
 70
8
 71
3
 72
8
 73
4
 74
0
 40
0
 40
0
 40
0
 40
0
 40
1
 40
1
 40
1
 40
1
 10
-60.914421
 20
117.169398
 30
0.0
 10
-58.217313
 20
118.554399
 30
0.0
 10
-56.757239
 20
121.552659
 30
0.0
 10
-57.330000
 20
124.530000
 30
0.0
  0
LWPOLYLINE
  5
110
100
AcDbEntity
  8
0
 62
7
100
AcDbPolyline
 90
3
 70
0
 10
-124.425000
 20
140.280000
 30
0.0
 10
-113.400000
 20
166.215000
 30
0.0
 10
-68.985000
 20
118.545000
 30
0.0
  0
SPLINE
  5
111
100
AcDbEntity
  8
0
 62
7
100
AcDbSpline
 70
8
 71
3
 72
8
 73
4
 74
0
 40
0
 40
0
 40
0
 40
0
 40
1
 40
1
 40
1
 40
1
 10
-44.415000
 20
215.145000
 30
0.0
 10
-42.785575
 20
214.190010
 30
0.0
 10
-40.833266
 20
213.952919
 30
0.0
 10
-39.022624
 20
214.490142
 30
0.0
  0
SPLINE
  5
112
100
AcDbEntity
  8
0
 62
7
100
AcDbSpline
 70
8
 71
3
 72
8
 73
4
 74
0
 40
0
 40
0
 40
0
 40
0
 40
1
 40
1
 40
1
 40
1
 10
-39.022624
 20
214.490142
 30
0.0
 10
-37.211983
 20
215.027365
 30
0.0
 10
-35.704905
 20
216.290868
 30
0.0
 10
-34.860000
 20
217.980000
 30
0.0
  0
LWPOLYLINE
  5
113
100
AcDbEntity
  8
0
 62
7
100
AcDbPolyline
 90
3
 70
0
 10
-57.330000
 20
124.530000
 30
0.0
 10
-78.750000
 20
234.990000
 30
0.0
 10
-44.415000
 20
215.145000
 30
0.0
  0
SPLINE
  5
114
100
AcDbEntity
  8
0
 62
7
100
AcDbSpline
 70
8
 71
3
 72
8
 73
4
 74
0
 40
0
 40
0
 40
0
 40
0
 40
1
 40
1
 40
1
 40
1
 10
0.000000
 20
286.440000
 30
0.0
 10
0.000000
 20
286.440000
 30
0.0
 10
34.860000
 20
217.980000
 30
0.0
 10
34.860000
 20
217.980000
 30
0.0
  0
SPLINE
  5
115
100
AcDbEntity
  8
0
 62
7
100
AcDbSpline
 70
8
 71
3
 72
8
 73
4
 74
0
 40
0
 40
0
 40
0
 40
0
 40
1
 40
1
 40
1
 40
1
 10
34.860000
 20
217.980000
 30
0.0
 10
35.704905
 20
216.290868
 30
0.0
 10
37.211983
 20
215.027365
 30
0.0
 10
39.022624
 20
214.490142
 30
0.0
  0
SPLINE
  5
116
100
AcDbEntity
  8
0
 62
7
100
AcDbSpline
 70
8
 71
3
 72
8
 73
4
 74
0
 40
0
 40
0
 40
0
 40
0
 40
1
 40
1
 40
1
 40
1
 10
39.022624
 20
214.490142
 30
0.0
 10
40.833266
 20
213.952919
 30
0.0
 10
42.785575
 20
214.190010
 30
0.0
 10
44.415000
 20
215.145000
 30
0.0
  0
LWPOLYLINE
  5
117
100
AcDbEntity
  8
0
 62
7
100
AcDbPolyline
 90
2
 70
0
 10
-34.860000
 20
217.980000
 30
0.0
 10
0.000000
 20
286.440000
 30
0.0
  0
SPLINE
  5
118
100
AcDbEntity
  8
0
 62
7
100
AcDbSpline
 70
8
 71
3
 72
8
 73
4
 74
0
 40
0
 40
0
 40
0
 40
0
 40
1
 40
1
 40
1
 40
1
 10
78.750000
 20
234.990000
 30
0.0
 10
78.750000
 20
234.990000
 30
0.0
 10
57.330000
 20
124.530000
 30
0.0
 10
57.330000
 20
124.530000
 30
0.0
  0
SPLINE
  5
119
100
AcDbEntity
  8
0
 62
7
100
AcDbSpline
 70
8
 71
3
 72
8
 73
4
 74
0
 40
0
 40
0
 40
0
 40
0
 40
1
 40
1
 40
1
 40
1
 10
57.330000
 20
124.530000
 30
0.0
 10
56.757239
 20
121.552659
 30
0.0
 10
58.217313
 20
118.554399
 30
0.0
 10
60.914421
 20
117.169398
 30
0.0
  0
SPLINE
  5
11a
100
AcDbEntity
  8
0
 62
7
100
AcDbSpline
 70
8
 71
3
 72
8
 73
4
 74
0
 40
0
 40
0
 40
0
 40
0
 40
1
 40
1
 40
1
 40
1
 10
60.914421
 20
117.169398
 30
0.0
 10
63.611528
 20
115.784397
 30
0.0
 10
66.898989
 20
116.344733
 30
0.0
 10
68.985000
 20
118.545000
 30
0.0
  0
LWPOLYLINE
  5
11b
100
AcDbEntity
  8
0
 62
7
100
AcDbPolyline
 90
2
 70
0
 10
44.415000
 20
215.145000
 30
0.0
 10
78.750000
 20
234.990000
 30
0.0
  0
SPLINE
  5
11c
100
AcDbEntity
  8
0
 62
7
100
AcDbSpline
 70
8
 71
3
 72
8
 73
4
 74
0
 40
0
 40
0
 40
0
 40
0
 40
1
 40
1
 40
1
 40
1
 10
113.400000
 20
166.215000
 30
0.0
 10
113.400000
 20
166.215000
 30
0.0
 10
124.425000
 20
140.280000
 30
0.0
 10
124.425000
 20
140.280000
 30
0.0
  0
SPLINE
  5
11d
100
AcDbEntity
  8
0
 62
7
100
AcDbSpline
 70
8
 71
3
 72
8
 73
4
 74
0
 40
0
 40
0
 40
0
 40
0
 40
1
 40
1
 40
1
 40
1
 10
124.425000
 20
140.280000
 30
0.0
 10
125.705482
 20
137.295918
 30
0.0
 10
128.911149
 20
135.627214
 30
0.0
 10
132.090000
 20
136.290000
 30
0.0
  0
LWPOLYLINE
  5
11e
100
AcDbEntity
  8
0
 62
7
100
AcDbPolyline
 90
2
 70
0
 10
68.985000
 20
118.545000
 30
0.0
 10
113.400000
 20
166.215000
 30
0.0
  0
SPLINE
  5
11f
100
AcDbEntity
  8
0
 62
7
100
AcDbSpline
 70
8
 71
3
 72
8
 73
4
 74
0
 40
0
 40
0
 40
0
 40
0
 40
1
 40
1
 40
1
 40
1
 10
189.000000
 20
148.365000
 30
0.0
 10
189.000000
 20
148.365000
 30
0.0
 10
169.470000
 20
88.305000
 30
0.0
 10
169.470000
 20
88.305000
 30
0.0
  0
SPLINE
  5
120
100
AcDbEntity
  8
0
 62
7
100
AcDbSpline
 70
8
 71
3
 72
8
 73
4
 74
0
 40
0
 40
0
 40
0
 40
0
 40
1
 40
1
 40
1
 40
1
 10
169.470000
 20
88.305000
 30
0.0
 10
168.399144
 20
85.035412
 30
0.0
 10
169.929344
 20
81.479949
 30
0.0
 10
173.040000
 20
80.010000
 30
0.0
  0
LWPOLYLINE
  5
121
100
AcDbEntity
  8
0
 62
7
100
AcDbPolyline
 90
2
 70
0
 10
132.090000
 20
136.290000
 30
0.0
 10
189.000000
 20
148.365000
 30
0.0
  0
SPLINE
  5
122
100
AcDbEntity
  8
0
 62
7
100
AcDbSpline
 70
8
 71
3
 72
8
 73
4
 74
0
 40
0
 40
0
 40
0
 40
0
 40
1
 40
1
 40
1
 40
1
 10
195.300000
 20
69.615000
 30
0.0
 10
195.300000
 20
69.615000
 30
0.0
 10
96.495000
 20
-10.395000
 30
0.0
 10
96.495000
 20
-10.395000
 30
0.0
  0
SPLINE
  5
123
100
AcDbEntity
  8
0
 62
7
100
AcDbSpline
 70
8
 71
3
 72
8
 73
4
 74
0
 40
0
 40
0
 40
0
 40
0
 40
1
 40
1
 40
1
 40
1
 10
96.495000
 20
-10.395000
 30
0.0
 10
94.226172
 20
-12.236908
 30
0.0
 10
93.381789
 20
-15.318903
 30
0.0
 10
94.395000
 20
-18.060000
 30
0.0
  0
LWPOLYLINE
  5
124
100
AcDbEntity
  8
0
 62
7
100
AcDbPolyline
 90
2
 70
0
 10
173.040000
 20
80.010000
 30
0.0
 10
195.300000
 20
69.615000
 30
0.0
  0
SPLINE
  5
125
100
AcDbEntity
  8
0
 62
7
100
AcDbSpline
 70
8
 71
3
 72
8
 73
4
 74
0
 40
0
 40
0
 40
0
 40
0
 40
1
 40
1
 40
1
 40
1
 10
106.575000
 20
-51.660000
 30
0.0
 10
106.575000
 20
-51.660000
 30
0.0
 10
16.380000
 20
-35.805000
 30
0.0
 10
16.380000
 20
-35.805000
 30
0.0
  0
SPLINE
  5
126
100
AcDbEntity
  8
0
 62
7
100
AcDbSpline
 70
8
 71
3
 72
8
 73
4
 74
0
 40
0
 40
0
 40
0
 40
0
 40
1
 40
1
 40
1
 40
1
 10
16.380000
 20
-35.805000
 30
0.0
 10
13.402123
 20
-35.292896
 30
0.0
 10
10.352623
 20
-36.158205
 30
0.0
 10
8.087516
 20
-38.158029
 30
0.0
  0
SPLINE
  5
127
100
AcDbEntity
  8
0
 62
7
100
AcDbSpline
 70
8
 71
3
 72
8
 73
4
 74
0
 40
0
 40
0
 40
0
 40
0
 40
1
 40
1
 40
1
 40
1
 10
8.087516
 20
-38.158029
 30
0.0
 10
5.822410
 20
-40.157852
 30
0.0
 10
4.585869
 20
-43.076615
 30
0.0
 10
4.725000
 20
-46.095000
 30
0.0
  0
LWPOLYLINE
  5
128
100
AcDbEntity
  8
0
 62
7
100
AcDbPolyline
 90
2
 70
0
 10
94.395000
 20
-18.060000
 30
0.0
 10
106.575000
 20
-51.660000
 30
0.0
  0
LWPOLYLINE
  5
129
100
AcDbEntity
  8
0
 62
7
100
AcDbPolyline
 90
3
 70
0
 10
4.725000
 20
-46.095000
 30
0.0
 10
9.450000
 20
-136.710000
 30
0.0
 10
-9.450000
 20
-136.710000
 30
0.0
  0
SPLINE
  5
12a
100
AcDbEntity
  8
0
 62
7
100
AcDbSpline
 70
8
 71
3
 72
8
 73
4
 74
0
 40
0
 40
0
 40
0
 40
0
 40
1
 40
1
 40
1
 40
1
 10
-6.825000
 20
-136.710000
 30
0.0
 10
-6.825000
 20
-137.647822
 30
0.0
 10
-7.325322
 20
-138.514406
 30
0.0
 10
-8.137500
 20
-138.983317
 30
0.0
  0
SPLINE
  5
12b
100
AcDbEntity
  8
0
 62
7
100
AcDbSpline
 70
8
 71
3
 72
8
 73
4
 74
0
 40
0
 40
0
 40
0
 40
0
 40
1
 40
1
 40
1
 40
1
 10
-8.137500
 20
-138.983317
 30
0.0
 10
-8.949678
 20
-139.452228
 30
0.0
 10
-9.950322
 20
-139.452228
 30
0.0
 10
-10.762500
 20
-138.983317
 30
0.0
  0
SPLINE
  5
12c
100
AcDbEntity
  8
0
 62
7
100
AcDbSpline
 70
8
 71
3
 72
8
 73
4
 74
0
 40
0
 40
0
 40
0
 40
0
 40
1
 40
1
 40
1
 40
1
 10
-10.762500
 20
-138.983317
 30
0.0
 10
-11.574678
 20
-138.514406
 30
0.0
 10
-12.075000
 20
-137.647822
 30
0.0
 10
-12.075000
 20
-136.710000
 30
0.0
  0
SPLINE
  5
12d
100
AcDbEntity
  8
0
 62
7
100
AcDbSpline
 70
8
 71
3
 72
8
 73
4
 74
0
 40
0
 40
0
 40
0
 40
0
 40
1
 40
1
 40
1
 40
1
 10
-12.075000
 20
-136.710000
 30
0.0
 10
-12.075000
 20
-135.772178
 30
0.0
 10
-11.574678
 20
-134.905594
 30
0.0
 10
-10.762500
 20
-134.436683
 30
0.0
  0
SPLINE
  5
12e
100
AcDbEntity
  8
0
 62
7
100
AcDbSpline
 70
8
 71
3
 72
8
 73
4
 74
0
 40
0
 40
0
 40
0
 40
0
 40
1
 40
1
 40
1
 40
1
 10
-10.762500
 20
-134.436683
 30
0.0
 10
-9.950322
 20
-133.967772
 30
0.0
 10
-8.949678
 20
-133.967772
 30
0.0
 10
-8.137500
 20
-134.436683
 30
0.0
  0
SPLINE
  5
12f
100
AcDbEntity
  8
0
 62
7
100
AcDbSpline
 70
8
 71
3
 72
8
 73
4
 74
0
 40
0
 40
0
 40
0
 40
0
 40
1
 40
1
 40
1
 40
1
 10
-8.137500
 20
-134.436683
 30
0.0
 10
-7.325322
 20
-134.905594
 30
0.0
 10
-6.825000
 20
-135.772178
 30
0.0
 10
-6.825000
 20
-136.710000
 30
0.0
  0
LWPOLYLINE
  5
130
100
AcDbEntity
  8
0
 62
7
100
AcDbPolyline
 90
8
 70
1
 10
-504.000000
 20
328.440000
 30
0.0
 10
504.000000
 20
328.440000
 30
0.0
 10
504.000000
 20
-175.560000
 30
0.0
 10
-504.000000
 20
-175.560000
 30
0.0
 10
-504.000000
 20
328.440000
 30
0.0
 10
504.000000
 20
328.440000
 30
0.0
 10
504.000000
 20
-175.560000
 30
0.0
 10
-504.000000
 20
-175.560000
 30
0.0
  0
SPLINE
  5
131
100
AcDbEntity
  8
0
 62
7
100
AcDbSpline
 70
8
 71
3
 72
8
 73
4
 74
0
 40
0
 40
0
 40
0
 40
0
 40
1
 40
1
 40
1
 40
1
 10
-103.950000
 20
-51.660000
 30
0.0
 10
-103.950000
 20
-52.597822
 30
0.0
 10
-104.450322
 20
-53.464406
 30
0.0
 10
-105.262500
 20
-53.933317
 30
0.0
  0
SPLINE
  5
132
100
AcDbEntity
  8
0
 62
7
100
AcDbSpline
 70
8
 71
3
 72
8
 73
4
 74
0
 40
0
 40
0
 40
0
 40
0
 40
1
 40
1
 40
1
 40
1
 10
-105.262500
 20
-53.933317
 30
0.0
 10
-106.074678
 20
-54.402228
 30
0.0
 10
-107.075322
 20
-54.402228
 30
0.0
 10
-107.887500
 20
-53.933317
 30
0.0
  0
SPLINE
  5
133
100
AcDbEntity
  8
0
 62
7
100
AcDbSpline
 70
8
 71
3
 72
8
 73
4
 74
0
 40
0
 40
0
 40
0
 40
0
 40
1
 40
1
 40
1
 40
1
 10
-107.887500
 20
-53.933317
 30
0.0
 10
-108.699678
 20
-53.464406
 30
0.0
 10
-109.200000
 20
-52.597822
 30
0.0
 10
-109.200000
 20
-51.660000
 30
0.0
  0
SPLINE
  5
134
100
AcDbEntity
  8
0
 62
7
100
AcDbSpline
 70
8
 71
3
 72
8
 73
4
 74
0
 40
0
 40
0
 40
0
 40
0
 40
1
 40
1
 40
1
 40
1
 10
-109.200000
 20
-51.660000
 30
0.0
 10
-109.200000
 20
-50.722178
 30
0.0
 10
-108.699678
 20
-49.855594
 30
0.0
 10
-107.887500
 20
-49.386683
 30
0.0
  0
SPLINE
  5
135
100
AcDbEntity
  8
0
 62
7
100
AcDbSpline
 70
8
 71
3
 72
8
 73
4
 74
0
 40
0
 40
0
 40
0
 40
0
 40
1
 40
1
 40
1
 40
1
 10
-107.887500
 20
-49.386683
 30
0.0
 10
-107.075322
 20
-48.917772
 30
0.0
 10
-106.074678
 20
-48.917772
 30
0.0
 10
-105.262500
 20
-49.386683
 30
0.0
  0
SPLINE
  5
136
100
AcDbEntity
  8
0
 62
7
100
AcDbSpline
 70
8
 71
3
 72
8
 73
4
 74
0
 40
0
 40
0
 40
0
 40
0
 40
1
 40
1
 40
1
 40
1
 10
-105.262500
 20
-49.386683
 30
0.0
 10
-104.450322
 20
-49.855594
 30
0.0
 10
-103.950000
 20
-50.722178
 30
0.0
 10
-103.950000
 20
-51.660000
 30
0.0
  0
LWPOLYLINE
  5
137
100
AcDbEntity
  8
0
 62
7
100
AcDbPolyline
 90
1
 70
1
 10
-6.825000
 20
-136.710000
 30
0.0
  0
SPLINE
  5
138
100
AcDbEntity
  8
0
 62
7
100
AcDbSpline
 70
8
 71
3
 72
8
 73
4
 74
0
 40
0
 40
0
 40
0
 40
0
 40
1
 40
1
 40
1
 40
1
 10
-192.675000
 20
69.615000
 30
0.0
 10
-192.675000
 20
68.677178
 30
0.0
 10
-193.175322
 20
67.810594
 30
0.0
 10
-193.987500
 20
67.341683
 30
0.0
  0
SPLINE
  5
139
100
AcDbEntity
  8
0
 62
7
100
AcDbSpline
 70
8
 71
3
 72
8
 73
4
 74
0
 40
0
 40
0
 40
0
 40
0
 40
1
 40
1
 40
1
 40
1
 10
-193.987500
 20
67.341683
 30
0.0
 10
-194.799678
 20
66.872772
 30
0.0
 10
-195.800322
 20
66.872772
 30
0.0
 10
-196.612500
 20
67.341683
 30
0.0
  0
SPLINE
  5
13a
100
AcDbEntity
  8
0
 62
7
100
AcDbSpline
 70
8
 71
3
 72
8
 73
4
 74
0
 40
0
 40
0
 40
0
 40
0
 40
1
 40
1
 40
1
 40
1
 10
-196.612500
 20
67.341683
 30
0.0
 10
-197.424678
 20
67.810594
 30
0.0
 10
-197.925000
 20
68.677178
 30
0.0
 10
-197.925000
 20
69.615000
 30
0.0
  0
SPLINE
  5
13b
100
AcDbEntity
  8
0
 62
7
100
AcDbSpline
 70
8
 71
3
 72
8
 73
4
 74
0
 40
0
 40
0
 40
0
 40
0
 40
1
 40
1
 40
1
 40
1
 10
-197.925000
 20
69.615000
 30
0.0
 10
-197.925000
 20
70.552822
 30
0.0
 10
-197.424678
 20
71.419406
 30
0.0
 10
-196.612500
 20
71.888317
 30
0.0
  0
SPLINE
  5
13c
100
AcDbEntity
  8
0
 62
7
100
AcDbSpline
 70
8
 71
3
 72
8
 73
4
 74
0
 40
0
 40
0
 40
0
 40
0
 40
1
 40
1
 40
1
 40
1
 10
-196.612500
 20
71.888317
 30
0.0
 10
-195.800322
 20
72.357228
 30
0.0
 10
-194.799678
 20
72.357228
 30
0.0
 10
-193.987500
 20
71.888317
 30
0.0
  0
SPLINE
  5
13d
100
AcDbEntity
  8
0
 62
7
100
AcDbSpline
 70
8
 71
3
 72
8
 73
4
 74
0
 40
0
 40
0
 40
0
 40
0
 40
1
 40
1
 40
1
 40
1
 10
-193.987500
 20
71.888317
 30
0.0
 10
-193.175322
 20
71.419406
 30
0.0
 10
-192.675000
 20
70.552822
 30
0.0
 10
-192.675000
 20
69.615000
 30
0.0
  0
LWPOLYLINE
  5
13e
100
AcDbEntity
  8
0
 62
7
100
AcDbPolyline
 90
1
 70
1
 10
-103.950000
 20
-51.660000
 30
0.0
  0
SPLINE
  5
13f
100
AcDbEntity
  8
0
 62
7
100
AcDbSpline
 70
8
 71
3
 72
8
 73
4
 74
0
 40
0
 40
0
 40
0
 40
0
 40
1
 40
1
 40
1
 40
1
 10
-186.375000
 20
148.365000
 30
0.0
 10
-186.375000
 20
147.427178
 30
0.0
 10
-186.875322
 20
146.560594
 30
0.0
 10
-187.687500
 20
146.091683
 30
0.0
  0
SPLINE
  5
140
100
AcDbEntity
  8
0
 62
7
100
AcDbSpline
 70
8
 71
3
 72
8
 73
4
 74
0
 40
0
 40
0
 40
0
 40
0
 40
1
 40
1
 40
1
 40
1
 10
-187.687500
 20
146.091683
 30
0.0
 10
-188.499678
 20
145.622772
 30
0.0
 10
-189.500322
 20
145.622772
 30
0.0
 10
-190.312500
 20
146.091683
 30
0.0
  0
SPLINE
  5
141
100
AcDbEntity
  8
0
 62
7
100
AcDbSpline
 70
8
 71
3
 72
8
 73
4
 74
0
 40
0
 40
0
 40
0
 40
0
 40
1
 40
1
 40
1
 40
1
 10
-190.312500
 20
146.091683
 30
0.0
 10
-191.124678
 20
146.560594
 30
0.0
 10
-191.625000
 20
147.427178
 30
0.0
 10
-191.625000
 20
148.365000
 30
0.0
  0
SPLINE
  5
142
100
AcDbEntity
  8
0
 62
7
100
AcDbSpline
 70
8
 71
3
 72
8
 73
4
 74
0
 40
0
 40
0
 40
0
 40
0
 40
1
 40
1
 40
1
 40
1
 10
-191.625000
 20
148.365000
 30
0.0
 10
-191.625000
 20
149.302822
 30
0.0
 10
-191.124678
 20
150.169406
 30
0.0
 10
-190.312500
 20
150.638317
 30
0.0
  0
SPLINE
  5
143
100
AcDbEntity
  8
0
 62
7
100
AcDbSpline
 70
8
 71
3
 72
8
 73
4
 74
0
 40
0
 40
0
 40
0
 40
0
 40
1
 40
1
 40
1
 40
1
 10
-190.312500
 20
150.638317
 30
0.0
 10
-189.500322
 20
151.107228
 30
0.0
 10
-188.499678
 20
151.107228
 30
0.0
 10
-187.687500
 20
150.638317
 30
0.0
  0
SPLINE
  5
144
100
AcDbEntity
  8
0
 62
7
100
AcDbSpline
 70
8
 71
3
 72
8
 73
4
 74
0
 40
0
 40
0
 40
0
 40
0
 40
1
 40
1
 40
1
 40
1
 10
-187.687500
 20
150.638317
 30
0.0
 10
-186.875322
 20
150.169406
 30
0.0
 10
-186.375000
 20
149.302822
 30
0.0
 10
-186.375000
 20
148.365000
 30
0.0
  0
LWPOLYLINE
  5
145
100
AcDbEntity
  8
0
 62
7
100
AcDbPolyline
 90
1
 70
1
 10
-192.675000
 20
69.615000
 30
0.0
  0
SPLINE
  5
146
100
AcDbEntity
  8
0
 62
7
100
AcDbSpline
 70
8
 71
3
 72
8
 73
4
 74
0
 40
0
 40
0
 40
0
 40
0
 40
1
 40
1
 40
1
 40
1
 10
-110.775000
 20
166.215000
 30
0.0
 10
-110.775000
 20
165.277178
 30
0.0
 10
-111.275322
 20
164.410594
 30
0.0
 10
-112.087500
 20
163.941683
 30
0.0
  0
SPLINE
  5
147
100
AcDbEntity
  8
0
 62
7
100
AcDbSpline
 70
8
 71
3
 72
8
 73
4
 74
0
 40
0
 40
0
 40
0
 40
0
 40
1
 40
1
 40
1
 40
1
 10
-112.087500
 20
163.941683
 30
0.0
 10
-112.899678
 20
163.472772
 30
0.0
 10
-113.900322
 20
163.472772
 30
0.0
 10
-114.712500
 20
163.941683
 30
0.0
  0
SPLINE
  5
148
100
AcDbEntity
  8
0
 62
7
100
AcDbSpline
 70
8
 71
3
 72
8
 73
4
 74
0
 40
0
 40
0
 40
0
 40
0
 40
1
 40
1
 40
1
 40
1
 10
-114.712500
 20
163.941683
 30
0.0
 10
-115.524678
 20
164.410594
 30
0.0
 10
-116.025000
 20
165.277178
 30
0.0
 10
-116.025000
 20
166.215000
 30
0.0
  0
SPLINE
  5
149
100
AcDbEntity
  8
0
 62
7
100
AcDbSpline
 70
8
 71
3
 72
8
 73
4
 74
0
 40
0
 40
0
 40
0
 40
0
 40
1
 40
1
 40
1
 40
1
 10
-116.025000
 20
166.215000
 30
0.0
 10
-116.025000
 20
167.152822
 30
0.0
 10
-115.524678
 20
168.019406
 30
0.0
 10
-114.712500
 20
168.488317
 30
0.0
  0
SPLINE
  5
14a
100
AcDbEntity
  8
0
 62
7
100
AcDbSpline
 70
8
 71
3
 72
8
 73
4
 74
0
 40
0
 40
0
 40
0
 40
0
 40
1
 40
1
 40
1
 40
1
 10
-114.712500
 20
168.488317
 30
0.0
 10
-113.900322
 20
168.957228
 30
0.0
 10
-112.899678
 20
168.957228
 30
0.0
 10
-112.087500
 20
168.488317
 30
0.0
  0
SPLINE
  5
14b
100
AcDbEntity
  8
0
 62
7
100
AcDbSpline
 70
8
 71
3
 72
8
 73
4
 74
0
 40
0
 40
0
 40
0
 40
0
 40
1
 40
1
 40
1
 40
1
 10
-112.087500
 20
168.488317
 30
0.0
 10
-111.275322
 20
168.019406
 30
0.0
 10
-110.775000
 20
167.152822
 30
0.0
 10
-110.775000
 20
166.215000
 30
0.0
  0
LWPOLYLINE
  5
14c
100
AcDbEntity
  8
0
 62
7
100
AcDbPolyline
 90
1
 70
1
 10
-186.375000
 20
148.365000
 30
0.0
  0
SPLINE
  5
14d
100
AcDbEntity
  8
0
 62
7
100
AcDbSpline
 70
8
 71
3
 72
8
 73
4
 74
0
 40
0
 40
0
 40
0
 40
0
 40
1
 40
1
 40
1
 40
1
 10
-76.125000
 20
234.990000
 30
0.0
 10
-76.125000
 20
234.052178
 30
0.0
 10
-76.625322
 20
233.185594
 30
0.0
 10
-77.437500
 20
232.716683
 30
0.0
  0
SPLINE
  5
14e
100
AcDbEntity
  8
0
 62
7
100
AcDbSpline
 70
8
 71
3
 72
8
 73
4
 74
0
 40
0
 40
0
 40
0
 40
0
 40
1
 40
1
 40
1
 40
1
 10
-77.437500
 20
232.716683
 30
0.0
 10
-78.249678
 20
232.247772
 30
0.0
 10
-79.250322
 20
232.247772
 30
0.0
 10
-80.062500
 20
232.716683
 30
0.0
  0
SPLINE
  5
14f
100
AcDbEntity
  8
0
 62
7
100
AcDbSpline
 70
8
 71
3
 72
8
 73
4
 74
0
 40
0
 40
0
 40
0
 40
0
 40
1
 40
1
 40
1
 40
1
 10
-80.062500
 20
232.716683
 30
0.0
 10
-80.874678
 20
233.185594
 30
0.0
 10
-81.375000
 20
234.052178
 30
0.0
 10
-81.375000
 20
234.990000
 30
0.0
  0
SPLINE
  5
150
100
AcDbEntity
  8
0
 62
7
100
AcDbSpline
 70
8
 71
3
 72
8
 73
4
 74
0
 40
0
 40
0
 40
0
 40
0
 40
1
 40
1
 40
1
 40
1
 10
-81.375000
 20
234.990000
 30
0.0
 10
-81.375000
 20
235.927822
 30
0.0
 10
-80.874678
 20
236.794406
 30
0.0
 10
-80.062500
 20
237.263317
 30
0.0
  0
SPLINE
  5
151
100
AcDbEntity
  8
0
 62
7
100
AcDbSpline
 70
8
 71
3
 72
8
 73
4
 74
0
 40
0
 40
0
 40
0
 40
0
 40
1
 40
1
 40
1
 40
1
 10
-80.062500
 20
237.263317
 30
0.0
 10
-79.250322
 20
237.732228
 30
0.0
 10
-78.249678
 20
237.732228
 30
0.0
 10
-77.437500
 20
237.263317
 30
0.0
  0
SPLINE
  5
152
100
AcDbEntity
  8
0
 62
7
100
AcDbSpline
 70
8
 71
3
 72
8
 73
4
 74
0
 40
0
 40
0
 40
0
 40
0
 40
1
 40
1
 40
1
 40
1
 10
-77.437500
 20
237.263317
 30
0.0
 10
-76.625322
 20
236.794406
 30
0.0
 10
-76.125000
 20
235.927822
 30
0.0
 10
-76.125000
 20
234.990000
 30
0.0
  0
LWPOLYLINE
  5
153
100
AcDbEntity
  8
0
 62
7
100
AcDbPolyline
 90
1
 70
1
 10
-110.775000
 20
166.215000
 30
0.0
  0
SPLINE
  5
154
100
AcDbEntity
  8
0
 62
7
100
AcDbSpline
 70
8
 71
3
 72
8
 73
4
 74
0
 40
0
 40
0
 40
0
 40
0
 40
1
 40
1
 40
1
 40
1
 10
2.625000
 20
286.440000
 30
0.0
 10
2.625000
 20
285.502178
 30
0.0
 10
2.124678
 20
284.635594
 30
0.0
 10
1.312500
 20
284.166683
 30
0.0
  0
SPLINE
  5
155
100
AcDbEntity
  8
0
 62
7
100
AcDbSpline
 70
8
 71
3
 72
8
 73
4
 74
0
 40
0
 40
0
 40
0
 40
0
 40
1
 40
1
 40
1
 40
1
 10
1.312500
 20
284.166683
 30
0.0
 10
0.500322
 20
283.697772
 30
0.0
 10
-0.500322
 20
283.697772
 30
0.0
 10
-1.312500
 20
284.166683
 30
0.0
  0
SPLINE
  5
156
100
AcDbEntity
  8
0
 62
7
100
AcDbSpline
 70
8
 71
3
 72
8
 73
4
 74
0
 40
0
 40
0
 40
0
 40
0
 40
1
 40
1
 40
1
 40
1
 10
-1.312500
 20
284.166683
 30
0.0
 10
-2.124678
 20
284.635594
 30
0.0
 10
-2.625000
 20
285.502178
 30
0.0
 10
-2.625000
 20
286.440000
 30
0.0
  0
SPLINE
  5
157
100
AcDbEntity
  8
0
 62
7
100
AcDbSpline
 70
8
 71
3
 72
8
 73
4
 74
0
 40
0
 40
0
 40
0
 40
0
 40
1
 40
1
 40
1
 40
1
 10
-2.625000
 20
286.440000
 30
0.0
 10
-2.625000
 20
287.377822
 30
0.0
 10
-2.124678
 20
288.244406
 30
0.0
 10
-1.312500
 20
288.713317
 30
0.0
  0
SPLINE
  5
158
100
AcDbEntity
  8
0
 62
7
100
AcDbSpline
 70
8
 71
3
 72
8
 73
4
 74
0
 40
0
 40
0
 40
0
 40
0
 40
1
 40
1
 40
1
 40
1
 10
-1.312500
 20
288.713317
 30
0.0
 10
-0.500322
 20
289.182228
 30
0.0
 10
0.500322
 20
289.182228
 30
0.0
 10
1.312500
 20
288.713317
 30
0.0
  0
SPLINE
  5
159
100
AcDbEntity
  8
0
 62
7
100
AcDbSpline
 70
8
 71
3
 72
8
 73
4
 74
0
 40
0
 40
0
 40
0
 40
0
 40
1
 40
1
 40
1
 40
1
 10
1.312500
 20
288.713317
 30
0.0
 10
2.124678
 20
288.244406
 30
0.0
 10
2.625000
 20
287.377822
 30
0.0
 10
2.625000
 20
286.440000
 30
0.0
  0
LWPOLYLINE
  5
15a
100
AcDbEntity
  8
0
 62
7
100
AcDbPolyline
 90
1
 70
1
 10
-76.125000
 20
234.990000
 30
0.0
  0
SPLINE
  5
15b
100
AcDbEntity
  8
0
 62
7
100
AcDbSpline
 70
8
 71
3
 72
8
 73
4
 74
0
 40
0
 40
0
 40
0
 40
0
 40
1
 40
1
 40
1
 40
1
 10
81.375000
 20
234.990000
 30
0.0
 10
81.375000
 20
234.052178
 30
0.0
 10
80.874678
 20
233.185594
 30
0.0
 10
80.062500
 20
232.716683
 30
0.0
  0
SPLINE
  5
15c
100
AcDbEntity
  8
0
 62
7
100
AcDbSpline
 70
8
 71
3
 72
8
 73
4
 74
0
 40
0
 40
0
 40
0
 40
0
 40
1
 40
1
 40
1
 40
1
 10
80.062500
 20
232.716683
 30
0.0
 10
79.250322
 20
232.247772
 30
0.0
 10
78.249678
 20
232.247772
 30
0.0
 10
77.437500
 20
232.716683
 30
0.0
  0
SPLINE
  5
15d
100
AcDbEntity
  8
0
 62
7
100
AcDbSpline
 70
8
 71
3
 72
8
 73
4
 74
0
 40
0
 40
0
 40
0
 40
0
 40
1
 40
1
 40
1
 40
1
 10
77.437500
 20
232.716683
 30
0.0
 10
76.625322
 20
233.185594
 30
0.0
 10
76.125000
 20
234.052178
 30
0.0
 10
76.125000
 20
234.990000
 30
0.0
  0
SPLINE
  5
15e
100
AcDbEntity
  8
0
 62
7
100
AcDbSpline
 70
8
 71
3
 72
8
 73
4
 74
0
 40
0
 40
0
 40
0
 40
0
 40
1
 40
1
 40
1
 40
1
 10
76.125000
 20
234.990000
 30
0.0
 10
76.125000
 20
235.927822
 30
0.0
 10
76.625322
 20
236.794406
 30
0.0
 10
77.437500
 20
237.263317
 30
0.0
  0
SPLINE
  5
15f
100
AcDbEntity
  8
0
 62
7
100
AcDbSpline
 70
8
 71
3
 72
8
 73
4
 74
0
 40
0
 40
0
 40
0
 40
0
 40
1
 40
1
 40
1
 40
1
 10
77.437500
 20
237.263317
 30
0.0
 10
78.249678
 20
237.732228
 30
0.0
 10
79.250322
 20
237.732228
 30
0.0
 10
80.062500
 20
237.263317
 30
0.0
  0
SPLINE
  5
160
100
AcDbEntity
  8
0
 62
7
100
AcDbSpline
 70
8
 71
3
 72
8
 73
4
 74
0
 40
0
 40
0
 40
0
 40
0
 40
1
 40
1
 40
1
 40
1
 10
80.062500
 20
237.263317
 30
0.0
 10
80.874678
 20
236.794406
 30
0.0
 10
81.375000
 20
235.927822
 30
0.0
 10
81.375000
 20
234.990000
 30
0.0
  0
LWPOLYLINE
  5
161
100
AcDbEntity
  8
0
 62
7
100
AcDbPolyline
 90
1
 70
1
 10
2.625000
 20
286.440000
 30
0.0
  0
SPLINE
  5
162
100
AcDbEntity
  8
0
 62
7
100
AcDbSpline
 70
8
 71
3
 72
8
 73
4
 74
0
 40
0
 40
0
 40
0
 40
0
 40
1
 40
1
 40
1
 40
1
 10
116.025000
 20
166.215000
 30
0.0
 10
116.025000
 20
165.277178
 30
0.0
 10
115.524678
 20
164.410594
 30
0.0
 10
114.712500
 20
163.941683
 30
0.0
  0
SPLINE
  5
163
100
AcDbEntity
  8
0
 62
7
100
AcDbSpline
 70
8
 71
3
 72
8
 73
4
 74
0
 40
0
 40
0
 40
0
 40
0
 40
1
 40
1
 40
1
 40
1
 10
114.712500
 20
163.941683
 30
0.0
 10
113.900322
 20
163.472772
 30
0.0
 10
112.899678
 20
163.472772
 30
0.0
 10
112.087500
 20
163.941683
 30
0.0
  0
SPLINE
  5
164
100
AcDbEntity
  8
0
 62
7
100
AcDbSpline
 70
8
 71
3
 72
8
 73
4
 74
0
 40
0
 40
0
 40
0
 40
0
 40
1
 40
1
 40
1
 40
1
 10
112.087500
 20
163.941683
 30
0.0
 10
111.275322
 20
164.410594
 30
0.0
 10
110.775000
 20
165.277178
 30
0.0
 10
110.775000
 20
166.215000
 30
0.0
  0
SPLINE
  5
165
100
AcDbEntity
  8
0
 62
7
100
AcDbSpline
 70
8
 71
3
 72
8
 73
4
 74
0
 40
0
 40
0
 40
0
 40
0
 40
1
 40
1
 40
1
 40
1
 10
110.775000
 20
166.215000
 30
0.0
 10
110.775000
 20
167.152822
 30
0.0
 10
111.275322
 20
168.019406
 30
0.0
 10
112.087500
 20
168.488317
 30
0.0
  0
SPLINE
  5
166
100
AcDbEntity
  8
0
 62
7
100
AcDbSpline
 70
8
 71
3
 72
8
 73
4
 74
0
 40
0
 40
0
 40
0
 40
0
 40
1
 40
1
 40
1
 40
1
 10
112.087500
 20
168.488317
 30
0.0
 10
112.899678
 20
168.957228
 30
0.0
 10
113.900322
 20
168.957228
 30
0.0
 10
114.712500
 20
168.488317
 30
0.0
  0
SPLINE
  5
167
100
AcDbEntity
  8
0
 62
7
100
AcDbSpline
 70
8
 71
3
 72
8
 73
4
 74
0
 40
0
 40
0
 40
0
 40
0
 40
1
 40
1
 40
1
 40
1
 10
114.712500
 20
168.488317
 30
0.0
 10
115.524678
 20
168.019406
 30
0.0
 10
116.025000
 20
167.152822
 30
0.0
 10
116.025000
 20
166.215000
 30
0.0
  0
LWPOLYLINE
  5
168
100
AcDbEntity
  8
0
 62
7
100
AcDbPolyline
 90
1
 70
1
 10
81.375000
 20
234.990000
 30
0.0
  0
SPLINE
  5
169
100
AcDbEntity
  8
0
 62
7
100
AcDbSpline
 70
8
 71
3
 72
8
 73
4
 74
0
 40
0
 40
0
 40
0
 40
0
 40
1
 40
1
 40
1
 40
1
 10
191.625000
 20
148.365000
 30
0.0
 10
191.625000
 20
147.427178
 30
0.0
 10
191.124678
 20
146.560594
 30
0.0
 10
190.312500
 20
146.091683
 30
0.0
  0
SPLINE
  5
16a
100
AcDbEntity
  8
0
 62
7
100
AcDbSpline
 70
8
 71
3
 72
8
 73
4
 74
0
 40
0
 40
0
 40
0
 40
0
 40
1
 40
1
 40
1
 40
1
 10
190.312500
 20
146.091683
 30
0.0
 10
189.500322
 20
145.622772
 30
0.0
 10
188.499678
 20
145.622772
 30
0.0
 10
187.687500
 20
146.091683
 30
0.0
  0
SPLINE
  5
16b
100
AcDbEntity
  8
0
 62
7
100
AcDbSpline
 70
8
 71
3
 72
8
 73
4
 74
0
 40
0
 40
0
 40
0
 40
0
 40
1
 40
1
 40
1
 40
1
 10
187.687500
 20
146.091683
 30
0.0
 10
186.875322
 20
146.560594
 30
0.0
 10
186.375000
 20
147.427178
 30
0.0
 10
186.375000
 20
148.365000
 30
0.0
  0
SPLINE
  5
16c
100
AcDbEntity
  8
0
 62
7
100
AcDbSpline
 70
8
 71
3
 72
8
 73
4
 74
0
 40
0
 40
0
 40
0
 40
0
 40
1
 40
1
 40
1
 40
1
 10
186.375000
 20
148.365000
 30
0.0
 10
186.375000
 20
149.302822
 30
0.0
 10
186.875322
 20
150.169406
 30
0.0
 10
187.687500
 20
150.638317
 30
0.0
  0
SPLINE
  5
16d
100
AcDbEntity
  8
0
 62
7
100
AcDbSpline
 70
8
 71
3
 72
8
 73
4
 74
0
 40
0
 40
0
 40
0
 40
0
 40
1
 40
1
 40
1
 40
1
 10
187.687500
 20
150.638317
 30
0.0
 10
188.499678
 20
151.107228
 30
0.0
 10
189.500322
 20
151.107228
 30
0.0
 10
190.312500
 20
150.638317
 30
0.0
  0
SPLINE
  5
16e
100
AcDbEntity
  8
0
 62
7
100
AcDbSpline
 70
8
 71
3
 72
8
 73
4
 74
0
 40
0
 40
0
 40
0
 40
0
 40
1
 40
1
 40
1
 40
1
 10
190.312500
 20
150.638317
 30
0.0
 10
191.124678
 20
150.169406
 30
0.0
 10
191.625000
 20
149.302822
 30
0.0
 10
191.625000
 20
148.365000
 30
0.0
  0
LWPOLYLINE
  5
16f
100
AcDbEntity
  8
0
 62
7
100
AcDbPolyline
 90
1
 70
1
 10
116.025000
 20
166.215000
 30
0.0
  0
SPLINE
  5
170
100
AcDbEntity
  8
0
 62
7
100
AcDbSpline
 70
8
 71
3
 72
8
 73
4
 74
0
 40
0
 40
0
 40
0
 40
0
 40
1
 40
1
 40
1
 40
1
 10
197.925000
 20
69.615000
 30
0.0
 10
197.925000
 20
68.677178
 30
0.0
 10
197.424678
 20
67.810594
 30
0.0
 10
196.612500
 20
67.341683
 30
0.0
  0
SPLINE
  5
171
100
AcDbEntity
  8
0
 62
7
100
AcDbSpline
 70
8
 71
3
 72
8
 73
4
 74
0
 40
0
 40
0
 40
0
 40
0
 40
1
 40
1
 40
1
 40
1
 10
196.612500
 20
67.341683
 30
0.0
 10
195.800322
 20
66.872772
 30
0.0
 10
194.799678
 20
66.872772
 30
0.0
 10
193.987500
 20
67.341683
 30
0.0
  0
SPLINE
  5
172
100
AcDbEntity
  8
0
 62
7
100
AcDbSpline
 70
8
 71
3
 72
8
 73
4
 74
0
 40
0
 40
0
 40
0
 40
0
 40
1
 40
1
 40
1
 40
1
 10
193.987500
 20
67.341683
 30
0.0
 10
193.175322
 20
67.810594
 30
0.0
 10
192.675000
 20
68.677178
 30
0.0
 10
192.675000
 20
69.615000
 30
0.0
  0
SPLINE
  5
173
100
AcDbEntity
  8
0
 62
7
100
AcDbSpline
 70
8
 71
3
 72
8
 73
4
 74
0
 40
0
 40
0
 40
0
 40
0
 40
1
 40
1
 40
1
 40
1
 10
192.675000
 20
69.615000
 30
0.0
 10
192.675000
 20
70.552822
 30
0.0
 10
193.175322
 20
71.419406
 30
0.0
 10
193.987500
 20
71.888317
 30
0.0
  0
SPLINE
  5
174
100
AcDbEntity
  8
0
 62
7
100
AcDbSpline
 70
8
 71
3
 72
8
 73
4
 74
0
 40
0
 40
0
 40
0
 40
0
 40
1
 40
1
 40
1
 40
1
 10
193.987500
 20
71.888317
 30
0.0
 10
194.799678
 20
72.357228
 30
0.0
 10
195.800322
 20
72.357228
 30
0.0
 10
196.612500
 20
71.888317
 30
0.0
  0
SPLINE
  5
175
100
AcDbEntity
  8
0
 62
7
100
AcDbSpline
 70
8
 71
3
 72
8
 73
4
 74
0
 40
0
 40
0
 40
0
 40
0
 40
1
 40
1
 40
1
 40
1
 10
196.612500
 20
71.888317
 30
0.0
 10
197.424678
 20
71.419406
 30
0.0
 10
197.925000
 20
70.552822
 30
0.0
 10
197.925000
 20
69.615000
 30
0.0
  0
LWPOLYLINE
  5
176
100
AcDbEntity
  8
0
 62
7
100
AcDbPolyline
 90
1
 70
1
 10
191.625000
 20
148.365000
 30
0.0
  0
SPLINE
  5
177
100
AcDbEntity
  8
0
 62
7
100
AcDbSpline
 70
8
 71
3
 72
8
 73
4
 74
0
 40
0
 40
0
 40
0
 40
0
 40
1
 40
1
 40
1
 40
1
 10
109.200000
 20
-51.660000
 30
0.0
 10
109.200000
 20
-52.597822
 30
0.0
 10
108.699678
 20
-53.464406
 30
0.0
 10
107.887500
 20
-53.933317
 30
0.0
  0
SPLINE
  5
178
100
AcDbEntity
  8
0
 62
7
100
AcDbSpline
 70
8
 71
3
 72
8
 73
4
 74
0
 40
0
 40
0
 40
0
 40
0
 40
1
 40
1
 40
1
 40
1
 10
107.887500
 20
-53.933317
 30
0.0
 10
107.075322
 20
-54.402228
 30
0.0
 10
106.074678
 20
-54.402228
 30
0.0
 10
105.262500
 20
-53.933317
 30
0.0
  0
SPLINE
  5
179
100
AcDbEntity
  8
0
 62
7
100
AcDbSpline
 70
8
 71
3
 72
8
 73
4
 74
0
 40
0
 40
0
 40
0
 40
0
 40
1
 40
1
 40
1
 40
1
 10
105.262500
 20
-53.933317
 30
0.0
 10
104.450322
 20
-53.464406
 30
0.0
 10
103.950000
 20
-52.597822
 30
0.0
 10
103.950000
 20
-51.660000
 30
0.0
  0
SPLINE
  5
17a
100
AcDbEntity
  8
0
 62
7
100
AcDbSpline
 70
8
 71
3
 72
8
 73
4
 74
0
 40
0
 40
0
 40
0
 40
0
 40
1
 40
1
 40
1
 40
1
 10
103.950000
 20
-51.660000
 30
0.0
 10
103.950000
 20
-50.722178
 30
0.0
 10
104.450322
 20
-49.855594
 30
0.0
 10
105.262500
 20
-49.386683
 30
0.0
  0
SPLINE
  5
17b
100
AcDbEntity
  8
0
 62
7
100
AcDbSpline
 70
8
 71
3
 72
8
 73
4
 74
0
 40
0
 40
0
 40
0
 40
0
 40
1
 40
1
 40
1
 40
1
 10
105.262500
 20
-49.386683
 30
0.0
 10
106.074678
 20
-48.917772
 30
0.0
 10
107.075322
 20
-48.917772
 30
0.0
 10
107.887500
 20
-49.386683
 30
0.0
  0
SPLINE
  5
17c
100
AcDbEntity
  8
0
 62
7
100
AcDbSpline
 70
8
 71
3
 72
8
 73
4
 74
0
 40
0
 40
0
 40
0
 40
0
 40
1
 40
1
 40
1
 40
1
 10
107.887500
 20
-49.386683
 30
0.0
 10
108.699678
 20
-49.855594
 30
0.0
 10
109.200000
 20
-50.722178
 30
0.0
 10
109.200000
 20
-51.660000
 30
0.0
  0
LWPOLYLINE
  5
17d
100
AcDbEntity
  8
0
 62
7
100
AcDbPolyline
 90
1
 70
1
 10
197.925000
 20
69.615000
 30
0.0
  0
SPLINE
  5
17e
100
AcDbEntity
  8
0
 62
7
100
AcDbSpline
 70
8
 71
3
 72
8
 73
4
 74
0
 40
0
 40
0
 40
0
 40
0
 40
1
 40
1
 40
1
 40
1
 10
12.075000
 20
-136.710000
 30
0.0
 10
12.075000
 20
-137.647822
 30
0.0
 10
11.574678
 20
-138.514406
 30
0.0
 10
10.762500
 20
-138.983317
 30
0.0
  0
SPLINE
  5
17f
100
AcDbEntity
  8
0
 62
7
100
AcDbSpline
 70
8
 71
3
 72
8
 73
4
 74
0
 40
0
 40
0
 40
0
 40
0
 40
1
 40
1
 40
1
 40
1
 10
10.762500
 20
-138.983317
 30
0.0
 10
9.950322
 20
-139.452228
 30
0.0
 10
8.949678
 20
-139.452228
 30
0.0
 10
8.137500
 20
-138.983317
 30
0.0
  0
SPLINE
  5
180
100
AcDbEntity
  8
0
 62
7
100
AcDbSpline
 70
8
 71
3
 72
8
 73
4
 74
0
 40
0
 40
0
 40
0
 40
0
 40
1
 40
1
 40
1
 40
1
 10
8.137500
 20
-138.983317
 30
0.0
 10
7.325322
 20
-138.514406
 30
0.0
 10
6.825000
 20
-137.647822
 30
0.0
 10
6.825000
 20
-136.710000
 30
0.0
  0
SPLINE
  5
181
100
AcDbEntity
  8
0
 62
7
100
AcDbSpline
 70
8
 71
3
 72
8
 73
4
 74
0
 40
0
 40
0
 40
0
 40
0
 40
1
 40
1
 40
1
 40
1
 10
6.825000
 20
-136.710000
 30
0.0
 10
6.825000
 20
-135.772178
 30
0.0
 10
7.325322
 20
-134.905594
 30
0.0
 10
8.137500
 20
-134.436683
 30
0.0
  0
SPLINE
  5
182
100
AcDbEntity
  8
0
 62
7
100
AcDbSpline
 70
8
 71
3
 72
8
 73
4
 74
0
 40
0
 40
0
 40
0
 40
0
 40
1
 40
1
 40
1
 40
1
 10
8.137500
 20
-134.436683
 30
0.0
 10
8.949678
 20
-133.967772
 30
0.0
 10
9.950322
 20
-133.967772
 30
0.0
 10
10.762500
 20
-134.436683
 30
0.0
  0
SPLINE
  5
183
100
AcDbEntity
  8
0
 62
7
100
AcDbSpline
 70
8
 71
3
 72
8
 73
4
 74
0
 40
0
 40
0
 40
0
 40
0
 40
1
 40
1
 40
1
 40
1
 10
10.762500
 20
-134.436683
 30
0.0
 10
11.574678
 20
-134.905594
 30
0.0
 10
12.075000
 20
-135.772178
 30
0.0
 10
12.075000
 20
-136.710000
 30
0.0
  0
LWPOLYLINE
  5
184
100
AcDbEntity
  8
0
 62
7
100
AcDbPolyline
 90
1
 70
1
 10
109.200000
 20
-51.660000
 30
0.0
  0
SPLINE
  5
185
100
AcDbEntity
  8
0
 62
7
100
AcDbSpline
 70
8
 71
3
 72
8
 73
4
 74
0
 40
0
 40
0
 40
0
 40
0
 40
1
 40
1
 40
1
 40
1
 10
2.625000
 20
76.440000
 30
0.0
 10
2.625000
 20
75.502178
 30
0.0
 10
2.124678
 20
74.635594
 30
0.0
 10
1.312500
 20
74.166683
 30
0.0
  0
SPLINE
  5
186
100
AcDbEntity
  8
0
 62
7
100
AcDbSpline
 70
8
 71
3
 72
8
 73
4
 74
0
 40
0
 40
0
 40
0
 40
0
 40
1
 40
1
 40
1
 40
1
 10
1.312500
 20
74.166683
 30
0.0
 10
0.500322
 20
73.697772
 30
0.0
 10
-0.500322
 20
73.697772
 30
0.0
 10
-1.312500
 20
74.166683
 30
0.0
  0
SPLINE
  5
187
100
AcDbEntity
  8
0
 62
7
100
AcDbSpline
 70
8
 71
3
 72
8
 73
4
 74
0
 40
0
 40
0
 40
0
 40
0
 40
1
 40
1
 40
1
 40
1
 10
-1.312500
 20
74.166683
 30
0.0
 10
-2.124678
 20
74.635594
 30
0.0
 10
-2.625000
 20
75.502178
 30
0.0
 10
-2.625000
 20
76.440000
 30
0.0
  0
SPLINE
  5
188
100
AcDbEntity
  8
0
 62
7
100
AcDbSpline
 70
8
 71
3
 72
8
 73
4
 74
0
 40
0
 40
0
 40
0
 40
0
 40
1
 40
1
 40
1
 40
1
 10
-2.625000
 20
76.440000
 30
0.0
 10
-2.625000
 20
77.377822
 30
0.0
 10
-2.124678
 20
78.244406
 30
0.0
 10
-1.312500
 20
78.713317
 30
0.0
  0
SPLINE
  5
189
100
AcDbEntity
  8
0
 62
7
100
AcDbSpline
 70
8
 71
3
 72
8
 73
4
 74
0
 40
0
 40
0
 40
0
 40
0
 40
1
 40
1
 40
1
 40
1
 10
-1.312500
 20
78.713317
 30
0.0
 10
-0.500322
 20
79.182228
 30
0.0
 10
0.500322
 20
79.182228
 30
0.0
 10
1.312500
 20
78.713317
 30
0.0
  0
SPLINE
  5
18a
100
AcDbEntity
  8
0
 62
7
100
AcDbSpline
 70
8
 71
3
 72
8
 73
4
 74
0
 40
0
 40
0
 40
0
 40
0
 40
1
 40
1
 40
1
 40
1
 10
1.312500
 20
78.713317
 30
0.0
 10
2.124678
 20
78.244406
 30
0.0
 10
2.625000
 20
77.377822
 30
0.0
 10
2.625000
 20
76.440000
 30
0.0
  0
LWPOLYLINE
  5
18b
100
AcDbEntity
  8
0
 62
7
100
AcDbPolyline
 90
1
 70
1
 10
12.075000
 20
-136.710000
 30
0.0
  0
SPLINE
  5
18c
100
AcDbEntity
  8
0
 62
7
100
AcDbSpline
 70
8
 71
3
 72
8
 73
4
 74
0
 40
0
 40
0
 40
0
 40
0
 40
1
 40
1
 40
1
 40
1
 10
-12.495000
 20
-45.570000
 30
0.0
 10
-12.495000
 20
-46.320258
 30
0.0
 10
-12.895258
 20
-47.013524
 30
0.0
 10
-13.545000
 20
-47.388653
 30
0.0
  0
SPLINE
  5
18d
100
AcDbEntity
  8
0
 62
7
100
AcDbSpline
 70
8
 71
3
 72
8
 73
4
 74
0
 40
0
 40
0
 40
0
 40
0
 40
1
 40
1
 40
1
 40
1
 10
-13.545000
 20
-47.388653
 30
0.0
 10
-14.194742
 20
-47.763782
 30
0.0
 10
-14.995258
 20
-47.763782
 30
0.0
 10
-15.645000
 20
-47.388653
 30
0.0
  0
SPLINE
  5
18e
100
AcDbEntity
  8
0
 62
7
100
AcDbSpline
 70
8
 71
3
 72
8
 73
4
 74
0
 40
0
 40
0
 40
0
 40
0
 40
1
 40
1
 40
1
 40
1
 10
-15.645000
 20
-47.388653
 30
0.0
 10
-16.294742
 20
-47.013524
 30
0.0
 10
-16.695000
 20
-46.320258
 30
0.0
 10
-16.695000
 20
-45.570000
 30
0.0
  0
SPLINE
  5
18f
100
AcDbEntity
  8
0
 62
7
100
AcDbSpline
 70
8
 71
3
 72
8
 73
4
 74
0
 40
0
 40
0
 40
0
 40
0
 40
1
 40
1
 40
1
 40
1
 10
-16.695000
 20
-45.570000
 30
0.0
 10
-16.695000
 20
-44.819742
 30
0.0
 10
-16.294742
 20
-44.126476
 30
0.0
 10
-15.645000
 20
-43.751347
 30
0.0
  0
SPLINE
  5
190
100
AcDbEntity
  8
0
 62
7
100
AcDbSpline
 70
8
 71
3
 72
8
 73
4
 74
0
 40
0
 40
0
 40
0
 40
0
 40
1
 40
1
 40
1
 40
1
 10
-15.645000
 20
-43.751347
 30
0.0
 10
-14.995258
 20
-43.376218
 30
0.0
 10
-14.194742
 20
-43.376218
 30
0.0
 10
-13.545000
 20
-43.751347
 30
0.0
  0
SPLINE
  5
191
100
AcDbEntity
  8
0
 62
7
100
AcDbSpline
 70
8
 71
3
 72
8
 73
4
 74
0
 40
0
 40
0
 40
0
 40
0
 40
1
 40
1
 40
1
 40
1
 10
-13.545000
 20
-43.751347
 30
0.0
 10
-12.895258
 20
-44.126476
 30
0.0
 10
-12.495000
 20
-44.819742
 30
0.0
 10
-12.495000
 20
-45.570000
 30
0.0
  0
LWPOLYLINE
  5
192
100
AcDbEntity
  8
0
 62
7
100
AcDbPolyline
 90
1
 70
1
 10
2.625000
 20
76.440000
 30
0.0
  0
SPLINE
  5
193
100
AcDbEntity
  8
0
 62
7
100
AcDbSpline
 70
8
 71
3
 72
8
 73
4
 74
0
 40
0
 40
0
 40
0
 40
0
 40
1
 40
1
 40
1
 40
1
 10
-98.595000
 20
-15.645000
 30
0.0
 10
-98.595000
 20
-16.395258
 30
0.0
 10
-98.995258
 20
-17.088524
 30
0.0
 10
-99.645000
 20
-17.463653
 30
0.0
  0
SPLINE
  5
194
100
AcDbEntity
  8
0
 62
7
100
AcDbSpline
 70
8
 71
3
 72
8
 73
4
 74
0
 40
0
 40
0
 40
0
 40
0
 40
1
 40
1
 40
1
 40
1
 10
-99.645000
 20
-17.463653
 30
0.0
 10
-100.294742
 20
-17.838782
 30
0.0
 10
-101.095258
 20
-17.838782
 30
0.0
 10
-101.745000
 20
-17.463653
 30
0.0
  0
SPLINE
  5
195
100
AcDbEntity
  8
0
 62
7
100
AcDbSpline
 70
8
 71
3
 72
8
 73
4
 74
0
 40
0
 40
0
 40
0
 40
0
 40
1
 40
1
 40
1
 40
1
 10
-101.745000
 20
-17.463653
 30
0.0
 10
-102.394742
 20
-17.088524
 30
0.0
 10
-102.795000
 20
-16.395258
 30
0.0
 10
-102.795000
 20
-15.645000
 30
0.0
  0
SPLINE
  5
196
100
AcDbEntity
  8
0
 62
7
100
AcDbSpline
 70
8
 71
3
 72
8
 73
4
 74
0
 40
0
 40
0
 40
0
 40
0
 40
1
 40
1
 40
1
 40
1
 10
-102.795000
 20
-15.645000
 30
0.0
 10
-102.795000
 20
-14.894742
 30
0.0
 10
-102.394742
 20
-14.201476
 30
0.0
 10
-101.745000
 20
-13.826347
 30
0.0
  0
SPLINE
  5
197
100
AcDbEntity
  8
0
 62
7
100
AcDbSpline
 70
8
 71
3
 72
8
 73
4
 74
0
 40
0
 40
0
 40
0
 40
0
 40
1
 40
1
 40
1
 40
1
 10
-101.745000
 20
-13.826347
 30
0.0
 10
-101.095258
 20
-13.451218
 30
0.0
 10
-100.294742
 20
-13.451218
 30
0.0
 10
-99.645000
 20
-13.826347
 30
0.0
  0
SPLINE
  5
198
100
AcDbEntity
  8
0
 62
7
100
AcDbSpline
 70
8
 71
3
 72
8
 73
4
 74
0
 40
0
 40
0
 40
0
 40
0
 40
1
 40
1
 40
1
 40
1
 10
-99.645000
 20
-13.826347
 30
0.0
 10
-98.995258
 20
-14.201476
 30
0.0
 10
-98.595000
 20
-14.894742
 30
0.0
 10
-98.595000
 20
-15.645000
 30
0.0
  0
LWPOLYLINE
  5
199
100
AcDbEntity
  8
0
 62
7
100
AcDbPolyline
 90
1
 70
1
 10
-12.495000
 20
-45.570000
 30
0.0
  0
SPLINE
  5
19a
100
AcDbEntity
  8
0
 62
7
100
AcDbSpline
 70
8
 71
3
 72
8
 73
4
 74
0
 40
0
 40
0
 40
0
 40
0
 40
1
 40
1
 40
1
 40
1
 10
-173.775000
 20
86.100000
 30
0.0
 10
-173.775000
 20
85.349742
 30
0.0
 10
-174.175258
 20
84.656476
 30
0.0
 10
-174.825000
 20
84.281347
 30
0.0
  0
SPLINE
  5
19b
100
AcDbEntity
  8
0
 62
7
100
AcDbSpline
 70
8
 71
3
 72
8
 73
4
 74
0
 40
0
 40
0
 40
0
 40
0
 40
1
 40
1
 40
1
 40
1
 10
-174.825000
 20
84.281347
 30
0.0
 10
-175.474742
 20
83.906218
 30
0.0
 10
-176.275258
 20
83.906218
 30
0.0
 10
-176.925000
 20
84.281347
 30
0.0
  0
SPLINE
  5
19c
100
AcDbEntity
  8
0
 62
7
100
AcDbSpline
 70
8
 71
3
 72
8
 73
4
 74
0
 40
0
 40
0
 40
0
 40
0
 40
1
 40
1
 40
1
 40
1
 10
-176.925000
 20
84.281347
 30
0.0
 10
-177.574742
 20
84.656476
 30
0.0
 10
-177.975000
 20
85.349742
 30
0.0
 10
-177.975000
 20
86.100000
 30
0.0
  0
SPLINE
  5
19d
100
AcDbEntity
  8
0
 62
7
100
AcDbSpline
 70
8
 71
3
 72
8
 73
4
 74
0
 40
0
 40
0
 40
0
 40
0
 40
1
 40
1
 40
1
 40
1
 10
-177.975000
 20
86.100000
 30
0.0
 10
-177.975000
 20
86.850258
 30
0.0
 10
-177.574742
 20
87.543524
 30
0.0
 10
-176.925000
 20
87.918653
 30
0.0
  0
SPLINE
  5
19e
100
AcDbEntity
  8
0
 62
7
100
AcDbSpline
 70
8
 71
3
 72
8
 73
4
 74
0
 40
0
 40
0
 40
0
 40
0
 40
1
 40
1
 40
1
 40
1
 10
-176.925000
 20
87.918653
 30
0.0
 10
-176.275258
 20
88.293782
 30
0.0
 10
-175.474742
 20
88.293782
 30
0.0
 10
-174.825000
 20
87.918653
 30
0.0
  0
SPLINE
  5
19f
100
AcDbEntity
  8
0
 62
7
100
AcDbSpline
 70
8
 71
3
 72
8
 73
4
 74
0
 40
0
 40
0
 40
0
 40
0
 40
1
 40
1
 40
1
 40
1
 10
-174.825000
 20
87.918653
 30
0.0
 10
-174.175258
 20
87.543524
 30
0.0
 10
-173.775000
 20
86.850258
 30
0.0
 10
-173.775000
 20
86.100000
 30
0.0
  0
LWPOLYLINE
  5
1a0
100
AcDbEntity
  8
0
 62
7
100
AcDbPolyline
 90
1
 70
1
 10
-98.595000
 20
-15.645000
 30
0.0
  0
SPLINE
  5
1a1
100
AcDbEntity
  8
0
 62
7
100
AcDbSpline
 70
8
 71
3
 72
8
 73
4
 74
0
 40
0
 40
0
 40
0
 40
0
 40
1
 40
1
 40
1
 40
1
 10
-128.520000
 20
142.905000
 30
0.0
 10
-128.520000
 20
142.154742
 30
0.0
 10
-128.920258
 20
141.461476
 30
0.0
 10
-129.570000
 20
141.086347
 30
0.0
  0
SPLINE
  5
1a2
100
AcDbEntity
  8
0
 62
7
100
AcDbSpline
 70
8
 71
3
 72
8
 73
4
 74
0
 40
0
 40
0
 40
0
 40
0
 40
1
 40
1
 40
1
 40
1
 10
-129.570000
 20
141.086347
 30
0.0
 10
-130.219742
 20
140.711218
 30
0.0
 10
-131.020258
 20
140.711218
 30
0.0
 10
-131.670000
 20
141.086347
 30
0.0
  0
SPLINE
  5
1a3
100
AcDbEntity
  8
0
 62
7
100
AcDbSpline
 70
8
 71
3
 72
8
 73
4
 74
0
 40
0
 40
0
 40
0
 40
0
 40
1
 40
1
 40
1
 40
1
 10
-131.670000
 20
141.086347
 30
0.0
 10
-132.319742
 20
141.461476
 30
0.0
 10
-132.720000
 20
142.154742
 30
0.0
 10
-132.720000
 20
142.905000
 30
0.0
  0
SPLINE
  5
1a4
100
AcDbEntity
  8
0
 62
7
100
AcDbSpline
 70
8
 71
3
 72
8
 73
4
 74
0
 40
0
 40
0
 40
0
 40
0
 40
1
 40
1
 40
1
 40
1
 10
-132.720000
 20
142.905000
 30
0.0
 10
-132.720000
 20
143.655258
 30
0.0
 10
-132.319742
 20
144.348524
 30
0.0
 10
-131.670000
 20
144.723653
 30
0.0
  0
SPLINE
  5
1a5
100
AcDbEntity
  8
0
 62
7
100
AcDbSpline
 70
8
 71
3
 72
8
 73
4
 74
0
 40
0
 40
0
 40
0
 40
0
 40
1
 40
1
 40
1
 40
1
 10
-131.670000
 20
144.723653
 30
0.0
 10
-131.020258
 20
145.098782
 30
0.0
 10
-130.219742
 20
145.098782
 30
0.0
 10
-129.570000
 20
144.723653
 30
0.0
  0
SPLINE
  5
1a6
100
AcDbEntity
  8
0
 62
7
100
AcDbSpline
 70
8
 71
3
 72
8
 73
4
 74
0
 40
0
 40
0
 40
0
 40
0
 40
1
 40
1
 40
1
 40
1
 10
-129.570000
 20
144.723653
 30
0.0
 10
-128.920258
 20
144.348524
 30
0.0
 10
-128.520000
 20
143.655258
 30
0.0
 10
-128.520000
 20
142.905000
 30
0.0
  0
LWPOLYLINE
  5
1a7
100
AcDbEntity
  8
0
 62
7
100
AcDbPolyline
 90
1
 70
1
 10
-173.775000
 20
86.100000
 30
0.0
  0
SPLINE
  5
1a8
100
AcDbEntity
  8
0
 62
7
100
AcDbSpline
 70
8
 71
3
 72
8
 73
4
 74
0
 40
0
 40
0
 40
0
 40
0
 40
1
 40
1
 40
1
 40
1
 10
-61.845000
 20
123.165000
 30
0.0
 10
-61.845000
 20
122.414742
 30
0.0
 10
-62.245258
 20
121.721476
 30
0.0
 10
-62.895000
 20
121.346347
 30
0.0
  0
SPLINE
  5
1a9
100
AcDbEntity
  8
0
 62
7
100
AcDbSpline
 70
8
 71
3
 72
8
 73
4
 74
0
 40
0
 40
0
 40
0
 40
0
 40
1
 40
1
 40
1
 40
1
 10
-62.895000
 20
121.346347
 30
0.0
 10
-63.544742
 20
120.971218
 30
0.0
 10
-64.345258
 20
120.971218
 30
0.0
 10
-64.995000
 20
121.346347
 30
0.0
  0
SPLINE
  5
1aa
100
AcDbEntity
  8
0
 62
7
100
AcDbSpline
 70
8
 71
3
 72
8
 73
4
 74
0
 40
0
 40
0
 40
0
 40
0
 40
1
 40
1
 40
1
 40
1
 10
-64.995000
 20
121.346347
 30
0.0
 10
-65.644742
 20
121.721476
 30
0.0
 10
-66.045000
 20
122.414742
 30
0.0
 10
-66.045000
 20
123.165000
 30
0.0
  0
SPLINE
  5
1ab
100
AcDbEntity
  8
0
 62
7
100
AcDbSpline
 70
8
 71
3
 72
8
 73
4
 74
0
 40
0
 40
0
 40
0
 40
0
 40
1
 40
1
 40
1
 40
1
 10
-66.045000
 20
123.165000
 30
0.0
 10
-66.045000
 20
123.915258
 30
0.0
 10
-65.644742
 20
124.608524
 30
0.0
 10
-64.995000
 20
124.983653
 30
0.0
  0
SPLINE
  5
1ac
100
AcDbEntity
  8
0
 62
7
100
AcDbSpline
 70
8
 71
3
 72
8
 73
4
 74
0
 40
0
 40
0
 40
0
 40
0
 40
1
 40
1
 40
1
 40
1
 10
-64.995000
 20
124.983653
 30
0.0
 10
-64.345258
 20
125.358782
 30
0.0
 10
-63.544742
 20
125.358782
 30
0.0
 10
-62.895000
 20
124.983653
 30
0.0
  0
SPLINE
  5
1ad
100
AcDbEntity
  8
0
 62
7
100
AcDbSpline
 70
8
 71
3
 72
8
 73
4
 74
0
 40
0
 40
0
 40
0
 40
0
 40
1
 40
1
 40
1
 40
1
 10
-62.895000
 20
124.983653
 30
0.0
 10
-62.245258
 20
124.608524
 30
0.0
 10
-61.845000
 20
123.915258
 30
0.0
 10
-61.845000
 20
123.165000
 30
0.0
  0
LWPOLYLINE
  5
1ae
100
AcDbEntity
  8
0
 62
7
100
AcDbPolyline
 90
1
 70
1
 10
-128.520000
 20
142.905000
 30
0.0
  0
SPLINE
  5
1af
100
AcDbEntity
  8
0
 62
7
100
AcDbSpline
 70
8
 71
3
 72
8
 73
4
 74
0
 40
0
 40
0
 40
0
 40
0
 40
1
 40
1
 40
1
 40
1
 10
-38.850000
 20
221.025000
 30
0.0
 10
-38.850000
 20
220.274742
 30
0.0
 10
-39.250258
 20
219.581476
 30
0.0
 10
-39.900000
 20
219.206347
 30
0.0
  0
SPLINE
  5
1b0
100
AcDbEntity
  8
0
 62
7
100
AcDbSpline
 70
8
 71
3
 72
8
 73
4
 74
0
 40
0
 40
0
 40
0
 40
0
 40
1
 40
1
 40
1
 40
1
 10
-39.900000
 20
219.206347
 30
0.0
 10
-40.549742
 20
218.831218
 30
0.0
 10
-41.350258
 20
218.831218
 30
0.0
 10
-42.000000
 20
219.206347
 30
0.0
  0
SPLINE
  5
1b1
100
AcDbEntity
  8
0
 62
7
100
AcDbSpline
 70
8
 71
3
 72
8
 73
4
 74
0
 40
0
 40
0
 40
0
 40
0
 40
1
 40
1
 40
1
 40
1
 10
-42.000000
 20
219.206347
 30
0.0
 10
-42.649742
 20
219.581476
 30
0.0
 10
-43.050000
 20
220.274742
 30
0.0
 10
-43.050000
 20
221.025000
 30
0.0
  0
SPLINE
  5
1b2
100
AcDbEntity
  8
0
 62
7
100
AcDbSpline
 70
8
 71
3
 72
8
 73
4
 74
0
 40
0
 40
0
 40
0
 40
0
 40
1
 40
1
 40
1
 40
1
 10
-43.050000
 20
221.025000
 30
0.0
 10
-43.050000
 20
221.775258
 30
0.0
 10
-42.649742
 20
222.468524
 30
0.0
 10
-42.000000
 20
222.843653
 30
0.0
  0
SPLINE
  5
1b3
100
AcDbEntity
  8
0
 62
7
100
AcDbSpline
 70
8
 71
3
 72
8
 73
4
 74
0
 40
0
 40
0
 40
0
 40
0
 40
1
 40
1
 40
1
 40
1
 10
-42.000000
 20
222.843653
 30
0.0
 10
-41.350258
 20
223.218782
 30
0.0
 10
-40.549742
 20
223.218782
 30
0.0
 10
-39.900000
 20
222.843653
 30
0.0
  0
SPLINE
  5
1b4
100
AcDbEntity
  8
0
 62
7
100
AcDbSpline
 70
8
 71
3
 72
8
 73
4
 74
0
 40
0
 40
0
 40
0
 40
0
 40
1
 40
1
 40
1
 40
1
 10
-39.900000
 20
222.843653
 30
0.0
 10
-39.250258
 20
222.468524
 30
0.0
 10
-38.850000
 20
221.775258
 30
0.0
 10
-38.850000
 20
221.025000
 30
0.0
  0
LWPOLYLINE
  5
1b5
100
AcDbEntity
  8
0
 62
7
100
AcDbPolyline
 90
1
 70
1
 10
-61.845000
 20
123.165000
 30
0.0
  0
SPLINE
  5
1b6
100
AcDbEntity
  8
0
 62
7
100
AcDbSpline
 70
8
 71
3
 72
8
 73
4
 74
0
 40
0
 40
0
 40
0
 40
0
 40
1
 40
1
 40
1
 40
1
 10
43.050000
 20
221.025000
 30
0.0
 10
43.050000
 20
220.274742
 30
0.0
 10
42.649742
 20
219.581476
 30
0.0
 10
42.000000
 20
219.206347
 30
0.0
  0
SPLINE
  5
1b7
100
AcDbEntity
  8
0
 62
7
100
AcDbSpline
 70
8
 71
3
 72
8
 73
4
 74
0
 40
0
 40
0
 40
0
 40
0
 40
1
 40
1
 40
1
 40
1
 10
42.000000
 20
219.206347
 30
0.0
 10
41.350258
 20
218.831218
 30
0.0
 10
40.549742
 20
218.831218
 30
0.0
 10
39.900000
 20
219.206347
 30
0.0
  0
SPLINE
  5
1b8
100
AcDbEntity
  8
0
 62
7
100
AcDbSpline
 70
8
 71
3
 72
8
 73
4
 74
0
 40
0
 40
0
 40
0
 40
0
 40
1
 40
1
 40
1
 40
1
 10
39.900000
 20
219.206347
 30
0.0
 10
39.250258
 20
219.581476
 30
0.0
 10
38.850000
 20
220.274742
 30
0.0
 10
38.850000
 20
221.025000
 30
0.0
  0
SPLINE
  5
1b9
100
AcDbEntity
  8
0
 62
7
100
AcDbSpline
 70
8
 71
3
 72
8
 73
4
 74
0
 40
0
 40
0
 40
0
 40
0
 40
1
 40
1
 40
1
 40
1
 10
38.850000
 20
221.025000
 30
0.0
 10
38.850000
 20
221.775258
 30
0.0
 10
39.250258
 20
222.468524
 30
0.0
 10
39.900000
 20
222.843653
 30
0.0
  0
SPLINE
  5
1ba
100
AcDbEntity
  8
0
 62
7
100
AcDbSpline
 70
8
 71
3
 72
8
 73
4
 74
0
 40
0
 40
0
 40
0
 40
0
 40
1
 40
1
 40
1
 40
1
 10
39.900000
 20
222.843653
 30
0.0
 10
40.549742
 20
223.218782
 30
0.0
 10
41.350258
 20
223.218782
 30
0.0
 10
42.000000
 20
222.843653
 30
0.0
  0
SPLINE
  5
1bb
100
AcDbEntity
  8
0
 62
7
100
AcDbSpline
 70
8
 71
3
 72
8
 73
4
 74
0
 40
0
 40
0
 40
0
 40
0
 40
1
 40
1
 40
1
 40
1
 10
42.000000
 20
222.843653
 30
0.0
 10
42.649742
 20
222.468524
 30
0.0
 10
43.050000
 20
221.775258
 30
0.0
 10
43.050000
 20
221.025000
 30
0.0
  0
LWPOLYLINE
  5
1bc
100
AcDbEntity
  8
0
 62
7
100
AcDbPolyline
 90
1
 70
1
 10
-38.850000
 20
221.025000
 30
0.0
  0
SPLINE
  5
1bd
100
AcDbEntity
  8
0
 62
7
100
AcDbSpline
 70
8
 71
3
 72
8
 73
4
 74
0
 40
0
 40
0
 40
0
 40
0
 40
1
 40
1
 40
1
 40
1
 10
66.045000
 20
123.165000
 30
0.0
 10
66.045000
 20
122.414742
 30
0.0
 10
65.644742
 20
121.721476
 30
0.0
 10
64.995000
 20
121.346347
 30
0.0
  0
SPLINE
  5
1be
100
AcDbEntity
  8
0
 62
7
100
AcDbSpline
 70
8
 71
3
 72
8
 73
4
 74
0
 40
0
 40
0
 40
0
 40
0
 40
1
 40
1
 40
1
 40
1
 10
64.995000
 20
121.346347
 30
0.0
 10
64.345258
 20
120.971218
 30
0.0
 10
63.544742
 20
120.971218
 30
0.0
 10
62.895000
 20
121.346347
 30
0.0
  0
SPLINE
  5
1bf
100
AcDbEntity
  8
0
 62
7
100
AcDbSpline
 70
8
 71
3
 72
8
 73
4
 74
0
 40
0
 40
0
 40
0
 40
0
 40
1
 40
1
 40
1
 40
1
 10
62.895000
 20
121.346347
 30
0.0
 10
62.245258
 20
121.721476
 30
0.0
 10
61.845000
 20
122.414742
 30
0.0
 10
61.845000
 20
123.165000
 30
0.0
  0
SPLINE
  5
1c0
100
AcDbEntity
  8
0
 62
7
100
AcDbSpline
 70
8
 71
3
 72
8
 73
4
 74
0
 40
0
 40
0
 40
0
 40
0
 40
1
 40
1
 40
1
 40
1
 10
61.845000
 20
123.165000
 30
0.0
 10
61.845000
 20
123.915258
 30
0.0
 10
62.245258
 20
124.608524
 30
0.0
 10
62.895000
 20
124.983653
 30
0.0
  0
SPLINE
  5
1c1
100
AcDbEntity
  8
0
 62
7
100
AcDbSpline
 70
8
 71
3
 72
8
 73
4
 74
0
 40
0
 40
0
 40
0
 40
0
 40
1
 40
1
 40
1
 40
1
 10
62.895000
 20
124.983653
 30
0.0
 10
63.544742
 20
125.358782
 30
0.0
 10
64.345258
 20
125.358782
 30
0.0
 10
64.995000
 20
124.983653
 30
0.0
  0
SPLINE
  5
1c2
100
AcDbEntity
  8
0
 62
7
100
AcDbSpline
 70
8
 71
3
 72
8
 73
4
 74
0
 40
0
 40
0
 40
0
 40
0
 40
1
 40
1
 40
1
 40
1
 10
64.995000
 20
124.983653
 30
0.0
 10
65.644742
 20
124.608524
 30
0.0
 10
66.045000
 20
123.915258
 30
0.0
 10
66.045000
 20
123.165000
 30
0.0
  0
LWPOLYLINE
  5
1c3
100
AcDbEntity
  8
0
 62
7
100
AcDbPolyline
 90
1
 70
1
 10
43.050000
 20
221.025000
 30
0.0
  0
SPLINE
  5
1c4
100
AcDbEntity
  8
0
 62
7
100
AcDbSpline
 70
8
 71
3
 72
8
 73
4
 74
0
 40
0
 40
0
 40
0
 40
0
 40
1
 40
1
 40
1
 40
1
 10
132.720000
 20
142.905000
 30
0.0
 10
132.720000
 20
142.154742
 30
0.0
 10
132.319742
 20
141.461476
 30
0.0
 10
131.670000
 20
141.086347
 30
0.0
  0
SPLINE
  5
1c5
100
AcDbEntity
  8
0
 62
7
100
AcDbSpline
 70
8
 71
3
 72
8
 73
4
 74
0
 40
0
 40
0
 40
0
 40
0
 40
1
 40
1
 40
1
 40
1
 10
131.670000
 20
141.086347
 30
0.0
 10
131.020258
 20
140.711218
 30
0.0
 10
130.219742
 20
140.711218
 30
0.0
 10
129.570000
 20
141.086347
 30
0.0
  0
SPLINE
  5
1c6
100
AcDbEntity
  8
0
 62
7
100
AcDbSpline
 70
8
 71
3
 72
8
 73
4
 74
0
 40
0
 40
0
 40
0
 40
0
 40
1
 40
1
 40
1
 40
1
 10
129.570000
 20
141.086347
 30
0.0
 10
128.920258
 20
141.461476
 30
0.0
 10
128.520000
 20
142.154742
 30
0.0
 10
128.520000
 20
142.905000
 30
0.0
  0
SPLINE
  5
1c7
100
AcDbEntity
  8
0
 62
7
100
AcDbSpline
 70
8
 71
3
 72
8
 73
4
 74
0
 40
0
 40
0
 40
0
 40
0
 40
1
 40
1
 40
1
 40
1
 10
128.520000
 20
142.905000
 30
0.0
 10
128.520000
 20
143.655258
 30
0.0
 10
128.920258
 20
144.348524
 30
0.0
 10
129.570000
 20
144.723653
 30
0.0
  0
SPLINE
  5
1c8
100
AcDbEntity
  8
0
 62
7
100
AcDbSpline
 70
8
 71
3
 72
8
 73
4
 74
0
 40
0
 40
0
 40
0
 40
0
 40
1
 40
1
 40
1
 40
1
 10
129.570000
 20
144.723653
 30
0.0
 10
130.219742
 20
145.098782
 30
0.0
 10
131.020258
 20
145.098782
 30
0.0
 10
131.670000
 20
144.723653
 30
0.0
  0
SPLINE
  5
1c9
100
AcDbEntity
  8
0
 62
7
100
AcDbSpline
 70
8
 71
3
 72
8
 73
4
 74
0
 40
0
 40
0
 40
0
 40
0
 40
1
 40
1
 40
1
 40
1
 10
131.670000
 20
144.723653
 30
0.0
 10
132.319742
 20
144.348524
 30
0.0
 10
132.720000
 20
143.655258
 30
0.0
 10
132.720000
 20
142.905000
 30
0.0
  0
LWPOLYLINE
  5
1ca
100
AcDbEntity
  8
0
 62
7
100
AcDbPolyline
 90
1
 70
1
 10
66.045000
 20
123.165000
 30
0.0
  0
SPLINE
  5
1cb
100
AcDbEntity
  8
0
 62
7
100
AcDbSpline
 70
8
 71
3
 72
8
 73
4
 74
0
 40
0
 40
0
 40
0
 40
0
 40
1
 40
1
 40
1
 40
1
 10
177.975000
 20
86.100000
 30
0.0
 10
177.975000
 20
85.349742
 30
0.0
 10
177.574742
 20
84.656476
 30
0.0
 10
176.925000
 20
84.281347
 30
0.0
  0
SPLINE
  5
1cc
100
AcDbEntity
  8
0
 62
7
100
AcDbSpline
 70
8
 71
3
 72
8
 73
4
 74
0
 40
0
 40
0
 40
0
 40
0
 40
1
 40
1
 40
1
 40
1
 10
176.925000
 20
84.281347
 30
0.0
 10
176.275258
 20
83.906218
 30
0.0
 10
175.474742
 20
83.906218
 30
0.0
 10
174.825000
 20
84.281347
 30
0.0
  0
SPLINE
  5
1cd
100
AcDbEntity
  8
0
 62
7
100
AcDbSpline
 70
8
 71
3
 72
8
 73
4
 74
0
 40
0
 40
0
 40
0
 40
0
 40
1
 40
1
 40
1
 40
1
 10
174.825000
 20
84.281347
 30
0.0
 10
174.175258
 20
84.656476
 30
0.0
 10
173.775000
 20
85.349742
 30
0.0
 10
173.775000
 20
86.100000
 30
0.0
  0
SPLINE
  5
1ce
100
AcDbEntity
  8
0
 62
7
100
AcDbSpline
 70
8
 71
3
 72
8
 73
4
 74
0
 40
0
 40
0
 40
0
 40
0
 40
1
 40
1
 40
1
 40
1
 10
173.775000
 20
86.100000
 30
0.0
 10
173.775000
 20
86.850258
 30
0.0
 10
174.175258
 20
87.543524
 30
0.0
 10
174.825000
 20
87.918653
 30
0.0
  0
SPLINE
  5
1cf
100
AcDbEntity
  8
0
 62
7
100
AcDbSpline
 70
8
 71
3
 72
8
 73
4
 74
0
 40
0
 40
0
 40
0
 40
0
 40
1
 40
1
 40
1
 40
1
 10
174.825000
 20
87.918653
 30
0.0
 10
175.474742
 20
88.293782
 30
0.0
 10
176.275258
 20
88.293782
 30
0.0
 10
176.925000
 20
87.918653
 30
0.0
  0
SPLINE
  5
1d0
100
AcDbEntity
  8
0
 62
7
100
AcDbSpline
 70
8
 71
3
 72
8
 73
4
 74
0
 40
0
 40
0
 40
0
 40
0
 40
1
 40
1
 40
1
 40
1
 10
176.925000
 20
87.918653
 30
0.0
 10
177.574742
 20
87.543524
 30
0.0
 10
177.975000
 20
86.850258
 30
0.0
 10
177.975000
 20
86.100000
 30
0.0
  0
LWPOLYLINE
  5
1d1
100
AcDbEntity
  8
0
 62
7
100
AcDbPolyline
 90
1
 70
1
 10
132.720000
 20
142.905000
 30
0.0
  0
SPLINE
  5
1d2
100
AcDbEntity
  8
0
 62
7
100
AcDbSpline
 70
8
 71
3
 72
8
 73
4
 74
0
 40
0
 40
0
 40
0
 40
0
 40
1
 40
1
 40
1
 40
1
 10
102.795000
 20
-15.645000
 30
0.0
 10
102.795000
 20
-16.395258
 30
0.0
 10
102.394742
 20
-17.088524
 30
0.0
 10
101.745000
 20
-17.463653
 30
0.0
  0
SPLINE
  5
1d3
100
AcDbEntity
  8
0
 62
7
100
AcDbSpline
 70
8
 71
3
 72
8
 73
4
 74
0
 40
0
 40
0
 40
0
 40
0
 40
1
 40
1
 40
1
 40
1
 10
101.745000
 20
-17.463653
 30
0.0
 10
101.095258
 20
-17.838782
 30
0.0
 10
100.294742
 20
-17.838782
 30
0.0
 10
99.645000
 20
-17.463653
 30
0.0
  0
SPLINE
  5
1d4
100
AcDbEntity
  8
0
 62
7
100
AcDbSpline
 70
8
 71
3
 72
8
 73
4
 74
0
 40
0
 40
0
 40
0
 40
0
 40
1
 40
1
 40
1
 40
1
 10
99.645000
 20
-17.463653
 30
0.0
 10
98.995258
 20
-17.088524
 30
0.0
 10
98.595000
 20
-16.395258
 30
0.0
 10
98.595000
 20
-15.645000
 30
0.0
  0
SPLINE
  5
1d5
100
AcDbEntity
  8
0
 62
7
100
AcDbSpline
 70
8
 71
3
 72
8
 73
4
 74
0
 40
0
 40
0
 40
0
 40
0
 40
1
 40
1
 40
1
 40
1
 10
98.595000
 20
-15.645000
 30
0.0
 10
98.595000
 20
-14.894742
 30
0.0
 10
98.995258
 20
-14.201476
 30
0.0
 10
99.645000
 20
-13.826347
 30
0.0
  0
SPLINE
  5
1d6
100
AcDbEntity
  8
0
 62
7
100
AcDbSpline
 70
8
 71
3
 72
8
 73
4
 74
0
 40
0
 40
0
 40
0
 40
0
 40
1
 40
1
 40
1
 40
1
 10
99.645000
 20
-13.826347
 30
0.0
 10
100.294742
 20
-13.451218
 30
0.0
 10
101.095258
 20
-13.451218
 30
0.0
 10
101.745000
 20
-13.826347
 30
0.0
  0
SPLINE
  5
1d7
100
AcDbEntity
  8
0
 62
7
100
AcDbSpline
 70
8
 71
3
 72
8
 73
4
 74
0
 40
0
 40
0
 40
0
 40
0
 40
1
 40
1
 40
1
 40
1
 10
101.745000
 20
-13.826347
 30
0.0
 10
102.394742
 20
-14.201476
 30
0.0
 10
102.795000
 20
-14.894742
 30
0.0
 10
102.795000
 20
-15.645000
 30
0.0
  0
LWPOLYLINE
  5
1d8
100
AcDbEntity
  8
0
 62
7
100
AcDbPolyline
 90
1
 70
1
 10
177.975000
 20
86.100000
 30
0.0
  0
SPLINE
  5
1d9
100
AcDbEntity
  8
0
 62
7
100
AcDbSpline
 70
8
 71
3
 72
8
 73
4
 74
0
 40
0
 40
0
 40
0
 40
0
 40
1
 40
1
 40
1
 40
1
 10
16.695000
 20
-45.570000
 30
0.0
 10
16.695000
 20
-46.320258
 30
0.0
 10
16.294742
 20
-47.013524
 30
0.0
 10
15.645000
 20
-47.388653
 30
0.0
  0
SPLINE
  5
1da
100
AcDbEntity
  8
0
 62
7
100
AcDbSpline
 70
8
 71
3
 72
8
 73
4
 74
0
 40
0
 40
0
 40
0
 40
0
 40
1
 40
1
 40
1
 40
1
 10
15.645000
 20
-47.388653
 30
0.0
 10
14.995258
 20
-47.763782
 30
0.0
 10
14.194742
 20
-47.763782
 30
0.0
 10
13.545000
 20
-47.388653
 30
0.0
  0
SPLINE
  5
1db
100
AcDbEntity
  8
0
 62
7
100
AcDbSpline
 70
8
 71
3
 72
8
 73
4
 74
0
 40
0
 40
0
 40
0
 40
0
 40
1
 40
1
 40
1
 40
1
 10
13.545000
 20
-47.388653
 30
0.0
 10
12.895258
 20
-47.013524
 30
0.0
 10
12.495000
 20
-46.320258
 30
0.0
 10
12.495000
 20
-45.570000
 30
0.0
  0
SPLINE
  5
1dc
100
AcDbEntity
  8
0
 62
7
100
AcDbSpline
 70
8
 71
3
 72
8
 73
4
 74
0
 40
0
 40
0
 40
0
 40
0
 40
1
 40
1
 40
1
 40
1
 10
12.495000
 20
-45.570000
 30
0.0
 10
12.495000
 20
-44.819742
 30
0.0
 10
12.895258
 20
-44.126476
 30
0.0
 10
13.545000
 20
-43.751347
 30
0.0
  0
SPLINE
  5
1dd
100
AcDbEntity
  8
0
 62
7
100
AcDbSpline
 70
8
 71
3
 72
8
 73
4
 74
0
 40
0
 40
0
 40
0
 40
0
 40
1
 40
1
 40
1
 40
1
 10
13.545000
 20
-43.751347
 30
0.0
 10
14.194742
 20
-43.376218
 30
0.0
 10
14.995258
 20
-43.376218
 30
0.0
 10
15.645000
 20
-43.751347
 30
0.0
  0
SPLINE
  5
1de
100
AcDbEntity
  8
0
 62
7
100
AcDbSpline
 70
8
 71
3
 72
8
 73
4
 74
0
 40
0
 40
0
 40
0
 40
0
 40
1
 40
1
 40
1
 40
1
 10
15.645000
 20
-43.751347
 30
0.0
 10
16.294742
 20
-44.126476
 30
0.0
 10
16.695000
 20
-44.819742
 30
0.0
 10
16.695000
 20
-45.570000
 30
0.0
  0
LWPOLYLINE
  5
1df
100
AcDbEntity
  8
0
 62
7
100
AcDbPolyline
 90
1
 70
1
 10
102.795000
 20
-15.645000
 30
0.0
  0
SPLINE
  5
1e0
100
AcDbEntity
  8
0
 62
7
100
AcDbSpline
 70
8
 71
3
 72
8
 73
4
 74
0
 40
0
 40
0
 40
0
 40
0
 40
1
 40
1
 40
1
 40
1
 10
-2.520000
 20
-46.095000
 30
0.0
 10
-2.520000
 20
-46.845258
 30
0.0
 10
-2.920258
 20
-47.538524
 30
0.0
 10
-3.570000
 20
-47.913653
 30
0.0
  0
SPLINE
  5
1e1
100
AcDbEntity
  8
0
 62
7
100
AcDbSpline
 70
8
 71
3
 72
8
 73
4
 74
0
 40
0
 40
0
 40
0
 40
0
 40
1
 40
1
 40
1
 40
1
 10
-3.570000
 20
-47.913653
 30
0.0
 10
-4.219742
 20
-48.288782
 30
0.0
 10
-5.020258
 20
-48.288782
 30
0.0
 10
-5.670000
 20
-47.913653
 30
0.0
  0
SPLINE
  5
1e2
100
AcDbEntity
  8
0
 62
7
100
AcDbSpline
 70
8
 71
3
 72
8
 73
4
 74
0
 40
0
 40
0
 40
0
 40
0
 40
1
 40
1
 40
1
 40
1
 10
-5.670000
 20
-47.913653
 30
0.0
 10
-6.319742
 20
-47.538524
 30
0.0
 10
-6.720000
 20
-46.845258
 30
0.0
 10
-6.720000
 20
-46.095000
 30
0.0
  0
SPLINE
  5
1e3
100
AcDbEntity
  8
0
 62
7
100
AcDbSpline
 70
8
 71
3
 72
8
 73
4
 74
0
 40
0
 40
0
 40
0
 40
0
 40
1
 40
1
 40
1
 40
1
 10
-6.720000
 20
-46.095000
 30
0.0
 10
-6.720000
 20
-45.344742
 30
0.0
 10
-6.319742
 20
-44.651476
 30
0.0
 10
-5.670000
 20
-44.276347
 30
0.0
  0
SPLINE
  5
1e4
100
AcDbEntity
  8
0
 62
7
100
AcDbSpline
 70
8
 71
3
 72
8
 73
4
 74
0
 40
0
 40
0
 40
0
 40
0
 40
1
 40
1
 40
1
 40
1
 10
-5.670000
 20
-44.276347
 30
0.0
 10
-5.020258
 20
-43.901218
 30
0.0
 10
-4.219742
 20
-43.901218
 30
0.0
 10
-3.570000
 20
-44.276347
 30
0.0
  0
SPLINE
  5
1e5
100
AcDbEntity
  8
0
 62
7
100
AcDbSpline
 70
8
 71
3
 72
8
 73
4
 74
0
 40
0
 40
0
 40
0
 40
0
 40
1
 40
1
 40
1
 40
1
 10
-3.570000
 20
-44.276347
 30
0.0
 10
-2.920258
 20
-44.651476
 30
0.0
 10
-2.520000
 20
-45.344742
 30
0.0
 10
-2.520000
 20
-46.095000
 30
0.0
  0
LWPOLYLINE
  5
1e6
100
AcDbEntity
  8
0
 62
7
100
AcDbPolyline
 90
1
 70
1
 10
16.695000
 20
-45.570000
 30
0.0
  0
SPLINE
  5
1e7
100
AcDbEntity
  8
0
 62
7
100
AcDbSpline
 70
8
 71
3
 72
8
 73
4
 74
0
 40
0
 40
0
 40
0
 40
0
 40
1
 40
1
 40
1
 40
1
 10
-14.280000
 20
-35.700000
 30
0.0
 10
-14.280000
 20
-36.450258
 30
0.0
 10
-14.680258
 20
-37.143524
 30
0.0
 10
-15.330000
 20
-37.518653
 30
0.0
  0
SPLINE
  5
1e8
100
AcDbEntity
  8
0
 62
7
100
AcDbSpline
 70
8
 71
3
 72
8
 73
4
 74
0
 40
0
 40
0
 40
0
 40
0
 40
1
 40
1
 40
1
 40
1
 10
-15.330000
 20
-37.518653
 30
0.0
 10
-15.979742
 20
-37.893782
 30
0.0
 10
-16.780258
 20
-37.893782
 30
0.0
 10
-17.430000
 20
-37.518653
 30
0.0
  0
SPLINE
  5
1e9
100
AcDbEntity
  8
0
 62
7
100
AcDbSpline
 70
8
 71
3
 72
8
 73
4
 74
0
 40
0
 40
0
 40
0
 40
0
 40
1
 40
1
 40
1
 40
1
 10
-17.430000
 20
-37.518653
 30
0.0
 10
-18.079742
 20
-37.143524
 30
0.0
 10
-18.480000
 20
-36.450258
 30
0.0
 10
-18.480000
 20
-35.700000
 30
0.0
  0
SPLINE
  5
1ea
100
AcDbEntity
  8
0
 62
7
100
AcDbSpline
 70
8
 71
3
 72
8
 73
4
 74
0
 40
0
 40
0
 40
0
 40
0
 40
1
 40
1
 40
1
 40
1
 10
-18.480000
 20
-35.700000
 30
0.0
 10
-18.480000
 20
-34.949742
 30
0.0
 10
-18.079742
 20
-34.256476
 30
0.0
 10
-17.430000
 20
-33.881347
 30
0.0
  0
SPLINE
  5
1eb
100
AcDbEntity
  8
0
 62
7
100
AcDbSpline
 70
8
 71
3
 72
8
 73
4
 74
0
 40
0
 40
0
 40
0
 40
0
 40
1
 40
1
 40
1
 40
1
 10
-17.430000
 20
-33.881347
 30
0.0
 10
-16.780258
 20
-33.506218
 30
0.0
 10
-15.979742
 20
-33.506218
 30
0.0
 10
-15.330000
 20
-33.881347
 30
0.0
  0
SPLINE
  5
1ec
100
AcDbEntity
  8
0
 62
7
100
AcDbSpline
 70
8
 71
3
 72
8
 73
4
 74
0
 40
0
 40
0
 40
0
 40
0
 40
1
 40
1
 40
1
 40
1
 10
-15.330000
 20
-33.881347
 30
0.0
 10
-14.680258
 20
-34.256476
 30
0.0
 10
-14.280000
 20
-34.949742
 30
0.0
 10
-14.280000
 20
-35.700000
 30
0.0
  0
LWPOLYLINE
  5
1ed
100
AcDbEntity
  8
0
 62
7
100
AcDbPolyline
 90
1
 70
1
 10
-2.520000
 20
-46.095000
 30
0.0
  0
SPLINE
  5
1ee
100
AcDbEntity
  8
0
 62
7
100
AcDbSpline
 70
8
 71
3
 72
8
 73
4
 74
0
 40
0
 40
0
 40
0
 40
0
 40
1
 40
1
 40
1
 40
1
 10
-92.190000
 20
-17.955000
 30
0.0
 10
-92.190000
 20
-18.705258
 30
0.0
 10
-92.590258
 20
-19.398524
 30
0.0
 10
-93.240000
 20
-19.773653
 30
0.0
  0
SPLINE
  5
1ef
100
AcDbEntity
  8
0
 62
7
100
AcDbSpline
 70
8
 71
3
 72
8
 73
4
 74
0
 40
0
 40
0
 40
0
 40
0
 40
1
 40
1
 40
1
 40
1
 10
-93.240000
 20
-19.773653
 30
0.0
 10
-93.889742
 20
-20.148782
 30
0.0
 10
-94.690258
 20
-20.148782
 30
0.0
 10
-95.340000
 20
-19.773653
 30
0.0
  0
SPLINE
  5
1f0
100
AcDbEntity
  8
0
 62
7
100
AcDbSpline
 70
8
 71
3
 72
8
 73
4
 74
0
 40
0
 40
0
 40
0
 40
0
 40
1
 40
1
 40
1
 40
1
 10
-95.340000
 20
-19.773653
 30
0.0
 10
-95.989742
 20
-19.398524
 30
0.0
 10
-96.390000
 20
-18.705258
 30
0.0
 10
-96.390000
 20
-17.955000
 30
0.0
  0
SPLINE
  5
1f1
100
AcDbEntity
  8
0
 62
7
100
AcDbSpline
 70
8
 71
3
 72
8
 73
4
 74
0
 40
0
 40
0
 40
0
 40
0
 40
1
 40
1
 40
1
 40
1
 10
-96.390000
 20
-17.955000
 30
0.0
 10
-96.390000
 20
-17.204742
 30
0.0
 10
-95.989742
 20
-16.511476
 30
0.0
 10
-95.340000
 20
-16.136347
 30
0.0
  0
SPLINE
  5
1f2
100
AcDbEntity
  8
0
 62
7
100
AcDbSpline
 70
8
 71
3
 72
8
 73
4
 74
0
 40
0
 40
0
 40
0
 40
0
 40
1
 40
1
 40
1
 40
1
 10
-95.340000
 20
-16.136347
 30
0.0
 10
-94.690258
 20
-15.761218
 30
0.0
 10
-93.889742
 20
-15.761218
 30
0.0
 10
-93.240000
 20
-16.136347
 30
0.0
  0
SPLINE
  5
1f3
100
AcDbEntity
  8
0
 62
7
100
AcDbSpline
 70
8
 71
3
 72
8
 73
4
 74
0
 40
0
 40
0
 40
0
 40
0
 40
1
 40
1
 40
1
 40
1
 10
-93.240000
 20
-16.136347
 30
0.0
 10
-92.590258
 20
-16.511476
 30
0.0
 10
-92.190000
 20
-17.204742
 30
0.0
 10
-92.190000
 20
-17.955000
 30
0.0
  0
LWPOLYLINE
  5
1f4
100
AcDbEntity
  8
0
 62
7
100
AcDbPolyline
 90
1
 70
1
 10
-14.280000
 20
-35.700000
 30
0.0
  0
SPLINE
  5
1f5
100
AcDbEntity
  8
0
 62
7
100
AcDbSpline
 70
8
 71
3
 72
8
 73
4
 74
0
 40
0
 40
0
 40
0
 40
0
 40
1
 40
1
 40
1
 40
1
 10
-94.290000
 20
-10.395000
 30
0.0
 10
-94.290000
 20
-11.145258
 30
0.0
 10
-94.690258
 20
-11.838524
 30
0.0
 10
-95.340000
 20
-12.213653
 30
0.0
  0
SPLINE
  5
1f6
100
AcDbEntity
  8
0
 62
7
100
AcDbSpline
 70
8
 71
3
 72
8
 73
4
 74
0
 40
0
 40
0
 40
0
 40
0
 40
1
 40
1
 40
1
 40
1
 10
-95.340000
 20
-12.213653
 30
0.0
 10
-95.989742
 20
-12.588782
 30
0.0
 10
-96.790258
 20
-12.588782
 30
0.0
 10
-97.440000
 20
-12.213653
 30
0.0
  0
SPLINE
  5
1f7
100
AcDbEntity
  8
0
 62
7
100
AcDbSpline
 70
8
 71
3
 72
8
 73
4
 74
0
 40
0
 40
0
 40
0
 40
0
 40
1
 40
1
 40
1
 40
1
 10
-97.440000
 20
-12.213653
 30
0.0
 10
-98.089742
 20
-11.838524
 30
0.0
 10
-98.490000
 20
-11.145258
 30
0.0
 10
-98.490000
 20
-10.395000
 30
0.0
  0
SPLINE
  5
1f8
100
AcDbEntity
  8
0
 62
7
100
AcDbSpline
 70
8
 71
3
 72
8
 73
4
 74
0
 40
0
 40
0
 40
0
 40
0
 40
1
 40
1
 40
1
 40
1
 10
-98.490000
 20
-10.395000
 30
0.0
 10
-98.490000
 20
-9.644742
 30
0.0
 10
-98.089742
 20
-8.951476
 30
0.0
 10
-97.440000
 20
-8.576347
 30
0.0
  0
SPLINE
  5
1f9
100
AcDbEntity
  8
0
 62
7
100
AcDbSpline
 70
8
 71
3
 72
8
 73
4
 74
0
 40
0
 40
0
 40
0
 40
0
 40
1
 40
1
 40
1
 40
1
 10
-97.440000
 20
-8.576347
 30
0.0
 10
-96.790258
 20
-8.201218
 30
0.0
 10
-95.989742
 20
-8.201218
 30
0.0
 10
-95.340000
 20
-8.576347
 30
0.0
  0
SPLINE
  5
1fa
100
AcDbEntity
  8
0
 62
7
100
AcDbSpline
 70
8
 71
3
 72
8
 73
4
 74
0
 40
0
 40
0
 40
0
 40
0
 40
1
 40
1
 40
1
 40
1
 10
-95.340000
 20
-8.576347
 30
0.0
 10
-94.690258
 20
-8.951476
 30
0.0
 10
-94.290000
 20
-9.644742
 30
0.0
 10
-94.290000
 20
-10.395000
 30
0.0
  0
LWPOLYLINE
  5
1fb
100
AcDbEntity
  8
0
 62
7
100
AcDbPolyline
 90
1
 70
1
 10
-92.190000
 20
-17.955000
 30
0.0
  0
SPLINE
  5
1fc
100
AcDbEntity
  8
0
 62
7
100
AcDbSpline
 70
8
 71
3
 72
8
 73
4
 74
0
 40
0
 40
0
 40
0
 40
0
 40
1
 40
1
 40
1
 40
1
 10
-170.940000
 20
79.905000
 30
0.0
 10
-170.940000
 20
79.154742
 30
0.0
 10
-171.340258
 20
78.461476
 30
0.0
 10
-171.990000
 20
78.086347
 30
0.0
  0
SPLINE
  5
1fd
100
AcDbEntity
  8
0
 62
7
100
AcDbSpline
 70
8
 71
3
 72
8
 73
4
 74
0
 40
0
 40
0
 40
0
 40
0
 40
1
 40
1
 40
1
 40
1
 10
-171.990000
 20
78.086347
 30
0.0
 10
-172.639742
 20
77.711218
 30
0.0
 10
-173.440258
 20
77.711218
 30
0.0
 10
-174.090000
 20
78.086347
 30
0.0
  0
SPLINE
  5
1fe
100
AcDbEntity
  8
0
 62
7
100
AcDbSpline
 70
8
 71
3
 72
8
 73
4
 74
0
 40
0
 40
0
 40
0
 40
0
 40
1
 40
1
 40
1
 40
1
 10
-174.090000
 20
78.086347
 30
0.0
 10
-174.739742
 20
78.461476
 30
0.0
 10
-175.140000
 20
79.154742
 30
0.0
 10
-175.140000
 20
79.905000
 30
0.0
  0
SPLINE
  5
1ff
100
AcDbEntity
  8
0
 62
7
100
AcDbSpline
 70
8
 71
3
 72
8
 73
4
 74
0
 40
0
 40
0
 40
0
 40
0
 40
1
 40
1
 40
1
 40
1
 10
-175.140000
 20
79.905000
 30
0.0
 10
-175.140000
 20
80.655258
 30
0.0
 10
-174.739742
 20
81.348524
 30
0.0
 10
-174.090000
 20
81.723653
 30
0.0
  0
SPLINE
  5
200
100
AcDbEntity
  8
0
 62
7
100
AcDbSpline
 70
8
 71
3
 72
8
 73
4
 74
0
 40
0
 40
0
 40
0
 40
0
 40
1
 40
1
 40
1
 40
1
 10
-174.090000
 20
81.723653
 30
0.0
 10
-173.440258
 20
82.098782
 30
0.0
 10
-172.639742
 20
82.098782
 30
0.0
 10
-171.990000
 20
81.723653
 30
0.0
  0
SPLINE
  5
201
100
AcDbEntity
  8
0
 62
7
100
AcDbSpline
 70
8
 71
3
 72
8
 73
4
 74
0
 40
0
 40
0
 40
0
 40
0
 40
1
 40
1
 40
1
 40
1
 10
-171.990000
 20
81.723653
 30
0.0
 10
-171.340258
 20
81.348524
 30
0.0
 10
-170.940000
 20
80.655258
 30
0.0
 10
-170.940000
 20
79.905000
 30
0.0
  0
LWPOLYLINE
  5
202
100
AcDbEntity
  8
0
 62
7
100
AcDbPolyline
 90
1
 70
1
 10
-94.290000
 20
-10.395000
 30
0.0
  0
SPLINE
  5
203
100
AcDbEntity
  8
0
 62
7
100
AcDbSpline
 70
8
 71
3
 72
8
 73
4
 74
0
 40
0
 40
0
 40
0
 40
0
 40
1
 40
1
 40
1
 40
1
 10
-167.370000
 20
88.200000
 30
0.0
 10
-167.370000
 20
87.449742
 30
0.0
 10
-167.770258
 20
86.756476
 30
0.0
 10
-168.420000
 20
86.381347
 30
0.0
  0
SPLINE
  5
204
100
AcDbEntity
  8
0
 62
7
100
AcDbSpline
 70
8
 71
3
 72
8
 73
4
 74
0
 40
0
 40
0
 40
0
 40
0
 40
1
 40
1
 40
1
 40
1
 10
-168.420000
 20
86.381347
 30
0.0
 10
-169.069742
 20
86.006218
 30
0.0
 10
-169.870258
 20
86.006218
 30
0.0
 10
-170.520000
 20
86.381347
 30
0.0
  0
SPLINE
  5
205
100
AcDbEntity
  8
0
 62
7
100
AcDbSpline
 70
8
 71
3
 72
8
 73
4
 74
0
 40
0
 40
0
 40
0
 40
0
 40
1
 40
1
 40
1
 40
1
 10
-170.520000
 20
86.381347
 30
0.0
 10
-171.169742
 20
86.756476
 30
0.0
 10
-171.570000
 20
87.449742
 30
0.0
 10
-171.570000
 20
88.200000
 30
0.0
  0
SPLINE
  5
206
100
AcDbEntity
  8
0
 62
7
100
AcDbSpline
 70
8
 71
3
 72
8
 73
4
 74
0
 40
0
 40
0
 40
0
 40
0
 40
1
 40
1
 40
1
 40
1
 10
-171.570000
 20
88.200000
 30
0.0
 10
-171.570000
 20
88.950258
 30
0.0
 10
-171.169742
 20
89.643524
 30
0.0
 10
-170.520000
 20
90.018653
 30
0.0
  0
SPLINE
  5
207
100
AcDbEntity
  8
0
 62
7
100
AcDbSpline
 70
8
 71
3
 72
8
 73
4
 74
0
 40
0
 40
0
 40
0
 40
0
 40
1
 40
1
 40
1
 40
1
 10
-170.520000
 20
90.018653
 30
0.0
 10
-169.870258
 20
90.393782
 30
0.0
 10
-169.069742
 20
90.393782
 30
0.0
 10
-168.420000
 20
90.018653
 30
0.0
  0
SPLINE
  5
208
100
AcDbEntity
  8
0
 62
7
100
AcDbSpline
 70
8
 71
3
 72
8
 73
4
 74
0
 40
0
 40
0
 40
0
 40
0
 40
1
 40
1
 40
1
 40
1
 10
-168.420000
 20
90.018653
 30
0.0
 10
-167.770258
 20
89.643524
 30
0.0
 10
-167.370000
 20
88.950258
 30
0.0
 10
-167.370000
 20
88.200000
 30
0.0
  0
LWPOLYLINE
  5
209
100
AcDbEntity
  8
0
 62
7
100
AcDbPolyline
 90
1
 70
1
 10
-170.940000
 20
79.905000
 30
0.0
  0
SPLINE
  5
20a
100
AcDbEntity
  8
0
 62
7
100
AcDbSpline
 70
8
 71
3
 72
8
 73
4
 74
0
 40
0
 40
0
 40
0
 40
0
 40
1
 40
1
 40
1
 40
1
 10
-129.990000
 20
136.185000
 30
0.0
 10
-129.990000
 20
135.434742
 30
0.0
 10
-130.390258
 20
134.741476
 30
0.0
 10
-131.040000
 20
134.366347
 30
0.0
  0
SPLINE
  5
20b
100
AcDbEntity
  8
0
 62
7
100
AcDbSpline
 70
8
 71
3
 72
8
 73
4
 74
0
 40
0
 40
0
 40
0
 40
0
 40
1
 40
1
 40
1
 40
1
 10
-131.040000
 20
134.366347
 30
0.0
 10
-131.689742
 20
133.991218
 30
0.0
 10
-132.490258
 20
133.991218
 30
0.0
 10
-133.140000
 20
134.366347
 30
0.0
  0
SPLINE
  5
20c
100
AcDbEntity
  8
0
 62
7
100
AcDbSpline
 70
8
 71
3
 72
8
 73
4
 74
0
 40
0
 40
0
 40
0
 40
0
 40
1
 40
1
 40
1
 40
1
 10
-133.140000
 20
134.366347
 30
0.0
 10
-133.789742
 20
134.741476
 30
0.0
 10
-134.190000
 20
135.434742
 30
0.0
 10
-134.190000
 20
136.185000
 30
0.0
  0
SPLINE
  5
20d
100
AcDbEntity
  8
0
 62
7
100
AcDbSpline
 70
8
 71
3
 72
8
 73
4
 74
0
 40
0
 40
0
 40
0
 40
0
 40
1
 40
1
 40
1
 40
1
 10
-134.190000
 20
136.185000
 30
0.0
 10
-134.190000
 20
136.935258
 30
0.0
 10
-133.789742
 20
137.628524
 30
0.0
 10
-133.140000
 20
138.003653
 30
0.0
  0
SPLINE
  5
20e
100
AcDbEntity
  8
0
 62
7
100
AcDbSpline
 70
8
 71
3
 72
8
 73
4
 74
0
 40
0
 40
0
 40
0
 40
0
 40
1
 40
1
 40
1
 40
1
 10
-133.140000
 20
138.003653
 30
0.0
 10
-132.490258
 20
138.378782
 30
0.0
 10
-131.689742
 20
138.378782
 30
0.0
 10
-131.040000
 20
138.003653
 30
0.0
  0
SPLINE
  5
20f
100
AcDbEntity
  8
0
 62
7
100
AcDbSpline
 70
8
 71
3
 72
8
 73
4
 74
0
 40
0
 40
0
 40
0
 40
0
 40
1
 40
1
 40
1
 40
1
 10
-131.040000
 20
138.003653
 30
0.0
 10
-130.390258
 20
137.628524
 30
0.0
 10
-129.990000
 20
136.935258
 30
0.0
 10
-129.990000
 20
136.185000
 30
0.0
  0
LWPOLYLINE
  5
210
100
AcDbEntity
  8
0
 62
7
100
AcDbPolyline
 90
1
 70
1
 10
-167.370000
 20
88.200000
 30
0.0
  0
SPLINE
  5
211
100
AcDbEntity
  8
0
 62
7
100
AcDbSpline
 70
8
 71
3
 72
8
 73
4
 74
0
 40
0
 40
0
 40
0
 40
0
 40
1
 40
1
 40
1
 40
1
 10
-122.220000
 20
140.280000
 30
0.0
 10
-122.220000
 20
139.529742
 30
0.0
 10
-122.620258
 20
138.836476
 30
0.0
 10
-123.270000
 20
138.461347
 30
0.0
  0
SPLINE
  5
212
100
AcDbEntity
  8
0
 62
7
100
AcDbSpline
 70
8
 71
3
 72
8
 73
4
 74
0
 40
0
 40
0
 40
0
 40
0
 40
1
 40
1
 40
1
 40
1
 10
-123.270000
 20
138.461347
 30
0.0
 10
-123.919742
 20
138.086218
 30
0.0
 10
-124.720258
 20
138.086218
 30
0.0
 10
-125.370000
 20
138.461347
 30
0.0
  0
SPLINE
  5
213
100
AcDbEntity
  8
0
 62
7
100
AcDbSpline
 70
8
 71
3
 72
8
 73
4
 74
0
 40
0
 40
0
 40
0
 40
0
 40
1
 40
1
 40
1
 40
1
 10
-125.370000
 20
138.461347
 30
0.0
 10
-126.019742
 20
138.836476
 30
0.0
 10
-126.420000
 20
139.529742
 30
0.0
 10
-126.420000
 20
140.280000
 30
0.0
  0
SPLINE
  5
214
100
AcDbEntity
  8
0
 62
7
100
AcDbSpline
 70
8
 71
3
 72
8
 73
4
 74
0
 40
0
 40
0
 40
0
 40
0
 40
1
 40
1
 40
1
 40
1
 10
-126.420000
 20
140.280000
 30
0.0
 10
-126.420000
 20
141.030258
 30
0.0
 10
-126.019742
 20
141.723524
 30
0.0
 10
-125.370000
 20
142.098653
 30
0.0
  0
SPLINE
  5
215
100
AcDbEntity
  8
0
 62
7
100
AcDbSpline
 70
8
 71
3
 72
8
 73
4
 74
0
 40
0
 40
0
 40
0
 40
0
 40
1
 40
1
 40
1
 40
1
 10
-125.370000
 20
142.098653
 30
0.0
 10
-124.720258
 20
142.473782
 30
0.0
 10
-123.919742
 20
142.473782
 30
0.0
 10
-123.270000
 20
142.098653
 30
0.0
  0
SPLINE
  5
216
100
AcDbEntity
  8
0
 62
7
100
AcDbSpline
 70
8
 71
3
 72
8
 73
4
 74
0
 40
0
 40
0
 40
0
 40
0
 40
1
 40
1
 40
1
 40
1
 10
-123.270000
 20
142.098653
 30
0.0
 10
-122.620258
 20
141.723524
 30
0.0
 10
-122.220000
 20
141.030258
 30
0.0
 10
-122.220000
 20
140.280000
 30
0.0
  0
LWPOLYLINE
  5
217
100
AcDbEntity
  8
0
 62
7
100
AcDbPolyline
 90
1
 70
1
 10
-129.990000
 20
136.185000
 30
0.0
  0
SPLINE
  5
218
100
AcDbEntity
  8
0
 62
7
100
AcDbSpline
 70
8
 71
3
 72
8
 73
4
 74
0
 40
0
 40
0
 40
0
 40
0
 40
1
 40
1
 40
1
 40
1
 10
-66.780000
 20
118.545000
 30
0.0
 10
-66.780000
 20
117.794742
 30
0.0
 10
-67.180258
 20
117.101476
 30
0.0
 10
-67.830000
 20
116.726347
 30
0.0
  0
SPLINE
  5
219
100
AcDbEntity
  8
0
 62
7
100
AcDbSpline
 70
8
 71
3
 72
8
 73
4
 74
0
 40
0
 40
0
 40
0
 40
0
 40
1
 40
1
 40
1
 40
1
 10
-67.830000
 20
116.726347
 30
0.0
 10
-68.479742
 20
116.351218
 30
0.0
 10
-69.280258
 20
116.351218
 30
0.0
 10
-69.930000
 20
116.726347
 30
0.0
  0
SPLINE
  5
21a
100
AcDbEntity
  8
0
 62
7
100
AcDbSpline
 70
8
 71
3
 72
8
 73
4
 74
0
 40
0
 40
0
 40
0
 40
0
 40
1
 40
1
 40
1
 40
1
 10
-69.930000
 20
116.726347
 30
0.0
 10
-70.579742
 20
117.101476
 30
0.0
 10
-70.980000
 20
117.794742
 30
0.0
 10
-70.980000
 20
118.545000
 30
0.0
  0
SPLINE
  5
21b
100
AcDbEntity
  8
0
 62
7
100
AcDbSpline
 70
8
 71
3
 72
8
 73
4
 74
0
 40
0
 40
0
 40
0
 40
0
 40
1
 40
1
 40
1
 40
1
 10
-70.980000
 20
118.545000
 30
0.0
 10
-70.980000
 20
119.295258
 30
0.0
 10
-70.579742
 20
119.988524
 30
0.0
 10
-69.930000
 20
120.363653
 30
0.0
  0
SPLINE
  5
21c
100
AcDbEntity
  8
0
 62
7
100
AcDbSpline
 70
8
 71
3
 72
8
 73
4
 74
0
 40
0
 40
0
 40
0
 40
0
 40
1
 40
1
 40
1
 40
1
 10
-69.930000
 20
120.363653
 30
0.0
 10
-69.280258
 20
120.738782
 30
0.0
 10
-68.479742
 20
120.738782
 30
0.0
 10
-67.830000
 20
120.363653
 30
0.0
  0
SPLINE
  5
21d
100
AcDbEntity
  8
0
 62
7
100
AcDbSpline
 70
8
 71
3
 72
8
 73
4
 74
0
 40
0
 40
0
 40
0
 40
0
 40
1
 40
1
 40
1
 40
1
 10
-67.830000
 20
120.363653
 30
0.0
 10
-67.180258
 20
119.988524
 30
0.0
 10
-66.780000
 20
119.295258
 30
0.0
 10
-66.780000
 20
118.545000
 30
0.0
  0
LWPOLYLINE
  5
21e
100
AcDbEntity
  8
0
 62
7
100
AcDbPolyline
 90
1
 70
1
 10
-122.220000
 20
140.280000
 30
0.0
  0
SPLINE
  5
21f
100
AcDbEntity
  8
0
 62
7
100
AcDbSpline
 70
8
 71
3
 72
8
 73
4
 74
0
 40
0
 40
0
 40
0
 40
0
 40
1
 40
1
 40
1
 40
1
 10
-55.125000
 20
124.425000
 30
0.0
 10
-55.125000
 20
123.674742
 30
0.0
 10
-55.525258
 20
122.981476
 30
0.0
 10
-56.175000
 20
122.606347
 30
0.0
  0
SPLINE
  5
220
100
AcDbEntity
  8
0
 62
7
100
AcDbSpline
 70
8
 71
3
 72
8
 73
4
 74
0
 40
0
 40
0
 40
0
 40
0
 40
1
 40
1
 40
1
 40
1
 10
-56.175000
 20
122.606347
 30
0.0
 10
-56.824742
 20
122.231218
 30
0.0
 10
-57.625258
 20
122.231218
 30
0.0
 10
-58.275000
 20
122.606347
 30
0.0
  0
SPLINE
  5
221
100
AcDbEntity
  8
0
 62
7
100
AcDbSpline
 70
8
 71
3
 72
8
 73
4
 74
0
 40
0
 40
0
 40
0
 40
0
 40
1
 40
1
 40
1
 40
1
 10
-58.275000
 20
122.606347
 30
0.0
 10
-58.924742
 20
122.981476
 30
0.0
 10
-59.325000
 20
123.674742
 30
0.0
 10
-59.325000
 20
124.425000
 30
0.0
  0
SPLINE
  5
222
100
AcDbEntity
  8
0
 62
7
100
AcDbSpline
 70
8
 71
3
 72
8
 73
4
 74
0
 40
0
 40
0
 40
0
 40
0
 40
1
 40
1
 40
1
 40
1
 10
-59.325000
 20
124.425000
 30
0.0
 10
-59.325000
 20
125.175258
 30
0.0
 10
-58.924742
 20
125.868524
 30
0.0
 10
-58.275000
 20
126.243653
 30
0.0
  0
SPLINE
  5
223
100
AcDbEntity
  8
0
 62
7
100
AcDbSpline
 70
8
 71
3
 72
8
 73
4
 74
0
 40
0
 40
0
 40
0
 40
0
 40
1
 40
1
 40
1
 40
1
 10
-58.275000
 20
126.243653
 30
0.0
 10
-57.625258
 20
126.618782
 30
0.0
 10
-56.824742
 20
126.618782
 30
0.0
 10
-56.175000
 20
126.243653
 30
0.0
  0
SPLINE
  5
224
100
AcDbEntity
  8
0
 62
7
100
AcDbSpline
 70
8
 71
3
 72
8
 73
4
 74
0
 40
0
 40
0
 40
0
 40
0
 40
1
 40
1
 40
1
 40
1
 10
-56.175000
 20
126.243653
 30
0.0
 10
-55.525258
 20
125.868524
 30
0.0
 10
-55.125000
 20
125.175258
 30
0.0
 10
-55.125000
 20
124.425000
 30
0.0
  0
LWPOLYLINE
  5
225
100
AcDbEntity
  8
0
 62
7
100
AcDbPolyline
 90
1
 70
1
 10
-66.780000
 20
118.545000
 30
0.0
  0
SPLINE
  5
226
100
AcDbEntity
  8
0
 62
7
100
AcDbSpline
 70
8
 71
3
 72
8
 73
4
 74
0
 40
0
 40
0
 40
0
 40
0
 40
1
 40
1
 40
1
 40
1
 10
-42.210000
 20
215.145000
 30
0.0
 10
-42.210000
 20
214.394742
 30
0.0
 10
-42.610258
 20
213.701476
 30
0.0
 10
-43.260000
 20
213.326347
 30
0.0
  0
SPLINE
  5
227
100
AcDbEntity
  8
0
 62
7
100
AcDbSpline
 70
8
 71
3
 72
8
 73
4
 74
0
 40
0
 40
0
 40
0
 40
0
 40
1
 40
1
 40
1
 40
1
 10
-43.260000
 20
213.326347
 30
0.0
 10
-43.909742
 20
212.951218
 30
0.0
 10
-44.710258
 20
212.951218
 30
0.0
 10
-45.360000
 20
213.326347
 30
0.0
  0
SPLINE
  5
228
100
AcDbEntity
  8
0
 62
7
100
AcDbSpline
 70
8
 71
3
 72
8
 73
4
 74
0
 40
0
 40
0
 40
0
 40
0
 40
1
 40
1
 40
1
 40
1
 10
-45.360000
 20
213.326347
 30
0.0
 10
-46.009742
 20
213.701476
 30
0.0
 10
-46.410000
 20
214.394742
 30
0.0
 10
-46.410000
 20
215.145000
 30
0.0
  0
SPLINE
  5
229
100
AcDbEntity
  8
0
 62
7
100
AcDbSpline
 70
8
 71
3
 72
8
 73
4
 74
0
 40
0
 40
0
 40
0
 40
0
 40
1
 40
1
 40
1
 40
1
 10
-46.410000
 20
215.145000
 30
0.0
 10
-46.410000
 20
215.895258
 30
0.0
 10
-46.009742
 20
216.588524
 30
0.0
 10
-45.360000
 20
216.963653
 30
0.0
  0
SPLINE
  5
22a
100
AcDbEntity
  8
0
 62
7
100
AcDbSpline
 70
8
 71
3
 72
8
 73
4
 74
0
 40
0
 40
0
 40
0
 40
0
 40
1
 40
1
 40
1
 40
1
 10
-45.360000
 20
216.963653
 30
0.0
 10
-44.710258
 20
217.338782
 30
0.0
 10
-43.909742
 20
217.338782
 30
0.0
 10
-43.260000
 20
216.963653
 30
0.0
  0
SPLINE
  5
22b
100
AcDbEntity
  8
0
 62
7
100
AcDbSpline
 70
8
 71
3
 72
8
 73
4
 74
0
 40
0
 40
0
 40
0
 40
0
 40
1
 40
1
 40
1
 40
1
 10
-43.260000
 20
216.963653
 30
0.0
 10
-42.610258
 20
216.588524
 30
0.0
 10
-42.210000
 20
215.895258
 30
0.0
 10
-42.210000
 20
215.145000
 30
0.0
  0
LWPOLYLINE
  5
22c
100
AcDbEntity
  8
0
 62
7
100
AcDbPolyline
 90
1
 70
1
 10
-55.125000
 20
124.425000
 30
0.0
  0
SPLINE
  5
22d
100
AcDbEntity
  8
0
 62
7
100
AcDbSpline
 70
8
 71
3
 72
8
 73
4
 74
0
 40
0
 40
0
 40
0
 40
0
 40
1
 40
1
 40
1
 40
1
 10
-32.760000
 20
217.875000
 30
0.0
 10
-32.760000
 20
217.124742
 30
0.0
 10
-33.160258
 20
216.431476
 30
0.0
 10
-33.810000
 20
216.056347
 30
0.0
  0
SPLINE
  5
22e
100
AcDbEntity
  8
0
 62
7
100
AcDbSpline
 70
8
 71
3
 72
8
 73
4
 74
0
 40
0
 40
0
 40
0
 40
0
 40
1
 40
1
 40
1
 40
1
 10
-33.810000
 20
216.056347
 30
0.0
 10
-34.459742
 20
215.681218
 30
0.0
 10
-35.260258
 20
215.681218
 30
0.0
 10
-35.910000
 20
216.056347
 30
0.0
  0
SPLINE
  5
22f
100
AcDbEntity
  8
0
 62
7
100
AcDbSpline
 70
8
 71
3
 72
8
 73
4
 74
0
 40
0
 40
0
 40
0
 40
0
 40
1
 40
1
 40
1
 40
1
 10
-35.910000
 20
216.056347
 30
0.0
 10
-36.559742
 20
216.431476
 30
0.0
 10
-36.960000
 20
217.124742
 30
0.0
 10
-36.960000
 20
217.875000
 30
0.0
  0
SPLINE
  5
230
100
AcDbEntity
  8
0
 62
7
100
AcDbSpline
 70
8
 71
3
 72
8
 73
4
 74
0
 40
0
 40
0
 40
0
 40
0
 40
1
 40
1
 40
1
 40
1
 10
-36.960000
 20
217.875000
 30
0.0
 10
-36.960000
 20
218.625258
 30
0.0
 10
-36.559742
 20
219.318524
 30
0.0
 10
-35.910000
 20
219.693653
 30
0.0
  0
SPLINE
  5
231
100
AcDbEntity
  8
0
 62
7
100
AcDbSpline
 70
8
 71
3
 72
8
 73
4
 74
0
 40
0
 40
0
 40
0
 40
0
 40
1
 40
1
 40
1
 40
1
 10
-35.910000
 20
219.693653
 30
0.0
 10
-35.260258
 20
220.068782
 30
0.0
 10
-34.459742
 20
220.068782
 30
0.0
 10
-33.810000
 20
219.693653
 30
0.0
  0
SPLINE
  5
232
100
AcDbEntity
  8
0
 62
7
100
AcDbSpline
 70
8
 71
3
 72
8
 73
4
 74
0
 40
0
 40
0
 40
0
 40
0
 40
1
 40
1
 40
1
 40
1
 10
-33.810000
 20
219.693653
 30
0.0
 10
-33.160258
 20
219.318524
 30
0.0
 10
-32.760000
 20
218.625258
 30
0.0
 10
-32.760000
 20
217.875000
 30
0.0
  0
LWPOLYLINE
  5
233
100
AcDbEntity
  8
0
 62
7
100
AcDbPolyline
 90
1
 70
1
 10
-42.210000
 20
215.145000
 30
0.0
  0
SPLINE
  5
234
100
AcDbEntity
  8
0
 62
7
100
AcDbSpline
 70
8
 71
3
 72
8
 73
4
 74
0
 40
0
 40
0
 40
0
 40
0
 40
1
 40
1
 40
1
 40
1
 10
36.960000
 20
217.875000
 30
0.0
 10
36.960000
 20
217.124742
 30
0.0
 10
36.559742
 20
216.431476
 30
0.0
 10
35.910000
 20
216.056347
 30
0.0
  0
SPLINE
  5
235
100
AcDbEntity
  8
0
 62
7
100
AcDbSpline
 70
8
 71
3
 72
8
 73
4
 74
0
 40
0
 40
0
 40
0
 40
0
 40
1
 40
1
 40
1
 40
1
 10
35.910000
 20
216.056347
 30
0.0
 10
35.260258
 20
215.681218
 30
0.0
 10
34.459742
 20
215.681218
 30
0.0
 10
33.810000
 20
216.056347
 30
0.0
  0
SPLINE
  5
236
100
AcDbEntity
  8
0
 62
7
100
AcDbSpline
 70
8
 71
3
 72
8
 73
4
 74
0
 40
0
 40
0
 40
0
 40
0
 40
1
 40
1
 40
1
 40
1
 10
33.810000
 20
216.056347
 30
0.0
 10
33.160258
 20
216.431476
 30
0.0
 10
32.760000
 20
217.124742
 30
0.0
 10
32.760000
 20
217.875000
 30
0.0
  0
SPLINE
  5
237
100
AcDbEntity
  8
0
 62
7
100
AcDbSpline
 70
8
 71
3
 72
8
 73
4
 74
0
 40
0
 40
0
 40
0
 40
0
 40
1
 40
1
 40
1
 40
1
 10
32.760000
 20
217.875000
 30
0.0
 10
32.760000
 20
218.625258
 30
0.0
 10
33.160258
 20
219.318524
 30
0.0
 10
33.810000
 20
219.693653
 30
0.0
  0
SPLINE
  5
238
100
AcDbEntity
  8
0
 62
7
100
AcDbSpline
 70
8
 71
3
 72
8
 73
4
 74
0
 40
0
 40
0
 40
0
 40
0
 40
1
 40
1
 40
1
 40
1
 10
33.810000
 20
219.693653
 30
0.0
 10
34.459742
 20
220.068782
 30
0.0
 10
35.260258
 20
220.068782
 30
0.0
 10
35.910000
 20
219.693653
 30
0.0
  0
SPLINE
  5
239
100
AcDbEntity
  8
0
 62
7
100
AcDbSpline
 70
8
 71
3
 72
8
 73
4
 74
0
 40
0
 40
0
 40
0
 40
0
 40
1
 40
1
 40
1
 40
1
 10
35.910000
 20
219.693653
 30
0.0
 10
36.559742
 20
219.318524
 30
0.0
 10
36.960000
 20
218.625258
 30
0.0
 10
36.960000
 20
217.875000
 30
0.0
  0
LWPOLYLINE
  5
23a
100
AcDbEntity
  8
0
 62
7
100
AcDbPolyline
 90
1
 70
1
 10
-32.760000
 20
217.875000
 30
0.0
  0
SPLINE
  5
23b
100
AcDbEntity
  8
0
 62
7
100
AcDbSpline
 70
8
 71
3
 72
8
 73
4
 74
0
 40
0
 40
0
 40
0
 40
0
 40
1
 40
1
 40
1
 40
1
 10
46.410000
 20
215.145000
 30
0.0
 10
46.410000
 20
214.394742
 30
0.0
 10
46.009742
 20
213.701476
 30
0.0
 10
45.360000
 20
213.326347
 30
0.0
  0
SPLINE
  5
23c
100
AcDbEntity
  8
0
 62
7
100
AcDbSpline
 70
8
 71
3
 72
8
 73
4
 74
0
 40
0
 40
0
 40
0
 40
0
 40
1
 40
1
 40
1
 40
1
 10
45.360000
 20
213.326347
 30
0.0
 10
44.710258
 20
212.951218
 30
0.0
 10
43.909742
 20
212.951218
 30
0.0
 10
43.260000
 20
213.326347
 30
0.0
  0
SPLINE
  5
23d
100
AcDbEntity
  8
0
 62
7
100
AcDbSpline
 70
8
 71
3
 72
8
 73
4
 74
0
 40
0
 40
0
 40
0
 40
0
 40
1
 40
1
 40
1
 40
1
 10
43.260000
 20
213.326347
 30
0.0
 10
42.610258
 20
213.701476
 30
0.0
 10
42.210000
 20
214.394742
 30
0.0
 10
42.210000
 20
215.145000
 30
0.0
  0
SPLINE
  5
23e
100
AcDbEntity
  8
0
 62
7
100
AcDbSpline
 70
8
 71
3
 72
8
 73
4
 74
0
 40
0
 40
0
 40
0
 40
0
 40
1
 40
1
 40
1
 40
1
 10
42.210000
 20
215.145000
 30
0.0
 10
42.210000
 20
215.895258
 30
0.0
 10
42.610258
 20
216.588524
 30
0.0
 10
43.260000
 20
216.963653
 30
0.0
  0
SPLINE
  5
23f
100
AcDbEntity
  8
0
 62
7
100
AcDbSpline
 70
8
 71
3
 72
8
 73
4
 74
0
 40
0
 40
0
 40
0
 40
0
 40
1
 40
1
 40
1
 40
1
 10
43.260000
 20
216.963653
 30
0.0
 10
43.909742
 20
217.338782
 30
0.0
 10
44.710258
 20
217.338782
 30
0.0
 10
45.360000
 20
216.963653
 30
0.0
  0
SPLINE
  5
240
100
AcDbEntity
  8
0
 62
7
100
AcDbSpline
 70
8
 71
3
 72
8
 73
4
 74
0
 40
0
 40
0
 40
0
 40
0
 40
1
 40
1
 40
1
 40
1
 10
45.360000
 20
216.963653
 30
0.0
 10
46.009742
 20
216.588524
 30
0.0
 10
46.410000
 20
215.895258
 30
0.0
 10
46.410000
 20
215.145000
 30
0.0
  0
LWPOLYLINE
  5
241
100
AcDbEntity
  8
0
 62
7
100
AcDbPolyline
 90
1
 70
1
 10
36.960000
 20
217.875000
 30
0.0
  0
SPLINE
  5
242
100
AcDbEntity
  8
0
 62
7
100
AcDbSpline
 70
8
 71
3
 72
8
 73
4
 74
0
 40
0
 40
0
 40
0
 40
0
 40
1
 40
1
 40
1
 40
1
 10
59.325000
 20
124.425000
 30
0.0
 10
59.325000
 20
123.674742
 30
0.0
 10
58.924742
 20
122.981476
 30
0.0
 10
58.275000
 20
122.606347
 30
0.0
  0
SPLINE
  5
243
100
AcDbEntity
  8
0
 62
7
100
AcDbSpline
 70
8
 71
3
 72
8
 73
4
 74
0
 40
0
 40
0
 40
0
 40
0
 40
1
 40
1
 40
1
 40
1
 10
58.275000
 20
122.606347
 30
0.0
 10
57.625258
 20
122.231218
 30
0.0
 10
56.824742
 20
122.231218
 30
0.0
 10
56.175000
 20
122.606347
 30
0.0
  0
SPLINE
  5
244
100
AcDbEntity
  8
0
 62
7
100
AcDbSpline
 70
8
 71
3
 72
8
 73
4
 74
0
 40
0
 40
0
 40
0
 40
0
 40
1
 40
1
 40
1
 40
1
 10
56.175000
 20
122.606347
 30
0.0
 10
55.525258
 20
122.981476
 30
0.0
 10
55.125000
 20
123.674742
 30
0.0
 10
55.125000
 20
124.425000
 30
0.0
  0
SPLINE
  5
245
100
AcDbEntity
  8
0
 62
7
100
AcDbSpline
 70
8
 71
3
 72
8
 73
4
 74
0
 40
0
 40
0
 40
0
 40
0
 40
1
 40
1
 40
1
 40
1
 10
55.125000
 20
124.425000
 30
0.0
 10
55.125000
 20
125.175258
 30
0.0
 10
55.525258
 20
125.868524
 30
0.0
 10
56.175000
 20
126.243653
 30
0.0
  0
SPLINE
  5
246
100
AcDbEntity
  8
0
 62
7
100
AcDbSpline
 70
8
 71
3
 72
8
 73
4
 74
0
 40
0
 40
0
 40
0
 40
0
 40
1
 40
1
 40
1
 40
1
 10
56.175000
 20
126.243653
 30
0.0
 10
56.824742
 20
126.618782
 30
0.0
 10
57.625258
 20
126.618782
 30
0.0
 10
58.275000
 20
126.243653
 30
0.0
  0
SPLINE
  5
247
100
AcDbEntity
  8
0
 62
7
100
AcDbSpline
 70
8
 71
3
 72
8
 73
4
 74
0
 40
0
 40
0
 40
0
 40
0
 40
1
 40
1
 40
1
 40
1
 10
58.275000
 20
126.243653
 30
0.0
 10
58.924742
 20
125.868524
 30
0.0
 10
59.325000
 20
125.175258
 30
0.0
 10
59.325000
 20
124.425000
 30
0.0
  0
LWPOLYLINE
  5
248
100
AcDbEntity
  8
0
 62
7
100
AcDbPolyline
 90
1
 70
1
 10
46.410000
 20
215.145000
 30
0.0
  0
SPLINE
  5
249
100
AcDbEntity
  8
0
 62
7
100
AcDbSpline
 70
8
 71
3
 72
8
 73
4
 74
0
 40
0
 40
0
 40
0
 40
0
 40
1
 40
1
 40
1
 40
1
 10
70.980000
 20
118.545000
 30
0.0
 10
70.980000
 20
117.794742
 30
0.0
 10
70.579742
 20
117.101476
 30
0.0
 10
69.930000
 20
116.726347
 30
0.0
  0
SPLINE
  5
24a
100
AcDbEntity
  8
0
 62
7
100
AcDbSpline
 70
8
 71
3
 72
8
 73
4
 74
0
 40
0
 40
0
 40
0
 40
0
 40
1
 40
1
 40
1
 40
1
 10
69.930000
 20
116.726347
 30
0.0
 10
69.280258
 20
116.351218
 30
0.0
 10
68.479742
 20
116.351218
 30
0.0
 10
67.830000
 20
116.726347
 30
0.0
  0
SPLINE
  5
24b
100
AcDbEntity
  8
0
 62
7
100
AcDbSpline
 70
8
 71
3
 72
8
 73
4
 74
0
 40
0
 40
0
 40
0
 40
0
 40
1
 40
1
 40
1
 40
1
 10
67.830000
 20
116.726347
 30
0.0
 10
67.180258
 20
117.101476
 30
0.0
 10
66.780000
 20
117.794742
 30
0.0
 10
66.780000
 20
118.545000
 30
0.0
  0
SPLINE
  5
24c
100
AcDbEntity
  8
0
 62
7
100
AcDbSpline
 70
8
 71
3
 72
8
 73
4
 74
0
 40
0
 40
0
 40
0
 40
0
 40
1
 40
1
 40
1
 40
1
 10
66.780000
 20
118.545000
 30
0.0
 10
66.780000
 20
119.704798
 30
0.0
 10
67.720202
 20
120.645000
 30
0.0
 10
68.880000
 20
120.645000
 30
0.0
  0
SPLINE
  5
24d
100
AcDbEntity
  8
0
 62
7
100
AcDbSpline
 70
8
 71
3
 72
8
 73
4
 74
0
 40
0
 40
0
 40
0
 40
0
 40
1
 40
1
 40
1
 40
1
 10
68.880000
 20
120.645000
 30
0.0
 10
70.039798
 20
120.645000
 30
0.0
 10
70.980000
 20
119.704798
 30
0.0
 10
70.980000
 20
118.545000
 30
0.0
  0
LWPOLYLINE
  5
24e
100
AcDbEntity
  8
0
 62
7
100
AcDbPolyline
 90
1
 70
1
 10
59.325000
 20
124.425000
 30
0.0
  0
SPLINE
  5
24f
100
AcDbEntity
  8
0
 62
7
100
AcDbSpline
 70
8
 71
3
 72
8
 73
4
 74
0
 40
0
 40
0
 40
0
 40
0
 40
1
 40
1
 40
1
 40
1
 10
126.420000
 20
140.280000
 30
0.0
 10
126.420000
 20
139.529742
 30
0.0
 10
126.019742
 20
138.836476
 30
0.0
 10
125.370000
 20
138.461347
 30
0.0
  0
SPLINE
  5
250
100
AcDbEntity
  8
0
 62
7
100
AcDbSpline
 70
8
 71
3
 72
8
 73
4
 74
0
 40
0
 40
0
 40
0
 40
0
 40
1
 40
1
 40
1
 40
1
 10
125.370000
 20
138.461347
 30
0.0
 10
124.720258
 20
138.086218
 30
0.0
 10
123.919742
 20
138.086218
 30
0.0
 10
123.270000
 20
138.461347
 30
0.0
  0
SPLINE
  5
251
100
AcDbEntity
  8
0
 62
7
100
AcDbSpline
 70
8
 71
3
 72
8
 73
4
 74
0
 40
0
 40
0
 40
0
 40
0
 40
1
 40
1
 40
1
 40
1
 10
123.270000
 20
138.461347
 30
0.0
 10
122.620258
 20
138.836476
 30
0.0
 10
122.220000
 20
139.529742
 30
0.0
 10
122.220000
 20
140.280000
 30
0.0
  0
SPLINE
  5
252
100
AcDbEntity
  8
0
 62
7
100
AcDbSpline
 70
8
 71
3
 72
8
 73
4
 74
0
 40
0
 40
0
 40
0
 40
0
 40
1
 40
1
 40
1
 40
1
 10
122.220000
 20
140.280000
 30
0.0
 10
122.220000
 20
141.030258
 30
0.0
 10
122.620258
 20
141.723524
 30
0.0
 10
123.270000
 20
142.098653
 30
0.0
  0
SPLINE
  5
253
100
AcDbEntity
  8
0
 62
7
100
AcDbSpline
 70
8
 71
3
 72
8
 73
4
 74
0
 40
0
 40
0
 40
0
 40
0
 40
1
 40
1
 40
1
 40
1
 10
123.270000
 20
142.098653
 30
0.0
 10
123.919742
 20
142.473782
 30
0.0
 10
124.720258
 20
142.473782
 30
0.0
 10
125.370000
 20
142.098653
 30
0.0
  0
SPLINE
  5
254
100
AcDbEntity
  8
0
 62
7
100
AcDbSpline
 70
8
 71
3
 72
8
 73
4
 74
0
 40
0
 40
0
 40
0
 40
0
 40
1
 40
1
 40
1
 40
1
 10
125.370000
 20
142.098653
 30
0.0
 10
126.019742
 20
141.723524
 30
0.0
 10
126.420000
 20
141.030258
 30
0.0
 10
126.420000
 20
140.280000
 30
0.0
  0
LWPOLYLINE
  5
255
100
AcDbEntity
  8
0
 62
7
100
AcDbPolyline
 90
1
 70
1
 10
70.980000
 20
118.545000
 30
0.0
  0
SPLINE
  5
256
100
AcDbEntity
  8
0
 62
7
100
AcDbSpline
 70
8
 71
3
 72
8
 73
4
 74
0
 40
0
 40
0
 40
0
 40
0
 40
1
 40
1
 40
1
 40
1
 10
134.190000
 20
136.185000
 30
0.0
 10
134.190000
 20
135.434742
 30
0.0
 10
133.789742
 20
134.741476
 30
0.0
 10
133.140000
 20
134.366347
 30
0.0
  0
SPLINE
  5
257
100
AcDbEntity
  8
0
 62
7
100
AcDbSpline
 70
8
 71
3
 72
8
 73
4
 74
0
 40
0
 40
0
 40
0
 40
0
 40
1
 40
1
 40
1
 40
1
 10
133.140000
 20
134.366347
 30
0.0
 10
132.490258
 20
133.991218
 30
0.0
 10
131.689742
 20
133.991218
 30
0.0
 10
131.040000
 20
134.366347
 30
0.0
  0
SPLINE
  5
258
100
AcDbEntity
  8
0
 62
7
100
AcDbSpline
 70
8
 71
3
 72
8
 73
4
 74
0
 40
0
 40
0
 40
0
 40
0
 40
1
 40
1
 40
1
 40
1
 10
131.040000
 20
134.366347
 30
0.0
 10
130.390258
 20
134.741476
 30
0.0
 10
129.990000
 20
135.434742
 30
0.0
 10
129.990000
 20
136.185000
 30
0.0
  0
SPLINE
  5
259
100
AcDbEntity
  8
0
 62
7
100
AcDbSpline
 70
8
 71
3
 72
8
 73
4
 74
0
 40
0
 40
0
 40
0
 40
0
 40
1
 40
1
 40
1
 40
1
 10
129.990000
 20
136.185000
 30
0.0
 10
129.990000
 20
136.935258
 30
0.0
 10
130.390258
 20
137.628524
 30
0.0
 10
131.040000
 20
138.003653
 30
0.0
  0
SPLINE
  5
25a
100
AcDbEntity
  8
0
 62
7
100
AcDbSpline
 70
8
 71
3
 72
8
 73
4
 74
0
 40
0
 40
0
 40
0
 40
0
 40
1
 40
1
 40
1
 40
1
 10
131.040000
 20
138.003653
 30
0.0
 10
131.689742
 20
138.378782
 30
0.0
 10
132.490258
 20
138.378782
 30
0.0
 10
133.140000
 20
138.003653
 30
0.0
  0
SPLINE
  5
25b
100
AcDbEntity
  8
0
 62
7
100
AcDbSpline
 70
8
 71
3
 72
8
 73
4
 74
0
 40
0
 40
0
 40
0
 40
0
 40
1
 40
1
 40
1
 40
1
 10
133.140000
 20
138.003653
 30
0.0
 10
133.789742
 20
137.628524
 30
0.0
 10
134.190000
 20
136.935258
 30
0.0
 10
134.190000
 20
136.185000
 30
0.0
  0
LWPOLYLINE
  5
25c
100
AcDbEntity
  8
0
 62
7
100
AcDbPolyline
 90
1
 70
1
 10
126.420000
 20
140.280000
 30
0.0
  0
SPLINE
  5
25d
100
AcDbEntity
  8
0
 62
7
100
AcDbSpline
 70
8
 71
3
 72
8
 73
4
 74
0
 40
0
 40
0
 40
0
 40
0
 40
1
 40
1
 40
1
 40
1
 10
171.570000
 20
88.200000
 30
0.0
 10
171.570000
 20
87.449742
 30
0.0
 10
171.169742
 20
86.756476
 30
0.0
 10
170.520000
 20
86.381347
 30
0.0
  0
SPLINE
  5
25e
100
AcDbEntity
  8
0
 62
7
100
AcDbSpline
 70
8
 71
3
 72
8
 73
4
 74
0
 40
0
 40
0
 40
0
 40
0
 40
1
 40
1
 40
1
 40
1
 10
170.520000
 20
86.381347
 30
0.0
 10
169.870258
 20
86.006218
 30
0.0
 10
169.069742
 20
86.006218
 30
0.0
 10
168.420000
 20
86.381347
 30
0.0
  0
SPLINE
  5
25f
100
AcDbEntity
  8
0
 62
7
100
AcDbSpline
 70
8
 71
3
 72
8
 73
4
 74
0
 40
0
 40
0
 40
0
 40
0
 40
1
 40
1
 40
1
 40
1
 10
168.420000
 20
86.381347
 30
0.0
 10
167.770258
 20
86.756476
 30
0.0
 10
167.370000
 20
87.449742
 30
0.0
 10
167.370000
 20
88.200000
 30
0.0
  0
SPLINE
  5
260
100
AcDbEntity
  8
0
 62
7
100
AcDbSpline
 70
8
 71
3
 72
8
 73
4
 74
0
 40
0
 40
0
 40
0
 40
0
 40
1
 40
1
 40
1
 40
1
 10
167.370000
 20
88.200000
 30
0.0
 10
167.370000
 20
88.950258
 30
0.0
 10
167.770258
 20
89.643524
 30
0.0
 10
168.420000
 20
90.018653
 30
0.0
  0
SPLINE
  5
261
100
AcDbEntity
  8
0
 62
7
100
AcDbSpline
 70
8
 71
3
 72
8
 73
4
 74
0
 40
0
 40
0
 40
0
 40
0
 40
1
 40
1
 40
1
 40
1
 10
168.420000
 20
90.018653
 30
0.0
 10
169.069742
 20
90.393782
 30
0.0
 10
169.870258
 20
90.393782
 30
0.0
 10
170.520000
 20
90.018653
 30
0.0
  0
SPLINE
  5
262
100
AcDbEntity
  8
0
 62
7
100
AcDbSpline
 70
8
 71
3
 72
8
 73
4
 74
0
 40
0
 40
0
 40
0
 40
0
 40
1
 40
1
 40
1
 40
1
 10
170.520000
 20
90.018653
 30
0.0
 10
171.169742
 20
89.643524
 30
0.0
 10
171.570000
 20
88.950258
 30
0.0
 10
171.570000
 20
88.200000
 30
0.0
  0
LWPOLYLINE
  5
263
100
AcDbEntity
  8
0
 62
7
100
AcDbPolyline
 90
1
 70
1
 10
134.190000
 20
136.185000
 30
0.0
  0
SPLINE
  5
264
100
AcDbEntity
  8
0
 62
7
100
AcDbSpline
 70
8
 71
3
 72
8
 73
4
 74
0
 40
0
 40
0
 40
0
 40
0
 40
1
 40
1
 40
1
 40
1
 10
175.140000
 20
79.905000
 30
0.0
 10
175.140000
 20
79.154742
 30
0.0
 10
174.739742
 20
78.461476
 30
0.0
 10
174.090000
 20
78.086347
 30
0.0
  0
SPLINE
  5
265
100
AcDbEntity
  8
0
 62
7
100
AcDbSpline
 70
8
 71
3
 72
8
 73
4
 74
0
 40
0
 40
0
 40
0
 40
0
 40
1
 40
1
 40
1
 40
1
 10
174.090000
 20
78.086347
 30
0.0
 10
173.440258
 20
77.711218
 30
0.0
 10
172.639742
 20
77.711218
 30
0.0
 10
171.990000
 20
78.086347
 30
0.0
  0
SPLINE
  5
266
100
AcDbEntity
  8
0
 62
7
100
AcDbSpline
 70
8
 71
3
 72
8
 73
4
 74
0
 40
0
 40
0
 40
0
 40
0
 40
1
 40
1
 40
1
 40
1
 10
171.990000
 20
78.086347
 30
0.0
 10
171.340258
 20
78.461476
 30
0.0
 10
170.940000
 20
79.154742
 30
0.0
 10
170.940000
 20
79.905000
 30
0.0
  0
SPLINE
  5
267
100
AcDbEntity
  8
0
 62
7
100
AcDbSpline
 70
8
 71
3
 72
8
 73
4
 74
0
 40
0
 40
0
 40
0
 40
0
 40
1
 40
1
 40
1
 40
1
 10
170.940000
 20
79.905000
 30
0.0
 10
170.940000
 20
80.655258
 30
0.0
 10
171.340258
 20
81.348524
 30
0.0
 10
171.990000
 20
81.723653
 30
0.0
  0
SPLINE
  5
268
100
AcDbEntity
  8
0
 62
7
100
AcDbSpline
 70
8
 71
3
 72
8
 73
4
 74
0
 40
0
 40
0
 40
0
 40
0
 40
1
 40
1
 40
1
 40
1
 10
171.990000
 20
81.723653
 30
0.0
 10
172.639742
 20
82.098782
 30
0.0
 10
173.440258
 20
82.098782
 30
0.0
 10
174.090000
 20
81.723653
 30
0.0
  0
SPLINE
  5
269
100
AcDbEntity
  8
0
 62
7
100
AcDbSpline
 70
8
 71
3
 72
8
 73
4
 74
0
 40
0
 40
0
 40
0
 40
0
 40
1
 40
1
 40
1
 40
1
 10
174.090000
 20
81.723653
 30
0.0
 10
174.739742
 20
81.348524
 30
0.0
 10
175.140000
 20
80.655258
 30
0.0
 10
175.140000
 20
79.905000
 30
0.0
  0
LWPOLYLINE
  5
26a
100
AcDbEntity
  8
0
 62
7
100
AcDbPolyline
 90
1
 70
1
 10
171.570000
 20
88.200000
 30
0.0
  0
SPLINE
  5
26b
100
AcDbEntity
  8
0
 62
7
100
AcDbSpline
 70
8
 71
3
 72
8
 73
4
 74
0
 40
0
 40
0
 40
0
 40
0
 40
1
 40
1
 40
1
 40
1
 10
98.490000
 20
-10.395000
 30
0.0
 10
98.490000
 20
-11.145258
 30
0.0
 10
98.089742
 20
-11.838524
 30
0.0
 10
97.440000
 20
-12.213653
 30
0.0
  0
SPLINE
  5
26c
100
AcDbEntity
  8
0
 62
7
100
AcDbSpline
 70
8
 71
3
 72
8
 73
4
 74
0
 40
0
 40
0
 40
0
 40
0
 40
1
 40
1
 40
1
 40
1
 10
97.440000
 20
-12.213653
 30
0.0
 10
96.790258
 20
-12.588782
 30
0.0
 10
95.989742
 20
-12.588782
 30
0.0
 10
95.340000
 20
-12.213653
 30
0.0
  0
SPLINE
  5
26d
100
AcDbEntity
  8
0
 62
7
100
AcDbSpline
 70
8
 71
3
 72
8
 73
4
 74
0
 40
0
 40
0
 40
0
 40
0
 40
1
 40
1
 40
1
 40
1
 10
95.340000
 20
-12.213653
 30
0.0
 10
94.690258
 20
-11.838524
 30
0.0
 10
94.290000
 20
-11.145258
 30
0.0
 10
94.290000
 20
-10.395000
 30
0.0
  0
SPLINE
  5
26e
100
AcDbEntity
  8
0
 62
7
100
AcDbSpline
 70
8
 71
3
 72
8
 73
4
 74
0
 40
0
 40
0
 40
0
 40
0
 40
1
 40
1
 40
1
 40
1
 10
94.290000
 20
-10.395000
 30
0.0
 10
94.290000
 20
-9.644742
 30
0.0
 10
94.690258
 20
-8.951476
 30
0.0
 10
95.340000
 20
-8.576347
 30
0.0
  0
SPLINE
  5
26f
100
AcDbEntity
  8
0
 62
7
100
AcDbSpline
 70
8
 71
3
 72
8
 73
4
 74
0
 40
0
 40
0
 40
0
 40
0
 40
1
 40
1
 40
1
 40
1
 10
95.340000
 20
-8.576347
 30
0.0
 10
95.989742
 20
-8.201218
 30
0.0
 10
96.790258
 20
-8.201218
 30
0.0
 10
97.440000
 20
-8.576347
 30
0.0
  0
SPLINE
  5
270
100
AcDbEntity
  8
0
 62
7
100
AcDbSpline
 70
8
 71
3
 72
8
 73
4
 74
0
 40
0
 40
0
 40
0
 40
0
 40
1
 40
1
 40
1
 40
1
 10
97.440000
 20
-8.576347
 30
0.0
 10
98.089742
 20
-8.951476
 30
0.0
 10
98.490000
 20
-9.644742
 30
0.0
 10
98.490000
 20
-10.395000
 30
0.0
  0
LWPOLYLINE
  5
271
100
AcDbEntity
  8
0
 62
7
100
AcDbPolyline
 90
1
 70
1
 10
175.140000
 20
79.905000
 30
0.0
  0
SPLINE
  5
272
100
AcDbEntity
  8
0
 62
7
100
AcDbSpline
 70
8
 71
3
 72
8
 73
4
 74
0
 40
0
 40
0
 40
0
 40
0
 40
1
 40
1
 40
1
 40
1
 10
96.390000
 20
-17.955000
 30
0.0
 10
96.390000
 20
-18.705258
 30
0.0
 10
95.989742
 20
-19.398524
 30
0.0
 10
95.340000
 20
-19.773653
 30
0.0
  0
SPLINE
  5
273
100
AcDbEntity
  8
0
 62
7
100
AcDbSpline
 70
8
 71
3
 72
8
 73
4
 74
0
 40
0
 40
0
 40
0
 40
0
 40
1
 40
1
 40
1
 40
1
 10
95.340000
 20
-19.773653
 30
0.0
 10
94.690258
 20
-20.148782
 30
0.0
 10
93.889742
 20
-20.148782
 30
0.0
 10
93.240000
 20
-19.773653
 30
0.0
  0
SPLINE
  5
274
100
AcDbEntity
  8
0
 62
7
100
AcDbSpline
 70
8
 71
3
 72
8
 73
4
 74
0
 40
0
 40
0
 40
0
 40
0
 40
1
 40
1
 40
1
 40
1
 10
93.240000
 20
-19.773653
 30
0.0
 10
92.590258
 20
-19.398524
 30
0.0
 10
92.190000
 20
-18.705258
 30
0.0
 10
92.190000
 20
-17.955000
 30
0.0
  0
SPLINE
  5
275
100
AcDbEntity
  8
0
 62
7
100
AcDbSpline
 70
8
 71
3
 72
8
 73
4
 74
0
 40
0
 40
0
 40
0
 40
0
 40
1
 40
1
 40
1
 40
1
 10
92.190000
 20
-17.955000
 30
0.0
 10
92.190000
 20
-17.204742
 30
0.0
 10
92.590258
 20
-16.511476
 30
0.0
 10
93.240000
 20
-16.136347
 30
0.0
  0
SPLINE
  5
276
100
AcDbEntity
  8
0
 62
7
100
AcDbSpline
 70
8
 71
3
 72
8
 73
4
 74
0
 40
0
 40
0
 40
0
 40
0
 40
1
 40
1
 40
1
 40
1
 10
93.240000
 20
-16.136347
 30
0.0
 10
93.889742
 20
-15.761218
 30
0.0
 10
94.690258
 20
-15.761218
 30
0.0
 10
95.340000
 20
-16.136347
 30
0.0
  0
SPLINE
  5
277
100
AcDbEntity
  8
0
 62
7
100
AcDbSpline
 70
8
 71
3
 72
8
 73
4
 74
0
 40
0
 40
0
 40
0
 40
0
 40
1
 40
1
 40
1
 40
1
 10
95.340000
 20
-16.136347
 30
0.0
 10
95.989742
 20
-16.511476
 30
0.0
 10
96.390000
 20
-17.204742
 30
0.0
 10
96.390000
 20
-17.955000
 30
0.0
  0
LWPOLYLINE
  5
278
100
AcDbEntity
  8
0
 62
7
100
AcDbPolyline
 90
1
 70
1
 10
98.490000
 20
-10.395000
 30
0.0
  0
SPLINE
  5
279
100
AcDbEntity
  8
0
 62
7
100
AcDbSpline
 70
8
 71
3
 72
8
 73
4
 74
0
 40
0
 40
0
 40
0
 40
0
 40
1
 40
1
 40
1
 40
1
 10
18.480000
 20
-35.700000
 30
0.0
 10
18.480000
 20
-36.450258
 30
0.0
 10
18.079742
 20
-37.143524
 30
0.0
 10
17.430000
 20
-37.518653
 30
0.0
  0
SPLINE
  5
27a
100
AcDbEntity
  8
0
 62
7
100
AcDbSpline
 70
8
 71
3
 72
8
 73
4
 74
0
 40
0
 40
0
 40
0
 40
0
 40
1
 40
1
 40
1
 40
1
 10
17.430000
 20
-37.518653
 30
0.0
 10
16.780258
 20
-37.893782
 30
0.0
 10
15.979742
 20
-37.893782
 30
0.0
 10
15.330000
 20
-37.518653
 30
0.0
  0
SPLINE
  5
27b
100
AcDbEntity
  8
0
 62
7
100
AcDbSpline
 70
8
 71
3
 72
8
 73
4
 74
0
 40
0
 40
0
 40
0
 40
0
 40
1
 40
1
 40
1
 40
1
 10
15.330000
 20
-37.518653
 30
0.0
 10
14.680258
 20
-37.143524
 30
0.0
 10
14.280000
 20
-36.450258
 30
0.0
 10
14.280000
 20
-35.700000
 30
0.0
  0
SPLINE
  5
27c
100
AcDbEntity
  8
0
 62
7
100
AcDbSpline
 70
8
 71
3
 72
8
 73
4
 74
0
 40
0
 40
0
 40
0
 40
0
 40
1
 40
1
 40
1
 40
1
 10
14.280000
 20
-35.700000
 30
0.0
 10
14.280000
 20
-34.949742
 30
0.0
 10
14.680258
 20
-34.256476
 30
0.0
 10
15.330000
 20
-33.881347
 30
0.0
  0
SPLINE
  5
27d
100
AcDbEntity
  8
0
 62
7
100
AcDbSpline
 70
8
 71
3
 72
8
 73
4
 74
0
 40
0
 40
0
 40
0
 40
0
 40
1
 40
1
 40
1
 40
1
 10
15.330000
 20
-33.881347
 30
0.0
 10
15.979742
 20
-33.506218
 30
0.0
 10
16.780258
 20
-33.506218
 30
0.0
 10
17.430000
 20
-33.881347
 30
0.0
  0
SPLINE
  5
27e
100
AcDbEntity
  8
0
 62
7
100
AcDbSpline
 70
8
 71
3
 72
8
 73
4
 74
0
 40
0
 40
0
 40
0
 40
0
 40
1
 40
1
 40
1
 40
1
 10
17.430000
 20
-33.881347
 30
0.0
 10
18.079742
 20
-34.256476
 30
0.0
 10
18.480000
 20
-34.949742
 30
0.0
 10
18.480000
 20
-35.700000
 30
0.0
  0
LWPOLYLINE
  5
27f
100
AcDbEntity
  8
0
 62
7
100
AcDbPolyline
 90
1
 70
1
 10
96.390000
 20
-17.955000
 30
0.0
  0
SPLINE
  5
280
100
AcDbEntity
  8
0
 62
7
100
AcDbSpline
 70
8
 71
3
 72
8
 73
4
 74
0
 40
0
 40
0
 40
0
 40
0
 40
1
 40
1
 40
1
 40
1
 10
6.720000
 20
-46.095000
 30
0.0
 10
6.720000
 20
-46.845258
 30
0.0
 10
6.319742
 20
-47.538524
 30
0.0
 10
5.670000
 20
-47.913653
 30
0.0
  0
SPLINE
  5
281
100
AcDbEntity
  8
0
 62
7
100
AcDbSpline
 70
8
 71
3
 72
8
 73
4
 74
0
 40
0
 40
0
 40
0
 40
0
 40
1
 40
1
 40
1
 40
1
 10
5.670000
 20
-47.913653
 30
0.0
 10
5.020258
 20
-48.288782
 30
0.0
 10
4.219742
 20
-48.288782
 30
0.0
 10
3.570000
 20
-47.913653
 30
0.0
  0
SPLINE
  5
282
100
AcDbEntity
  8
0
 62
7
100
AcDbSpline
 70
8
 71
3
 72
8
 73
4
 74
0
 40
0
 40
0
 40
0
 40
0
 40
1
 40
1
 40
1
 40
1
 10
3.570000
 20
-47.913653
 30
0.0
 10
2.920258
 20
-47.538524
 30
0.0
 10
2.520000
 20
-46.845258
 30
0.0
 10
2.520000
 20
-46.095000
 30
0.0
  0
SPLINE
  5
283
100
AcDbEntity
  8
0
 62
7
100
AcDbSpline
 70
8
 71
3
 72
8
 73
4
 74
0
 40
0
 40
0
 40
0
 40
0
 40
1
 40
1
 40
1
 40
1
 10
2.520000
 20
-46.095000
 30
0.0
 10
2.520000
 20
-45.344742
 30
0.0
 10
2.920258
 20
-44.651476
 30
0.0
 10
3.570000
 20
-44.276347
 30
0.0
  0
SPLINE
  5
284
100
AcDbEntity
  8
0
 62
7
100
AcDbSpline
 70
8
 71
3
 72
8
 73
4
 74
0
 40
0
 40
0
 40
0
 40
0
 40
1
 40
1
 40
1
 40
1
 10
3.570000
 20
-44.276347
 30
0.0
 10
4.219742
 20
-43.901218
 30
0.0
 10
5.020258
 20
-43.901218
 30
0.0
 10
5.670000
 20
-44.276347
 30
0.0
  0
SPLINE
  5
285
100
AcDbEntity
  8
0
 62
7
100
AcDbSpline
 70
8
 71
3
 72
8
 73
4
 74
0
 40
0
 40
0
 40
0
 40
0
 40
1
 40
1
 40
1
 40
1
 10
5.670000
 20
-44.276347
 30
0.0
 10
6.319742
 20
-44.651476
 30
0.0
 10
6.720000
 20
-45.344742
 30
0.0
 10
6.720000
 20
-46.095000
 30
0.0
  0
LWPOLYLINE
  5
286
100
AcDbEntity
  8
0
 62
7
100
AcDbPolyline
 90
1
 70
1
 10
18.480000
 20
-35.700000
 30
0.0
  0
SPLINE
  5
287
100
AcDbEntity
  8
0
 62
7
100
AcDbSpline
 70
8
 71
3
 72
8
 73
4
 74
0
 40
0
 40
0
 40
0
 40
0
 40
1
 40
1
 40
1
 40
1
 10
-14.700000
 20
-45.570000
 30
0.0
 10
-14.700000
 20
-45.570000
 30
0.0
 10
-4.725000
 20
-46.095000
 30
0.0
 10
-4.725000
 20
-46.095000
 30
0.0
  0
SPLINE
  5
288
100
AcDbEntity
  8
0
 62
7
100
AcDbSpline
 70
8
 71
3
 72
8
 73
4
 74
0
 40
0
 40
0
 40
0
 40
0
 40
1
 40
1
 40
1
 40
1
 10
-4.725000
 20
-46.095000
 30
0.0
 10
-4.965825
 20
-51.319596
 30
0.0
 10
-9.201133
 20
-55.471026
 30
0.0
 10
-14.429501
 20
-55.607308
 30
0.0
  0
SPLINE
  5
289
100
AcDbEntity
  8
0
 62
7
100
AcDbSpline
 70
8
 71
3
 72
8
 73
4
 74
0
 40
0
 40
0
 40
0
 40
0
 40
1
 40
1
 40
1
 40
1
 10
-14.429501
 20
-55.607308
 30
0.0
 10
-19.657869
 20
-55.743590
 30
0.0
 10
-24.103700
 20
-51.818442
 30
0.0
 10
-24.616381
 20
-46.613486
 30
0.0
  0
SPLINE
  5
28a
100
AcDbEntity
  8
0
 62
7
100
AcDbSpline
 70
8
 71
3
 72
8
 73
4
 74
0
 40
0
 40
0
 40
0
 40
0
 40
1
 40
1
 40
1
 40
1
 10
-24.616381
 20
-46.613486
 30
0.0
 10
-25.129061
 20
-41.408531
 30
0.0
 10
-21.534481
 20
-36.691414
 30
0.0
 10
-16.380000
 20
-35.805000
 30
0.0
  0
LWPOLYLINE
  5
28b
100
AcDbEntity
  8
0
 62
7
100
AcDbPolyline
 90
1
 70
1
 10
6.720000
 20
-46.095000
 30
0.0
  0
LWPOLYLINE
  5
28c
100
AcDbEntity
  8
0
 62
7
100
AcDbPolyline
 90
2
 70
0
 10
-16.380000
 20
-35.805000
 30
0.0
 10
-14.700000
 20
-45.570000
 30
0.0
  0
SPLINE
  5
28d
100
AcDbEntity
  8
0
 62
7
100
AcDbSpline
 70
8
 71
3
 72
8
 73
4
 74
0
 40
0
 40
0
 40
0
 40
0
 40
1
 40
1
 40
1
 40
1
 10
-94.395000
 20
-18.060000
 30
0.0
 10
-95.423126
 20
-20.841448
 30
0.0
 10
-98.129663
 20
-22.640739
 30
0.0
 10
-101.092263
 20
-22.512305
 30
0.0
  0
SPLINE
  5
28e
100
AcDbEntity
  8
0
 62
7
100
AcDbSpline
 70
8
 71
3
 72
8
 73
4
 74
0
 40
0
 40
0
 40
0
 40
0
 40
1
 40
1
 40
1
 40
1
 10
-101.092263
 20
-22.512305
 30
0.0
 10
-104.054863
 20
-22.383870
 30
0.0
 10
-106.595533
 20
-20.357102
 30
0.0
 10
-107.379091
 20
-17.497114
 30
0.0
  0
SPLINE
  5
28f
100
AcDbEntity
  8
0
 62
7
100
AcDbSpline
 70
8
 71
3
 72
8
 73
4
 74
0
 40
0
 40
0
 40
0
 40
0
 40
1
 40
1
 40
1
 40
1
 10
-107.379091
 20
-17.497114
 30
0.0
 10
-108.162649
 20
-14.637126
 30
0.0
 10
-107.009778
 20
-11.598429
 30
0.0
 10
-104.526339
 20
-9.977929
 30
0.0
  0
SPLINE
  5
290
100
AcDbEntity
  8
0
 62
7
100
AcDbSpline
 70
8
 71
3
 72
8
 73
4
 74
0
 40
0
 40
0
 40
0
 40
0
 40
1
 40
1
 40
1
 40
1
 10
-104.526339
 20
-9.977929
 30
0.0
 10
-102.042899
 20
-8.357428
 30
0.0
 10
-98.797227
 20
-8.525978
 30
0.0
 10
-96.495000
 20
-10.395000
 30
0.0
  0
LWPOLYLINE
  5
291
100
AcDbEntity
  8
0
 62
7
100
AcDbPolyline
 90
2
 70
0
 10
-100.800000
 20
-15.750000
 30
0.0
 10
-94.395000
 20
-18.060000
 30
0.0
  0
SPLINE
  5
292
100
AcDbEntity
  8
0
 62
7
100
AcDbSpline
 70
8
 71
3
 72
8
 73
4
 74
0
 40
0
 40
0
 40
0
 40
0
 40
1
 40
1
 40
1
 40
1
 10
-175.980000
 20
86.205000
 30
0.0
 10
-175.980000
 20
86.205000
 30
0.0
 10
-173.040000
 20
80.010000
 30
0.0
 10
-173.040000
 20
80.010000
 30
0.0
  0
SPLINE
  5
293
100
AcDbEntity
  8
0
 62
7
100
AcDbSpline
 70
8
 71
3
 72
8
 73
4
 74
0
 40
0
 40
0
 40
0
 40
0
 40
1
 40
1
 40
1
 40
1
 10
-173.040000
 20
80.010000
 30
0.0
 10
-175.606146
 20
78.797360
 30
0.0
 10
-178.654942
 20
79.299440
 30
0.0
 10
-180.696723
 20
81.270919
 30
0.0
  0
SPLINE
  5
294
100
AcDbEntity
  8
0
 62
7
100
AcDbSpline
 70
8
 71
3
 72
8
 73
4
 74
0
 40
0
 40
0
 40
0
 40
0
 40
1
 40
1
 40
1
 40
1
 10
-180.696723
 20
81.270919
 30
0.0
 10
-182.738505
 20
83.242399
 30
0.0
 10
-183.347058
 20
86.271739
 30
0.0
 10
-182.225039
 20
88.878783
 30
0.0
  0
SPLINE
  5
295
100
AcDbEntity
  8
0
 62
7
100
AcDbSpline
 70
8
 71
3
 72
8
 73
4
 74
0
 40
0
 40
0
 40
0
 40
0
 40
1
 40
1
 40
1
 40
1
 10
-182.225039
 20
88.878783
 30
0.0
 10
-181.103020
 20
91.485826
 30
0.0
 10
-178.484647
 20
93.126363
 30
0.0
 10
-175.649275
 20
92.998814
 30
0.0
  0
SPLINE
  5
296
100
AcDbEntity
  8
0
 62
7
100
AcDbSpline
 70
8
 71
3
 72
8
 73
4
 74
0
 40
0
 40
0
 40
0
 40
0
 40
1
 40
1
 40
1
 40
1
 10
-175.649275
 20
92.998814
 30
0.0
 10
-172.813903
 20
92.871265
 30
0.0
 10
-170.353406
 20
91.002257
 30
0.0
 10
-169.470000
 20
88.305000
 30
0.0
  0
LWPOLYLINE
  5
297
100
AcDbEntity
  8
0
 62
7
100
AcDbPolyline
 90
2
 70
0
 10
-96.495000
 20
-10.395000
 30
0.0
 10
-100.800000
 20
-15.750000
 30
0.0
  0
SPLINE
  5
298
100
AcDbEntity
  8
0
 62
7
100
AcDbSpline
 70
8
 71
3
 72
8
 73
4
 74
0
 40
0
 40
0
 40
0
 40
0
 40
1
 40
1
 40
1
 40
1
 10
-130.725000
 20
142.905000
 30
0.0
 10
-130.725000
 20
142.905000
 30
0.0
 10
-132.090000
 20
136.290000
 30
0.0
 10
-132.090000
 20
136.290000
 30
0.0
  0
SPLINE
  5
299
100
AcDbEntity
  8
0
 62
7
100
AcDbSpline
 70
8
 71
3
 72
8
 73
4
 74
0
 40
0
 40
0
 40
0
 40
0
 40
1
 40
1
 40
1
 40
1
 10
-132.090000
 20
136.290000
 30
0.0
 10
-134.914284
 20
136.878859
 30
0.0
 10
-137.063241
 20
139.179968
 30
0.0
 10
-137.457821
 20
142.037877
 30
0.0
  0
SPLINE
  5
29a
100
AcDbEntity
  8
0
 62
7
100
AcDbSpline
 70
8
 71
3
 72
8
 73
4
 74
0
 40
0
 40
0
 40
0
 40
0
 40
1
 40
1
 40
1
 40
1
 10
-137.457821
 20
142.037877
 30
0.0
 10
-137.852400
 20
144.895785
 30
0.0
 10
-136.407361
 20
147.693102
 30
0.0
 10
-133.848298
 20
149.025217
 30
0.0
  0
SPLINE
  5
29b
100
AcDbEntity
  8
0
 62
7
100
AcDbSpline
 70
8
 71
3
 72
8
 73
4
 74
0
 40
0
 40
0
 40
0
 40
0
 40
1
 40
1
 40
1
 40
1
 10
-133.848298
 20
149.025217
 30
0.0
 10
-131.289235
 20
150.357332
 30
0.0
 10
-128.168979
 20
149.936470
 30
0.0
 10
-126.054298
 20
147.973957
 30
0.0
  0
SPLINE
  5
29c
100
AcDbEntity
  8
0
 62
7
100
AcDbSpline
 70
8
 71
3
 72
8
 73
4
 74
0
 40
0
 40
0
 40
0
 40
0
 40
1
 40
1
 40
1
 40
1
 10
-126.054298
 20
147.973957
 30
0.0
 10
-123.939617
 20
146.011444
 30
0.0
 10
-123.287343
 20
142.931239
 30
0.0
 10
-124.425000
 20
140.280000
 30
0.0
  0
LWPOLYLINE
  5
29d
100
AcDbEntity
  8
0
 62
7
100
AcDbPolyline
 90
2
 70
0
 10
-169.470000
 20
88.305000
 30
0.0
 10
-175.980000
 20
86.205000
 30
0.0
  0
LWPOLYLINE
  5
29e
100
AcDbEntity
  8
0
 62
7
100
AcDbPolyline
 90
2
 70
0
 10
-124.425000
 20
140.280000
 30
0.0
 10
-130.725000
 20
142.905000
 30
0.0
  0
SPLINE
  5
29f
100
AcDbEntity
  8
0
 62
7
100
AcDbSpline
 70
8
 71
3
 72
8
 73
4
 74
0
 40
0
 40
0
 40
0
 40
0
 40
1
 40
1
 40
1
 40
1
 10
-68.985000
 20
118.545000
 30
0.0
 10
-70.984961
 20
120.654504
 30
0.0
 10
-71.429305
 20
123.799280
 30
0.0
 10
-70.092097
 20
126.380312
 30
0.0
  0
SPLINE
  5
2a0
100
AcDbEntity
  8
0
 62
7
100
AcDbSpline
 70
8
 71
3
 72
8
 73
4
 74
0
 40
0
 40
0
 40
0
 40
0
 40
1
 40
1
 40
1
 40
1
 10
-70.092097
 20
126.380312
 30
0.0
 10
-68.754890
 20
128.961344
 30
0.0
 10
-65.929613
 20
130.412162
 30
0.0
 10
-63.052829
 20
129.995071
 30
0.0
  0
SPLINE
  5
2a1
100
AcDbEntity
  8
0
 62
7
100
AcDbSpline
 70
8
 71
3
 72
8
 73
4
 74
0
 40
0
 40
0
 40
0
 40
0
 40
1
 40
1
 40
1
 40
1
 10
-63.052829
 20
129.995071
 30
0.0
 10
-60.176045
 20
129.577981
 30
0.0
 10
-57.879134
 20
127.384523
 30
0.0
 10
-57.330000
 20
124.530000
 30
0.0
  0
LWPOLYLINE
  5
2a2
100
AcDbEntity
  8
0
 62
7
100
AcDbPolyline
 90
2
 70
0
 10
-63.945000
 20
123.270000
 30
0.0
 10
-68.985000
 20
118.545000
 30
0.0
  0
LWPOLYLINE
  5
2a3
100
AcDbEntity
  8
0
 62
7
100
AcDbPolyline
 90
2
 70
0
 10
-57.330000
 20
124.530000
 30
0.0
 10
-63.945000
 20
123.270000
 30
0.0
  0
SPLINE
  5
2a4
100
AcDbEntity
  8
0
 62
7
100
AcDbSpline
 70
8
 71
3
 72
8
 73
4
 74
0
 40
0
 40
0
 40
0
 40
0
 40
1
 40
1
 40
1
 40
1
 10
-44.415000
 20
215.145000
 30
0.0
 10
-47.616251
 20
217.021222
 30
0.0
 10
-48.732035
 20
221.111292
 30
0.0
 10
-46.927035
 20
224.353235
 30
0.0
  0
SPLINE
  5
2a5
100
AcDbEntity
  8
0
 62
7
100
AcDbSpline
 70
8
 71
3
 72
8
 73
4
 74
0
 40
0
 40
0
 40
0
 40
0
 40
1
 40
1
 40
1
 40
1
 10
-46.927035
 20
224.353235
 30
0.0
 10
-45.122035
 20
227.595178
 30
0.0
 10
-41.057630
 20
228.801100
 30
0.0
 10
-37.776579
 20
227.068205
 30
0.0
  0
SPLINE
  5
2a6
100
AcDbEntity
  8
0
 62
7
100
AcDbSpline
 70
8
 71
3
 72
8
 73
4
 74
0
 40
0
 40
0
 40
0
 40
0
 40
1
 40
1
 40
1
 40
1
 10
-37.776579
 20
227.068205
 30
0.0
 10
-34.495528
 20
225.335310
 30
0.0
 10
-33.200056
 20
221.298555
 30
0.0
 10
-34.860000
 20
217.980000
 30
0.0
  0
LWPOLYLINE
  5
2a7
100
AcDbEntity
  8
0
 62
7
100
AcDbPolyline
 90
2
 70
0
 10
-40.950000
 20
221.025000
 30
0.0
 10
-44.415000
 20
215.145000
 30
0.0
  0
SPLINE
  5
2a8
100
AcDbEntity
  8
0
 62
7
100
AcDbSpline
 70
8
 71
3
 72
8
 73
4
 74
0
 40
0
 40
0
 40
0
 40
0
 40
1
 40
1
 40
1
 40
1
 10
40.950000
 20
221.025000
 30
0.0
 10
40.950000
 20
221.025000
 30
0.0
 10
34.860000
 20
217.980000
 30
0.0
 10
34.860000
 20
217.980000
 30
0.0
  0
SPLINE
  5
2a9
100
AcDbEntity
  8
0
 62
7
100
AcDbSpline
 70
8
 71
3
 72
8
 73
4
 74
0
 40
0
 40
0
 40
0
 40
0
 40
1
 40
1
 40
1
 40
1
 10
34.860000
 20
217.980000
 30
0.0
 10
33.200056
 20
221.298555
 30
0.0
 10
34.495528
 20
225.335310
 30
0.0
 10
37.776579
 20
227.068205
 30
0.0
  0
SPLINE
  5
2aa
100
AcDbEntity
  8
0
 62
7
100
AcDbSpline
 70
8
 71
3
 72
8
 73
4
 74
0
 40
0
 40
0
 40
0
 40
0
 40
1
 40
1
 40
1
 40
1
 10
37.776579
 20
227.068205
 30
0.0
 10
41.057630
 20
228.801100
 30
0.0
 10
45.122035
 20
227.595178
 30
0.0
 10
46.927035
 20
224.353235
 30
0.0
  0
SPLINE
  5
2ab
100
AcDbEntity
  8
0
 62
7
100
AcDbSpline
 70
8
 71
3
 72
8
 73
4
 74
0
 40
0
 40
0
 40
0
 40
0
 40
1
 40
1
 40
1
 40
1
 10
46.927035
 20
224.353235
 30
0.0
 10
48.732035
 20
221.111292
 30
0.0
 10
47.616251
 20
217.021222
 30
0.0
 10
44.415000
 20
215.145000
 30
0.0
  0
LWPOLYLINE
  5
2ac
100
AcDbEntity
  8
0
 62
7
100
AcDbPolyline
 90
2
 70
0
 10
-34.860000
 20
217.980000
 30
0.0
 10
-40.950000
 20
221.025000
 30
0.0
  0
SPLINE
  5
2ad
100
AcDbEntity
  8
0
 62
7
100
AcDbSpline
 70
8
 71
3
 72
8
 73
4
 74
0
 40
0
 40
0
 40
0
 40
0
 40
1
 40
1
 40
1
 40
1
 10
63.945000
 20
123.270000
 30
0.0
 10
63.945000
 20
123.270000
 30
0.0
 10
57.330000
 20
124.530000
 30
0.0
 10
57.330000
 20
124.530000
 30
0.0
  0
SPLINE
  5
2ae
100
AcDbEntity
  8
0
 62
7
100
AcDbSpline
 70
8
 71
3
 72
8
 73
4
 74
0
 40
0
 40
0
 40
0
 40
0
 40
1
 40
1
 40
1
 40
1
 10
57.330000
 20
124.530000
 30
0.0
 10
57.879134
 20
127.384523
 30
0.0
 10
60.176045
 20
129.577981
 30
0.0
 10
63.052829
 20
129.995071
 30
0.0
  0
SPLINE
  5
2af
100
AcDbEntity
  8
0
 62
7
100
AcDbSpline
 70
8
 71
3
 72
8
 73
4
 74
0
 40
0
 40
0
 40
0
 40
0
 40
1
 40
1
 40
1
 40
1
 10
63.052829
 20
129.995071
 30
0.0
 10
65.929613
 20
130.412162
 30
0.0
 10
68.754890
 20
128.961344
 30
0.0
 10
70.092097
 20
126.380312
 30
0.0
  0
SPLINE
  5
2b0
100
AcDbEntity
  8
0
 62
7
100
AcDbSpline
 70
8
 71
3
 72
8
 73
4
 74
0
 40
0
 40
0
 40
0
 40
0
 40
1
 40
1
 40
1
 40
1
 10
70.092097
 20
126.380312
 30
0.0
 10
71.429305
 20
123.799280
 30
0.0
 10
70.984961
 20
120.654504
 30
0.0
 10
68.985000
 20
118.545000
 30
0.0
  0
LWPOLYLINE
  5
2b1
100
AcDbEntity
  8
0
 62
7
100
AcDbPolyline
 90
2
 70
0
 10
44.415000
 20
215.145000
 30
0.0
 10
40.950000
 20
221.025000
 30
0.0
  0
SPLINE
  5
2b2
100
AcDbEntity
  8
0
 62
7
100
AcDbSpline
 70
8
 71
3
 72
8
 73
4
 74
0
 40
0
 40
0
 40
0
 40
0
 40
1
 40
1
 40
1
 40
1
 10
130.725000
 20
142.905000
 30
0.0
 10
130.725000
 20
142.905000
 30
0.0
 10
124.425000
 20
140.280000
 30
0.0
 10
124.425000
 20
140.280000
 30
0.0
  0
SPLINE
  5
2b3
100
AcDbEntity
  8
0
 62
7
100
AcDbSpline
 70
8
 71
3
 72
8
 73
4
 74
0
 40
0
 40
0
 40
0
 40
0
 40
1
 40
1
 40
1
 40
1
 10
124.425000
 20
140.280000
 30
0.0
 10
123.287343
 20
142.931239
 30
0.0
 10
123.939617
 20
146.011444
 30
0.0
 10
126.054298
 20
147.973957
 30
0.0
  0
SPLINE
  5
2b4
100
AcDbEntity
  8
0
 62
7
100
AcDbSpline
 70
8
 71
3
 72
8
 73
4
 74
0
 40
0
 40
0
 40
0
 40
0
 40
1
 40
1
 40
1
 40
1
 10
126.054298
 20
147.973957
 30
0.0
 10
128.168979
 20
149.936470
 30
0.0
 10
131.289235
 20
150.357332
 30
0.0
 10
133.848298
 20
149.025217
 30
0.0
  0
SPLINE
  5
2b5
100
AcDbEntity
  8
0
 62
7
100
AcDbSpline
 70
8
 71
3
 72
8
 73
4
 74
0
 40
0
 40
0
 40
0
 40
0
 40
1
 40
1
 40
1
 40
1
 10
133.848298
 20
149.025217
 30
0.0
 10
136.407361
 20
147.693102
 30
0.0
 10
137.852400
 20
144.895785
 30
0.0
 10
137.457821
 20
142.037877
 30
0.0
  0
SPLINE
  5
2b6
100
AcDbEntity
  8
0
 62
7
100
AcDbSpline
 70
8
 71
3
 72
8
 73
4
 74
0
 40
0
 40
0
 40
0
 40
0
 40
1
 40
1
 40
1
 40
1
 10
137.457821
 20
142.037877
 30
0.0
 10
137.063241
 20
139.179968
 30
0.0
 10
134.914284
 20
136.878859
 30
0.0
 10
132.090000
 20
136.290000
 30
0.0
  0
LWPOLYLINE
  5
2b7
100
AcDbEntity
  8
0
 62
7
100
AcDbPolyline
 90
2
 70
0
 10
68.985000
 20
118.545000
 30
0.0
 10
63.945000
 20
123.270000
 30
0.0
  0
SPLINE
  5
2b8
100
AcDbEntity
  8
0
 62
7
100
AcDbSpline
 70
8
 71
3
 72
8
 73
4
 74
0
 40
0
 40
0
 40
0
 40
0
 40
1
 40
1
 40
1
 40
1
 10
175.980000
 20
86.205000
 30
0.0
 10
175.980000
 20
86.205000
 30
0.0
 10
169.470000
 20
88.305000
 30
0.0
 10
169.470000
 20
88.305000
 30
0.0
  0
SPLINE
  5
2b9
100
AcDbEntity
  8
0
 62
7
100
AcDbSpline
 70
8
 71
3
 72
8
 73
4
 74
0
 40
0
 40
0
 40
0
 40
0
 40
1
 40
1
 40
1
 40
1
 10
169.470000
 20
88.305000
 30
0.0
 10
170.353406
 20
91.002257
 30
0.0
 10
172.813903
 20
92.871265
 30
0.0
 10
175.649275
 20
92.998814
 30
0.0
  0
SPLINE
  5
2ba
100
AcDbEntity
  8
0
 62
7
100
AcDbSpline
 70
8
 71
3
 72
8
 73
4
 74
0
 40
0
 40
0
 40
0
 40
0
 40
1
 40
1
 40
1
 40
1
 10
175.649275
 20
92.998814
 30
0.0
 10
178.484647
 20
93.126363
 30
0.0
 10
181.103020
 20
91.485826
 30
0.0
 10
182.225039
 20
88.878783
 30
0.0
  0
SPLINE
  5
2bb
100
AcDbEntity
  8
0
 62
7
100
AcDbSpline
 70
8
 71
3
 72
8
 73
4
 74
0
 40
0
 40
0
 40
0
 40
0
 40
1
 40
1
 40
1
 40
1
 10
182.225039
 20
88.878783
 30
0.0
 10
183.347058
 20
86.271739
 30
0.0
 10
182.738505
 20
83.242399
 30
0.0
 10
180.696723
 20
81.270919
 30
0.0
  0
SPLINE
  5
2bc
100
AcDbEntity
  8
0
 62
7
100
AcDbSpline
 70
8
 71
3
 72
8
 73
4
 74
0
 40
0
 40
0
 40
0
 40
0
 40
1
 40
1
 40
1
 40
1
 10
180.696723
 20
81.270919
 30
0.0
 10
178.654942
 20
79.299440
 30
0.0
 10
175.606146
 20
78.797360
 30
0.0
 10
173.040000
 20
80.010000
 30
0.0
  0
LWPOLYLINE
  5
2bd
100
AcDbEntity
  8
0
 62
7
100
AcDbPolyline
 90
2
 70
0
 10
132.090000
 20
136.290000
 30
0.0
 10
130.725000
 20
142.905000
 30
0.0
  0
SPLINE
  5
2be
100
AcDbEntity
  8
0
 62
7
100
AcDbSpline
 70
8
 71
3
 72
8
 73
4
 74
0
 40
0
 40
0
 40
0
 40
0
 40
1
 40
1
 40
1
 40
1
 10
100.800000
 20
-15.750000
 30
0.0
 10
100.800000
 20
-15.750000
 30
0.0
 10
96.495000
 20
-10.395000
 30
0.0
 10
96.495000
 20
-10.395000
 30
0.0
  0
SPLINE
  5
2bf
100
AcDbEntity
  8
0
 62
7
100
AcDbSpline
 70
8
 71
3
 72
8
 73
4
 74
0
 40
0
 40
0
 40
0
 40
0
 40
1
 40
1
 40
1
 40
1
 10
96.495000
 20
-10.395000
 30
0.0
 10
98.797227
 20
-8.525978
 30
0.0
 10
102.042899
 20
-8.357428
 30
0.0
 10
104.526339
 20
-9.977929
 30
0.0
  0
SPLINE
  5
2c0
100
AcDbEntity
  8
0
 62
7
100
AcDbSpline
 70
8
 71
3
 72
8
 73
4
 74
0
 40
0
 40
0
 40
0
 40
0
 40
1
 40
1
 40
1
 40
1
 10
104.526339
 20
-9.977929
 30
0.0
 10
107.009778
 20
-11.598429
 30
0.0
 10
108.162649
 20
-14.637126
 30
0.0
 10
107.379091
 20
-17.497114
 30
0.0
  0
SPLINE
  5
2c1
100
AcDbEntity
  8
0
 62
7
100
AcDbSpline
 70
8
 71
3
 72
8
 73
4
 74
0
 40
0
 40
0
 40
0
 40
0
 40
1
 40
1
 40
1
 40
1
 10
107.379091
 20
-17.497114
 30
0.0
 10
106.595533
 20
-20.357102
 30
0.0
 10
104.054863
 20
-22.383870
 30
0.0
 10
101.092263
 20
-22.512305
 30
0.0
  0
SPLINE
  5
2c2
100
AcDbEntity
  8
0
 62
7
100
AcDbSpline
 70
8
 71
3
 72
8
 73
4
 74
0
 40
0
 40
0
 40
0
 40
0
 40
1
 40
1
 40
1
 40
1
 10
101.092263
 20
-22.512305
 30
0.0
 10
98.129663
 20
-22.640739
 30
0.0
 10
95.423126
 20
-20.841448
 30
0.0
 10
94.395000
 20
-18.060000
 30
0.0
  0
LWPOLYLINE
  5
2c3
100
AcDbEntity
  8
0
 62
7
100
AcDbPolyline
 90
2
 70
0
 10
173.040000
 20
80.010000
 30
0.0
 10
175.980000
 20
86.205000
 30
0.0
  0
SPLINE
  5
2c4
100
AcDbEntity
  8
0
 62
7
100
AcDbSpline
 70
8
 71
3
 72
8
 73
4
 74
0
 40
0
 40
0
 40
0
 40
0
 40
1
 40
1
 40
1
 40
1
 10
14.700000
 20
-45.570000
 30
0.0
 10
14.700000
 20
-45.570000
 30
0.0
 10
16.380000
 20
-35.805000
 30
0.0
 10
16.380000
 20
-35.805000
 30
0.0
  0
SPLINE
  5
2c5
100
AcDbEntity
  8
0
 62
7
100
AcDbSpline
 70
8
 71
3
 72
8
 73
4
 74
0
 40
0
 40
0
 40
0
 40
0
 40
1
 40
1
 40
1
 40
1
 10
16.380000
 20
-35.805000
 30
0.0
 10
21.534481
 20
-36.691414
 30
0.0
 10
25.129061
 20
-41.408531
 30
0.0
 10
24.616381
 20
-46.613486
 30
0.0
  0
SPLINE
  5
2c6
100
AcDbEntity
  8
0
 62
7
100
AcDbSpline
 70
8
 71
3
 72
8
 73
4
 74
0
 40
0
 40
0
 40
0
 40
0
 40
1
 40
1
 40
1
 40
1
 10
24.616381
 20
-46.613486
 30
0.0
 10
24.103700
 20
-51.818442
 30
0.0
 10
19.657869
 20
-55.743590
 30
0.0
 10
14.429501
 20
-55.607308
 30
0.0
  0
SPLINE
  5
2c7
100
AcDbEntity
  8
0
 62
7
100
AcDbSpline
 70
8
 71
3
 72
8
 73
4
 74
0
 40
0
 40
0
 40
0
 40
0
 40
1
 40
1
 40
1
 40
1
 10
14.429501
 20
-55.607308
 30
0.0
 10
9.201133
 20
-55.471026
 30
0.0
 10
4.965825
 20
-51.319596
 30
0.0
 10
4.725000
 20
-46.095000
 30
0.0
  0
LWPOLYLINE
  5
2c8
100
AcDbEntity
  8
0
 62
7
100
AcDbPolyline
 90
2
 70
0
 10
94.395000
 20
-18.060000
 30
0.0
 10
100.800000
 20
-15.750000
 30
0.0
  0
LWPOLYLINE
  5
2c9
100
AcDbEntity
  8
0
 62
7
100
AcDbPolyline
 90
2
 70
0
 10
4.725000
 20
-46.095000
 30
0.0
 10
14.700000
 20
-45.570000
 30
0.0
  0
LWPOLYLINE
  5
2ca
100
AcDbEntity
  8
0
 62
7
100
AcDbPolyline
 90
2
 70
0
 10
-504.000000
 20
-175.560000
 30
0.0
 10
-509.250000
 20
-175.560000
 30
0.0
  0
LWPOLYLINE
  5
2cb
100
AcDbEntity
  8
0
 62
7
100
AcDbPolyline
 90
2
 70
0
 10
-504.000000
 20
-112.560000
 30
0.0
 10
-509.250000
 20
-112.560000
 30
0.0
  0
LWPOLYLINE
  5
2cc
100
AcDbEntity
  8
0
 62
7
100
AcDbPolyline
 90
2
 70
0
 10
-504.000000
 20
-49.560000
 30
0.0
 10
-509.250000
 20
-49.560000
 30
0.0
  0
LWPOLYLINE
  5
2cd
100
AcDbEntity
  8
0
 62
7
100
AcDbPolyline
 90
2
 70
0
 10
-504.000000
 20
13.440000
 30
0.0
 10
-509.250000
 20
13.440000
 30
0.0
  0
LWPOLYLINE
  5
2ce
100
AcDbEntity
  8
0
 62
7
100
AcDbPolyline
 90
2
 70
0
 10
-504.000000
 20
76.440000
 30
0.0
 10
-509.250000
 20
76.440000
 30
0.0
  0
LWPOLYLINE
  5
2cf
100
AcDbEntity
  8
0
 62
7
100
AcDbPolyline
 90
2
 70
0
 10
-504.000000
 20
139.440000
 30
0.0
 10
-509.250000
 20
139.440000
 30
0.0
  0
LWPOLYLINE
  5
2d0
100
AcDbEntity
  8
0
 62
7
100
AcDbPolyline
 90
2
 70
0
 10
-504.000000
 20
202.440000
 30
0.0
 10
-509.250000
 20
202.440000
 30
0.0
  0
LWPOLYLINE
  5
2d1
100
AcDbEntity
  8
0
 62
7
100
AcDbPolyline
 90
2
 70
0
 10
-504.000000
 20
265.440000
 30
0.0
 10
-509.250000
 20
265.440000
 30
0.0
  0
LWPOLYLINE
  5
2d2
100
AcDbEntity
  8
0
 62
7
100
AcDbPolyline
 90
2
 70
0
 10
-504.000000
 20
328.440000
 30
0.0
 10
-509.250000
 20
328.440000
 30
0.0
  0
LWPOLYLINE
  5
2d3
100
AcDbEntity
  8
0
 62
7
100
AcDbPolyline
 90
2
 70
0
 10
504.000000
 20
-175.560000
 30
0.0
 10
509.250000
 20
-175.560000
 30
0.0
  0
LWPOLYLINE
  5
2d4
100
AcDbEntity
  8
0
 62
7
100
AcDbPolyline
 90
2
 70
0
 10
504.000000
 20
-112.560000
 30
0.0
 10
509.250000
 20
-112.560000
 30
0.0
  0
LWPOLYLINE
  5
2d5
100
AcDbEntity
  8
0
 62
7
100
AcDbPolyline
 90
2
 70
0
 10
504.000000
 20
-49.560000
 30
0.0
 10
509.250000
 20
-49.560000
 30
0.0
  0
LWPOLYLINE
  5
2d6
100
AcDbEntity
  8
0
 62
7
100
AcDbPolyline
 90
2
 70
0
 10
504.000000
 20
13.440000
 30
0.0
 10
509.250000
 20
13.440000
 30
0.0
  0
LWPOLYLINE
  5
2d7
100
AcDbEntity
  8
0
 62
7
100
AcDbPolyline
 90
2
 70
0
 10
504.000000
 20
76.440000
 30
0.0
 10
509.250000
 20
76.440000
 30
0.0
  0
LWPOLYLINE
  5
2d8
100
AcDbEntity
  8
0
 62
7
100
AcDbPolyline
 90
2
 70
0
 10
504.000000
 20
139.440000
 30
0.0
 10
509.250000
 20
139.440000
 30
0.0
  0
LWPOLYLINE
  5
2d9
100
AcDbEntity
  8
0
 62
7
100
AcDbPolyline
 90
2
 70
0
 10
504.000000
 20
202.440000
 30
0.0
 10
509.250000
 20
202.440000
 30
0.0
  0
LWPOLYLINE
  5
2da
100
AcDbEntity
  8
0
 62
7
100
AcDbPolyline
 90
2
 70
0
 10
504.000000
 20
265.440000
 30
0.0
 10
509.250000
 20
265.440000
 30
0.0
  0
LWPOLYLINE
  5
2db
100
AcDbEntity
  8
0
 62
7
100
AcDbPolyline
 90
2
 70
0
 10
504.000000
 20
328.440000
 30
0.0
 10
509.250000
 20
328.440000
 30
0.0
  0
LWPOLYLINE
  5
2dc
100
AcDbEntity
  8
0
 62
7
100
AcDbPolyline
 90
2
 70
0
 10
-504.000000
 20
328.440000
 30
0.0
 10
-504.000000
 20
333.690000
 30
0.0
  0
LWPOLYLINE
  5
2dd
100
AcDbEntity
  8
0
 62
7
100
AcDbPolyline
 90
2
 70
0
 10
0.000000
 20
328.440000
 30
0.0
 10
0.000000
 20
333.690000
 30
0.0
  0
LWPOLYLINE
  5
2de
100
AcDbEntity
  8
0
 62
7
100
AcDbPolyline
 90
2
 70
0
 10
504.000000
 20
328.440000
 30
0.0
 10
504.000000
 20
333.690000
 30
0.0
  0
LWPOLYLINE
  5
2df
100
AcDbEntity
  8
0
 62
7
100
AcDbPolyline
 90
2
 70
0
 10
-504.000000
 20
-175.560000
 30
0.0
 10
-504.000000
 20
-180.810000
 30
0.0
  0
LWPOLYLINE
  5
2e0
100
AcDbEntity
  8
0
 62
7
100
AcDbPolyline
 90
2
 70
0
 10
-441.000000
 20
-175.560000
 30
0.0
 10
-441.000000
 20
-180.810000
 30
0.0
  0
LWPOLYLINE
  5
2e1
100
AcDbEntity
  8
0
 62
7
100
AcDbPolyline
 90
2
 70
0
 10
-378.000000
 20
-175.560000
 30
0.0
 10
-378.000000
 20
-180.810000
 30
0.0
  0
LWPOLYLINE
  5
2e2
100
AcDbEntity
  8
0
 62
7
100
AcDbPolyline
 90
2
 70
0
 10
-315.000000
 20
-175.560000
 30
0.0
 10
-315.000000
 20
-180.810000
 30
0.0
  0
LWPOLYLINE
  5
2e3
100
AcDbEntity
  8
0
 62
7
100
AcDbPolyline
 90
2
 70
0
 10
-252.000000
 20
-175.560000
 30
0.0
 10
-252.000000
 20
-180.810000
 30
0.0
  0
LWPOLYLINE
  5
2e4
100
AcDbEntity
  8
0
 62
7
100
AcDbPolyline
 90
2
 70
0
 10
-189.000000
 20
-175.560000
 30
0.0
 10
-189.000000
 20
-180.810000
 30
0.0
  0
LWPOLYLINE
  5
2e5
100
AcDbEntity
  8
0
 62
7
100
AcDbPolyline
 90
2
 70
0
 10
-126.000000
 20
-175.560000
 30
0.0
 10
-126.000000
 20
-180.810000
 30
0.0
  0
LWPOLYLINE
  5
2e6
100
AcDbEntity
  8
0
 62
7
100
AcDbPolyline
 90
2
 70
0
 10
-63.000000
 20
-175.560000
 30
0.0
 10
-63.000000
 20
-180.810000
 30
0.0
  0
LWPOLYLINE
  5
2e7
100
AcDbEntity
  8
0
 62
7
100
AcDbPolyline
 90
2
 70
0
 10
0.000000
 20
-175.560000
 30
0.0
 10
0.000000
 20
-180.810000
 30
0.0
  0
LWPOLYLINE
  5
2e8
100
AcDbEntity
  8
0
 62
7
100
AcDbPolyline
 90
2
 70
0
 10
63.000000
 20
-175.560000
 30
0.0
 10
63.000000
 20
-180.810000
 30
0.0
  0
LWPOLYLINE
  5
2e9
100
AcDbEntity
  8
0
 62
7
100
AcDbPolyline
 90
2
 70
0
 10
126.000000
 20
-175.560000
 30
0.0
 10
126.000000
 20
-180.810000
 30
0.0
  0
LWPOLYLINE
  5
2ea
100
AcDbEntity
  8
0
 62
7
100
AcDbPolyline
 90
2
 70
0
 10
189.000000
 20
-175.560000
 30
0.0
 10
189.000000
 20
-180.810000
 30
0.0
  0
LWPOLYLINE
  5
2eb
100
AcDbEntity
  8
0
 62
7
100
AcDbPolyline
 90
2
 70
0
 10
252.000000
 20
-175.560000
 30
0.0
 10
252.000000
 20
-180.810000
 30
0.0
  0
LWPOLYLINE
  5
2ec
100
AcDbEntity
  8
0
 62
7
100
AcDbPolyline
 90
2
 70
0
 10
315.000000
 20
-175.560000
 30
0.0
 10
315.000000
 20
-180.810000
 30
0.0
  0
LWPOLYLINE
  5
2ed
100
AcDbEntity
  8
0
 62
7
100
AcDbPolyline
 90
2
 70
0
 10
378.000000
 20
-175.560000
 30
0.0
 10
378.000000
 20
-180.810000
 30
0.0
  0
LWPOLYLINE
  5
2ee
100
AcDbEntity
  8
0
 62
7
100
AcDbPolyline
 90
2
 70
0
 10
441.000000
 20
-175.560000
 30
0.0
 10
441.000000
 20
-180.810000
 30
0.0
  0
LWPOLYLINE
  5
2ef
100
AcDbEntity
  8
0
 62
7
100
AcDbPolyline
 90
2
 70
0
 10
504.000000
 20
-175.560000
 30
0.0
 10
504.000000
 20
-180.810000
 30
0.0
  0
LWPOLYLINE
  5
2f0
100
AcDbEntity
  8
0
 62
7
100
AcDbPolyline
 90
4
 70
1
 10
-504.000000
 20
328.440000
 30
0.0
 10
504.000000
 20
328.440000
 30
0.0
 10
504.000000
 20
-175.560000
 30
0.0
 10
-504.000000
 20
-175.560000
 30
0.0
  0
LWPOLYLINE
  5
2f1
100
AcDbEntity
  8
0
 62
7
100
AcDbPolyline
 90
2
 70
0
 10
-252.000000
 20
328.440000
 30
0.0
 10
-252.000000
 20
-175.560000
 30
0.0
  0
LWPOLYLINE
  5
2f2
100
AcDbEntity
  8
0
 62
7
100
AcDbPolyline
 90
2
 70
0
 10
252.000000
 20
-175.560000
 30
0.0
 10
252.000000
 20
328.440000
 30
0.0
  0
LWPOLYLINE
  5
2f3
100
AcDbEntity
  8
0
 62
7
100
AcDbPolyline
 90
2
 70
0
 10
-9.450000
 20
-136.710000
 30
0.0
 10
-4.725000
 20
-46.095000
 30
0.0
  0
LWPOLYLINE
  5
2f4
100
AcDbEntity
  8
0
 62
7
100
AcDbPolyline
 90
2
 70
0
 10
-106.575000
 20
-51.660000
 30
0.0
 10
-16.380000
 20
-35.805000
 30
0.0
  0
LWPOLYLINE
  5
2f5
100
AcDbEntity
  8
0
 62
7
100
AcDbPolyline
 90
2
 70
0
 10
-106.575000
 20
-51.660000
 30
0.0
 10
-94.395000
 20
-18.060000
 30
0.0
  0
LWPOLYLINE
  5
2f6
100
AcDbEntity
  8
0
 62
7
100
AcDbPolyline
 90
2
 70
0
 10
-195.300000
 20
69.615000
 30
0.0
 10
-96.495000
 20
-10.395000
 30
0.0
  0
LWPOLYLINE
  5
2f7
100
AcDbEntity
  8
0
 62
7
100
AcDbPolyline
 90
2
 70
0
 10
-195.300000
 20
69.615000
 30
0.0
 10
-173.040000
 20
80.010000
 30
0.0
  0
LWPOLYLINE
  5
2f8
100
AcDbEntity
  8
0
 62
7
100
AcDbPolyline
 90
2
 70
0
 10
-189.000000
 20
148.365000
 30
0.0
 10
-169.470000
 20
88.305000
 30
0.0
  0
LWPOLYLINE
  5
2f9
100
AcDbEntity
  8
0
 62
7
100
AcDbPolyline
 90
2
 70
0
 10
-189.000000
 20
148.365000
 30
0.0
 10
-132.090000
 20
136.290000
 30
0.0
  0
LWPOLYLINE
  5
2fa
100
AcDbEntity
  8
0
 62
7
100
AcDbPolyline
 90
2
 70
0
 10
-113.400000
 20
166.215000
 30
0.0
 10
-124.425000
 20
140.280000
 30
0.0
  0
LWPOLYLINE
  5
2fb
100
AcDbEntity
  8
0
 62
7
100
AcDbPolyline
 90
2
 70
0
 10
-113.400000
 20
166.215000
 30
0.0
 10
-68.985000
 20
118.545000
 30
0.0
  0
LWPOLYLINE
  5
2fc
100
AcDbEntity
  8
0
 62
7
100
AcDbPolyline
 90
2
 70
0
 10
-78.750000
 20
234.990000
 30
0.0
 10
-57.330000
 20
124.530000
 30
0.0
  0
LWPOLYLINE
  5
2fd
100
AcDbEntity
  8
0
 62
7
100
AcDbPolyline
 90
2
 70
0
 10
-78.750000
 20
234.990000
 30
0.0
 10
-44.415000
 20
215.145000
 30
0.0
  0
LWPOLYLINE
  5
2fe
100
AcDbEntity
  8
0
 62
7
100
AcDbPolyline
 90
2
 70
0
 10
0.000000
 20
286.440000
 30
0.0
 10
-34.860000
 20
217.980000
 30
0.0
  0
LWPOLYLINE
  5
2ff
100
AcDbEntity
  8
0
 62
7
100
AcDbPolyline
 90
2
 70
0
 10
0.000000
 20
286.440000
 30
0.0
 10
34.860000
 20
217.980000
 30
0.0
  0
LWPOLYLINE
  5
300
100
AcDbEntity
  8
0
 62
7
100
AcDbPolyline
 90
2
 70
0
 10
78.750000
 20
234.990000
 30
0.0
 10
44.415000
 20
215.145000
 30
0.0
  0
LWPOLYLINE
  5
301
100
AcDbEntity
  8
0
 62
7
100
AcDbPolyline
 90
2
 70
0
 10
78.750000
 20
234.990000
 30
0.0
 10
57.330000
 20
124.530000
 30
0.0
  0
LWPOLYLINE
  5
302
100
AcDbEntity
  8
0
 62
7
100
AcDbPolyline
 90
2
 70
0
 10
113.400000
 20
166.215000
 30
0.0
 10
68.985000
 20
118.545000
 30
0.0
  0
LWPOLYLINE
  5
303
100
AcDbEntity
  8
0
 62
7
100
AcDbPolyline
 90
2
 70
0
 10
113.400000
 20
166.215000
 30
0.0
 10
124.425000
 20
140.280000
 30
0.0
  0
LWPOLYLINE
  5
304
100
AcDbEntity
  8
0
 62
7
100
AcDbPolyline
 90
2
 70
0
 10
189.000000
 20
148.365000
 30
0.0
 10
132.090000
 20
136.290000
 30
0.0
  0
LWPOLYLINE
  5
305
100
AcDbEntity
  8
0
 62
7
100
AcDbPolyline
 90
2
 70
0
 10
189.000000
 20
148.365000
 30
0.0
 10
169.470000
 20
88.305000
 30
0.0
  0
LWPOLYLINE
  5
306
100
AcDbEntity
  8
0
 62
7
100
AcDbPolyline
 90
2
 70
0
 10
195.300000
 20
69.615000
 30
0.0
 10
173.040000
 20
80.010000
 30
0.0
  0
LWPOLYLINE
  5
307
100
AcDbEntity
  8
0
 62
7
100
AcDbPolyline
 90
2
 70
0
 10
195.300000
 20
69.615000
 30
0.0
 10
96.495000
 20
-10.395000
 30
0.0
  0
LWPOLYLINE
  5
308
100
AcDbEntity
  8
0
 62
7
100
AcDbPolyline
 90
2
 70
0
 10
106.575000
 20
-51.660000
 30
0.0
 10
94.395000
 20
-18.060000
 30
0.0
  0
LWPOLYLINE
  5
309
100
AcDbEntity
  8
0
 62
7
100
AcDbPolyline
 90
2
 70
0
 10
106.575000
 20
-51.660000
 30
0.0
 10
16.380000
 20
-35.805000
 30
0.0
  0
LWPOLYLINE
  5
30a
100
AcDbEntity
  8
0
 62
7
100
AcDbPolyline
 90
2
 70
0
 10
9.450000
 20
-136.710000
 30
0.0
 10
4.725000
 20
-46.095000
 30
0.0
  0
SPLINE
  5
30b
100
AcDbEntity
  8
0
 62
7
100
AcDbSpline
 70
8
 71
3
 72
8
 73
4
 74
0
 40
0
 40
0
 40
0
 40
0
 40
1
 40
1
 40
1
 40
1
 10
-16.380000
 20
-35.805000
 30
0.0
 10
-13.402123
 20
-35.292896
 30
0.0
 10
-10.352623
 20
-36.158205
 30
0.0
 10
-8.087516
 20
-38.158029
 30
0.0
  0
SPLINE
  5
30c
100
AcDbEntity
  8
0
 62
7
100
AcDbSpline
 70
8
 71
3
 72
8
 73
4
 74
0
 40
0
 40
0
 40
0
 40
0
 40
1
 40
1
 40
1
 40
1
 10
-8.087516
 20
-38.158029
 30
0.0
 10
-5.822410
 20
-40.157852
 30
0.0
 10
-4.585869
 20
-43.076615
 30
0.0
 10
-4.725000
 20
-46.095000
 30
0.0
  0
SPLINE
  5
30d
100
AcDbEntity
  8
0
 62
7
100
AcDbSpline
 70
8
 71
3
 72
8
 73
4
 74
0
 40
0
 40
0
 40
0
 40
0
 40
1
 40
1
 40
1
 40
1
 10
-96.495000
 20
-10.395000
 30
0.0
 10
-94.226172
 20
-12.236908
 30
0.0
 10
-93.381789
 20
-15.318903
 30
0.0
 10
-94.395000
 20
-18.060000
 30
0.0
  0
SPLINE
  5
30e
100
AcDbEntity
  8
0
 62
7
100
AcDbSpline
 70
8
 71
3
 72
8
 73
4
 74
0
 40
0
 40
0
 40
0
 40
0
 40
1
 40
1
 40
1
 40
1
 10
-169.470000
 20
88.305000
 30
0.0
 10
-168.399144
 20
85.035412
 30
0.0
 10
-169.929344
 20
81.479949
 30
0.0
 10
-173.040000
 20
80.010000
 30
0.0
  0
SPLINE
  5
30f
100
AcDbEntity
  8
0
 62
7
100
AcDbSpline
 70
8
 71
3
 72
8
 73
4
 74
0
 40
0
 40
0
 40
0
 40
0
 40
1
 40
1
 40
1
 40
1
 10
-124.425000
 20
140.280000
 30
0.0
 10
-125.705482
 20
137.295918
 30
0.0
 10
-128.911149
 20
135.627214
 30
0.0
 10
-132.090000
 20
136.290000
 30
0.0
  0
SPLINE
  5
310
100
AcDbEntity
  8
0
 62
7
100
AcDbSpline
 70
8
 71
3
 72
8
 73
4
 74
0
 40
0
 40
0
 40
0
 40
0
 40
1
 40
1
 40
1
 40
1
 10
-57.330000
 20
124.530000
 30
0.0
 10
-56.757239
 20
121.552659
 30
0.0
 10
-58.217313
 20
118.554399
 30
0.0
 10
-60.914421
 20
117.169398
 30
0.0
  0
SPLINE
  5
311
100
AcDbEntity
  8
0
 62
7
100
AcDbSpline
 70
8
 71
3
 72
8
 73
4
 74
0
 40
0
 40
0
 40
0
 40
0
 40
1
 40
1
 40
1
 40
1
 10
-60.914421
 20
117.169398
 30
0.0
 10
-63.611528
 20
115.784397
 30
0.0
 10
-66.898989
 20
116.344733
 30
0.0
 10
-68.985000
 20
118.545000
 30
0.0
  0
SPLINE
  5
312
100
AcDbEntity
  8
0
 62
7
100
AcDbSpline
 70
8
 71
3
 72
8
 73
4
 74
0
 40
0
 40
0
 40
0
 40
0
 40
1
 40
1
 40
1
 40
1
 10
-34.860000
 20
217.980000
 30
0.0
 10
-35.704905
 20
216.290868
 30
0.0
 10
-37.211983
 20
215.027365
 30
0.0
 10
-39.022624
 20
214.490142
 30
0.0
  0
SPLINE
  5
313
100
AcDbEntity
  8
0
 62
7
100
AcDbSpline
 70
8
 71
3
 72
8
 73
4
 74
0
 40
0
 40
0
 40
0
 40
0
 40
1
 40
1
 40
1
 40
1
 10
-39.022624
 20
214.490142
 30
0.0
 10
-40.833266
 20
213.952919
 30
0.0
 10
-42.785575
 20
214.190010
 30
0.0
 10
-44.415000
 20
215.145000
 30
0.0
  0
SPLINE
  5
314
100
AcDbEntity
  8
0
 62
7
100
AcDbSpline
 70
8
 71
3
 72
8
 73
4
 74
0
 40
0
 40
0
 40
0
 40
0
 40
1
 40
1
 40
1
 40
1
 10
44.415000
 20
215.145000
 30
0.0
 10
42.785575
 20
214.190010
 30
0.0
 10
40.833266
 20
213.952919
 30
0.0
 10
39.022624
 20
214.490142
 30
0.0
  0
SPLINE
  5
315
100
AcDbEntity
  8
0
 62
7
100
AcDbSpline
 70
8
 71
3
 72
8
 73
4
 74
0
 40
0
 40
0
 40
0
 40
0
 40
1
 40
1
 40
1
 40
1
 10
39.022624
 20
214.490142
 30
0.0
 10
37.211983
 20
215.027365
 30
0.0
 10
35.704905
 20
216.290868
 30
0.0
 10
34.860000
 20
217.980000
 30
0.0
  0
SPLINE
  5
316
100
AcDbEntity
  8
0
 62
7
100
AcDbSpline
 70
8
 71
3
 72
8
 73
4
 74
0
 40
0
 40
0
 40
0
 40
0
 40
1
 40
1
 40
1
 40
1
 10
68.985000
 20
118.545000
 30
0.0
 10
66.898989
 20
116.344733
 30
0.0
 10
63.611528
 20
115.784397
 30
0.0
 10
60.914421
 20
117.169398
 30
0.0
  0
SPLINE
  5
317
100
AcDbEntity
  8
0
 62
7
100
AcDbSpline
 70
8
 71
3
 72
8
 73
4
 74
0
 40
0
 40
0
 40
0
 40
0
 40
1
 40
1
 40
1
 40
1
 10
60.914421
 20
117.169398
 30
0.0
 10
58.217313
 20
118.554399
 30
0.0
 10
56.757239
 20
121.552659
 30
0.0
 10
57.330000
 20
124.530000
 30
0.0
  0
SPLINE
  5
318
100
AcDbEntity
  8
0
 62
7
100
AcDbSpline
 70
8
 71
3
 72
8
 73
4
 74
0
 40
0
 40
0
 40
0
 40
0
 40
1
 40
1
 40
1
 40
1
 10
132.090000
 20
136.290000
 30
0.0
 10
128.911149
 20
135.627214
 30
0.0
 10
125.705482
 20
137.295918
 30
0.0
 10
124.425000
 20
140.280000
 30
0.0
  0
SPLINE
  5
319
100
AcDbEntity
  8
0
 62
7
100
AcDbSpline
 70
8
 71
3
 72
8
 73
4
 74
0
 40
0
 40
0
 40
0
 40
0
 40
1
 40
1
 40
1
 40
1
 10
173.040000
 20
80.010000
 30
0.0
 10
169.929344
 20
81.479949
 30
0.0
 10
168.399144
 20
85.035412
 30
0.0
 10
169.470000
 20
88.305000
 30
0.0
  0
SPLINE
  5
31a
100
AcDbEntity
  8
0
 62
7
100
AcDbSpline
 70
8
 71
3
 72
8
 73
4
 74
0
 40
0
 40
0
 40
0
 40
0
 40
1
 40
1
 40
1
 40
1
 10
94.395000
 20
-18.060000
 30
0.0
 10
93.381789
 20
-15.318903
 30
0.0
 10
94.226172
 20
-12.236908
 30
0.0
 10
96.495000
 20
-10.395000
 30
0.0
  0
SPLINE
  5
31b
100
AcDbEntity
  8
0
 62
7
100
AcDbSpline
 70
8
 71
3
 72
8
 73
4
 74
0
 40
0
 40
0
 40
0
 40
0
 40
1
 40
1
 40
1
 40
1
 10
4.725000
 20
-46.095000
 30
0.0
 10
4.585869
 20
-43.076615
 30
0.0
 10
5.822410
 20
-40.157852
 30
0.0
 10
8.087516
 20
-38.158029
 30
0.0
  0
SPLINE
  5
31c
100
AcDbEntity
  8
0
 62
7
100
AcDbSpline
 70
8
 71
3
 72
8
 73
4
 74
0
 40
0
 40
0
 40
0
 40
0
 40
1
 40
1
 40
1
 40
1
 10
8.087516
 20
-38.158029
 30
0.0
 10
10.352623
 20
-36.158205
 30
0.0
 10
13.402123
 20
-35.292896
 30
0.0
 10
16.380000
 20
-35.805000
 30
0.0
  0
LWPOLYLINE
  5
31d
100
AcDbEntity
  8
0
 62
7
100
AcDbPolyline
 90
2
 70
0
 10
9.450000
 20
-136.710000
 30
0.0
 10
-9.450000
 20
-136.710000
 30
0.0
  0
LWPOLYLINE
  5
31e
100
AcDbEntity
  8
0
 62
7
100
AcDbPolyline
 90
2
 70
0
 10
0.000000
 20
76.440000
 30
0.0
 10
0.000000
 20
107.940000
 30
0.0
  0
LWPOLYLINE
  5
31f
100
AcDbEntity
  8
0
 62
7
100
AcDbPolyline
 90
2
 70
0
 10
0.000000
 20
76.440000
 30
0.0
 10
31.500000
 20
76.440000
 30
0.0
  0
LWPOLYLINE
  5
320
100
AcDbEntity
  8
0
 62
7
100
AcDbPolyline
 90
2
 70
0
 10
189.000000
 20
-112.560000
 30
0.0
 10
220.500000
 20
-112.560000
 30
0.0
  0
LWPOLYLINE
  5
321
100
AcDbEntity
  8
0
 62
7
100
AcDbPolyline
 90
2
 70
0
 10
189.000000
 20
-112.560000
 30
0.0
 10
157.500000
 20
-112.560000
 30
0.0
  0
LWPOLYLINE
  5
322
100
AcDbEntity
  8
0
 62
7
100
AcDbPolyline
 90
2
 70
0
 10
189.000000
 20
-112.560000
 30
0.0
 10
189.000000
 20
-144.060000
 30
0.0
  0
LWPOLYLINE
  5
323
100
AcDbEntity
  8
0
 62
7
100
AcDbPolyline
 90
2
 70
0
 10
189.000000
 20
-112.560000
 30
0.0
 10
189.000000
 20
-81.060000
 30
0.0
  0
ENDSEC
  0
SECTION
  2
OBJECTS
  0
DICTIONARY
  5
C
330
0
100
AcDbDictionary
  3
ACAD_GROUP
350
D
  3
ACAD_MLINESTYLE
350
17
  0
DICTIONARY
  5
D
330
C
100
AcDbDictionary
  0
DICTIONARY
  5
1A
330
C
100
AcDbDictionary
  0
DICTIONARY
  5
17
330
C
100
AcDbDictionary
  3
STANDARD
350
18
  0
DICTIONARY
  5
19
330
C
100
AcDbDictionary
  0
ENDSEC
  0
EOF
